<svg xmlns="http://www.w3.org/2000/svg" xmlns:xlink="http://www.w3.org/1999/xlink" width="1228" height="227" viewBox="0 0 1228 227">
  <defs>
    <clipPath id="clip-path">
      <path id="Rectángulo_33824" data-name="Rectángulo 33824" d="M0,0H1228V227H0Z" transform="translate(180 4246.831)" fill="#fff7da"/>
    </clipPath>
    <clipPath id="clip-path-2">
      <rect id="Rectángulo_460881" data-name="Rectángulo 460881" width="1221.379" height="511.565" fill="none"/>
    </clipPath>
    <clipPath id="clip-path-4">
      <rect id="Rectángulo_460858" data-name="Rectángulo 460858" width="1167.822" height="302.617" fill="#0a388b"/>
    </clipPath>
    <clipPath id="clip-path-5">
      <rect id="Rectángulo_460859" data-name="Rectángulo 460859" width="58.05" height="151.593" fill="none"/>
    </clipPath>
    <clipPath id="clip-path-6">
      <rect id="Rectángulo_460860" data-name="Rectángulo 460860" width="75.194" height="63.559" fill="none"/>
    </clipPath>
    <clipPath id="clip-path-7">
      <rect id="Rectángulo_460861" data-name="Rectángulo 460861" width="227.924" height="16.187" fill="none"/>
    </clipPath>
    <clipPath id="clip-path-8">
      <rect id="Rectángulo_460862" data-name="Rectángulo 460862" width="230.467" height="16.992" fill="none"/>
    </clipPath>
    <clipPath id="clip-path-9">
      <rect id="Rectángulo_460864" data-name="Rectángulo 460864" width="158.71" height="150.933" fill="#0d47ae"/>
    </clipPath>
    <clipPath id="clip-path-10">
      <rect id="Rectángulo_460865" data-name="Rectángulo 460865" width="126.975" height="20.269" fill="none"/>
    </clipPath>
    <clipPath id="clip-path-11">
      <rect id="Rectángulo_460867" data-name="Rectángulo 460867" width="752.987" height="125.931" fill="none"/>
    </clipPath>
    <clipPath id="clip-path-12">
      <rect id="Rectángulo_460868" data-name="Rectángulo 460868" width="49.543" height="39.146" fill="none"/>
    </clipPath>
    <clipPath id="clip-path-13">
      <rect id="Rectángulo_460880" data-name="Rectángulo 460880" width="1222" height="431" transform="translate(-0.311 -0.224)" fill="none"/>
    </clipPath>
  </defs>
  <g id="Grupo_1197966" data-name="Grupo 1197966" transform="translate(-185.711 -4985)">
    <g id="Enmascarar_grupo_1119133" data-name="Enmascarar grupo 1119133" transform="translate(5.711 738.169)" clip-path="url(#clip-path)">
      <g id="Grupo_80387" data-name="Grupo 80387" transform="translate(149.294 4018.188)">
        <g id="Grupo_80274" data-name="Grupo 80274">
          <path id="Rectángulo_33830" data-name="Rectángulo 33830" d="M0,0H1290V969H0Z" transform="translate(-0.293 -0.358)" fill="#b5c7e7"/>
        </g>
      </g>
      <g id="Grupo_1193223" data-name="Grupo 1193223" transform="translate(180.254 4197.057)">
        <g id="Enmascarar_grupo_1179271" data-name="Enmascarar grupo 1179271" clip-path="url(#clip-path-2)">
          <g id="Grupo_1193220" data-name="Grupo 1193220">
            <g id="Grupo_1193219" data-name="Grupo 1193219" clip-path="url(#clip-path-2)">
              <g id="Grupo_1193194" data-name="Grupo 1193194" transform="translate(29.693 61.668)" opacity="0.4" style="mix-blend-mode: multiply;isolation: isolate">
                <g id="Grupo_1193193" data-name="Grupo 1193193">
                  <g id="Grupo_1193192" data-name="Grupo 1193192" clip-path="url(#clip-path-4)">
                    <path id="Trazado_1004871" data-name="Trazado 1004871" d="M97.647,186.835C301.442-8.177,488.364,31.648,666.664,94.383S934.113,17.34,1139.928,131.8,848.266,405.856,564.307,322.211s-722,108.961-466.66-135.376" transform="translate(-20.665 -42.917)" fill="#0a388b"/>
                  </g>
                </g>
              </g>
              <g id="Grupo_1193197" data-name="Grupo 1193197" transform="translate(846.068 206.537)" opacity="0.4">
                <g id="Grupo_1193196" data-name="Grupo 1193196">
                  <g id="Grupo_1193195" data-name="Grupo 1193195" clip-path="url(#clip-path-5)">
                    <path id="Trazado_1004872" data-name="Trazado 1004872" d="M644.64,269.672H593.885V202.459H644.64Zm-50.1-.652h49.449V203.111H594.537Z" transform="translate(-586.59 -118.079)" fill="#fff"/>
                    <path id="Trazado_1004873" data-name="Trazado 1004873" d="M638.05,263.085H597.4V205.976H638.05Zm-40-.652H637.4v-55.8H598.053Z" transform="translate(-585.054 -116.542)" fill="#fff"/>
                    <path id="Trazado_1004874" data-name="Trazado 1004874" d="M596.756,269.672h-7.948V202.459h7.948Zm-7.3-.652H596.1V203.111H589.46Z" transform="translate(-588.808 -118.079)" fill="#fff"/>
                    <path id="Trazado_1004875" data-name="Trazado 1004875" d="M608.457,259.551H597.4V214.063h11.056Zm-10.4-.652H607.8V214.715h-9.751Z" transform="translate(-585.054 -113.009)" fill="#fff"/>
                    <path id="Trazado_1004876" data-name="Trazado 1004876" d="M608.457,224.718H597.4V220.45h11.056Zm-10.4-.654H607.8V221.1h-9.751Z" transform="translate(-585.054 -110.218)" fill="#fff"/>
                    <path id="Trazado_1004877" data-name="Trazado 1004877" d="M622.259,261.462l-.089-.313L608.513,212.87l10.639-3.009.088.313,13.656,48.28Zm-12.939-48.141,13.391,47.336L632.09,258,618.7,210.667Z" transform="translate(-580.198 -114.845)" fill="#fff"/>
                    <path id="Trazado_1004878" data-name="Trazado 1004878" d="M612.363,226.48l-1.162-4.108,10.639-3.009L623,223.471Zm-.356-3.657.807,2.851,9.382-2.654-.808-2.851Z" transform="translate(-579.024 -110.693)" fill="#fff"/>
                    <path id="Trazado_1004879" data-name="Trazado 1004879" d="M613.735,257.494h-9.094V218.773h9.094Zm-8.442-.652h7.79V219.427h-7.79Z" transform="translate(-581.89 -110.951)" fill="#fff"/>
                    <path id="Trazado_1004880" data-name="Trazado 1004880" d="M613.735,237.5h-9.094v-4.268h9.094Zm-8.442-.652h7.79v-2.963h-7.79Z" transform="translate(-581.89 -104.634)" fill="#fff"/>
                    <path id="Trazado_1004881" data-name="Trazado 1004881" d="M613.735,229.889h-9.094v-4.268h9.094Zm-8.442-.652h7.79v-2.963h-7.79Z" transform="translate(-581.89 -107.959)" fill="#fff"/>
                    <path id="Trazado_1004882" data-name="Trazado 1004882" d="M635.368,205.13H596.231V204.8a6.973,6.973,0,0,1,6.965-6.966H628.4a6.974,6.974,0,0,1,6.966,6.966Zm-38.476-.652h37.815a6.322,6.322,0,0,0-6.305-5.988H603.2a6.321,6.321,0,0,0-6.3,5.988" transform="translate(-585.565 -120.098)" fill="#fff"/>
                    <path id="Trazado_1004883" data-name="Trazado 1004883" d="M613.454,208.179h-5.529V175.667h5.529Zm-4.877-.652H612.8V176.321h-4.224Z" transform="translate(-580.455 -129.785)" fill="#fff"/>
                    <path id="Trazado_1004884" data-name="Trazado 1004884" d="M638.4,190.259H594.612l.247-.477A92.362,92.362,0,0,0,605,155.947a56.89,56.89,0,0,0,.027-11.839l-.053-.372h23.073l-.053.371c-.029.205-2.749,20.759,10.165,45.675Zm-42.721-.652h41.649a93.394,93.394,0,0,1-9.81-32.066,63.6,63.6,0,0,1-.221-13.152H605.716a60.93,60.93,0,0,1-.068,11.617,92.946,92.946,0,0,1-9.965,33.6" transform="translate(-586.272 -143.736)" fill="#fff"/>
                    <path id="Trazado_1004885" data-name="Trazado 1004885" d="M635.266,190.259h-6.818l-.06-.247c-5.449-21.718-11.254-33.387-17.746-35.676-2.6-.918-5.375-.279-8.259,1.9l-.588.445.066-.734a56.813,56.813,0,0,0,.026-11.839l-.053-.372h23.073l-.053.371c-.027.205-2.749,20.759,10.166,45.675Zm-6.308-.652h5.236a93.385,93.385,0,0,1-9.808-32.066,63.637,63.637,0,0,1-.223-13.152H602.577a59.816,59.816,0,0,1-.006,10.906c2.862-1.976,5.647-2.5,8.285-1.575,6.692,2.359,12.612,14.1,18.1,35.887" transform="translate(-583.134 -143.736)" fill="#fff"/>
                  </g>
                </g>
              </g>
              <path id="Trazado_1004886" data-name="Trazado 1004886" d="M459.984,90.094h39.443a6.992,6.992,0,0,1,6.972,6.972v19.585a6.991,6.991,0,0,1-6.972,6.97H488.642l-8.936,8.936-8.936-8.936H459.984a6.992,6.992,0,0,1-6.972-6.97V97.066a6.993,6.993,0,0,1,6.972-6.972" transform="translate(197.928 39.364)" fill="#fff"/>
              <g id="Grupo_1193200" data-name="Grupo 1193200" transform="translate(272.902 288.733)" opacity="0.4">
                <g id="Grupo_1193199" data-name="Grupo 1193199">
                  <g id="Grupo_1193198" data-name="Grupo 1193198" clip-path="url(#clip-path-6)">
                    <path id="Trazado_1004887" data-name="Trazado 1004887" d="M258.747,246.009h-67.86a.967.967,0,0,1-.966-.964v-.823a.967.967,0,0,1,.966-.966h67.447v.652H190.888a.313.313,0,0,0-.313.313v.823a.313.313,0,0,0,.313.312h67.86a.3.3,0,0,0,.118-.023l.241.606a.962.962,0,0,1-.359.069" transform="translate(-189.922 -182.45)" fill="#fff"/>
                    <path id="Trazado_1004888" data-name="Trazado 1004888" d="M238.956,248.788c-2.624,0-4.679-3.667-4.679-8.348s2.055-8.347,4.679-8.347,4.68,3.666,4.68,8.347-2.056,8.348-4.68,8.348m0-16.043c-2.22,0-4.026,3.453-4.026,7.695s1.806,7.7,4.026,7.7,4.028-3.453,4.028-7.7-1.808-7.695-4.028-7.695" transform="translate(-170.543 -187.328)" fill="#fff"/>
                    <path id="Trazado_1004889" data-name="Trazado 1004889" d="M237.533,251.526v-.652a4.734,4.734,0,0,0,3.328-1.486c1.753-1.753,2.8-4.86,2.8-8.311s-1.046-6.557-2.8-8.308a4.734,4.734,0,0,0-3.328-1.486v-.652a5.372,5.372,0,0,1,3.789,1.677c1.874,1.872,2.99,5.151,2.99,8.769s-1.116,6.9-2.99,8.772a5.372,5.372,0,0,1-3.789,1.677" transform="translate(-169.12 -187.967)" fill="#fff"/>
                    <path id="Trazado_1004890" data-name="Trazado 1004890" d="M258.335,249.426H192.062v-.652c1.292,0,2.73-3.161,2.73-7.7s-1.438-7.695-2.73-7.695h-1.174a.967.967,0,0,1-.966-.966v-.823a.967.967,0,0,1,.966-.964h67.858a.962.962,0,0,1,.359.069l-.239.606a.316.316,0,0,0-.121-.023H190.888a.313.313,0,0,0-.313.312v.823a.313.313,0,0,0,.313.313h67.447v.652H193.4c1.214,1.254,2.048,4.19,2.048,7.695s-.833,6.442-2.048,7.7h64.939Z" transform="translate(-189.922 -187.967)" fill="#fff"/>
                    <path id="Trazado_1004891" data-name="Trazado 1004891" d="M250.07,231.8H195.433a.842.842,0,0,1-.841-.842v-.662a.842.842,0,0,1,.841-.841h54.305v.652H195.433a.191.191,0,0,0-.188.188v.662a.191.191,0,0,0,.188.19H250.07l.316.589a.806.806,0,0,1-.316.063" transform="translate(-187.882 -188.481)" fill="#fff"/>
                    <path id="Trazado_1004892" data-name="Trazado 1004892" d="M234.135,234.033c-2.148,0-3.831-2.982-3.831-6.785s1.683-6.785,3.831-6.785,3.831,2.98,3.831,6.785-1.683,6.785-3.831,6.785m0-12.918c-1.723,0-3.178,2.809-3.178,6.133s1.456,6.131,3.178,6.131,3.178-2.808,3.178-6.131-1.456-6.133-3.178-6.133" transform="translate(-172.278 -192.409)" fill="#fff"/>
                    <path id="Trazado_1004893" data-name="Trazado 1004893" d="M232.97,236.239v-.652a3.744,3.744,0,0,0,2.634-1.18,10.995,10.995,0,0,0,0-13.291,3.746,3.746,0,0,0-2.634-1.177v-.652a4.381,4.381,0,0,1,3.1,1.368,11.619,11.619,0,0,1,0,14.214,4.388,4.388,0,0,1-3.1,1.371" transform="translate(-171.114 -192.923)" fill="#fff"/>
                    <path id="Trazado_1004894" data-name="Trazado 1004894" d="M249.738,234.546h-53.36v-.652c1.009,0,2.134-2.519,2.134-6.133s-1.125-6.133-2.134-6.133h-.947a.841.841,0,0,1-.841-.839v-.662a.842.842,0,0,1,.841-.841H250.07a.832.832,0,0,1,.316.062l-.249.6a.182.182,0,0,0-.068-.013H195.432a.191.191,0,0,0-.188.188v.662a.188.188,0,0,0,.188.187h54.307v.652H197.611c.935,1.07,1.553,3.357,1.553,6.133s-.618,5.064-1.553,6.133h52.127Z" transform="translate(-187.882 -192.923)" fill="#fff"/>
                    <path id="Trazado_1004895" data-name="Trazado 1004895" d="M241.217,210.945h-43.1a.732.732,0,0,1-.733-.731v-.523a.733.733,0,0,1,.733-.733h42.836v.652H198.12a.081.081,0,0,0-.08.08v.523a.08.08,0,0,0,.08.079h43.1l.274.6a.719.719,0,0,1-.274.053" transform="translate(-186.66 -197.435)" fill="#fff"/>
                    <path id="Trazado_1004896" data-name="Trazado 1004896" d="M228.648,212.71c-1.733,0-3.091-2.381-3.091-5.42s1.358-5.422,3.091-5.422,3.091,2.381,3.091,5.422-1.358,5.42-3.091,5.42m0-10.189c-1.322,0-2.438,2.184-2.438,4.769s1.116,4.768,2.438,4.768,2.438-2.184,2.438-4.768-1.116-4.769-2.438-4.769" transform="translate(-174.352 -200.533)" fill="#fff"/>
                    <path id="Trazado_1004897" data-name="Trazado 1004897" d="M227.708,214.449V213.8a2.886,2.886,0,0,0,2.029-.91,8.61,8.61,0,0,0,0-10.387,2.891,2.891,0,0,0-2.029-.908v-.652a3.527,3.527,0,0,1,2.49,1.1,9.236,9.236,0,0,1,0,11.311,3.526,3.526,0,0,1-2.49,1.1" transform="translate(-173.413 -200.939)" fill="#fff"/>
                    <path id="Trazado_1004898" data-name="Trazado 1004898" d="M240.956,213.115h-42.09v-.652c.762,0,1.615-2.039,1.615-4.768s-.854-4.769-1.615-4.769h-.746a.733.733,0,0,1-.733-.731v-.523a.733.733,0,0,1,.733-.731h43.1a.713.713,0,0,1,.274.053l-.244.6a.109.109,0,0,0-.03,0h-43.1a.079.079,0,0,0-.08.079v.523a.081.081,0,0,0,.08.079h42.836v.652H199.988a10.5,10.5,0,0,1,0,9.537h40.968Z" transform="translate(-186.66 -200.939)" fill="#fff"/>
                    <path id="Trazado_1004899" data-name="Trazado 1004899" d="M250.456,220.365H205.189a.754.754,0,0,1-.753-.753v-.549a.754.754,0,0,1,.753-.753h44.993v.652H205.189a.1.1,0,0,0-.1.1v.549a.1.1,0,0,0,.1.1h45.267l.277.6a.765.765,0,0,1-.277.052" transform="translate(-183.581 -193.349)" fill="#fff"/>
                    <path id="Trazado_1004900" data-name="Trazado 1004900" d="M237.254,222.216c-1.811,0-3.23-2.493-3.23-5.676s1.42-5.677,3.23-5.677,3.23,2.494,3.23,5.677-1.42,5.676-3.23,5.676m0-10.7c-1.4,0-2.578,2.3-2.578,5.025s1.181,5.023,2.578,5.023,2.578-2.3,2.578-5.023-1.18-5.025-2.578-5.025" transform="translate(-170.653 -196.603)" fill="#fff"/>
                    <path id="Trazado_1004901" data-name="Trazado 1004901" d="M236.272,224.045v-.652a3.045,3.045,0,0,0,2.142-.96,9.055,9.055,0,0,0,0-10.933,3.044,3.044,0,0,0-2.142-.958v-.654a3.689,3.689,0,0,1,2.6,1.151,9.68,9.68,0,0,1,0,11.856,3.689,3.689,0,0,1-2.6,1.151" transform="translate(-169.671 -197.029)" fill="#fff"/>
                    <path id="Trazado_1004902" data-name="Trazado 1004902" d="M250.182,222.643H205.973v-.652c.809,0,1.711-2.063,1.711-5.023s-.9-5.025-1.711-5.025h-.785a.755.755,0,0,1-.753-.753v-.549a.755.755,0,0,1,.753-.753h45.267a.737.737,0,0,1,.283.056l-.247.6a.088.088,0,0,0-.036-.009H205.189a.1.1,0,0,0-.1.1v.549a.1.1,0,0,0,.1.1h44.993v.652H207.12a10.979,10.979,0,0,1,0,10.048h43.062Z" transform="translate(-183.581 -197.029)" fill="#fff"/>
                  </g>
                </g>
              </g>
              <g id="Grupo_1193203" data-name="Grupo 1193203" transform="translate(597.937 371.957)" opacity="0.6" style="mix-blend-mode: multiply;isolation: isolate">
                <g id="Grupo_1193202" data-name="Grupo 1193202">
                  <g id="Grupo_1193201" data-name="Grupo 1193201" clip-path="url(#clip-path-7)">
                    <path id="Trazado_1004903" data-name="Trazado 1004903" d="M416.125,266.951c0,4.47,51.022,8.093,113.962,8.093s113.963-3.622,113.963-8.093-51.023-8.093-113.963-8.093-113.962,3.622-113.962,8.093" transform="translate(-416.125 -258.858)" fill="#0086dc"/>
                  </g>
                </g>
              </g>
              <g id="Grupo_1193206" data-name="Grupo 1193206" transform="translate(356.785 371.151)" opacity="0.6" style="mix-blend-mode: multiply;isolation: isolate">
                <g id="Grupo_1193205" data-name="Grupo 1193205">
                  <g id="Grupo_1193204" data-name="Grupo 1193204" clip-path="url(#clip-path-8)">
                    <path id="Trazado_1004904" data-name="Trazado 1004904" d="M248.3,266.793c0,4.693,51.591,8.5,115.233,8.5s115.234-3.8,115.234-8.5-51.592-8.5-115.234-8.5-115.233,3.8-115.233,8.5" transform="translate(-248.299 -258.297)" fill="#0086dc"/>
                  </g>
                </g>
              </g>
              <path id="Trazado_1004905" data-name="Trazado 1004905" d="M285.276,181.584a5.752,5.752,0,0,1,4.475-3.26c.277-.026.53-.026.809-.026,6.825,0,17.088,9.706,24.622,18.049a7.124,7.124,0,0,0,11.88-2.124A201.142,201.142,0,0,0,335.4,169.5a6.619,6.619,0,0,0,.177-.683,28.291,28.291,0,0,1,11.326,1.719,34.6,34.6,0,0,1,9.074,4.778,36.935,36.935,0,0,1,9.961,10.517c-.152.175-.279.353-.43.53-4.222,5.031-11.073,14.131-18.479,24.57a32.718,32.718,0,0,1-25.278,13.9c-.556.026-1.138.05-1.694.05a32.624,32.624,0,0,1-24.748-11.3c-7.709-8.847-15.7-21.588-10.035-32" transform="translate(123.807 73.74)" fill="#c4fddb"/>
              <path id="Trazado_1004906" data-name="Trazado 1004906" d="M343.233,232.06c1.264,3.383,2.371,6.512,3.319,9.7a83.849,83.849,0,0,1,2.4,9.8,106.893,106.893,0,0,1,1.391,12.139,4.038,4.038,0,0,0,4.015,3.762h42.993V264.3c-1.265-.19-17.987-2.466-28.1-10.59a25.733,25.733,0,0,1-3.414-3.256,79.257,79.257,0,0,1-4.015-8.693,50.32,50.32,0,0,1-2.813-10.622,30.333,30.333,0,0,0-15.774.917" transform="translate(149.964 100.715)" fill="#e6ab81"/>
              <path id="Trazado_1004907" data-name="Trazado 1004907" d="M347.215,245.164a106.893,106.893,0,0,1,1.391,12.139,4.038,4.038,0,0,0,4.015,3.762h42.993V257.9c-1.265-.19-17.987-2.466-28.1-10.59-7.84,1.233-14.889.316-20.3-2.15" transform="translate(151.704 107.116)" fill="#2b2438"/>
              <path id="Trazado_1004908" data-name="Trazado 1004908" d="M360.88,237.309c1.264,3.382,2.371,6.512,3.319,9.7a83.848,83.848,0,0,1,2.4,9.8,106.888,106.888,0,0,1,1.391,12.139,4.038,4.038,0,0,0,4.015,3.762H415v-3.161c-1.264-.19-17.987-2.466-28.1-10.59a25.734,25.734,0,0,1-3.414-3.256,79.268,79.268,0,0,1-4.015-8.693,50.321,50.321,0,0,1-2.813-10.622,30.333,30.333,0,0,0-15.774.917" transform="translate(157.674 103.009)" fill="#ffbe8f"/>
              <path id="Trazado_1004909" data-name="Trazado 1004909" d="M364.862,250.412a106.886,106.886,0,0,1,1.391,12.139,4.038,4.038,0,0,0,4.015,3.762H413.26v-3.161c-1.264-.19-17.987-2.466-28.1-10.59-7.84,1.233-14.889.316-20.295-2.15" transform="translate(159.414 109.409)" fill="#493d60"/>
              <path id="Trazado_1004910" data-name="Trazado 1004910" d="M291.539,246c-2.831-10.172,16.23-46.157,48.431-57.084a19.847,19.847,0,0,1,16.244,1.48c21.532,12.425,39.258,45.161,39.258,45.161s-9.787,19.611-35.727,22.735c-11.429-15.047-17.844-36.552-17.844-36.552s-11.709,26.6-21.387,31.181c-9.867,4.677-25.028,7.264-28.975-6.92" transform="translate(127.257 82.068)" fill="#1fb5ff"/>
              <path id="Trazado_1004911" data-name="Trazado 1004911" d="M482.07,178.583A10.572,10.572,0,0,1,471.5,189.156H315.261a7.7,7.7,0,0,1-7.7-7.7V97.574a7.7,7.7,0,0,1,7.7-7.7H474.368a7.7,7.7,0,0,1,7.7,7.7v81.009Z" transform="translate(134.377 39.266)" fill="#2b2438"/>
              <path id="Trazado_1004912" data-name="Trazado 1004912" d="M478.1,177.482a7.7,7.7,0,0,1-7.7,7.7H315.26a7.7,7.7,0,0,1-7.7-7.7V97.574a7.7,7.7,0,0,1,7.7-7.7H470.4a7.7,7.7,0,0,1,7.7,7.7v79.908Z" transform="translate(134.377 39.267)" fill="#493d60"/>
              <path id="Trazado_1004913" data-name="Trazado 1004913" d="M310.734,96.186a3.139,3.139,0,0,1,3.14-3.138H469.009a3.139,3.139,0,0,1,3.14,3.138v8.449H310.734Z" transform="translate(135.765 40.654)" fill="#caebff"/>
              <path id="Trazado_1004914" data-name="Trazado 1004914" d="M418.146,97.588a1.672,1.672,0,1,0,1.671-1.671,1.671,1.671,0,0,0-1.671,1.671" transform="translate(182.695 41.908)" fill="#a3dcff"/>
              <path id="Trazado_1004915" data-name="Trazado 1004915" d="M414.493,97.588a1.672,1.672,0,1,0,1.673-1.671,1.671,1.671,0,0,0-1.673,1.671" transform="translate(181.099 41.908)" fill="#a3dcff"/>
              <path id="Trazado_1004916" data-name="Trazado 1004916" d="M410.839,97.588a1.672,1.672,0,1,0,1.671-1.671,1.671,1.671,0,0,0-1.671,1.671" transform="translate(179.502 41.908)" fill="#a3dcff"/>
              <path id="Trazado_1004917" data-name="Trazado 1004917" d="M313.47,96.428l.862-.861,1.31,1.31,1.312-1.31.862.861L316.5,97.74l1.312,1.312-.862.861-1.312-1.31-1.31,1.31-.862-.861,1.312-1.312Z" transform="translate(136.96 41.755)" fill="#a3dcff"/>
              <path id="Rectángulo_460863" data-name="Rectángulo 460863" d="M.287,0H122.664a.286.286,0,0,1,.286.286V.673a.287.287,0,0,1-.287.287H.287A.287.287,0,0,1,0,.673V.287A.287.287,0,0,1,.287,0Z" transform="translate(460.673 139.016)" fill="#a3dcff"/>
              <path id="Trazado_1004918" data-name="Trazado 1004918" d="M315.191,167.109v-61.29a.248.248,0,0,1,.249-.249H463.545a.248.248,0,0,1,.249.249v61.29a.247.247,0,0,1-.249.247H315.44a.247.247,0,0,1-.249-.247M463.3,106.067H315.688V166.86H463.3Z" transform="translate(137.712 46.125)"/>
              <path id="Trazado_1004919" data-name="Trazado 1004919" d="M310.734,172.571a3.138,3.138,0,0,0,3.14,3.138H469.009a3.138,3.138,0,0,0,3.14-3.138V101.112H310.734Z" transform="translate(135.765 44.177)" fill="#a3dcff"/>
              <path id="Trazado_1004920" data-name="Trazado 1004920" d="M390.734,114.463v25.482a2.271,2.271,0,0,0,2.272,2.27h25.5a2.271,2.271,0,0,0,2.272-2.27V114.463a2.272,2.272,0,0,0-2.272-2.272h-25.5a2.272,2.272,0,0,0-2.272,2.272" transform="translate(170.718 49.018)" fill="#fff"/>
              <path id="Trazado_1004921" data-name="Trazado 1004921" d="M393.242,137.006h25.034a2.5,2.5,0,0,1,2.5,2.5v3.944a2.5,2.5,0,0,1-2.5,2.5H393.242a2.5,2.5,0,0,1-2.5-2.5v-3.944a2.5,2.5,0,0,1,2.5-2.5" transform="translate(170.72 59.86)" fill="#caebff"/>
              <path id="Trazado_1004922" data-name="Trazado 1004922" d="M390.734,120.911v15.223a2.272,2.272,0,0,0,2.272,2.272h25.5a2.272,2.272,0,0,0,2.272-2.272v-6.347l-10.061-8.015a3.023,3.023,0,0,0-3.729-.029l-6.166,4.759a3.021,3.021,0,0,1-3.837-.118Z" transform="translate(170.718 52.828)" fill="#caebff"/>
              <path id="Trazado_1004923" data-name="Trazado 1004923" d="M363.654,114.463v25.482a2.271,2.271,0,0,0,2.27,2.27h25.5a2.271,2.271,0,0,0,2.272-2.27V114.463a2.272,2.272,0,0,0-2.272-2.272h-25.5a2.272,2.272,0,0,0-2.27,2.272" transform="translate(158.886 49.018)" fill="#fff"/>
              <path id="Trazado_1004924" data-name="Trazado 1004924" d="M366.162,137.006h25.033a2.5,2.5,0,0,1,2.5,2.5v3.944a2.5,2.5,0,0,1-2.5,2.5H366.162a2.5,2.5,0,0,1-2.5-2.5v-3.944a2.5,2.5,0,0,1,2.5-2.5" transform="translate(158.889 59.86)" fill="#caebff"/>
              <path id="Trazado_1004925" data-name="Trazado 1004925" d="M363.654,120.911v15.223a2.272,2.272,0,0,0,2.27,2.272h25.5a2.272,2.272,0,0,0,2.272-2.272v-6.347l-10.061-8.015a3.023,3.023,0,0,0-3.729-.029l-6.166,4.759a3.021,3.021,0,0,1-3.837-.118Z" transform="translate(158.886 52.828)" fill="#caebff"/>
              <path id="Trazado_1004926" data-name="Trazado 1004926" d="M336.574,114.463v25.482a2.27,2.27,0,0,0,2.27,2.27h25.5a2.271,2.271,0,0,0,2.272-2.27V114.463a2.272,2.272,0,0,0-2.272-2.272h-25.5a2.271,2.271,0,0,0-2.27,2.272" transform="translate(147.055 49.018)" fill="#fff"/>
              <path id="Trazado_1004927" data-name="Trazado 1004927" d="M339.082,137.006h25.034a2.5,2.5,0,0,1,2.5,2.5v3.944a2.5,2.5,0,0,1-2.5,2.5H339.082a2.5,2.5,0,0,1-2.5-2.5v-3.944a2.5,2.5,0,0,1,2.5-2.5" transform="translate(147.057 59.86)" fill="#caebff"/>
              <path id="Trazado_1004928" data-name="Trazado 1004928" d="M336.574,120.911v15.223a2.271,2.271,0,0,0,2.27,2.272h25.5a2.272,2.272,0,0,0,2.272-2.272v-6.347l-10.063-8.015a3.021,3.021,0,0,0-3.727-.029l-6.166,4.759a3.021,3.021,0,0,1-3.837-.118Z" transform="translate(147.055 52.828)" fill="#caebff"/>
              <path id="Trazado_1004929" data-name="Trazado 1004929" d="M322.326,143.839h10.14a.993.993,0,1,0,0-1.986h-10.14a.993.993,0,0,0,0,1.986" transform="translate(140.396 61.978)" fill="#caebff"/>
              <path id="Trazado_1004930" data-name="Trazado 1004930" d="M322.326,137.906h10.14a.993.993,0,1,0,0-1.986h-10.14a.993.993,0,0,0,0,1.986" transform="translate(140.396 59.386)" fill="#caebff"/>
              <path id="Trazado_1004931" data-name="Trazado 1004931" d="M322.326,131.974h10.14a.993.993,0,1,0,0-1.986h-10.14a.993.993,0,0,0,0,1.986" transform="translate(140.396 56.794)" fill="#caebff"/>
              <path id="Trazado_1004932" data-name="Trazado 1004932" d="M322.326,126.042h10.14a.993.993,0,1,0,0-1.986h-10.14a.993.993,0,0,0,0,1.986" transform="translate(140.396 54.202)" fill="#caebff"/>
              <path id="Trazado_1004933" data-name="Trazado 1004933" d="M322.326,120.109h10.14a.993.993,0,1,0,0-1.986h-10.14a.993.993,0,0,0,0,1.986" transform="translate(140.396 51.61)" fill="#caebff"/>
              <path id="Trazado_1004934" data-name="Trazado 1004934" d="M322.326,114.177h10.14a.993.993,0,1,0,0-1.986h-10.14a.993.993,0,0,0,0,1.986" transform="translate(140.396 49.018)" fill="#caebff"/>
              <path id="Trazado_1004935" data-name="Trazado 1004935" d="M272.4,102.662a15.492,15.492,0,1,1,26.321,11.067,12.63,12.63,0,0,0-3.571,9.08V129H280.627v-6.593a11.968,11.968,0,0,0-3.516-8.629,15.435,15.435,0,0,1-4.713-11.12" transform="translate(119.015 38.087)" fill="#ffb155"/>
              <path id="Trazado_1004936" data-name="Trazado 1004936" d="M278.5,119.641h14.917a1.678,1.678,0,0,0,0-3.357H278.5a1.678,1.678,0,0,0,0,3.357" transform="translate(120.947 50.806)" fill="#2b2438"/>
              <path id="Trazado_1004937" data-name="Trazado 1004937" d="M278.5,124.314h14.917a1.678,1.678,0,1,0,0-3.357H278.5a1.678,1.678,0,1,0,0,3.357" transform="translate(120.947 52.848)" fill="#2b2438"/>
              <path id="Trazado_1004938" data-name="Trazado 1004938" d="M278.5,121.977h14.917a1.678,1.678,0,0,0,0-3.357H278.5a1.678,1.678,0,0,0,0,3.357" transform="translate(120.947 51.827)" fill="#493d60"/>
              <path id="Trazado_1004939" data-name="Trazado 1004939" d="M278.125,123.293a2.731,2.731,0,0,0,2.73,2.73h9.061a2.731,2.731,0,0,0,2.73-2.73Z" transform="translate(121.517 53.869)" fill="#493d60"/>
              <path id="Trazado_1004940" data-name="Trazado 1004940" d="M305.08,246.317c-1.91-10.938,21.762-46.625,56.593-54.728a20.874,20.874,0,0,1,16.846,3.23c21.248,15.231,36.409,51.325,36.409,51.325s-12.27,19.512-39.742,20.1c-10.4-16.931-14.891-40.1-14.891-40.1s-15.006,26.62-25.609,30.418c-10.81,3.872-26.944,5.011-29.606-10.241" transform="translate(133.247 83.465)" fill="#61ccff"/>
              <path id="Trazado_1004941" data-name="Trazado 1004941" d="M396.845,257l.6-.213c-9.038-25.331-19.508-44.33-31.125-56.469a8.455,8.455,0,0,0-8.864-2.174c-19.357,6.791-39.505,34.483-47.073,56.247l.6.207c7.519-21.624,27.5-49.127,46.683-55.856a7.8,7.8,0,0,1,8.2,2.015c11.553,12.073,21.976,31,30.981,56.244" transform="translate(135.61 86.373)" fill="#00d0de"/>
              <path id="Trazado_1004942" data-name="Trazado 1004942" d="M304.861,162.8s4.345,12.293-6.032,11.059l.119,6.41.313,14.914L276.8,197.453a70.759,70.759,0,0,0,9.464-30.313c-7.782-1.586-9.767-11.01-2.793-14.787.552-6.361,13.376-12.312,19.16-1.7a28.41,28.41,0,0,0,5.467,11.413Z" transform="translate(120.938 63.281)" fill="#ffbe8f"/>
              <path id="Trazado_1004943" data-name="Trazado 1004943" d="M284.624,254.268c7.243,0,45.211-10.865,63.374-27.991-9.136-12.85-17.556-24.215-24.034-31.566-14.668-16.74-25.841-23.435-34.158-20.475-13.878,4.947-23.847,28.81-6.262,79.788a.314.314,0,0,0,.266.21,7.966,7.966,0,0,0,.815.034" transform="translate(119.774 75.83)" fill="#c4fddb"/>
              <path id="Trazado_1004944" data-name="Trazado 1004944" d="M285.476,158.292a.316.316,0,0,0,.23-.533l-2.753-2.937a.316.316,0,1,0-.458.434l2.752,2.937a.32.32,0,0,0,.23.1" transform="translate(123.389 67.601)" fill="#e6ab81"/>
              <path id="Trazado_1004945" data-name="Trazado 1004945" d="M282.826,158.165a.321.321,0,0,0,.24-.109l2.516-2.9a.321.321,0,0,0-.033-.447.316.316,0,0,0-.447.033l-2.515,2.9a.318.318,0,0,0,.032.447.31.31,0,0,0,.207.076" transform="translate(123.433 67.563)" fill="#e6ab81"/>
              <path id="Trazado_1004946" data-name="Trazado 1004946" d="M294.489,153.173c.335,1.49.226,2.785-.243,2.89s-1.121-1.017-1.456-2.509-.226-2.783.243-2.89,1.121,1.019,1.456,2.509" transform="translate(127.84 65.825)" fill="#2b2438"/>
              <path id="Trazado_1004947" data-name="Trazado 1004947" d="M307.595,146.813c-.81-6.771-8.073-10.372-12.692-3.877-2.74-4.47-10.175-4.164-10.191,2.6-2.707-.625-7.919-.951-9.948,4.653-1.509,4.167,2.312,7.429,2.312,7.429s-6.232,7.088.137,13.243c5.44,5.256,13.228-.522,13.8-3.969,0,0-8.051,1.2-7.009-4.825.447-2.581,2.152-3.337,3.693-3.266,4.589.216,8.85,11.521,3.763,14.1,4.335,11.594,21.169,9.55,21.169,9.55L313.8,180.7c-3.995-5.634-6.463-15.892-6.463-15.892l-1.407.316-6.512,1.608-4.018-13.81.057.019c5.288,1.736,12.944.648,12.135-6.123" transform="translate(119.866 60.96)" fill="#2b2438"/>
              <path id="Trazado_1004948" data-name="Trazado 1004948" d="M329.715,237.555c-18.249-36.4-33.585-61.473-42.977-58.22-10.306,3.569,4.919,58.543,13.924,76.3Z" transform="translate(123.774 78.231)" fill="#3ef989"/>
              <path id="Trazado_1004949" data-name="Trazado 1004949" d="M247.671,260.995A60.559,60.559,0,0,0,307.58,311.7h56.574a45.23,45.23,0,0,0,39.864-23.863,42.143,42.143,0,0,0,4.6-25.81c-2.7-19.464-17.29-30.309-37.715-30.309-11.88,0-19.717,1.971-24.874,4.575-11.856,5.966-26.491,2.528-33.469-8.771-10.238-16.608-12.26-38.07-19.641-57.811-5.284-14.056-24.09-15.572-31.547-3.338a15.669,15.669,0,0,0-1.086,2.048,160.312,160.312,0,0,0-12.615,92.57" transform="translate(107.315 69.078)" fill="#fff"/>
              <path id="Trazado_1004950" data-name="Trazado 1004950" d="M319.7,168.819a19.577,19.577,0,0,0,7.129,9.353,35.967,35.967,0,0,0,8.721,4.954,35.106,35.106,0,0,0,14.51,2.7,36.963,36.963,0,0,0-9.959-10.515,3.764,3.764,0,0,0-.405-.277,34.052,34.052,0,0,0-8.619-4.475c-.026-.026-.026-.026-.052-.026a28.281,28.281,0,0,0-11.324-1.719" transform="translate(139.683 73.74)" fill="#2b2438"/>
              <path id="Trazado_1004951" data-name="Trazado 1004951" d="M324.664,186.2a35.967,35.967,0,0,0,8.721,4.954c.708-1.466,2.326-5.081,4.146-8.09a18.3,18.3,0,0,1,2.579-3.538c10.742-10.82,4.651-15.016,15.42-23.433-7.913-5.789-15.42-5.689-15.42-5.689a208.7,208.7,0,0,1-11.2,28.187.652.652,0,0,0-.1.177c-1.315,2.6-2.7,5.107-4.146,7.432" transform="translate(141.851 65.714)" fill="#ffbe8f"/>
              <path id="Trazado_1004952" data-name="Trazado 1004952" d="M329.349,173.448h12.139l13.557-30.461H341.488l-.8,2.029-10.53,26.436Z" transform="translate(143.898 62.473)" fill="#2b2438"/>
              <path id="Trazado_1004953" data-name="Trazado 1004953" d="M329.91,170.835h9.725L351.387,144.4H340.439Z" transform="translate(144.143 63.09)" fill="#493d60"/>
              <g id="Grupo_1193209" data-name="Grupo 1193209" transform="translate(352.94 229.858)" opacity="0.6" style="mix-blend-mode: multiply;isolation: isolate">
                <g id="Grupo_1193208" data-name="Grupo 1193208">
                  <g id="Grupo_1193207" data-name="Grupo 1193207" clip-path="url(#clip-path-9)">
                    <path id="Trazado_1004954" data-name="Trazado 1004954" d="M247.682,260.174a59.666,59.666,0,0,0,14.511,30.457A60.857,60.857,0,0,0,307.587,310.9H364.15a45.441,45.441,0,0,0,39.874-23.877c4.006-26.319-31.491-27.99-79.219-10.9-57.306,20.535-50.513-36.637-40.7-78.635,8.065-34.542-11.514-45.366-22.736-31.915a14.941,14.941,0,0,0-1.088,2.043,160.245,160.245,0,0,0-12.6,92.563" transform="translate(-245.623 -159.966)" fill="#0d47ae"/>
                  </g>
                </g>
              </g>
              <g id="Grupo_1193212" data-name="Grupo 1193212" transform="translate(369.51 360.522)" opacity="0.6" style="mix-blend-mode: multiply;isolation: isolate">
                <g id="Grupo_1193211" data-name="Grupo 1193211">
                  <g id="Grupo_1193210" data-name="Grupo 1193210" clip-path="url(#clip-path-10)">
                    <path id="Trazado_1004955" data-name="Trazado 1004955" d="M257.155,250.9a60.857,60.857,0,0,0,45.394,20.269H359.11a44.743,44.743,0,0,0,25.018-7.588c-20.454.956-29.687-15.6-58.579-7.587-27.75,7.746-49,9.179-68.394-5.094" transform="translate(-257.155 -250.9)" fill="#0086dc"/>
                  </g>
                </g>
              </g>
              <path id="Trazado_1004956" data-name="Trazado 1004956" d="M523.51,151.711C541.094,147,562.4,140.753,554,128.954c-7.7-10.813-28.25,8.6-29.645-1.977-.842-6.161.582-12.148,2.5-15.461-.466-4.36-8.69-13.05-18.979-10.027-10.433,23.774-1.947,54.929,15.636,50.222" transform="translate(219.912 44.069)" fill="#0cebf3"/>
              <path id="Trazado_1004957" data-name="Trazado 1004957" d="M524.209,110.658s-1.4,11.684,7.5,8.545l1.164,5.667,2.673,13.194,20.229-2.44A63.865,63.865,0,0,1,541.444,110.8c6.539-2.936,6.423-11.626-.464-13.573-1.744-5.492-14.213-8.195-17.207,2.3a25.638,25.638,0,0,1-2.556,11.132Z" transform="translate(227.728 40.364)" fill="#ffbe8f"/>
              <path id="Trazado_1004958" data-name="Trazado 1004958" d="M524.559,192.43c30.1,10.127,54.047,1.806,57.659-1.4q-2.366-10.992-5.012-20.179c-6.515-22.7-14.2-37.506-21.654-45.726-5.548-6.107-10.992-8.55-15.751-7.837-6.183.941-9.9,10.025-12.086,23.334-2.341,14.1-2.977,32.951-3.155,51.807" transform="translate(229.188 51.193)" fill="#b5f9fc"/>
              <path id="Trazado_1004959" data-name="Trazado 1004959" d="M524.553,172.232c1.279.435,2.558.813,3.808,1.191A87.793,87.793,0,0,0,541,176.156a82.582,82.582,0,0,0,27.988-.523,53.052,53.052,0,0,0,5.9-1.483c3.778-1.162,6.335-2.441,7.324-3.314a43.829,43.829,0,0,0-6.511-3.2,52.228,52.228,0,0,0-5.812-1.947,64.908,64.908,0,0,0-28.714-1.25,37.322,37.322,0,0,0-12.817,4.825,22.679,22.679,0,0,0-3.808,2.964" transform="translate(229.186 71.385)" fill="#2b2438"/>
              <path id="Trazado_1004960" data-name="Trazado 1004960" d="M524.559,187.566c2.188-26.718,10.229-45.369,18.4-59.263a82.663,82.663,0,0,0-15.241,7.456c-2.341,14.1-2.977,32.951-3.155,51.807" transform="translate(229.188 56.058)" fill="#2b2438"/>
              <path id="Trazado_1004961" data-name="Trazado 1004961" d="M548.948,274.245H519.562l.565-2.745s7.048-1.855,17.458-8.844a35.06,35.06,0,0,0,4.217-3.329c-1.162-13.978-.818-9.734-1.558-18.73a35.288,35.288,0,0,1,13.947,1.016c-.359,3.964-.8,10.675-.973,16.951-.148,4.295-.182,8.413.01,11.31a4.424,4.424,0,0,1-4.281,4.371" transform="translate(227.005 105.01)" fill="#ffbe8f"/>
              <path id="Trazado_1004962" data-name="Trazado 1004962" d="M548.948,268.705H519.562l.565-2.745s7.048-1.855,17.458-8.844a22.7,22.7,0,0,0,15.634-4.092c-.148,4.295-.182,8.413.01,11.31a4.424,4.424,0,0,1-4.281,4.371" transform="translate(227.005 110.55)" fill="#493d60"/>
              <path id="Trazado_1004963" data-name="Trazado 1004963" d="M539.017,210.131c3.226,20.693,15.984,46.647,25.633,63.125.175.233.292.466.437.7,1.308,2.209,2.558,4.243,3.691,6.045,8.195.116,22.379-7.935,23.221-18.95-1.249-1.8-2.411-3.6-3.516-5.406-.145-.233-.29-.464-.407-.668C564.709,216.99,568.6,183.1,570.726,167.64a64.335,64.335,0,0,0-34.528-3.2c-.93,12.033.9,33.423,2.819,45.688" transform="translate(234.165 71.385)" fill="#1fb5ff"/>
              <path id="Trazado_1004964" data-name="Trazado 1004964" d="M528.517,112.231l1.162,5.667a29.712,29.712,0,0,1,4.039-9.561,26.26,26.26,0,0,1-5.2,3.894" transform="translate(230.918 47.334)" fill="#e6ab81"/>
              <path id="Trazado_1004965" data-name="Trazado 1004965" d="M538.545,104.461a.877.877,0,0,1-1.3-.615c-1-5.279-1.657-5.854-5.558-3.526-4.312,2.575-11.27,3.131-11.9-2.992s1.948-10.573,9.67-8.417,16.023-7.794,21.009,2.852a7.586,7.586,0,0,1-1.67,9.044s6.89,5.008,2.5,11.688c-2.938,4.469-8.486,3.259-11.319,1.119a1.3,1.3,0,0,1,.438-2.278c1.987-.579,4.518-1.973,3.164-5.242a3.217,3.217,0,0,0-5.035-1.634" transform="translate(227.064 37.901)" fill="#2b2438"/>
              <path id="Trazado_1004966" data-name="Trazado 1004966" d="M533.717,103.887a.363.363,0,0,0,.313-.178l1.844-3.13a.364.364,0,1,0-.626-.369l-1.844,3.13a.365.365,0,0,0,.129.5.372.372,0,0,0,.184.049" transform="translate(233.031 43.706)" fill="#e6ab81"/>
              <path id="Trazado_1004967" data-name="Trazado 1004967" d="M536.138,103.1a.363.363,0,0,0,.216-.655l-2.788-2.052a.363.363,0,0,0-.431.585l2.788,2.052a.364.364,0,0,0,.216.07" transform="translate(232.871 43.833)" fill="#e6ab81"/>
              <path id="Trazado_1004968" data-name="Trazado 1004968" d="M520.252,101.778c0,1.984.611,3.992,1.777,3.992s1.777-2.007,1.777-3.992c0-.06-.006-.122-.007-.182a.976.976,0,0,1,.74-.385h.009c.5,0,1.045.44,1.578,1.249a7.905,7.905,0,0,0-.056.934c0,2.661,1.289,4.746,2.937,4.746s2.937-2.085,2.937-4.746-1.289-4.746-2.937-4.746c-1.224,0-2.25,1.155-2.7,2.841a2.371,2.371,0,0,0-1.762-1h-.014a1.609,1.609,0,0,0-.793.231c-.18-1.578-.756-2.93-1.711-2.93-1.167,0-1.777,2.01-1.777,3.993m6.544,1.615c0-2.178,1.012-4.019,2.211-4.019s2.211,1.841,2.211,4.019-1.013,4.019-2.211,4.019-2.211-1.841-2.211-4.019m-5.817-1.615c0-1.993.622-3.266,1.05-3.266s1.052,1.273,1.052,3.266-.624,3.265-1.052,3.265-1.05-1.3-1.05-3.265" transform="translate(227.307 42.724)" fill="#2b2438"/>
              <path id="Trazado_1004969" data-name="Trazado 1004969" d="M525.544,102.46c0,1.379.352,2.5.786,2.5s.786-1.118.786-2.5-.352-2.5-.786-2.5-.786,1.118-.786,2.5" transform="translate(229.619 43.675)" fill="#2b2438"/>
              <path id="Trazado_1004970" data-name="Trazado 1004970" d="M568.457,261.442a.362.362,0,0,0,.31-.552c-18.015-29.562-24.669-62.254-19.779-97.167a.364.364,0,0,0-.309-.411.355.355,0,0,0-.412.309c-4.913,35.085,1.776,67.939,19.88,97.647a.364.364,0,0,0,.31.174" transform="translate(238.864 71.353)" fill="#61ccff"/>
              <path id="Trazado_1004971" data-name="Trazado 1004971" d="M506.491,101.49a18.881,18.881,0,0,0,5.028,5.551,20.037,20.037,0,0,0,6.627,3.342,25.755,25.755,0,0,0,7.324,1.134c-.233-2.237-2.529-5.638-6.1-7.992a15.764,15.764,0,0,0-5.871-2.413,14.894,14.894,0,0,0-7,.378" transform="translate(221.294 44.067)" fill="#2b2438"/>
              <path id="Trazado_1004972" data-name="Trazado 1004972" d="M527.2,169.271v2.237c0,6.423.116,14.445.29,23.31.494,26.419,1.512,60.248,2.239,81.378,0,.261.029.523.029.785.057,2.121.144,4.1.2,5.9,0,0,14.648,6.686,28.016,0,.147-1.655.292-3.312.464-4.911a6.871,6.871,0,0,1,.06-.785c6.917-75.07,8.632-93.961,9.328-101.577.378-4.213.464-5.028.9-9.91a66.97,66.97,0,0,0-23.192-2.063c-6.919.639-13.37,2.47-18.339,5.638" transform="translate(230.344 71.383)" fill="#61ccff"/>
              <path id="Trazado_1004973" data-name="Trazado 1004973" d="M527.2,169.269v2.237c11.567-2.121,28.337-2.411,40.63,4.1.378-4.213.464-5.028.9-9.91-13.921-3.808-31.039-3.109-41.531,3.575" transform="translate(230.344 71.384)" fill="#1fb5ff"/>
              <path id="Trazado_1004974" data-name="Trazado 1004974" d="M527.2,169.193v2.237c0,6.423.116,14.445.29,23.31a48.681,48.681,0,0,1,9.214-4.709,11.458,11.458,0,0,0,7.15-9.3c.522-4.186,1.162-10,1.685-17.177-6.919.639-13.37,2.47-18.339,5.638" transform="translate(230.344 71.46)" fill="#1fb5ff"/>
              <path id="Trazado_1004975" data-name="Trazado 1004975" d="M528.962,241.891c0,.262.029.523.029.785,3.836,2.47,9.8,3.953,15.782,3.953a26.581,26.581,0,0,0,12.9-2.964,7.2,7.2,0,0,1,.057-.785.422.422,0,0,0-.2.057c-8.2,4.766-21.712,3.4-28.366-.989a.281.281,0,0,0-.2-.057" transform="translate(231.112 105.686)" fill="#00d0de"/>
              <path id="Trazado_1004976" data-name="Trazado 1004976" d="M558.8,250.3a21.337,21.337,0,0,0,8.167-1.859,22.99,22.99,0,0,0,2.121-.96,29.1,29.1,0,0,0,8.37-6.335,12.071,12.071,0,0,0,1.25-1.483,16.119,16.119,0,0,0,3.313-8.313,17.441,17.441,0,0,0-7.353,1.773c-.088.059-.2.088-.292.145a31.58,31.58,0,0,0-9.649,7.179c-.464.494-.93,1.017-1.336,1.54A23.136,23.136,0,0,0,558.8,250.3" transform="translate(244.147 101.082)" fill="#2b2438"/>
              <path id="Trazado_1004977" data-name="Trazado 1004977" d="M555.924,245.411c.174.233.29.466.435.7a.384.384,0,0,0,.175-.2c4.562-14.56,17.467-18.427,22.989-18.049h.029a.427.427,0,0,0,.2-.057c-.145-.233-.292-.466-.408-.668-5.812-.29-18.687,3.749-23.425,18.28" transform="translate(242.892 99.231)" fill="#61ccff"/>
              <path id="Trazado_1004978" data-name="Trazado 1004978" d="M516.617,112.726c-.552-3.052-.057-5.929,1.221-6.858a1.569,1.569,0,0,1,1.046-.349,8.407,8.407,0,0,0,5-1.424l-.2-1.046s-7.091.785-5.841-3.052c1.453-4.447,6.1-.843,6.1-.843l.727-.987c-6.337-5.2-10.928-1.8-11.916,1.831-.29,1.075-.523,2.237-.785,3.459a24.948,24.948,0,0,1-1.977,5.929,20.037,20.037,0,0,0,6.627,3.342" transform="translate(222.823 41.725)" fill="#ffbe8f"/>
              <path id="Trazado_1004979" data-name="Trazado 1004979" d="M557.016,274.933l.611,2.7,26.593-11.888a4.35,4.35,0,0,0,2.092-5.667c-1.336-2.558-2.964-6.278-4.592-10.231-1.075-2.586-2.325-5.957-3.487-9.241-1.046-2.995-2.035-5.9-2.791-8.022-.086.059-.2.088-.29.145a31.58,31.58,0,0,0-9.649,7.179c-.466.494-.93,1.017-1.336,1.54,1.657,2.993,1.89,3.4,3.575,6.452.842,1.512,2.063,3.72,3.982,7.238a38.684,38.684,0,0,1-2.471,4.738c-6.6,10.521-12.235,15.055-12.235,15.055" transform="translate(243.369 101.621)" fill="#ffbe8f"/>
              <path id="Trazado_1004980" data-name="Trazado 1004980" d="M584.2,260.51l-26.584,11.876-.6-2.711s5.625-4.526,12.22-15.056a22.49,22.49,0,0,0,12.488-10.02c1.6,3.944,3.236,7.683,4.579,10.227a4.384,4.384,0,0,1-2.105,5.684" transform="translate(243.372 106.869)" fill="#2b2438"/>
              <path id="Trazado_1004981" data-name="Trazado 1004981" d="M546.128,122.707c.941,13.766,6.794,33.766,21.654,45.726-6.515-22.7-14.2-37.506-21.654-45.726" transform="translate(238.612 53.613)" fill="#09bcc2"/>
              <path id="Trazado_1004982" data-name="Trazado 1004982" d="M411.783,141.771V246.347a5.989,5.989,0,0,0,5.96,6.016H630.821a5.989,5.989,0,0,0,5.96-6.016V141.771a5.988,5.988,0,0,0-5.96-6.016H417.743a5.988,5.988,0,0,0-5.96,6.016" transform="translate(179.915 59.314)" fill="#2b2438"/>
              <path id="Trazado_1004983" data-name="Trazado 1004983" d="M411.783,141.639V243.917a5.883,5.883,0,0,0,5.884,5.884H628.014a5.884,5.884,0,0,0,5.886-5.884V141.639a5.886,5.886,0,0,0-5.886-5.884H417.667a5.885,5.885,0,0,0-5.884,5.884" transform="translate(179.915 59.314)" fill="#493d60"/>
              <path id="Trazado_1004984" data-name="Trazado 1004984" d="M416.594,140.283V242.561a1.425,1.425,0,0,0,1.424,1.424H623.46a1.425,1.425,0,0,0,1.424-1.424V140.283a1.423,1.423,0,0,0-1.424-1.423H418.018a1.423,1.423,0,0,0-1.424,1.423" transform="translate(182.017 60.67)" fill="#caebff"/>
              <path id="Trazado_1004985" data-name="Trazado 1004985" d="M555.958,166.652v19.627a1.265,1.265,0,0,0,1.262,1.262h.138a1.265,1.265,0,0,0,1.262-1.262V166.652a1.265,1.265,0,0,0-1.262-1.262h-.138a1.265,1.265,0,0,0-1.262,1.262" transform="translate(242.907 72.262)" fill="#2b2438"/>
              <path id="Trazado_1004986" data-name="Trazado 1004986" d="M557.289,183.637a1.331,1.331,0,1,0,1.331,1.331,1.331,1.331,0,0,0-1.331-1.331" transform="translate(242.907 80.234)" fill="#2b2438"/>
              <path id="Trazado_1004987" data-name="Trazado 1004987" d="M424.234,151.081V224.67a4.1,4.1,0,0,0,4.1,4.1h54.893a4.1,4.1,0,0,0,4.1-4.1V151.081a4.1,4.1,0,0,0-4.1-4.1H428.335a4.1,4.1,0,0,0-4.1,4.1" transform="translate(185.355 64.218)" fill="#fff"/>
              <path id="Trazado_1004988" data-name="Trazado 1004988" d="M475.977,151.746v72.2a4.872,4.872,0,0,0,4.873,4.873h43.829a4.872,4.872,0,0,0,4.871-4.873v-72.2a4.872,4.872,0,0,0-4.871-4.873H480.85a4.872,4.872,0,0,0-4.873,4.873" transform="translate(207.962 64.171)" fill="#fff"/>
              <path id="Trazado_1004989" data-name="Trazado 1004989" d="M522.119,181.218V211.5a4.1,4.1,0,0,0,4.1,4.1h27.751a4.1,4.1,0,0,0,4.1-4.1V181.218a4.1,4.1,0,0,0-4.1-4.1H526.22a4.1,4.1,0,0,0-4.1,4.1" transform="translate(228.122 77.385)" fill="#fff"/>
              <path id="Trazado_1004990" data-name="Trazado 1004990" d="M522.119,164.956a17.976,17.976,0,1,0,17.976-17.976,17.976,17.976,0,0,0-17.976,17.976" transform="translate(228.122 64.218)" fill="#fff"/>
              <path id="Trazado_1004991" data-name="Trazado 1004991" d="M497.447,177.519c33.894-15.99,73.528-46.44,63.742-58.932-4.865-6.2-13.092-.9-28.4,12.054s-29,19.516-45.539,22.114c-3.936,9.293,1.313,22.877,10.2,24.764" transform="translate(212.309 50.681)" fill="#0cebf3"/>
              <path id="Trazado_1004992" data-name="Trazado 1004992" d="M485.938,149.04a21.594,21.594,0,0,0,1.339,6.97c1.831,5.111,5.493,9.347,10.169,10.331a23.836,23.836,0,0,0,.491-11.288,19.584,19.584,0,0,0-3.2-7.571,17.169,17.169,0,0,0-7.489-5.9,17.566,17.566,0,0,0-1.312,7.462" transform="translate(212.31 61.858)" fill="#2b2438"/>
              <path id="Trazado_1004993" data-name="Trazado 1004993" d="M473.032,156.21a31.766,31.766,0,0,1,9.074-2.515c-3.661,1.558-3.306,9.239,4.7,8.364l.493-1.75s-4.729-1.338-1.8-4.125c2.542,1.994,4.893-.083,7.764-1.97,2.815-1.829,6.15-3.5,10.659-.956a19.579,19.579,0,0,0-3.2-7.573,71.626,71.626,0,0,0-8.8,1.559,113.2,113.2,0,0,0-19.681,6.614Z" transform="translate(206.329 63.653)" fill="#ffbe8f"/>
              <rect id="Rectángulo_460866" data-name="Rectángulo 460866" width="27.97" height="8.82" transform="translate(656.336 352.596)" fill="#1fb5ff"/>
              <path id="Trazado_1004994" data-name="Trazado 1004994" d="M457.174,240.512c-15.33-12.827-12.1-31.914,2.4-42.865,8.761,10.847,8.761,31.081-2.4,42.865" transform="translate(195.341 86.355)" fill="#2b2438"/>
              <path id="Trazado_1004995" data-name="Trazado 1004995" d="M481.521,240.512c15.33-12.827,12.1-31.914-2.4-42.865-8.761,10.847-8.761,31.081,2.4,42.865" transform="translate(206.585 86.355)" fill="#2b2438"/>
              <path id="Trazado_1004996" data-name="Trazado 1004996" d="M454.636,228.8H493.71c13.839-10.346-1.066-26.6-7.078-34.548-6.937,5.644-18.26,4-24.534-.507-5.732,7.742-21.6,24.482-7.462,35.055" transform="translate(196.143 84.649)" fill="#ff5571"/>
              <path id="Trazado_1004997" data-name="Trazado 1004997" d="M441.914,261.586h70.649V221.545a6.092,6.092,0,0,0-6.093-6.093H448.005a6.092,6.092,0,0,0-6.091,6.093Z" transform="translate(193.079 94.134)" fill="#2b2438"/>
              <path id="Trazado_1004998" data-name="Trazado 1004998" d="M462.5,230.859l9.073,5.239V225.621Z" transform="translate(202.074 98.578)" fill="#fff"/>
              <path id="Trazado_1004999" data-name="Trazado 1004999" d="M458.21,261.164v13.668h64.62c8.077,0,14.274-7.353,15.059-15.723a14.445,14.445,0,0,0,.1-1.67,18.642,18.642,0,0,0-2.01-8.581c-3.5-6.853-11.138-11.326-26.9-7.16-39.425,10.444-50.868,19.466-50.868,19.466" transform="translate(200.199 104.899)" fill="#1fb5ff"/>
              <path id="Trazado_1005000" data-name="Trazado 1005000" d="M458.21,262.84v.5a.111.111,0,0,0,.082-.019c16.775-9.675,33.4-15.606,48.055-17.2,11.722-1.267,21.715.326,27.4,4.338,2.585,1.823,3.974,3.975,4.041,6.22a.194.194,0,0,0,.1.191,14.463,14.463,0,0,0,.1-1.67,9.61,9.61,0,0,0-4.022-5.144c-5.758-4.089-15.846-5.683-27.649-4.416-14.7,1.594-31.331,7.544-48.105,17.2" transform="translate(200.199 107.138)" fill="#61ccff"/>
              <path id="Trazado_1005001" data-name="Trazado 1005001" d="M419.27,257.459v.115l.082,1.382.016.154c.8,8.37,6.982,15.721,15.06,15.721h64.618V261.164S487.6,252.141,448.18,241.7c-15.763-4.166-23.416.306-26.915,7.16a18.466,18.466,0,0,0-1.994,8.6" transform="translate(183.186 104.9)" fill="#61ccff"/>
              <path id="Trazado_1005002" data-name="Trazado 1005002" d="M419.27,255.22v.115l.082,1.382.016.154a.219.219,0,0,0,.1-.193c.065-2.246,1.454-4.4,4.022-6.219,5.706-4.032,15.681-5.605,27.421-4.34,14.651,1.594,31.263,7.525,48.039,17.2a.183.183,0,0,0,.1.019v-.5c-16.776-9.656-33.421-15.608-48.1-17.2-11.823-1.267-21.894.326-27.666,4.414a9.468,9.468,0,0,0-4.006,5.164" transform="translate(183.186 107.139)" fill="#00d0de"/>
              <path id="Trazado_1005003" data-name="Trazado 1005003" d="M474.789,256.544v11.1h22.255c2.06,0,2.566-3.987.641-4.988a53.549,53.549,0,0,0-17.254-5.715,40.292,40.292,0,0,0-5.641-.4" transform="translate(207.443 112.088)" fill="#ffbe8f"/>
              <path id="Trazado_1005004" data-name="Trazado 1005004" d="M478.405,267.522h17.058c2.062,0,2.568-3.987.642-4.989a53.548,53.548,0,0,0-17.256-5.713c2.062,2.745,1.556,7.44-.444,10.7" transform="translate(209.023 112.209)" fill="#2b2438"/>
              <g id="Grupo_1193215" data-name="Grupo 1193215" transform="translate(225.169 153.901)" opacity="0.4">
                <g id="Grupo_1193214" data-name="Grupo 1193214">
                  <g id="Grupo_1193213" data-name="Grupo 1193213" clip-path="url(#clip-path-11)">
                    <path id="Trazado_1005005" data-name="Trazado 1005005" d="M233.84,189.731a10.821,10.821,0,1,1,10.821-10.821,10.834,10.834,0,0,1-10.821,10.821m0-20.99a10.169,10.169,0,1,0,10.169,10.169A10.181,10.181,0,0,0,233.84,168.74" transform="translate(-127.728 -80.461)" fill="#fff"/>
                    <path id="Trazado_1005006" data-name="Trazado 1005006" d="M206.931,196.666a3.158,3.158,0,1,1,3.158-3.158,3.162,3.162,0,0,1-3.158,3.158m0-5.664a2.506,2.506,0,1,0,2.506,2.506A2.509,2.509,0,0,0,206.931,191" transform="translate(-136.137 -70.734)" fill="#fff"/>
                    <path id="Trazado_1005007" data-name="Trazado 1005007" d="M165.026,129.315a8.323,8.323,0,1,1,8.323-8.323,8.332,8.332,0,0,1-8.323,8.323m0-15.993a7.67,7.67,0,1,0,7.67,7.67,7.68,7.68,0,0,0-7.67-7.67" transform="translate(-156.703 -104.674)" fill="#fff"/>
                    <path id="Trazado_1005008" data-name="Trazado 1005008" d="M581.036,133.079a12.987,12.987,0,1,1,12.987-12.987,13,13,0,0,1-12.987,12.987m0-25.321a12.334,12.334,0,1,0,12.334,12.334,12.349,12.349,0,0,0-12.334-12.334" transform="translate(23.022 -107.105)" fill="#fff"/>
                    <path id="Trazado_1005009" data-name="Trazado 1005009" d="M677.079,146.618A9.322,9.322,0,1,1,686.4,137.3a9.332,9.332,0,0,1-9.324,9.321m0-17.992a8.67,8.67,0,1,0,8.672,8.67,8.68,8.68,0,0,0-8.672-8.67" transform="translate(66.584 -97.987)" fill="#fff"/>
                  </g>
                </g>
              </g>
              <g id="Grupo_1193218" data-name="Grupo 1193218" transform="translate(517.932 239.339)" opacity="0.4">
                <g id="Grupo_1193217" data-name="Grupo 1193217">
                  <g id="Grupo_1193216" data-name="Grupo 1193216" clip-path="url(#clip-path-12)">
                    <path id="Trazado_1005010" data-name="Trazado 1005010" d="M386.824,196.941l-3.351-1.131.471-3.227L381.1,190.1l-3.132.9-1.569-3.171,2.614-1.947-.253-3.766-2.852-1.582,1.134-3.352,3.226.471,2.486-2.841-.9-3.135,3.17-1.569,1.947,2.615,3.768-.253,1.582-2.851,3.351,1.132-.471,3.226,2.842,2.484,3.135-.9,1.568,3.171-2.615,1.947.253,3.768,2.852,1.581-1.132,3.351-3.226-.471-2.486,2.842.9,3.135-3.173,1.569-1.947-2.615-3.768.251Zm-2.627-1.575,2.321.783,1.49-2.687,4.474-.3,1.836,2.464,2.2-1.088-.848-2.95,2.954-3.381,3.039.447.783-2.322-2.686-1.489-.3-4.477,2.466-1.835-1.088-2.194-2.954.848L394.5,174.23l.447-3.039-2.322-.785-1.49,2.687-4.476.3-1.835-2.464-2.194,1.086.845,2.954-2.951,3.377-3.042-.445-.783,2.322,2.687,1.49.3,4.476-2.463,1.835,1.086,2.194,2.953-.845,3.375,2.951Zm5.38-6.567a5.525,5.525,0,1,1,2.443-.576,5.512,5.512,0,0,1-2.443.576m-.009-10.389a4.876,4.876,0,1,0,1.56.257,4.839,4.839,0,0,0-1.56-.257" transform="translate(-353.692 -165.231)" fill="#fff"/>
                    <path id="Trazado_1005011" data-name="Trazado 1005011" d="M370.418,184.463l-.882-1.917-2.252-.326-1.387,1.594-2.107-1.25.733-1.979-1.364-1.823-2.107.147-.606-2.372,1.918-.882.325-2.252-1.594-1.387,1.25-2.108,1.98.733,1.821-1.362L366,167.171l2.372-.606.882,1.918,2.252.325,1.387-1.594,2.107,1.25-.733,1.98,1.364,1.821,2.106-.147.606,2.375-1.918.879-.325,2.253,1.594,1.385-1.25,2.108-1.979-.733-1.823,1.364.147,2.105Zm-3.394-2.939,2.956.425.8,1.746,1.321-.338-.134-1.917,2.391-1.79,1.8.668.694-1.173-1.45-1.26.424-2.956,1.747-.8-.336-1.321-1.918.134-1.789-2.39.667-1.8-1.171-.694-1.262,1.45-2.956-.424-.8-1.747-1.319.336.132,1.918-2.39,1.79-1.8-.67-.694,1.173,1.45,1.262-.424,2.956-1.747.8.336,1.319,1.917-.134,1.79,2.391-.667,1.8,1.171.694Zm2.365-2.377a3.649,3.649,0,1,1,.905-.115,3.688,3.688,0,0,1-.905.115m-.731-6.522a2.982,2.982,0,1,0,3.625,2.15,2.961,2.961,0,0,0-3.625-2.15" transform="translate(-360.447 -166.564)" fill="#fff"/>
                    <path id="Trazado_1005012" data-name="Trazado 1005012" d="M373.752,198.067l-.652-1.517-1.651-.276-1.112,1.219-1.707-1.068.611-1.533-.973-1.364-1.648.078-.451-1.964,1.516-.652.274-1.651-1.219-1.111,1.069-1.707,1.533.609,1.362-.971-.076-1.648,1.963-.451.652,1.513,1.651.277,1.112-1.218,1.707,1.068-.609,1.533.971,1.362,1.648-.076.451,1.964-1.515.652-.276,1.65L379.6,193.9l-1.068,1.707L377,194.994l-1.362.973.076,1.645Zm-2.545-2.494,2.351.394.579,1.341.9-.208-.066-1.458,1.941-1.382,1.356.537.491-.785-1.079-.984.394-2.351,1.342-.579-.208-.9-1.46.066-1.382-1.941.539-1.356-.785-.493-.986,1.081-2.351-.4-.579-1.341-.9.208.066,1.46-1.94,1.382-1.358-.539-.491.785,1.081.984-.4,2.351-1.342.579.21.9,1.458-.066,1.382,1.941-.539,1.358.785.49Zm1.96-1.635a2.877,2.877,0,1,1,.649-.073,2.942,2.942,0,0,1-.649.073m-1.881-4.055a2.224,2.224,0,1,0,3.063-.706,2.214,2.214,0,0,0-3.063.706" transform="translate(-357.947 -158.92)" fill="#fff"/>
                  </g>
                </g>
              </g>
              <path id="Trazado_1005013" data-name="Trazado 1005013" d="M668.228,131.446a33.756,33.756,0,0,0,40.939-43.829l9.6-11.264-14.205,2.578a33.776,33.776,0,1,0-36.331,52.515" transform="translate(281.179 28.45)" fill="#fff"/>
              <path id="Trazado_1005014" data-name="Trazado 1005014" d="M185.335,47.693a33.757,33.757,0,0,0-50.1,32.967l-11.977,8.69,14.412.838a33.776,33.776,0,1,0,47.665-42.5" transform="translate(53.853 18.951)" fill="#fff"/>
            </g>
          </g>
          <g id="Grupo_1193222" data-name="Grupo 1193222" transform="translate(0 -0.001)">
            <g id="Grupo_1193221" data-name="Grupo 1193221" clip-path="url(#clip-path-13)">
              <path id="Trazado_1005015" data-name="Trazado 1005015" d="M765.7,128.44c.555,35.682-30.089,73.444-71.409,86.107-8.274-4.992-29.812-26.53-23.3-53.985,22.693,8.274,61.333,5.315,84.351-47.79,0,0,9.752-20.061,10.353,15.668" transform="translate(292.64 46.821)" fill="#53159b"/>
              <path id="Trazado_1005016" data-name="Trazado 1005016" d="M707.831,58.4c3.982,33.632,18.806,38.5,26.994,27.658,6.2,16.595,9.071,47.572,9.071,47.572L773.1,116.816s-18.365-25.666-26.994-50S714.027,44.021,707.831,58.4" transform="translate(309.263 20.961)" fill="#ffbe8f"/>
              <path id="Trazado_1005017" data-name="Trazado 1005017" d="M730.282,58.582c-8.629,5.531-21.906,9.956-27.879,12.169-7.966-28.985,20.355-37.173,33.19-28.543,9.071-11.063,26.277,8.663,31.639,22.568,5.975,15.489,18.587,18.144,18.587,18.144l-33.19,25.446s-18.143-25.225-22.347-49.785" transform="translate(306.284 17.02)" fill="#2b2438"/>
              <path id="Trazado_1005018" data-name="Trazado 1005018" d="M836.712,342.831c-25.79,14.744-54.863,17.655-54.863,17.655s-111.8,15.668-141.618-64.013c51.628-60.457,61.2-70.487,83.2-68.729,22,1.71,48.532,13.4,61.381-6.518,25.652-39.8-7.4-43.03-20.985-68.127C750.281,128,772.7,98.513,782.589,93.659c6.887-3.374,45.3-11.648,69.469,83.613l18.3,72.61c16.037,50.056-7.025,77.787-33.648,92.948" transform="translate(279.727 40.142)" fill="#cbb8e1"/>
              <path id="Trazado_1005019" data-name="Trazado 1005019" d="M836.712,282.108c-25.79,14.744-54.863,17.655-54.863,17.655s-54.308,7.627-97.292-14.79a98.633,98.633,0,0,1-19.69-13.358,87.07,87.07,0,0,1-24.636-35.865c19.69-8.874,31.06-4.669,41.737,4.483,5.363,4.575,10.538,10.445,16.5,16.5,1.571,1.618,3.189,3.235,4.9,4.806,21.353,20.151,54.076,39.61,133.343,20.568" transform="translate(279.727 100.865)" fill="#2b2438"/>
              <path id="Trazado_1005020" data-name="Trazado 1005020" d="M694.295,198.309c-6.472-3.883-21.077-17.933-23.988-37.022A43.308,43.308,0,0,1,671,144.324a54.753,54.753,0,0,1,16.454,20.614,76.14,76.14,0,0,1,6.841,33.371" transform="translate(292.637 63.059)" fill="#2b2438"/>
              <path id="Trazado_1005021" data-name="Trazado 1005021" d="M712.292,258.688c-3.651,4.114-7.256,8.412-10.724,12.8-2.819,3.559-5.5,7.117-8.088,10.63C684,295.155,676.471,307.449,672.911,314.8c-2.586,5.407-3.282,9.152-3,12.063.555,6.055,5.222,8.6,4.99,16.085-26.714,12.386-52.6,35.911-52.6,35.911l-2.5-2.4c8.781-11.047,16.177-24.543,22.324-38.5,13.033-29.488,20.568-61.1,23.849-76.911,1.341-6.424,1.941-10.214,1.941-10.214,8.182-9.2,15.576-12.9,22.972-13.45,5.361,4.575,10.538,10.445,16.5,16.5,1.572,1.618,3.19,3.236,4.9,4.806" transform="translate(270.803 103.717)" fill="#e6ab81"/>
              <path id="Trazado_1005022" data-name="Trazado 1005022" d="M730.315,256.737a253.474,253.474,0,0,0-33.6,14.882c-20.752,10.862-39.517,23.433-48.253,30.829a30.514,30.514,0,0,0-7.4,8.413c-4.158,7.626.786,12.524-3.188,20.8-32.493.555-69.053,12.664-69.053,12.664l-1.479-3.558c13.08-6.887,25.929-16.5,37.854-27.132,37.9-33.74,66.88-77.879,66.88-77.879,29.626-13.359,40.4,2.865,58.237,20.983" transform="translate(247.882 100.862)" fill="#ffbe8f"/>
              <path id="Trazado_1005023" data-name="Trazado 1005023" d="M637.875,307.329c-32.493.555-69.053,12.664-69.053,12.664l-1.479-3.558c13.08-6.887,25.929-16.5,37.854-27.132a68.461,68.461,0,0,0,35.865-2.773c-4.158,7.627.786,12.526-3.188,20.8" transform="translate(247.882 125.191)" fill="#493d60"/>
              <path id="Trazado_1005024" data-name="Trazado 1005024" d="M674.9,315.739c-26.715,12.388-52.6,35.913-52.6,35.913l-2.5-2.4c8.781-11.047,16.177-24.544,22.325-38.5,13.172-1.479,22.276-6.424,27.777-11.093.555,6.055,5.223,8.6,4.992,16.085" transform="translate(270.803 130.925)" fill="#2b2438"/>
              <path id="Trazado_1005025" data-name="Trazado 1005025" d="M708.12,177.756c-30.747-5.318-73.7-16.023-85.644-60.733l13.865-2.035c14.144,32.585,30.506,35.406,55.326,42.153a54.742,54.742,0,0,1,16.454,20.614" transform="translate(271.97 50.242)" fill="#ffbe8f"/>
              <path id="Trazado_1005026" data-name="Trazado 1005026" d="M657.4,146.747H639.971l-19.457-43.724h19.457l1.155,2.913,15.115,37.946Z" transform="translate(271.113 45.014)" fill="#2b2438"/>
              <path id="Trazado_1005027" data-name="Trazado 1005027" d="M654.752,143H640.794L623.923,105.05h15.714Z" transform="translate(272.602 45.9)" fill="#493d60"/>
              <path id="Trazado_1005028" data-name="Trazado 1005028" d="M715.967,63.912c.594,2.187.4,4.141-.421,4.365s-1.976-1.368-2.569-3.555-.4-4.143.422-4.367,1.974,1.369,2.568,3.556" transform="translate(311.36 26.363)" fill="#2b2438"/>
              <path id="Trazado_1005029" data-name="Trazado 1005029" d="M856.879,245.409s-34.989,11.508-72.149-13.681c-27.316-61.888-37.252-88.743-39.657-115.041a8.84,8.84,0,0,1,13.96-7.95c77.371,53.616,97.847,136.672,97.847,136.672" transform="translate(325.517 46.788)" fill="#53159b"/>
              <path id="Trazado_1005030" data-name="Trazado 1005030" d="M844.808,209.321s-16.64,5.5-39.195.555a87.1,87.1,0,0,1-21.584-7.58,97.959,97.959,0,0,1-11.37-6.656,31.553,31.553,0,0,1,7.534-3.651c6.239-2.127,13.543-2.681,20.937-2.079,18.21,1.387,37.253,9.752,43.678,19.411" transform="translate(337.587 82.876)" fill="#2b2438"/>
              <path id="Trazado_1005031" data-name="Trazado 1005031" d="M835.955,260.716h-9.29l-5.871-7.626c-21.538,0-28.886-22.6-39.055-50.795-1.247-3.375-2.5-6.8-3.837-10.308,6.241-2.125,13.543-2.68,20.937-2.079,1.065,5.963,2.589,12.988,4.485,19.966a159.4,159.4,0,0,0,7.534,22.463,16.983,16.983,0,0,0,8.827,8.828c8.828,3.791,10.492,8.226,16.27,19.551" transform="translate(339.878 82.876)" fill="#ffbe8f"/>
              <path id="Trazado_1005032" data-name="Trazado 1005032" d="M713.474,242.576a11.055,11.055,0,0,1,7.817-3.474v44.47a11.057,11.057,0,0,1-7.817-3.476c-4.166-4.164-6.36-11.379-6.36-18.759s2.194-14.595,6.36-18.76" transform="translate(308.95 104.469)" fill="#61ccff"/>
              <path id="Trazado_1005033" data-name="Trazado 1005033" d="M717.573,271.453H865.04a2.205,2.205,0,0,0,2.2-2.2v-.218a2.206,2.206,0,0,0-2.2-2.2H717.573a2.205,2.205,0,0,0-2.2,2.2v.217a2.2,2.2,0,0,0,2.2,2.2" transform="translate(312.559 116.587)" fill="#61ccff"/>
              <path id="Trazado_1005034" data-name="Trazado 1005034" d="M717.573,243.717H865.04a2.205,2.205,0,0,0,2.2-2.2V241.3a2.206,2.206,0,0,0-2.2-2.2H717.573a2.2,2.2,0,0,0-2.2,2.2v.218a2.2,2.2,0,0,0,2.2,2.2" transform="translate(312.559 104.469)" fill="#61ccff"/>
              <path id="Trazado_1005035" data-name="Trazado 1005035" d="M710.326,259.933c0,9.731,4.281,17.619,9.56,17.619s9.561-7.889,9.561-17.619-4.281-17.619-9.561-17.619-9.56,7.889-9.56,17.619" transform="translate(310.353 105.872)" fill="#2b2438"/>
              <path id="Trazado_1005036" data-name="Trazado 1005036" d="M723.692,259.933c0-9.731-3-17.619-6.712-17.619H862.553c-3.709,0-6.712,7.889-6.712,17.619s3,17.619,6.712,17.619H716.98c3.707,0,6.712-7.889,6.712-17.619" transform="translate(313.26 105.872)" fill="#a3dcff"/>
              <rect id="Rectángulo_460870" data-name="Rectángulo 460870" width="150.695" height="7.621" transform="translate(1005.808 335.95)" fill="#0086dc"/>
              <rect id="Rectángulo_460871" data-name="Rectángulo 460871" width="12.401" height="7.621" transform="translate(1025.865 335.95)" fill="#1062ba"/>
              <path id="Trazado_1005037" data-name="Trazado 1005037" d="M823.9,224.846v10.643a3.965,3.965,0,0,1-3.97,3.97H711.316a4,4,0,0,1-4-3.97V224.846a4,4,0,0,1,4-4H819.928a3.973,3.973,0,0,1,3.97,4" transform="translate(309.036 96.49)" fill="#61ccff"/>
              <rect id="Rectángulo_460872" data-name="Rectángulo 460872" width="20.409" height="18.618" transform="translate(1054.248 317.331)" fill="#1fb5ff"/>
              <rect id="Rectángulo_460873" data-name="Rectángulo 460873" width="151.935" height="7.685" transform="translate(1028.515 406.811)" fill="#61ccff"/>
              <rect id="Rectángulo_460874" data-name="Rectángulo 460874" width="12.503" height="7.685" transform="translate(1048.738 406.811)" fill="#1fb5ff"/>
              <path id="Trazado_1005038" data-name="Trazado 1005038" d="M840.719,274.088v10.731a4,4,0,0,1-4,4H727.21a4.027,4.027,0,0,1-4.036-4V274.088a4.035,4.035,0,0,1,4.036-4.038H836.718a4.005,4.005,0,0,1,4,4.038" transform="translate(315.967 117.991)" fill="#1062ba"/>
              <rect id="Rectángulo_460875" data-name="Rectángulo 460875" width="20.577" height="18.77" transform="translate(1077.354 388.041)" fill="#0086dc"/>
              <path id="Trazado_1005039" data-name="Trazado 1005039" d="M705.108,293.73v14a5.217,5.217,0,0,0,5.223,5.223H853.243a5.256,5.256,0,0,0,5.269-5.223v-14a5.267,5.267,0,0,0-5.269-5.269H710.331a5.228,5.228,0,0,0-5.223,5.269" transform="translate(308.073 126.035)" fill="#ff5571"/>
              <rect id="Rectángulo_460876" data-name="Rectángulo 460876" width="26.853" height="24.497" transform="translate(1089.859 414.497)" fill="#f53b5a"/>
              <path id="Trazado_1005040" data-name="Trazado 1005040" d="M217.97,280.47a10.7,10.7,0,0,0-7.565-3.362v43.04a10.7,10.7,0,0,0,7.565-3.362c4.032-4.032,6.156-11.015,6.156-18.158S222,284.5,217.97,280.47" transform="translate(91.929 121.074)" fill="#61ccff"/>
              <path id="Trazado_1005041" data-name="Trazado 1005041" d="M254.491,281.574H111.828a2.168,2.168,0,0,1-2.161-2.163v-.142a2.168,2.168,0,0,1,2.161-2.161H254.491a2.167,2.167,0,0,1,2.161,2.161v.142a2.168,2.168,0,0,1-2.161,2.163" transform="translate(47.915 121.074)" fill="#61ccff"/>
              <path id="Trazado_1005042" data-name="Trazado 1005042" d="M222.474,297.269c0,9.419-4.143,17.055-9.254,17.055s-9.255-7.636-9.255-17.055,4.144-17.053,9.255-17.053,9.254,7.634,9.254,17.053" transform="translate(89.116 122.432)" fill="#2b2438"/>
              <path id="Trazado_1005043" data-name="Trazado 1005043" d="M246.75,297.269c0-9.419,2.908-17.053,6.5-17.053h-140.9c3.588,0,6.5,7.634,6.5,17.053s-2.908,17.055-6.5,17.055h140.9c-3.588,0-6.5-7.636-6.5-17.055" transform="translate(49.088 122.432)" fill="#a3dcff"/>
              <rect id="Rectángulo_460877" data-name="Rectángulo 460877" width="119.985" height="6.07" transform="translate(190.933 392.122)" fill="#ff5571"/>
              <rect id="Rectángulo_460878" data-name="Rectángulo 460878" width="9.873" height="6.07" transform="translate(285.076 392.122)" fill="#f53b5a"/>
              <path id="Trazado_1005044" data-name="Trazado 1005044" d="M145.938,265.763v8.475a3.156,3.156,0,0,0,3.16,3.16h86.481a3.181,3.181,0,0,0,3.189-3.16v-8.475a3.188,3.188,0,0,0-3.189-3.189H149.1a3.163,3.163,0,0,0-3.16,3.189" transform="translate(63.763 114.724)" fill="#61ccff"/>
              <rect id="Rectángulo_460879" data-name="Rectángulo 460879" width="16.25" height="14.823" transform="translate(256.1 377.298)" fill="#1fb5ff"/>
              <path id="Trazado_1005045" data-name="Trazado 1005045" d="M36.4,372.4s20.179,10.583,53.665,0c1.145-3.712,2.29-7.5,3.436-11.412.079-.316.2-.632.276-.948,15.954-54.06,32.934-125.217,35.107-148.2-13.585-10.109-68.2-16.388-68.2-16.388-3.949,43.99-17.256,131.655-22.311,164.311-.079.434-.118.868-.2,1.263C37.075,368.216,36.4,372.4,36.4,372.4" transform="translate(15.906 85.398)" fill="#1fb5ff"/>
              <path id="Trazado_1005046" data-name="Trazado 1005046" d="M74.026,135.743S86.258,108.37,86.6,86.309c.428-27.929,16.447-35.351,34.878-18.809-.662,9.925-.095,19.943.661,23.063a17.121,17.121,0,0,1-4.344.287c-1.509,11.1-8.119,13.783-15.506,10.866-.483,15.126,5.294,39.04,5.294,39.04Z" transform="translate(32.343 25.687)" fill="#ffbe8f"/>
              <path id="Trazado_1005047" data-name="Trazado 1005047" d="M101.056,73.685c-.171,2.47.282,4.513,1.012,4.564s1.457-1.911,1.628-4.381-.282-4.513-1.01-4.564-1.458,1.911-1.629,4.381" transform="translate(44.137 30.281)" fill="#2b2438"/>
              <path id="Trazado_1005048" data-name="Trazado 1005048" d="M118.277,74.612c11.231,4.687,28.1.884,27.6-16.131S132.14,46.129,127.1,50.036s-9.578,4.789-10.587.253-6.427-.126-8.192-4.916-6.805-4.283-12.855,2.647-6.049,5.923-10.208,4.158S69.252,56.843,73.663,68.311s-8.65,9.8-8.318,22.685c.368,14.179,21.121,26.222,35.134,2.105A2.311,2.311,0,0,0,99.4,89.874c-2.436-1.138-5.605-3.473-3.558-7.449,4.285-8.318,6.765,7.767,11.972,2.142,3.151-3.4-1.4-5.13-1.89-7.687-.75-3.947,1.721-6.7,12.35-2.269" transform="translate(28.548 18.449)" fill="#2b2438"/>
              <path id="Trazado_1005049" data-name="Trazado 1005049" d="M91.731,75.344a.494.494,0,0,0,.151-.964,6.091,6.091,0,0,1-2.9-3.1.495.495,0,0,0-.933.332,6.971,6.971,0,0,0,3.532,3.709.549.549,0,0,0,.151.023" transform="translate(38.458 31.003)" fill="#e6ab81"/>
              <path id="Trazado_1005050" data-name="Trazado 1005050" d="M38.166,257.889s41.043,10.079,84.86-23.061A158.87,158.87,0,0,0,149.8,208.734a397.464,397.464,0,0,0-2.434-44.075c-4.015-33.953-14.093-62.651-37.156-64.786-8.968-.855-18.236,8.84-26.991,23.83-15.374,26.265-29.254,68.972-37.455,99.85-4.227,15.759-6.917,28.485-7.6,34.337" transform="translate(16.675 43.615)" fill="#53159b"/>
              <path id="Trazado_1005051" data-name="Trazado 1005051" d="M38.163,224.776s59.47,14.611,111.633-49.163c-22.429,1.776-88.967,14.649-111.633,49.163" transform="translate(16.674 76.73)" fill="#2b2438"/>
              <path id="Trazado_1005052" data-name="Trazado 1005052" d="M102.563,216.88a158.631,158.631,0,0,0,26.773-26.1,398.123,398.123,0,0,0-2.408-44.069L84.991,140.9c12,23.416,20.929,45.53,17.572,75.976" transform="translate(37.134 61.565)" fill="#2b2438"/>
              <path id="Trazado_1005053" data-name="Trazado 1005053" d="M57.963,245.7v.039c23.693,22.351,98.641-11.175,98.641-11.175s-3,18.6-8.292,37.83c-.118.474-.237.948-.4,1.423-1.1,4.028-2.329,8.055-3.671,11.925,35.026,4.66,55.955-6.516,55.955-6.516s.868-3.4,2.053-9.28c.039-.315.118-.631.158-.987,3.553-18.2,9.359-57.573,1.973-92.6a7.784,7.784,0,0,0-7.66-6.081c-4.936,0-10.068.118-15.4.434-1.619.118-3.239.2-4.9.355-.2,0-.356.04-.553.04a339.581,339.581,0,0,0-68.038,12.517,248.553,248.553,0,0,0-36.092,13.465,164.382,164.382,0,0,0-17.375,9.36c-6.16,20.138-3.712,32.379,3.594,39.251" transform="translate(22.225 74.4)" fill="#61ccff"/>
              <path id="Trazado_1005054" data-name="Trazado 1005054" d="M115.852,254.258a118.4,118.4,0,0,0,13.386,1.066,115.165,115.165,0,0,0,19.7-1.066c14.69-2.132,22.864-6.515,22.864-6.515a56.267,56.267,0,0,0-19.429-5.173A52.134,52.134,0,0,0,130.7,245.1c-6.239,2.134-11.452,5.371-14.848,9.162" transform="translate(50.618 105.887)" fill="#2b2438"/>
              <path id="Trazado_1005055" data-name="Trazado 1005055" d="M118.408,245.358a.142.142,0,0,0,.118.04.457.457,0,0,0,.4-.16c8.1-9.951,38.186-12.083,53.665-3.791a.236.236,0,0,0,.158.04c.04-.316.119-.632.158-.987-14.294-7.542-44.5-6.91-54.1,3.436-.119.474-.237.947-.4,1.421" transform="translate(51.734 102.862)" fill="#00d0de"/>
              <path id="Trazado_1005056" data-name="Trazado 1005056" d="M57.963,245.452c5.134-14.809,61.642-68.946,117.912-74.593-40.357,3.12-89.244,15.2-121.506,35.342-6.16,20.138-3.712,32.379,3.594,39.251" transform="translate(22.225 74.653)" fill="#1fb5ff"/>
              <path id="Trazado_1005057" data-name="Trazado 1005057" d="M126.546,292.128H182.5v-4.265s-20.653-2.882-34.591-13.743a40.061,40.061,0,0,1-5.49-5.172c2.252-7.781,3.437-11.926,4.226-14.691,1.3-4.383,1.54-5.291,3.436-11.688A52.1,52.1,0,0,0,128.4,245.1c-.4,3-.871,6.515-1.461,10.227-.592,4.028-1.263,8.292-2.013,12.439-1.145,6.673-2.411,13.07-3.634,17.572a5.419,5.419,0,0,0,5.252,6.792" transform="translate(52.916 105.887)" fill="#ffbe8f"/>
              <path id="Trazado_1005058" data-name="Trazado 1005058" d="M126.538,284.4h55.955v-4.265s-20.653-2.882-34.592-13.743c-9.357,1.185-18.045-2.053-22.982-6.357-1.145,6.673-2.408,13.07-3.633,17.572a5.42,5.42,0,0,0,5.252,6.792" transform="translate(52.912 113.615)" fill="#493d60"/>
              <path id="Trazado_1005059" data-name="Trazado 1005059" d="M121.4,151.55c12.478,7.187,39.686,7.542,72.5-14.177-3.908-19.942-26.969-23.456-26.969-23.456s-10.5,33.565-45.53,37.633" transform="translate(53.043 49.774)" fill="#42107c"/>
              <path id="Trazado_1005060" data-name="Trazado 1005060" d="M153.089,113.917a24.374,24.374,0,0,0,3.081,8.884,27.568,27.568,0,0,0,12.4,10.978,46.119,46.119,0,0,0,11.491,3.594,25.829,25.829,0,0,0-9.4-15.48,39,39,0,0,0-12.2-6.594,33.453,33.453,0,0,0-5.371-1.382" transform="translate(66.887 49.774)" fill="#2b2438"/>
              <path id="Trazado_1005061" data-name="Trazado 1005061" d="M86.432,158.127c5.054,10.07,16.388,32.736,39.33,42.214S228.076,192.4,228.076,192.4c6.042-34.552-11.846-53.7-11.846-53.7S181.441,151.809,157,157.337c-24.443,5.568-28.392-34.394-47.9-49.2-36.567-27.8-27.721,39.883-22.666,49.992" transform="translate(35.693 44.341)" fill="#42107c"/>
              <path id="Trazado_1005062" data-name="Trazado 1005062" d="M172.962,155.222c2.566,11.53,9.241,21.64,15.717,25.865,2.921-16.782.237-29.932-3.357-39.014-3.752-9.636-8.491-14.69-8.491-14.69-5.331,8.688-5.923,18.717-3.87,27.839" transform="translate(75.092 55.657)" fill="#2b2438"/>
              <path id="Trazado_1005063" data-name="Trazado 1005063" d="M172.962,159.5c4.5-6.4,8.57-10.5,12.36-13.149,17.1-11.965,28.589,4.817,46.714-26.1L216.36,117.6s-3.278,11.136-14.69,10.386-24.839,3.673-24.839,3.673c-5.331,8.688-5.923,18.717-3.87,27.839" transform="translate(75.092 51.382)" fill="#ffbe8f"/>
              <path id="Trazado_1005064" data-name="Trazado 1005064" d="M241.574,95.9l3.032,2.647-26.592,45.621L170.357,137.7l-1.3-2.145Z" transform="translate(73.866 41.901)" fill="#2b2438"/>
              <path id="Trazado_1005065" data-name="Trazado 1005065" d="M215.494,142.265l-46.433-6.1L191.15,94.5l50.424,2.016Z" transform="translate(73.866 41.288)" fill="#493d60"/>
              <path id="Trazado_1005066" data-name="Trazado 1005066" d="M211.57,136.861l-38.294-5.028L191.6,97.267l41.593,1.664Z" transform="translate(75.707 42.499)" fill="#a3dcff"/>
              <path id="Trazado_1005067" data-name="Trazado 1005067" d="M187.953,110.684c-3.454,6-2.017,12.5,3.21,14.519s12.263-1.207,15.717-7.208,2.017-12.5-3.209-14.519-12.264,1.208-15.718,7.208" transform="translate(81.298 44.949)" fill="#fff"/>
              <path id="Trazado_1005068" data-name="Trazado 1005068" d="M155.233,128.167a27.568,27.568,0,0,0,12.4,10.978,87.707,87.707,0,0,1,2.092-11.886,28.4,28.4,0,0,1,2.369-6.634c12.2,3.12,10.228-10.03,10.228-10.03l8.767,4.739,2.29-2.566c-22.509-18.4-29.182-12.756-35.855,7.9-.75,2.289-1.5,4.817-2.29,7.5" transform="translate(67.824 44.408)" fill="#ffbe8f"/>
              <path id="Trazado_1005069" data-name="Trazado 1005069" d="M57.78,346.927A680.192,680.192,0,0,1,76.8,262.284c5.022-17.76,8.988-31.789,10.836-51.156l-1.276-.121c-1.835,19.249-5.789,33.23-10.79,50.926a680.615,680.615,0,0,0-19.056,84.79Z" transform="translate(24.691 92.194)" fill="#61ccff"/>
              <path id="Trazado_1005070" data-name="Trazado 1005070" d="M43.457,216.291c26.478-25.58,37.327-68.8,37.455-99.85-15.375,26.265-29.254,68.972-37.455,99.85" transform="translate(18.987 50.876)" fill="#53159b"/>
            </g>
          </g>
        </g>
      </g>
    </g>
  </g>
</svg>
