<svg xmlns="http://www.w3.org/2000/svg" xmlns:xlink="http://www.w3.org/1999/xlink" width="118.117" height="118.117" viewBox="0 0 118.117 118.117">
  <defs>
    <linearGradient id="linear-gradient" x1="0.714" y1="0.776" x2="0.362" y2="-0.972" gradientUnits="objectBoundingBox">
      <stop offset="0" stop-color="#045e61"/>
      <stop offset="1" stop-color="#3ef989"/>
    </linearGradient>
  </defs>
  <g id="Grupo_1197967" data-name="Grupo 1197967" transform="translate(-320.883 -1288.941)">
    <g id="Grupo_1197918" data-name="Grupo 1197918">
      <g id="Grupo_1197966" data-name="Grupo 1197966">
        <g id="Grupo_1192986" data-name="Grupo 1192986" transform="translate(320.883 1288.941)">
          <g id="Trazado_995327" data-name="Trazado 995327" transform="translate(0)" fill="#fff">
            <path d="M 59.05859375 116.1171951293945 C 51.35486221313477 116.1171951293945 43.88261032104492 114.6088409423828 36.84942626953125 111.6340637207031 C 33.46891021728516 110.2042236328125 30.20824432373047 108.4343566894531 27.15799331665039 106.3736572265625 C 24.13620948791504 104.3321914672852 21.29459381103516 101.9876251220703 18.71207618713379 99.40511322021484 C 16.12957763671875 96.82259368896484 13.78501033782959 93.98097991943359 11.74354362487793 90.95919036865234 C 9.682826995849609 87.90895843505859 7.91297721862793 84.64827728271484 6.48314380645752 81.26776123046875 C 3.508343696594238 74.23457336425781 2.00001049041748 66.7623291015625 2.00001049041748 59.05859375 C 2.00001049041748 51.35486221313477 3.508343696594238 43.88261032104492 6.48314380645752 36.84942626953125 C 7.91297721862793 33.46891021728516 9.682826995849609 30.20824432373047 11.74354362487793 27.15799331665039 C 13.78501033782959 24.13620948791504 16.12957763671875 21.29459381103516 18.71207618713379 18.71207618713379 C 21.29459381103516 16.12957763671875 24.13620948791504 13.78501033782959 27.15799331665039 11.74354362487793 C 30.20824432373047 9.682826995849609 33.46891021728516 7.91297721862793 36.84942626953125 6.48314380645752 C 43.88261032104492 3.508343696594238 51.35486221313477 2.00001049041748 59.05859375 2.00001049041748 C 66.7623291015625 2.00001049041748 74.23457336425781 3.508343696594238 81.26776123046875 6.48314380645752 C 84.64827728271484 7.91297721862793 87.90895843505859 9.682826995849609 90.95919036865234 11.74354362487793 C 93.98097991943359 13.78501033782959 96.82259368896484 16.12957763671875 99.40511322021484 18.71207618713379 C 101.9876251220703 21.29459381103516 104.3321914672852 24.13620948791504 106.3736572265625 27.15799331665039 C 108.4343566894531 30.20824432373047 110.2042236328125 33.46891021728516 111.6340637207031 36.84942626953125 C 114.6088409423828 43.88261032104492 116.1171951293945 51.35486221313477 116.1171951293945 59.05859375 C 116.1171951293945 66.7623291015625 114.6088409423828 74.23457336425781 111.6340637207031 81.26776123046875 C 110.2042236328125 84.64827728271484 108.4343566894531 87.90895843505859 106.3736572265625 90.95919036865234 C 104.3321914672852 93.98097991943359 101.9876251220703 96.82259368896484 99.40511322021484 99.40511322021484 C 96.82259368896484 101.9876251220703 93.98097991943359 104.3321914672852 90.95919036865234 106.3736572265625 C 87.90895843505859 108.4343566894531 84.64827728271484 110.2042236328125 81.26776123046875 111.6340637207031 C 74.23457336425781 114.6088409423828 66.7623291015625 116.1171951293945 59.05859375 116.1171951293945 Z" stroke="none"/>
            <path d="M 59.05859375 3.999992370605469 C 51.62397766113281 3.999992370605469 44.41384887695312 5.455177307128906 37.62852478027344 8.325119018554688 C 34.36693572998047 9.704666137695312 31.22083282470703 11.41236114501953 28.27759552001953 13.40077209472656 C 25.36128234863281 15.37099456787109 22.61879730224609 17.63377380371094 20.12628173828125 20.12628173828125 C 17.63377380371094 22.61879730224609 15.37099456787109 25.36128234863281 13.40077209472656 28.27759552001953 C 11.41236114501953 31.22083282470703 9.704666137695312 34.36693572998047 8.325119018554688 37.62852478027344 C 5.455177307128906 44.41384887695312 3.999992370605469 51.62397766113281 3.999992370605469 59.05859375 C 3.999992370605469 66.49320983886719 5.455177307128906 73.70333862304688 8.325119018554688 80.48866271972656 C 9.704666137695312 83.750244140625 11.41236114501953 86.89635467529297 13.40077209472656 89.83959197998047 C 15.37099456787109 92.75590515136719 17.63377380371094 95.49839782714844 20.12628173828125 97.99090576171875 C 22.61879730224609 100.4834136962891 25.36128234863281 102.7461929321289 28.27759552001953 104.7164154052734 C 31.22083282470703 106.704833984375 34.36693572998047 108.4125213623047 37.62852478027344 109.7920684814453 C 44.41384887695312 112.6620101928711 51.62397766113281 114.1171951293945 59.05859375 114.1171951293945 C 66.49320983886719 114.1171951293945 73.70333862304688 112.6620101928711 80.48866271972656 109.7920684814453 C 83.750244140625 108.4125213623047 86.89635467529297 106.704833984375 89.83959197998047 104.7164154052734 C 92.75590515136719 102.7461929321289 95.49839782714844 100.4834136962891 97.99090576171875 97.99090576171875 C 100.4834136962891 95.49839782714844 102.7461929321289 92.75590515136719 104.7164154052734 89.83959197998047 C 106.704833984375 86.89635467529297 108.4125213623047 83.750244140625 109.7920684814453 80.48866271972656 C 112.6620101928711 73.70333862304688 114.1171951293945 66.49320983886719 114.1171951293945 59.05859375 C 114.1171951293945 51.62397766113281 112.6620101928711 44.41384887695312 109.7920684814453 37.62852478027344 C 108.4125213623047 34.36693572998047 106.704833984375 31.22083282470703 104.7164154052734 28.27759552001953 C 102.7461929321289 25.36128234863281 100.4834136962891 22.61879730224609 97.99090576171875 20.12628173828125 C 95.49839782714844 17.63377380371094 92.75590515136719 15.37099456787109 89.83959197998047 13.40077209472656 C 86.89635467529297 11.41236114501953 83.750244140625 9.704666137695312 80.48866271972656 8.325119018554688 C 73.70333862304688 5.455177307128906 66.49320983886719 3.999992370605469 59.05859375 3.999992370605469 M 59.05859375 -7.62939453125e-06 C 91.67575836181641 -7.62939453125e-06 118.1171951293945 26.44142913818359 118.1171951293945 59.05859375 C 118.1171951293945 91.67575836181641 91.67575836181641 118.1171951293945 59.05859375 118.1171951293945 C 26.44142913818359 118.1171951293945 -7.62939453125e-06 91.67575836181641 -7.62939453125e-06 59.05859375 C -7.62939453125e-06 26.44142913818359 26.44142913818359 -7.62939453125e-06 59.05859375 -7.62939453125e-06 Z" stroke="none" fill="#53159b"/>
          </g>
        </g>
      </g>
      <g id="Grupo_1197806" data-name="Grupo 1197806" transform="translate(122.758 1198.725)">
        <path id="Trazado_1009005" data-name="Trazado 1009005" d="M227.626,117.271h9.705c.334-1.29.716-2.515.952-3.769.152-.808.469-1.035,1.3-1.032,8.109.036,16.218.022,24.327.022,1.357,0,2.715.027,4.071-.012.618-.018.933.107,1.069.8.259,1.32.654,2.614,1.008,3.974h9.709c0,1.674.042,3.281-.017,4.885a2.718,2.718,0,0,0,.825,2.094,35.8,35.8,0,0,1,9.824,24.368c.16,12.211.039,24.425.039,36.638v.656c-.292.028-.543.073-.793.073-12.246,0-24.5.3-36.735-.087-15.145-.478-26.031-7.926-32.692-21.546a20.878,20.878,0,0,0-1.4-2.158c1.844-3.16,1.793-3.284-1.826-4.085,0-1.924,0-3.868,0-5.812,0-.49.013-.981,0-1.471a36.513,36.513,0,0,1,9.879-26.625,2.616,2.616,0,0,0,.777-2.014C227.589,120.585,227.626,119,227.626,117.271Zm4.836,7.127a1.976,1.976,0,0,0-.092.372q-.01,8.336-.01,16.673c0,.192.012.521.1.555.782.287.649,1.007.757,1.578.292,1.543,1.341,2,2.656,1.12.407-.272.816-.542,1.288-.857,1.14,1.161,2.207,2.341,3.379,3.4.67.608.68,1.076.13,1.715-.584.678-1.078,1.49-.308,2.261a3.578,3.578,0,0,0,1.764.784c.677.139.939.374.91,1.094-.058,1.445-.017,2.893-.017,4.387h31.931V124.4Zm45.155.164-.287.08v35.264h-6.509l2.763,7.379.27-.045v-4.846h7.1v21.134h2.381V148.04h4.723A34.81,34.81,0,0,0,277.617,124.562ZM241.525,169.29H264.29l.152-1.029.973-.2c-.982-2.615-1.923-5.18-2.932-7.718-.094-.236-.619-.423-.945-.425-5.223-.026-10.447-.009-15.67-.032a1,1,0,0,0-1.15.788c-.25.819-.6,1.608-.9,2.412C243.067,165.125,242.314,167.16,241.525,169.29ZM264.283,183.6v-7.141h-8.6c-5.325,0-10.65-.009-15.974.019a1.337,1.337,0,0,0-1.031.45,25.727,25.727,0,0,0-1,2.664,4.55,4.55,0,0,0,.4.266,30.48,30.48,0,0,0,11.9,3.495c4.318.263,8.656.18,12.986.246C263.384,183.607,263.807,183.6,264.283,183.6Zm-25.891-35.283a8.384,8.384,0,0,0-1.155-.963c-.247-.137-.731-.231-.882-.095a1.808,1.808,0,0,1-2.616.086,1.263,1.263,0,0,0-.624-.289c-1.512-.11-2.062-1.029-2.1-2.412,0-.046-.081-.091-.107-.118H228.9c.186,1.689-.761,2.392-2.235,2.606a.4.4,0,0,0-.174.092,2.19,2.19,0,0,1-3.2-.209c-.033-.031-.121,0-.05,0l-1.649,1.394c1.516,1.021,1.02,2.068.471,3.355-.56,1.313-.919,2.537-2.7,2.33V156.1c.664.184,1.468.18,1.875.58.443.434.507,1.248.756,1.888a2.93,2.93,0,0,0,.4.791,1.14,1.14,0,0,1-.063,1.729c-.643.637-.533,1.191.173,1.7a7.714,7.714,0,0,1,.642.573c1.7-.984,1.7-.983,3.531-.185a2.078,2.078,0,0,0,.646.238,1.44,1.44,0,0,1,1.487,1.577c.027.671.352.934,1.018.859a12.516,12.516,0,0,1,1.282-.008c-.247-1.709.632-2.392,2.047-2.609a.8.8,0,0,0,.36-.16,2.115,2.115,0,0,1,3.123.212c.037.036.123.022.139.024l1.5-1.37c-1.346-1.056-.937-2.137-.365-3.458.555-1.282.917-2.456,2.694-2.23a7.472,7.472,0,0,0-.026-1.509c-.061-.268-.358-.653-.588-.683-1.022-.132-1.712-.524-1.8-1.652a1.346,1.346,0,0,0-.249-.641C237.115,150.568,236.986,149.43,238.392,148.318Zm-8.407-23.812c-5.458,4.255-11.872,18.263-10.343,22.74l3.168-3.408c.616.4,1.132.753,1.659,1.087a1.477,1.477,0,0,0,2.188-.916,9.494,9.494,0,0,0,.243-1.16c.055-.595.355-.768.922-.734.709.042,1.422.01,2.163.01Zm.085-2.567h47.218V119.66H230.071Zm57.907,61.616V150.487h-2.254v33.069Zm-20.46-66.338c-.061-.361-.14-.679-.166-1-.087-1.1-.649-1.39-1.748-1.382-7.739.054-15.477.029-23.216.029-2.186,0-2.186,0-2.493,2.223a.571.571,0,0,0,.024.133Zm-3.226,56.85v-2.183c-.131-.061-.19-.111-.248-.111q-11.464-.019-22.927-.013a.893.893,0,0,0-.66.422c-.278.578-.459,1.2-.705,1.884Zm-24.548-14.12a19.18,19.18,0,0,1,1.171,1.814,1.01,1.01,0,0,1-.03.906c-1.107,1.18-2.263,2.315-3.425,3.442-.268.26-.791.368-.9.66-1.263,3.251-2.469,6.525-3.707,9.839l2.7,1.843,6.932-18.5Zm38.738,23.614V164.723h-2.21v18.839Zm-47.554-8.581,3.585-9.608a1.124,1.124,0,0,0-1.258,1.165,2.4,2.4,0,0,1-.2.962c-.16.275-.48.635-.741.645-1.552.06-3.108.056-4.66,0a1.058,1.058,0,0,1-.7-.586c-.183-.412-.168-.91-.324-1.34a1.359,1.359,0,0,0-.551-.711c-1.138-.593-1.394-.515-2.336.549A33.658,33.658,0,0,0,230.928,174.981Zm38.078,8.57v-12.92h-2.182v12.92Zm-4.12-23.645c1.027,2.729,1.971,5.257,2.942,7.774a.8.8,0,0,0,.53.464c.963.047,1.929.022,3.021.022-1.021-2.717-1.962-5.25-2.939-7.77a.867.867,0,0,0-.609-.468C266.914,159.876,265.992,159.906,264.886,159.906Zm6.691,9.318v14.321h2.188C273.852,178.6,274.455,173.646,271.577,169.224Zm-52.158-19.917v2.057C219.9,150.7,220.417,150.04,219.419,149.307Z" transform="translate(0 0)" fill="url(#linear-gradient)"/>
        <path id="Trazado_1009006" data-name="Trazado 1009006" d="M306.82,190.413v-2.262h2.245V177.545h2.376v10.494h2.366v-6.92h2.353v6.914h2.415V184.66h2.352v3.447c1.628.048,3.349-.388,4.329,1.686l6.376-13.989,13.657,30.045H318c.323-.742.62-1.448.936-2.145q2.44-5.371,4.887-10.738a1.753,1.753,0,0,0-1.684-2.485c-2.615-.013-5.23,0-7.844,0q-3.475,0-6.951,0A5.013,5.013,0,0,1,306.82,190.413Zm34.8,13.1c-.513-1.137-.93-2.14-1.427-3.1a1.016,1.016,0,0,0-.771-.409q-7.791-.036-15.582-.008c-.235,0-.6.077-.682.233-.525,1.049-.988,2.129-1.509,3.284Zm-17.275-5.956h14.573c-.7-1.535-1.333-2.974-2.036-4.377-.1-.193-.553-.283-.845-.289-1.386-.029-2.774-.013-4.16-.013h-3.217l1.362,1.509-1.713,1.822-2.2-2.514Zm3.253-7.15h8.075l-4-8.788a6.635,6.635,0,0,0-.355.574C330.09,184.888,328.873,187.584,327.6,190.409Z" transform="translate(-72.009 -50.756)" fill="url(#linear-gradient)"/>
        <path id="Trazado_1009007" data-name="Trazado 1009007" d="M264.549,303.558a5.908,5.908,0,1,1-5.9-5.944A5.908,5.908,0,0,1,264.549,303.558Zm-9.421-.007a3.566,3.566,0,0,0,3.519,3.56,3.624,3.624,0,0,0,3.56-3.547,3.565,3.565,0,0,0-3.6-3.583A3.512,3.512,0,0,0,255.128,303.552Z" transform="translate(-28.663 -148.375)" fill="url(#linear-gradient)"/>
      </g>
    </g>
  </g>
</svg>
