<svg xmlns="http://www.w3.org/2000/svg" xmlns:xlink="http://www.w3.org/1999/xlink" width="500" height="331.71" viewBox="0 0 500 331.71">
  <defs>
    <clipPath id="clip-path">
      <path id="SVGID" d="M336.361,184.487a79.848,79.848,0,1,1-79.848-79.847A79.847,79.847,0,0,1,336.361,184.487Z" transform="translate(-176.666 -104.64)" fill="#2a3182"/>
    </clipPath>
  </defs>
  <g id="Grupo_1197967" data-name="Grupo 1197967" transform="translate(8734.059 6707.056)">
    <g id="Grupo_1197940" data-name="Grupo 1197940">
      <rect id="Rectángulo_460910" data-name="Rectángulo 460910" width="500" height="258" rx="38" transform="translate(-8734.059 -6676.689)" fill="#eee"/>
      <g id="Grupo_1197315" data-name="Grupo 1197315" transform="translate(-8728.037 -6772.393)">
        <path id="Trazado_1008353" data-name="Trazado 1008353" d="M439.876,348.363c0,10.376-88.3,18.786-197.225,18.786S45.428,358.739,45.428,348.363s88.3-18.785,197.224-18.785S439.876,337.989,439.876,348.363Z" transform="translate(1.575 29.897)" fill="#c193b2" style="mix-blend-mode: multiply;isolation: isolate"/>
        <g id="Grupo_1197222" data-name="Grupo 1197222" transform="translate(117.87 166.07)">
          <path id="Trazado_1008354" data-name="Trazado 1008354" d="M380.2,333.41c0,6.588-5.715,11.927-12.763,11.927H142.425c-7.05,0-12.762-5.34-12.762-11.927V167.758c0-6.586,5.713-11.927,12.762-11.927H367.434c7.048,0,12.763,5.341,12.763,11.927Z" transform="translate(-106.765 -155.831)" fill="#0d071e"/>
          <rect id="Rectángulo_460963" data-name="Rectángulo 460963" width="221.414" height="165.134" transform="translate(37.459 12.186)" fill="#fff"/>
          <path id="Trazado_1008355" data-name="Trazado 1008355" d="M405.422,338.933c0,4.29-3.1,7.768-6.915,7.768h-282.5c-3.82,0-6.917-3.477-6.917-7.768v-5.089c0-4.29,3.1-7.769,6.917-7.769h282.5c3.818,0,6.915,3.479,6.915,7.769Z" transform="translate(-109.092 -136.569)" fill="#0d071e"/>
          <g id="Grupo_1197221" data-name="Grupo 1197221" transform="translate(27.526 19.103)">
            <g id="Grupo_1197219" data-name="Grupo 1197219" transform="translate(0 45.237)" style="mix-blend-mode: soft-light;isolation: isolate">
              <path id="Trazado_1008356" data-name="Trazado 1008356" d="M136.181,229.168a2.361,2.361,0,0,1-2.361-2.36V215.991a2.36,2.36,0,1,1,4.72,0v10.818A2.359,2.359,0,0,1,136.181,229.168Z" transform="translate(-133.82 -213.631)" fill="#fff"/>
            </g>
            <g id="Grupo_1197220" data-name="Grupo 1197220" style="mix-blend-mode: soft-light;isolation: isolate">
              <path id="Trazado_1008357" data-name="Trazado 1008357" d="M136.181,213.312a2.361,2.361,0,0,1-2.361-2.361v-35.6a2.36,2.36,0,0,1,4.72,0v35.6A2.36,2.36,0,0,1,136.181,213.312Z" transform="translate(-133.82 -172.992)" fill="#fff"/>
            </g>
          </g>
          <path id="Trazado_1008358" data-name="Trazado 1008358" d="M367.434,155.831h-12.1c-1.006,36.091,1.637,128.777-.268,139.123-1.211,6.574-3.436,15.717-9.088,19.739-7.73,5.506-22.986,6.29-32.079,6.414-12.649.174-184.232-.42-184.232-.42V333.41c0,6.588,5.713,11.927,12.762,11.927H367.434c7.048,0,12.763-5.34,12.763-11.927V167.758C380.2,161.172,374.482,155.831,367.434,155.831Z" transform="translate(-106.765 -155.831)" fill="#c8c8c8" style="mix-blend-mode: multiply;isolation: isolate"/>
          <path id="Trazado_1008359" data-name="Trazado 1008359" d="M244.045,161.691a3.7,3.7,0,1,1-3.7-3.7A3.7,3.7,0,0,1,244.045,161.691Z" transform="translate(-94.66 -155.586)" fill="#fff"/>
        </g>
        <g id="Grupo_1197230" data-name="Grupo 1197230" transform="translate(193.09 109.087)">
          <g id="Grupo_1197226" data-name="Grupo 1197226">
            <path id="SVGID-2" data-name="SVGID" d="M336.361,184.487a79.848,79.848,0,1,1-79.848-79.847A79.847,79.847,0,0,1,336.361,184.487Z" transform="translate(-176.666 -104.64)" fill="#2a3182"/>
            <g id="Grupo_1197225" data-name="Grupo 1197225" clip-path="url(#clip-path)">
              <g id="Grupo_1197224" data-name="Grupo 1197224" transform="translate(-21.87 22.6)">
                <g id="Grupo_1197223" data-name="Grupo 1197223">
                  <path id="Trazado_1008360" data-name="Trazado 1008360" d="M341.848,132.8a5.675,5.675,0,0,1,4.441.823c2.3,1.479.986.823-.328,3.29s-2.3,1.643-1.48,4.439.987,1.482-.659,3.289-2.137,1.482-2.3,3.455-5.756,1.48-4.113,3.454,3.127,5.592,1.646,8.06-3.947.493-3.455-2.3,2.468-8.555-.327-7.9-.329-.822-1.975,2.467-6.907-.985-6.414,2.139,2.8,4.77,4.112,6.743,1.479,5.758-.33,7.9-3.62,4.933-2.468,7.237.165,4.606-1.644,4.606-3.948-6.745-6.415-1.809,5.922,1.974,1.644,7.566-7.4,2.467-6.742,6.414,3.781,5.592,1.316,7.9-7.4,2.8-6.087-.494-3.455-5.921-5.594-5.428-1.809-5.429-3.453-2.8-3.127,2.3-3.127,5.922,3.127,7.894-.163,6.084-3.046-12.995-7.074-12.5c-7,.857-4.524-7.238-9.13-3.042-1.482,1.351-3.121,3.123-2.138,5.921,1.564,4.441-4.192,1.81-5.838,4.605s-2.96,5.017-2.3,8.637,1.152,5.1-.823,7.731-3.613,5.771-3.289,8.553c.74,6.332-10.034,9.7-12.665,7.072s-.658-5.921-2.467-9.211-2.3-6.579-1.482-8.388.824-6.415-1.316-8.39-2.631-3.125-6.415-1.974-10.033-.329-10.033-6.58.328-5.594,4.605-10.2,6.25-3.126,9.049-4.933,4.768-.166,5.591,1.479,3.29,3.454,4.933,1.973,1.645.823,5.264,0,6.251-3.946,3.784-4.111c0,0-4.689,1.644-4.523-.412s.164-3.207,4.276-2.8,5.016-.987,3.126-2.22-1.974-3.536-3.948-1.729-3.453.329-3.289,2.056-1.728,2.056-3.125,2.222,1.151,1.728.081,3.7-1.974-1.644-2.55-2.713-2.8-4.443-4.111-4.771.987,2.8,2.22,3.536.824,3.536,0,3.619-2.714-.328-1.479-1.069a1.613,1.613,0,0,0-.824-2.962c-1.728-.247-1.151-1.974-1.808-2.3s-2.715.083-2.962,1.563-.9,1.729-2.467,1.809-1.645,1.318-1.07,2.057-3.454,2.056-4.358.74-2.138-3.782-.659-5.017,4.441.823,4.689-.328-2.139-2.633-.986-3.207,1.068-1.151,2.055-1.892.329-2.056,1.892-2.55,3.126-.329,4.031-1.4c0,0,.218-.74,1.973-.3s3.454.439,3.838-.164-2.247-2.247-1.206-2.961,3.509-.494,2.742-1.7-2.522-1.043-2.247-2.467,2.192-2.962,1.753-3.893-.164-2.522-1.151-1.591-2.961,3.017-2.468,4.057-.219,2.029.549,2.742.768,1.041-.384,2.3-2.029,2.905-2.906,1.644,0-3.07-1.919-1.754-2.576-.164-2.138-2.522,1.043-2.466,2.468-3.838a5.7,5.7,0,0,0,1.7-3.563,3.553,3.553,0,0,1,3.234-3.729c3.292-.6,5.374-2.412,5.374,0s8.555-.274,6.58,3.454-4,0-3.619,1.482.933,4.056,3.563,1.644,1.536-4.824,4.332-5.045,5.7-.986,5.045-1.809.108-1.81,1.59-1.206,4.221,3.179,3.125.931-2.358-4.551-1.1-5.154,1.865-.657,2.249,1.48,0,3.948.877,5.428,1.974.329,1.919-2.083-.492-3.619,1.1-3.893.109-.987-.658-2.522.767-1.7,2.247-3.071-1.26-2.521,1.152-4.113,3.4-1.15,4.112-3.013,2.742-1.865,3.07-.384,3.455,1.865,1.919,4.33,2.084,1.976,2.741.44,3.565.384,4.5.548,1.866-1.2,3.236-1.809,1.645,2.138,3.236,2.8,2.85.218,3.235-1.317.766-3.838,3.946-2.905,4.278,1.59,5.7.056,2.028-1.7,3.563-.494.932,2.355,3.18.547,4.5-2.741,6.962-1.59A15.775,15.775,0,0,0,341.848,132.8Z" transform="translate(-148.427 -124.398)" fill="#e9bcda"/>
                  <path id="Trazado_1008361" data-name="Trazado 1008361" d="M325.823,209.578s3.728.877,4.605-.548,3.618-1.865,4.167-.987-.767,2.961,1.316,3.07,2.3-4.056,4.057-1.316,2.853,4.606,1.973,8.225-3.837,5.592-4.933,7.567-4.276.766-5.044-.66-1.1-4.056-3.18-3.618-6.359-.219-7.9,1.316-3.51.878-2.851-.767,2.084-5.373,1.865-6.47,3.4-2.3,5.044-3.51S325.823,209.578,325.823,209.578Z" transform="translate(-138.815 -115.591)" fill="#e9bcda"/>
                  <path id="Trazado_1008362" data-name="Trazado 1008362" d="M208.55,132.932a4.561,4.561,0,0,1,5.592,1.645c.494.987,6.58-1.275,9.377-.945s2.466,3.288,1.315,3.618a9.261,9.261,0,0,0-3.784,2.469,5.126,5.126,0,0,1-4.605,1.973c-2.631,0-1.482,1.975-4.935,3.947s-5.1-2.467-3.619-2.467,2.548-2.446,2.3-3.453C209.77,137.959,205.754,134.084,208.55,132.932Z" transform="translate(-151.324 -124.081)" fill="#e9bcda"/>
                  <path id="Trazado_1008363" data-name="Trazado 1008363" d="M240.453,162.2s1.643.547,1.259,1.645-1.809,2.246-.327,2.521,3.07-.6,2.96-2.084-1.92-1.261-1.7-2.3-1.809-2.084-1.479-2.962-2.633.384-2.194,2.029S239.74,162.307,240.453,162.2Z" transform="translate(-147.751 -121.12)" fill="#e9bcda"/>
                  <path id="Trazado_1008364" data-name="Trazado 1008364" d="M238.636,165.148s1.7-.109,1.534-1.426-1.48-.932-1.151-1.809-2.686,1.591-1.809,2.3A6.285,6.285,0,0,0,238.636,165.148Z" transform="translate(-147.964 -120.781)" fill="#e9bcda"/>
                  <path id="Trazado_1008365" data-name="Trazado 1008365" d="M300.684,196.038s3.4,6.909,6.47,7.237.879-1.643.44-2.851-2.3-.548-2.742-1.754-1.426-3.509-2.742-3.181S300.684,196.038,300.684,196.038Z" transform="translate(-140.764 -116.964)" fill="#e9bcda"/>
                  <path id="Trazado_1008366" data-name="Trazado 1008366" d="M313.82,199.618s-.218-2.412.768-3.4-.439-1.863-1.974-1.1-2.193,1.754-2.084,2.961-.109,2.742-.767,3.289.878,3.729,3.509,2.413S313.93,201.262,313.82,199.618Z" transform="translate(-139.754 -117.035)" fill="#e9bcda"/>
                  <path id="Trazado_1008367" data-name="Trazado 1008367" d="M328.679,204.924s.218-.549,1.753-.878,2.633,2.083,3.619.988-2.521-1.867-3.4-3.4a2.823,2.823,0,0,0-3.18-1.316c-.548.22-2.194-1.207-4.386-.986s-1.536,1.972.657,2.192,3.29.877,3.618,2.412S327.581,205.582,328.679,204.924Z" transform="translate(-138.382 -116.529)" fill="#e9bcda"/>
                  <path id="Trazado_1008368" data-name="Trazado 1008368" d="M195.917,133.758a4.333,4.333,0,0,0,3.016.109,1.459,1.459,0,0,1,1.975,1.535c-.274.493-2.028.274-2.028,1.261s1.809,2.8,2.3,2.029-.055-.987,1.152-.987,1.918-.384,1.645-1.261-1.208-1.316-.274-2.193-.549-.659-2.084-.877-2.331-1.125-2.222-1.783-1.891,1.125-2.275,1.454-.548-1.7-1.754,0S195.917,133.758,195.917,133.758Z" transform="translate(-152.728 -124.207)" fill="#e9bcda"/>
                  <path id="Trazado_1008369" data-name="Trazado 1008369" d="M226.911,208.527c-1.07-.576-2.3-1.974-3.539-1.645s-3.535.412-3.7-1.892-1.89-4.11-4.276-3.123-2.549-4.277-3.535-3.288-1.563-.742-3.126,0-1.892-.906-2.879-.742-2.714,1.482-3.619,2.138-1.069-.246-2.877-.657-1.234-2.961-1.234-4.113-1.728-.329-2.385-1.316.823-2.056-.164-2.714-2.221,1.809-3.866,2.549-2.631-3.373-2.879-4.031-.328-1.808,1.563-3.206,3.125-.575,4.358-1.645,1.81-.412,2.961,0,.329,4.277,1.234,4.359,1.151-2.96.986-4.524,2.468-2.3,3.62-2.55,1.809-2.466,1.809-3.454,1.809-1.315,3.372-2.631-.247-2.3.165-4.441,2.631-2.467,5.263-2.467,3.947,1.316,4.852-2.549-4.44-1.4-2.8-3.536.411-4.113-.165-5.017-1.316,1.972-2.55,2.221-.576-1.317-.328-2.962-.329-2.056-1.233-1.15-2.138-.823-3.372.411a3.278,3.278,0,0,0-1.317,2.961c0,1.234,1.233,2.3-.328,3.372s-.494,2.633-1.81,3.784-1.151-1.728-.822-3.207,0-1.4-1.234-1.152-4.524-.082-4.194-2.138-.74-.823-.9-2.468a3.86,3.86,0,0,1,3.454-4.113c2.3-.081,2.961-1.562,2.961-1.809s.578-1.563,3.042-1.727,2.058-3.784,1.317-4.689-1.48,1.645-2.96,2.222-1.4-1.07-.577-2.633.658-4.605-.739-4.605-3.7,3.618-3.455,5.016-2.22,1.07-3.454.247-1.233-.411-3.126.494-3.372-.823-2.137-2.551a.855.855,0,0,0,.147-.317c.357-.631,1.468-2.035,4.541-2.724,4.03-.906,4.194-3.29,2.385-3.7s-4.443-1.563-4.443-2.879-1.315-1.563-3.454-.328-6.5.739-7.073,2.467-2.631,3.455-3.784,3.208c-1.975-.331-4.605-6.417-10.773-6.087s-4.853,6.58-4.853,6.58a3.874,3.874,0,0,0-3.7-.081c-2.139.986,1.315,1.479,1.4,2.877s-1.891.081-3.782,1.151-.741,3.126-.823,5.51,2.8,1.4,2.961,2.221-2.8,1.974-3.867,3.455,3.948-.331,5.1-.412,2.057-2.139,2.3-3.7,2.138-.577,2.633-1.234,1.069,1.974,2.467,1.645,3.7,1.645,3.043,3.127-.164,2.549,1.316,4.77,2.055,3.454.577,3.207-1.976.247-1.234,2.221,2.632,3.206.986,7.4.576,9.7,1.727,10.526,2.058,3.7,2.549,5.84,2.388,3.208,1.975.985-2.631-4.768-1.48-5.509,1.317,3.7,2.468,4.359,1.975,2.056,1.975,4.194,4.277,3.619,5.017,3.126,2.3,1.892,4.523,2.549,2.549.166,3.289,1.48,2.879,1.974,4.523,2.221.412,1.809.331,2.879-1.645,1.892-2.222,2.467a3.738,3.738,0,0,0-.327,3.29c.41.987,1.808.494,2.713,3.7s4.689,4.03,5.182,4.936,1.071,3.617.412,4.6-.329,6.087-.329,6.745.823,2.385-.247,3.62.165,3.287-.164,4.6,1.479,2.056.494,3.454,1.725,3.619,2.055,5.51,2.385,1.4,4.194,1.316-.9-1.891-1.809-3.7-.576-.574.492-1.727.412-1.645.166-3.619.74-.986,1.233-3.042,1.48-1.4,2.714-2.633-1.151-2.8,2.221-3.206,2.3-1.482,3.207-4.771.824-2.879,4.523-4.359,1.645-4.277,1.81-6.333,2.3-2.056,2.879-4.36S227.98,209.1,226.911,208.527Z" transform="translate(-157.019 -124.054)" fill="#e9bcda"/>
                  <path id="Trazado_1008370" data-name="Trazado 1008370" d="M192.253,130.043s1.233-.206.783.617.2,1.4,1.027.986,1.151-.823,1.974-.74,2.3.206,2.015-.492-.864-.906-.411-1.483-.7-.617-1.358.084-1.768.37-1.685-.084-.042-.574-.494-.493-1.275-.574-2.384-.328-3.579,1.275-2.55,1.357,1.193,1.111,2.057.617S192.253,130.043,192.253,130.043Z" transform="translate(-153.409 -124.591)" fill="#e9bcda"/>
                  <path id="Trazado_1008371" data-name="Trazado 1008371" d="M207.708,125.5s8.553-1.07,7.773-.247-4.524,1.152-4.441,1.892-2.057,1.4-2.673,1.07-2.181,1.151-2.509.206-.206-1.234,1.07-1.688S208.079,125.789,207.708,125.5Z" transform="translate(-151.51 -124.943)" fill="#e9bcda"/>
                  <path id="Trazado_1008372" data-name="Trazado 1008372" d="M200.335,131.035s.534,1.44,1.562.987,1.645-.946,2.385-.453,1.48-.658.74-1.644-1.009-1.255-.494-2.426c.148-.336-1.191-.166-1.6.74a1.259,1.259,0,0,1-1.851.7C200.581,128.526,199.019,129.719,200.335,131.035Z" transform="translate(-152.176 -124.671)" fill="#e9bcda"/>
                  <path id="Trazado_1008373" data-name="Trazado 1008373" d="M318.14,197.555s-2.8-2.3-1.974-3.946a7.844,7.844,0,0,0,1.151-5.1c-.327-1.974.987-3.782,2.468-2.8s1.152,3.785,1.644,5.923-.492,1.975,1.316,4.277S320.608,199.034,318.14,197.555Z" transform="translate(-139.029 -118.098)" fill="#e9bcda"/>
                </g>
              </g>
            </g>
          </g>
          <path id="Trazado_1008374" data-name="Trazado 1008374" d="M258.434,104.779a76.376,76.376,0,1,1-55.3,141.631,79.846,79.846,0,1,0,55.3-141.631Z" transform="translate(-173.672 -104.624)" fill="#c8c8c8" style="mix-blend-mode: multiply;isolation: isolate"/>
          <g id="Grupo_1197229" data-name="Grupo 1197229" transform="translate(19.539 16.492)">
            <g id="Grupo_1197227" data-name="Grupo 1197227" transform="translate(12.47)" style="mix-blend-mode: soft-light;isolation: isolate">
              <path id="Trazado_1008375" data-name="Trazado 1008375" d="M208.277,138.494a2.856,2.856,0,0,1-2.02-4.874c12.487-12.487,28.685-14.09,29.366-14.153a2.856,2.856,0,0,1,.525,5.688h0c-.149.014-14.87,1.519-25.851,12.5A2.847,2.847,0,0,1,208.277,138.494Z" transform="translate(-205.421 -119.456)" fill="#fff"/>
            </g>
            <g id="Grupo_1197228" data-name="Grupo 1197228" transform="translate(0 21.044)" style="mix-blend-mode: soft-light;isolation: isolate">
              <path id="Trazado_1008376" data-name="Trazado 1008376" d="M197.078,157.2a2.861,2.861,0,0,1-2.816-3.346c2.033-11.7,6.278-14.853,7.614-15.334a3.148,3.148,0,0,1,3.075,5.116c-.032.022-3.482,2.107-5.061,11.2A2.858,2.858,0,0,1,197.078,157.2Z" transform="translate(-194.219 -138.361)" fill="#fff"/>
            </g>
          </g>
        </g>
        <g id="Grupo_1197235" data-name="Grupo 1197235" transform="translate(211.559 188.934)">
          <path id="Trazado_1008377" data-name="Trazado 1008377" d="M250.731,176.371s-57.473,49.83-57.473,51.291v78.863a3.152,3.152,0,0,0,3.154,3.152H305.025a3.152,3.152,0,0,0,3.154-3.152V227.662C308.179,226.213,250.731,176.371,250.731,176.371Z" transform="translate(-193.258 -176.371)" fill="#c4fddb"/>
          <g id="Grupo_1197231" data-name="Grupo 1197231" transform="translate(8.717 14.167)">
            <path id="Rectángulo_460964" data-name="Rectángulo 460964" d="M2.832,0H90.717a2.832,2.832,0,0,1,2.832,2.832V92.817a2.834,2.834,0,0,1-2.834,2.834H2.833A2.833,2.833,0,0,1,0,92.818V2.832A2.832,2.832,0,0,1,2.832,0Z" transform="translate(0.068 0.054)" fill="#fff7ba"/>
            <path id="Trazado_1008378" data-name="Trazado 1008378" d="M291.484,189.1h-6.86c.842,8.026.961,61.178.929,65.316-.022,3.03.112,6.306-.787,9.245a10.451,10.451,0,0,1-8.757,7.656c-16.143,2.462-65.69.137-74.92.293v9.987a3.154,3.154,0,0,0,3.154,3.155h87.242a3.154,3.154,0,0,0,3.154-3.155V192.252A3.154,3.154,0,0,0,291.484,189.1Z" transform="translate(-201.089 -189.098)" fill="#fce3dc" style="mix-blend-mode: multiply;isolation: isolate"/>
          </g>
          <path id="Trazado_1008379" data-name="Trazado 1008379" d="M308.179,301.313a3.152,3.152,0,0,1-3.154,3.152H196.412a3.152,3.152,0,0,1-3.154-3.152V222.45c0-.869,51.317,40.356,57.461,40.356,6.018,0,57.46-41.229,57.46-40.356Z" transform="translate(-193.258 -171.159)" fill="#3ef989"/>
          <path id="Trazado_1008380" data-name="Trazado 1008380" d="M299.57,228.752c-.5,5.29.708,49.723-1,55.216-1.537,4.946-5.424,7.967-10.373,9.214-6.1,1.533-12.487,1.349-18.721.963-7.869-.486-58.684-1.277-76.22-1.3v8.469a3.152,3.152,0,0,0,3.154,3.152H305.025a3.152,3.152,0,0,0,3.154-3.152V222.45C308.179,222.226,304.752,224.8,299.57,228.752Z" transform="translate(-193.258 -171.159)" fill="#d3d3a9" style="mix-blend-mode: multiply;isolation: isolate"/>
          <g id="Grupo_1197234" data-name="Grupo 1197234" transform="translate(4.991 63.957)">
            <g id="Grupo_1197232" data-name="Grupo 1197232" transform="translate(0 20.516)" style="mix-blend-mode: soft-light;isolation: isolate">
              <path id="Trazado_1008381" data-name="Trazado 1008381" d="M198.812,259.3a1.07,1.07,0,0,1-1.07-1.071v-4.906a1.07,1.07,0,1,1,2.139,0v4.906A1.07,1.07,0,0,1,198.812,259.3Z" transform="translate(-197.742 -252.258)" fill="#fff"/>
            </g>
            <g id="Grupo_1197233" data-name="Grupo 1197233" style="mix-blend-mode: soft-light;isolation: isolate">
              <path id="Trazado_1008382" data-name="Trazado 1008382" d="M198.812,252.113a1.069,1.069,0,0,1-1.07-1.07V234.9a1.07,1.07,0,1,1,2.139,0v16.145A1.069,1.069,0,0,1,198.812,252.113Z" transform="translate(-197.742 -233.827)" fill="#fff"/>
            </g>
          </g>
        </g>
        <g id="Grupo_1197247" data-name="Grupo 1197247" transform="translate(153.723 90.499)">
          <path id="Trazado_1008383" data-name="Trazado 1008383" d="M172.221,157.4c-.987,1.592-21.683,2.305-22.67-.768-.633-1.967,0-11.2,0-11.2h22.836S173.062,156.045,172.221,157.4Z" transform="translate(-140.399 -81.437)" fill="#1d1e4e"/>
          <path id="Trazado_1008384" data-name="Trazado 1008384" d="M172.357,149.973c.679-9.855,1.02-31.147-.356-32.21-2.99-2.313-8.691-2.216-8.691-2.216l-5.192.008s-5.645.116-7.879,2.348c-1.42,1.416-.809,22.257-.363,32.071Z" transform="translate(-140.39 -84.818)" fill="#692b5f"/>
          <path id="Trazado_1008385" data-name="Trazado 1008385" d="M149.743,144.606c.03.736.06,1.431.089,2.079h22.481c.045-.646.088-1.344.128-2.079Z" transform="translate(-140.346 -81.53)" fill="#692b5f" style="mix-blend-mode: multiply;isolation: isolate"/>
          <path id="Trazado_1008386" data-name="Trazado 1008386" d="M162.353,116.107s-.766,3.473-2.586,3.473c-2.077,0-2.765-3.473-2.765-3.473v-5.6h5.351Z" transform="translate(-139.524 -85.389)" fill="#f9b595"/>
          <path id="Trazado_1008387" data-name="Trazado 1008387" d="M169.9,100.508c.177,2.746,1.285,4.755.213,7.2-1.23,2.806-7.5,6.13-9.61,6.13s-7.685-2.865-9.456-5.818c-1.43-2.383-.617-5.034-.368-7.929.675-7.9,3.235-11.865,9.482-11.865S169.324,91.624,169.9,100.508Z" transform="translate(-140.292 -87.909)" fill="#f9b595"/>
          <path id="Trazado_1008388" data-name="Trazado 1008388" d="M169.622,100.372c-.376-5.851-1.773-9.317-4.466-11,2,1.892,3.069,5.157,3.392,10.173.177,2.746,1.285,4.755.213,7.2-1.229,2.806-7.5,6.131-9.61,6.131-1.36,0-4.149-1.189-6.438-2.822,2.413,2.047,5.932,3.653,7.511,3.653,2.113,0,8.381-3.325,9.611-6.131C170.906,105.125,169.8,103.117,169.622,100.372Z" transform="translate(-140.01 -87.78)" fill="#fdeae8" style="mix-blend-mode: multiply;isolation: isolate"/>
          <path id="Trazado_1008389" data-name="Trazado 1008389" d="M155.437,93.829s-2.507.255-2.842,5.715c-.171,2.841-1.349,2.98-2.3,3.325a39.711,39.711,0,0,1,1.265-8.97Z" transform="translate(-140.283 -87.276)" fill="#191840"/>
          <path id="Trazado_1008390" data-name="Trazado 1008390" d="M163.516,93.487s2.508.254,2.841,5.715c.174,2.84,1.454,2.7,2.407,3.048a42.353,42.353,0,0,0-1.368-8.694Z" transform="translate(-138.787 -87.314)" fill="#191840"/>
          <g id="Grupo_1197236" data-name="Grupo 1197236" transform="translate(9.376 13.272)">
            <path id="Trazado_1008391" data-name="Trazado 1008391" d="M151.741,102c-.011-.765.366-1.406-.4-1.84-.927-.521-1.438-.378-1.571.717-.233,1.91.554,2.9.866,2.94C152.217,103.995,151.749,102.639,151.741,102Z" transform="translate(-149.724 -99.864)" fill="#f9b595"/>
            <path id="Trazado_1008392" data-name="Trazado 1008392" d="M150.877,103.5c-.311-.036-1.1-1.031-.866-2.941a1.971,1.971,0,0,1,.16-.621,1.211,1.211,0,0,0-.4.917c-.233,1.909.554,2.9.865,2.94.669.078.968-.12,1.1-.422A1.267,1.267,0,0,1,150.877,103.5Z" transform="translate(-149.723 -99.856)" fill="#fdeae8" style="mix-blend-mode: multiply;isolation: isolate"/>
          </g>
          <g id="Grupo_1197237" data-name="Grupo 1197237" transform="translate(28.433 13.272)">
            <path id="Trazado_1008393" data-name="Trazado 1008393" d="M166.926,102c.011-.765-.366-1.406.4-1.84.927-.521,1.438-.378,1.571.717.232,1.91-.554,2.9-.866,2.94C166.452,103.995,166.918,102.639,166.926,102Z" transform="translate(-166.844 -99.864)" fill="#f9b595"/>
            <path id="Trazado_1008394" data-name="Trazado 1008394" d="M167.781,103.5c.312-.036,1.1-1.031.867-2.941a2.034,2.034,0,0,0-.16-.621,1.211,1.211,0,0,1,.4.917c.233,1.909-.555,2.9-.865,2.94-.669.078-.971-.12-1.1-.422A1.267,1.267,0,0,0,167.781,103.5Z" transform="translate(-166.834 -99.856)" fill="#fdeae8" style="mix-blend-mode: multiply;isolation: isolate"/>
          </g>
          <path id="Trazado_1008395" data-name="Trazado 1008395" d="M151.18,95.881s2.424-1.94,6.58.069,7.759,2.91,12.122-.553c0,0-2.016-7.117-7.758-7.412C156.721,87.707,152.565,88.607,151.18,95.881Z" transform="translate(-140.183 -87.942)" fill="#191840"/>
          <path id="Trazado_1008396" data-name="Trazado 1008396" d="M170.9,117.761a14.972,14.972,0,0,0-8.469-2.182s-.257,27.673,2.2,37.716c.392,1.6,6.607,0,6.607,0C171.94,143.442,172.331,118.824,170.9,117.761Z" transform="translate(-138.911 -84.816)" fill="#24a8a8"/>
          <path id="Trazado_1008397" data-name="Trazado 1008397" d="M157.478,115.531c-4.468.26-6.5,1.169-7.759,2.373-1.483,1.416-.883,25.582-.415,35.395,0,0,5.12,1.286,5.781,0C157.758,148.1,157.478,115.531,157.478,115.531Z" transform="translate(-140.455 -84.82)" fill="#24a8a8"/>
          <g id="Grupo_1197238" data-name="Grupo 1197238" transform="translate(8.513 67.523)">
            <path id="Trazado_1008398" data-name="Trazado 1008398" d="M158.333,197.914c.225,2.942.718,8.823-1.988,9.221-2.741.4-3.692-6.251-3.917-9.191s.952-3.328,2.757-3.466S158.109,194.975,158.333,197.914Z" transform="translate(-148.558 -143.412)" fill="#692b5f"/>
            <path id="Trazado_1008399" data-name="Trazado 1008399" d="M152.677,202.811c.425.98,5.808.387,5.946-.265,1.142-5.408-1.2-50.349-1.2-50.349a3.948,3.948,0,0,0-4.308-3.585,4.07,4.07,0,0,0-4.165,4.105S151.5,200.088,152.677,202.811Z" transform="translate(-148.949 -148.601)" fill="#20235b"/>
          </g>
          <g id="Grupo_1197239" data-name="Grupo 1197239" transform="translate(21.324 67.708)">
            <path id="Trazado_1008400" data-name="Trazado 1008400" d="M160.714,197.987c-.277,2.934-.875,8.8,1.822,9.252,2.735.454,3.806-6.184,4.082-9.119s-.891-3.346-2.695-3.515S160.99,195.051,160.714,197.987Z" transform="translate(-160.458 -143.584)" fill="#692b5f"/>
            <path id="Trazado_1008401" data-name="Trazado 1008401" d="M166.748,202.984c-.442.972-5.812.285-5.939-.37-1.047-5.427,2.1-50.32,2.1-50.32a3.952,3.952,0,0,1,4.372-3.509,4.071,4.071,0,0,1,4.093,4.179S167.977,200.283,166.748,202.984Z" transform="translate(-160.442 -148.768)" fill="#20235b"/>
          </g>
          <g id="Grupo_1197242" data-name="Grupo 1197242" transform="translate(0 32.106)">
            <path id="Trazado_1008402" data-name="Trazado 1008402" d="M163.213,148.039c-.193.463-.964.269-1.631,0,1.632,1.34,1.709,2.578,1.2,3.286a1.811,1.811,0,0,1-2.8.358c-.59-.577-2.924-2.909-2.924-2.909-.835-.975-.79-1.508-.01-2.381.554-.618,1-.815,2.206-.413.057.007,3.424,1.111,3.424,1.111C163.169,147.259,163.442,147.483,163.213,148.039Z" transform="translate(-139.586 -113.505)" fill="#f9b595"/>
            <g id="Grupo_1197241" data-name="Grupo 1197241">
              <g id="Grupo_1197240" data-name="Grupo 1197240">
                <path id="Trazado_1008403" data-name="Trazado 1008403" d="M158.65,152.262c-4.478-3.54-16.36-12.538-16.48-12.63a2.2,2.2,0,0,1-.661-2.685l8.88-18.9a2.2,2.2,0,1,1,3.975,1.867l-8.124,17.294c3.314,2.515,11.636,8.678,15.133,11.609C161.969,149.314,159.126,152.638,158.65,152.262Z" transform="translate(-141.301 -116.785)" fill="#24a8a8"/>
              </g>
            </g>
          </g>
          <g id="Grupo_1197245" data-name="Grupo 1197245" transform="translate(16.661 32.218)">
            <path id="Trazado_1008404" data-name="Trazado 1008404" d="M156.338,147.694c.176.471.954.305,1.631.061-1.68,1.279-1.8,2.513-1.322,3.239a1.812,1.812,0,0,0,2.781.46c.61-.555,3.028-2.8,3.028-2.8.87-.945.845-1.479.1-2.379-.532-.638-.971-.85-2.191-.493-.057.006-3.462.986-3.462.986C156.409,146.916,156.129,147.13,156.338,147.694Z" transform="translate(-156.268 -113.635)" fill="#f9b595"/>
            <g id="Grupo_1197244" data-name="Grupo 1197244" transform="translate(3.624)">
              <g id="Grupo_1197243" data-name="Grupo 1197243">
                <path id="Trazado_1008405" data-name="Trazado 1008405" d="M162.21,152.114c4.6-3.375,16.8-11.938,16.926-12.024a2.2,2.2,0,0,0,.758-2.658L171.7,118.221a2.2,2.2,0,1,0-4.04,1.722l7.494,17.575c-3.4,2.394-11.943,8.252-15.544,11.054C159,149.048,161.72,152.472,162.21,152.114Z" transform="translate(-159.524 -116.885)" fill="#24a8a8"/>
              </g>
            </g>
          </g>
          <g id="Grupo_1197246" data-name="Grupo 1197246" transform="translate(4.1 51.218)">
            <path id="Trazado_1008406" data-name="Trazado 1008406" d="M173.675,154.085a1.174,1.174,0,0,1-1.236,1.1l-23.384-.035a1.174,1.174,0,0,1-1.237-1.1l-2.835-18.995a1.177,1.177,0,0,1,1.238-1.1h28.706a1.177,1.177,0,0,1,1.238,1.1Z" transform="translate(-144.984 -133.954)" fill="#0d071e"/>
            <path id="Trazado_1008407" data-name="Trazado 1008407" d="M162.934,143.791a3.55,3.55,0,1,1-3.55-3.551A3.551,3.551,0,0,1,162.934,143.791Z" transform="translate(-143.757 -133.243)" fill="#fff"/>
          </g>
        </g>
        <g id="Grupo_1197261" data-name="Grupo 1197261" transform="translate(99.55 282.584)">
          <path id="Trazado_1008408" data-name="Trazado 1008408" d="M139.6,331.893c.779-11.32,1.171-35.778-.411-37-3.433-2.657-9.982-2.547-9.982-2.547l-5.964.01s-6.482.131-9.051,2.7c-1.631,1.628-.931,25.567-.415,36.839Z" transform="translate(-90.31 -256.899)" fill="#24a8a8"/>
          <path id="Trazado_1008409" data-name="Trazado 1008409" d="M113.621,325.728c.035.844.069,1.644.1,2.388h25.823c.051-.742.1-1.543.148-2.388Z" transform="translate(-90.259 -253.122)" fill="#009dcc" style="mix-blend-mode: multiply;isolation: isolate"/>
          <path id="Trazado_1008410" data-name="Trazado 1008410" d="M128.106,292.991s-.881,3.989-2.969,3.989c-2.388,0-3.178-3.989-3.178-3.989v-6.433h6.147Z" transform="translate(-89.316 -257.554)" fill="#f9b595"/>
          <path id="Trazado_1008411" data-name="Trazado 1008411" d="M136.769,275.072c.2,3.156,1.476,5.462.245,8.274-1.413,3.224-8.614,7.042-11.04,7.042s-8.826-3.292-10.861-6.684c-1.643-2.738-.708-5.782-.423-9.109.775-9.07,3.715-13.627,10.891-13.627S136.113,264.867,136.769,275.072Z" transform="translate(-90.197 -260.45)" fill="#f9b595"/>
          <path id="Trazado_1008412" data-name="Trazado 1008412" d="M136.455,274.915c-.431-6.719-2.038-10.7-5.13-12.642,2.294,2.175,3.528,5.925,3.9,11.686.2,3.155,1.477,5.464.245,8.274-1.411,3.224-8.615,7.042-11.04,7.042-1.561,0-4.764-1.365-7.395-3.24,2.772,2.35,6.812,4.2,8.628,4.2,2.426,0,9.626-3.818,11.04-7.043C137.932,280.378,136.659,278.07,136.455,274.915Z" transform="translate(-89.873 -260.302)" fill="#fdeae8" style="mix-blend-mode: multiply;isolation: isolate"/>
          <path id="Trazado_1008413" data-name="Trazado 1008413" d="M120.1,267.186s-2.879.292-3.262,6.564c-.2,3.263-1.552,3.421-2.646,3.819a15.428,15.428,0,0,1-.216-6.048c.209-1.33,1.262-2.1,1.667-4.257Z" transform="translate(-90.241 -259.746)" fill="#191840"/>
          <path id="Trazado_1008414" data-name="Trazado 1008414" d="M129.34,266.794s2.88.293,3.263,6.564c.2,3.263,1.671,3.1,2.765,3.5a16.084,16.084,0,0,0-.037-5.847c-.22-1.247-1.115-2.138-1.457-4.242Z" transform="translate(-88.481 -259.793)" fill="#191840"/>
          <path id="Trazado_1008415" data-name="Trazado 1008415" d="M114.853,270.751s.982,2.776,2.665.737c2.5-3.034,6.662-2.113,7.585-1.633,2.256,1.173,6.182,1.277,7.711.116a2.6,2.6,0,0,1,3.238.275,8.128,8.128,0,0,0-1.23-4.044c-1.331-1.988-.492-2.85-2.276-3.515-1.126-.422-2-2.758-4.674-2.052a8.234,8.234,0,0,1-4.566.1,2.879,2.879,0,0,0-3.164.914c-.8.826-1.347,1.916-2.46,2.344C114.934,265.052,115.878,267.487,114.853,270.751Z" transform="translate(-90.12 -260.502)" fill="#191840"/>
          <g id="Grupo_1197248" data-name="Grupo 1197248" transform="translate(23.169 15.207)">
            <path id="Trazado_1008416" data-name="Trazado 1008416" d="M115.764,276.612c-.012-.877.421-1.616-.464-2.114-1.063-.6-1.653-.435-1.8.824-.268,2.193.637,3.337.994,3.378C116.311,278.909,115.773,277.352,115.764,276.612Z" transform="translate(-113.448 -274.164)" fill="#f9b595"/>
            <path id="Trazado_1008417" data-name="Trazado 1008417" d="M114.771,278.341c-.357-.041-1.261-1.184-.994-3.379a2.32,2.32,0,0,1,.184-.715,1.405,1.405,0,0,0-.46,1.054c-.267,2.2.637,3.337,1,3.378.768.088,1.112-.139,1.259-.484A1.47,1.47,0,0,1,114.771,278.341Z" transform="translate(-113.448 -274.154)" fill="#fdeae8" style="mix-blend-mode: multiply;isolation: isolate"/>
          </g>
          <g id="Grupo_1197249" data-name="Grupo 1197249" transform="translate(45.06 15.207)">
            <path id="Trazado_1008418" data-name="Trazado 1008418" d="M133.21,276.612c.011-.877-.423-1.616.463-2.114,1.063-.6,1.652-.435,1.8.824.267,2.193-.637,3.337-.994,3.378C132.662,278.909,133.2,277.352,133.21,276.612Z" transform="translate(-133.113 -274.164)" fill="#f9b595"/>
            <path id="Trazado_1008419" data-name="Trazado 1008419" d="M134.19,278.341c.357-.041,1.262-1.184,1-3.379a2.317,2.317,0,0,0-.185-.715,1.4,1.4,0,0,1,.461,1.054c.266,2.194-.638,3.337-.994,3.378-.769.088-1.114-.139-1.26-.484A1.466,1.466,0,0,0,134.19,278.341Z" transform="translate(-133.103 -274.154)" fill="#fdeae8" style="mix-blend-mode: multiply;isolation: isolate"/>
          </g>
          <g id="Grupo_1197252" data-name="Grupo 1197252" transform="translate(12.917 37.218)">
            <path id="Trazado_1008420" data-name="Trazado 1008420" d="M129.408,329.84c-.223.533-1.108.311-1.875,0,1.877,1.538,1.966,2.961,1.384,3.774a2.083,2.083,0,0,1-3.213.413c-.676-.663-3.357-3.341-3.357-3.341-.961-1.122-.909-1.735-.011-2.735.637-.711,1.149-.937,2.534-.475.066.007,3.935,1.276,3.935,1.276C129.359,328.943,129.673,329.2,129.408,329.84Z" transform="translate(-102.268 -290.169)" fill="#f9b595"/>
            <g id="Grupo_1197251" data-name="Grupo 1197251">
              <g id="Grupo_1197250" data-name="Grupo 1197250">
                <path id="Trazado_1008421" data-name="Trazado 1008421" d="M124.167,334.691c-5.144-4.067-18.792-14.4-18.929-14.509a2.52,2.52,0,0,1-.76-3.082l10.2-21.713a2.522,2.522,0,1,1,4.565,2.144L109.911,317.4c3.808,2.889,13.367,9.97,17.384,13.337C127.978,331.305,124.714,335.122,124.167,334.691Z" transform="translate(-104.237 -293.937)" fill="#24a8a8"/>
              </g>
            </g>
          </g>
          <g id="Grupo_1197255" data-name="Grupo 1197255" transform="translate(31.407 37.372)">
            <path id="Trazado_1008422" data-name="Trazado 1008422" d="M120.929,329.467c.2.54,1.1.35,1.873.069-1.931,1.469-2.072,2.887-1.519,3.721a2.08,2.08,0,0,0,3.194.528c.7-.637,3.477-3.216,3.477-3.216,1-1.086.971-1.7.111-2.733-.611-.734-1.113-.977-2.517-.567-.066,0-3.976,1.133-3.976,1.133C121.01,328.572,120.689,328.819,120.929,329.467Z" transform="translate(-120.849 -290.342)" fill="#f9b595"/>
            <g id="Grupo_1197254" data-name="Grupo 1197254" transform="translate(4.161)">
              <g id="Grupo_1197253" data-name="Grupo 1197253">
                <path id="Trazado_1008423" data-name="Trazado 1008423" d="M127.673,334.542c5.289-3.876,19.3-13.713,19.443-13.812a2.521,2.521,0,0,0,.872-3.053l-9.409-22.067a2.522,2.522,0,1,0-4.64,1.977l8.607,20.19c-3.909,2.749-13.718,9.477-17.856,12.7C123.987,331.022,127.11,334.954,127.673,334.542Z" transform="translate(-124.587 -294.075)" fill="#24a8a8"/>
              </g>
            </g>
          </g>
          <g id="Grupo_1197257" data-name="Grupo 1197257" transform="translate(0 74.993)">
            <g id="Grupo_1197256" data-name="Grupo 1197256" transform="translate(42.561 15.065)">
              <path id="Trazado_1008424" data-name="Trazado 1008424" d="M145.7,347.14c-3.851-1.759-7.5-4.458-9.624-5.545,0,0-3.258-1.224-5.206,2.565l1.381,5.045s8.158,1.531,13.061,2.854S149.283,348.776,145.7,347.14Z" transform="translate(-130.869 -341.406)" fill="#24a8a8"/>
              <path id="Trazado_1008425" data-name="Trazado 1008425" d="M131.44,343.171c.471-.341,2.638-.156,3.24-.1a13.854,13.854,0,0,1,4.943,1.642c2.172,1.024,2.665,1.473,4.882,2.4a7.991,7.991,0,0,1,2.461,1.34,11.51,11.51,0,0,1,1.618,1.972,5.071,5.071,0,0,0-2.951-3.286c-3.851-1.759-7.5-4.458-9.624-5.545A4.16,4.16,0,0,0,131.44,343.171Z" transform="translate(-130.804 -341.404)" fill="#0095c1" style="mix-blend-mode: multiply;isolation: isolate"/>
            </g>
            <path id="Trazado_1008426" data-name="Trazado 1008426" d="M111.806,339.721c2.677.629,12.895-1.385,18.014-5.148,4.288-3.154,2.9-6.559,2.9-6.559l-16.757-.141a75.583,75.583,0,0,0-19.407,8.464,11,11,0,0,0-2.657,2.669C93.175,340.522,98.514,336.6,111.806,339.721Z" transform="translate(-92.498 -327.873)" fill="#20235b"/>
            <path id="Trazado_1008427" data-name="Trazado 1008427" d="M111.458,338.6c.272-.272-10.278-4.424-15.869-1.607-2.963,1.492-7.018,8.353,6.6,10.34,16.142,2.353,33.924,3.09,34.743,2.806,1.7-.587,2.018-5.594.6-6.747C137.028,342.983,110.113,339.946,111.458,338.6Z" transform="translate(-92.634 -326.951)" fill="#f9b595"/>
          </g>
          <g id="Grupo_1197259" data-name="Grupo 1197259" transform="translate(11.855 74.993)">
            <g id="Grupo_1197258" data-name="Grupo 1197258" transform="translate(0 15.065)">
              <path id="Trazado_1008428" data-name="Trazado 1008428" d="M106.274,347.14c3.853-1.759,7.5-4.458,9.623-5.545,0,0,3.257-1.224,5.207,2.565l-1.383,5.045s-8.157,1.531-13.059,2.854S102.691,348.776,106.274,347.14Z" transform="translate(-103.283 -341.406)" fill="#24a8a8"/>
              <path id="Trazado_1008429" data-name="Trazado 1008429" d="M120.465,343.171c-.471-.341-2.639-.156-3.24-.1a13.86,13.86,0,0,0-4.945,1.642c-2.172,1.024-2.664,1.473-4.881,2.4a8,8,0,0,0-2.461,1.34,11.458,11.458,0,0,0-1.619,1.972,5.068,5.068,0,0,1,2.951-3.286c3.853-1.759,7.5-4.458,9.623-5.545A4.161,4.161,0,0,1,120.465,343.171Z" transform="translate(-103.279 -341.404)" fill="#0095c1" style="mix-blend-mode: multiply;isolation: isolate"/>
            </g>
            <path id="Trazado_1008430" data-name="Trazado 1008430" d="M142.307,339.721c-2.845.669-14.481-2.136-19.516-5.844-2.646-1.946-.693-5.925-.693-5.925l16.569-.079a76.282,76.282,0,0,1,18.889,8.464,11.013,11.013,0,0,1,2.659,2.669C160.938,340.522,155.6,336.6,142.307,339.721Z" transform="translate(-101.233 -327.873)" fill="#20235b"/>
            <path id="Trazado_1008431" data-name="Trazado 1008431" d="M143.358,338.6c-.273-.272,10.278-4.424,15.868-1.607,2.965,1.492,7.019,8.353-6.6,10.34-16.142,2.353-33.924,3.09-34.745,2.806-1.7-.587-2.017-5.594-.6-6.747C117.788,342.983,144.7,339.946,143.358,338.6Z" transform="translate(-101.801 -326.951)" fill="#f9b595"/>
          </g>
          <g id="Grupo_1197260" data-name="Grupo 1197260" transform="translate(17.476 61.905)">
            <path id="Trazado_1008432" data-name="Trazado 1008432" d="M142.652,340.2a1.4,1.4,0,0,1-1.477,1.319l-27.973-.041a1.4,1.4,0,0,1-1.478-1.318l-3.391-22.722a1.4,1.4,0,0,1,1.478-1.319h34.34a1.4,1.4,0,0,1,1.478,1.319Z" transform="translate(-108.333 -316.115)" fill="#0d071e"/>
            <path id="Trazado_1008433" data-name="Trazado 1008433" d="M129.8,327.881a4.247,4.247,0,1,1-4.246-4.246A4.247,4.247,0,0,1,129.8,327.881Z" transform="translate(-106.865 -315.264)" fill="#fff"/>
          </g>
        </g>
        <g id="Grupo_1197271" data-name="Grupo 1197271" transform="translate(31.509 213.027)">
          <path id="Trazado_1008434" data-name="Trazado 1008434" d="M89.631,278.109c-3.09-10.329-.842-17.086-.139-24.185.82-8.282.545-13.3-.282-13.939-3.538-2.737-10.285-2.624-10.285-2.624l-6.147.01s-6.679.136-9.325,2.777c-.895.893-.608,6.4.541,13.447,1.06,6.514,2.3,14.266-.97,24.514Z" transform="translate(-27.954 -193.563)" fill="#e9bcda"/>
          <path id="Trazado_1008435" data-name="Trazado 1008435" d="M77.846,238.025s-.907,4.11-3.06,4.11c-2.46,0-3.275-4.11-3.275-4.11V231.4h6.335Z" transform="translate(-26.983 -194.238)" fill="#f9b595"/>
          <path id="Trazado_1008436" data-name="Trazado 1008436" d="M63.017,275.072c.121,10.815,3.368,75.384,4.267,77.992.411,1.188,4.927.751,4.981.02,2.581-34.681,1.722-68.01,1.722-68.01l2.54.081s.944,66.33,1.741,67.868c.592,1.14,5,1.331,5.66.388.579-.835,5.128-67.748,5.649-78.341Z" transform="translate(-27.944 -189.296)" fill="#f9b595"/>
          <path id="Trazado_1008437" data-name="Trazado 1008437" d="M88.875,310.071c5.009-27.629.907-36.228.907-36.228l-26.457-.137s-4.9,5.247-.031,36.2Z" transform="translate(-28.157 -189.451)" fill="#24a8a8"/>
          <path id="Trazado_1008438" data-name="Trazado 1008438" d="M62.528,302.545q.276,1.972.609,4.1l25.581.164c.267-1.476.508-2.894.725-4.263Z" transform="translate(-28 -186.188)" fill="#009dcc" style="mix-blend-mode: multiply;isolation: isolate"/>
          <path id="Trazado_1008439" data-name="Trazado 1008439" d="M86.334,219.475c.209,3.25,1.521,5.628.252,8.524-1.456,3.321-8.484,7.268-10.984,7.268s-8.636-3.455-10.732-6.949c-1.694-2.822-.729-5.959-.436-9.386.8-9.347,3.536-13.243,10.931-13.243S85.657,208.959,86.334,219.475Z" transform="translate(-27.845 -197.147)" fill="#f9b595"/>
          <path id="Trazado_1008440" data-name="Trazado 1008440" d="M86.057,219.313c-.444-6.924-1.542-10.28-4.728-12.277,2.363,2.24,3.076,5.356,3.456,11.293.209,3.25,1.522,5.628.252,8.524-1.456,3.322-8.483,7.267-10.983,7.267-1.608,0-4.909-1.407-7.619-3.339,2.855,2.421,7.019,4.323,8.89,4.323,2.5,0,9.53-3.945,10.985-7.268C87.577,224.941,86.265,222.563,86.057,219.313Z" transform="translate(-27.558 -196.994)" fill="#fdeae8" style="mix-blend-mode: multiply;isolation: isolate"/>
          <path id="Trazado_1008441" data-name="Trazado 1008441" d="M79.668,213.669a10.515,10.515,0,0,1-7.051,2.05c-4.017-.411-6.428,2.581-8.163,3.795-.325.228-.175-1.929-.13-2.534.264-3.587,1.105-10.1,8.457-11.635,0,0,9.2-1.906,11.744,4.653a29.166,29.166,0,0,1,1.867,8.59S82.128,220.474,79.668,213.669Z" transform="translate(-27.805 -197.215)" fill="#191840"/>
          <path id="Trazado_1008442" data-name="Trazado 1008442" d="M80.893,217.13s1.737,1.413,2.2,5.915c.385,3.7.794,5.684,1.419,4.516.964-1.806.828-4.513-.095-10.811-1.029-7.017-1.693-1.986-1.693-1.986Z" transform="translate(-25.922 -196.317)" fill="#191840"/>
          <g id="Grupo_1197262" data-name="Grupo 1197262" transform="translate(29.75 163.126)">
            <path id="Trazado_1008443" data-name="Trazado 1008443" d="M62.524,351.605c3.283-1.256,8.33-2.467,10.211-3.093,0,0,1.066-.627.189-3.952,0,0-1.918.038-5.213.038a55.6,55.6,0,0,0-7.872,3.914C56.2,350.643,59.468,352.774,62.524,351.605Z" transform="translate(-58.235 -344.56)" fill="#f9b595"/>
            <path id="Trazado_1008444" data-name="Trazado 1008444" d="M72.924,344.56a6.767,6.767,0,0,0-.922.455,71.132,71.132,0,0,1-8.3,3.662c-.872.327-3.728,1.407-4.028-.061-3.356,2.1-.152,4.138,2.854,2.989,3.283-1.256,8.33-2.467,10.211-3.093C72.735,348.512,73.8,347.885,72.924,344.56Z" transform="translate(-58.235 -344.56)" fill="#692b5f"/>
            <path id="Trazado_1008445" data-name="Trazado 1008445" d="M73.073,345.415a3.226,3.226,0,0,1-.5,1.351c-.815,1.193-2.591,1.5-3.853,1.968-1.869.69-3.748,1.346-5.585,2.122a6.626,6.626,0,0,1-2.226.677,9.607,9.607,0,0,1-2.112-.19,4.215,4.215,0,0,0,3.664.166c3.283-1.256,8.33-2.467,10.211-3.093C72.671,348.415,73.526,347.911,73.073,345.415Z" transform="translate(-58.171 -344.463)" fill="#692b5f" style="mix-blend-mode: multiply;isolation: isolate"/>
          </g>
          <g id="Grupo_1197263" data-name="Grupo 1197263" transform="translate(41.521 162.884)">
            <path id="Trazado_1008446" data-name="Trazado 1008446" d="M73.1,351.387c3.283-1.256,8.331-2.466,10.211-3.093,0,0,1.065-.627.188-3.951,0,0-2.541.025-5.835.025a72.257,72.257,0,0,0-7.249,3.926C66.777,350.425,70.043,352.556,73.1,351.387Z" transform="translate(-68.81 -344.343)" fill="#f9b595"/>
            <path id="Trazado_1008447" data-name="Trazado 1008447" d="M83.5,344.343a6.672,6.672,0,0,0-.922.453,70.855,70.855,0,0,1-8.3,3.663c-.872.326-3.727,1.407-4.027-.062-3.356,2.1-.153,4.139,2.854,2.99,3.283-1.256,8.331-2.466,10.211-3.093C83.311,348.294,84.376,347.667,83.5,344.343Z" transform="translate(-68.81 -344.343)" fill="#692b5f"/>
            <path id="Trazado_1008448" data-name="Trazado 1008448" d="M83.648,345.2a3.213,3.213,0,0,1-.5,1.351c-.813,1.193-2.59,1.5-3.849,1.968-1.871.69-3.749,1.346-5.586,2.122a6.646,6.646,0,0,1-2.226.676,9.457,9.457,0,0,1-2.112-.19,4.213,4.213,0,0,0,3.664.167c3.283-1.256,8.331-2.466,10.211-3.093C83.247,348.2,84.1,347.692,83.648,345.2Z" transform="translate(-68.747 -344.246)" fill="#692b5f" style="mix-blend-mode: multiply;isolation: isolate"/>
          </g>
          <g id="Grupo_1197264" data-name="Grupo 1197264" transform="translate(56.347 22.746)">
            <path id="Trazado_1008449" data-name="Trazado 1008449" d="M82.228,220.971c.012-.9-.435-1.665.479-2.177,1.1-.618,1.7-.449,1.858.847.275,2.262-.657,3.438-1.025,3.481C81.664,223.339,82.218,221.734,82.228,220.971Z" transform="translate(-82.129 -218.449)" fill="#f9b595"/>
            <path id="Trazado_1008450" data-name="Trazado 1008450" d="M83.24,222.752c.367-.042,1.3-1.22,1.024-3.48a2.388,2.388,0,0,0-.19-.737,1.439,1.439,0,0,1,.475,1.086c.274,2.26-.658,3.437-1.025,3.481-.789.091-1.148-.144-1.3-.5A1.507,1.507,0,0,0,83.24,222.752Z" transform="translate(-82.118 -218.439)" fill="#fdeae8" style="mix-blend-mode: multiply;isolation: isolate"/>
          </g>
          <path id="Trazado_1008451" data-name="Trazado 1008451" d="M80.489,203.444a5.765,5.765,0,1,1-5.755-5.429A5.6,5.6,0,0,1,80.489,203.444Z" transform="translate(-27.27 -198.015)" fill="#191840"/>
          <path id="Trazado_1008452" data-name="Trazado 1008452" d="M83.268,222.581a.677.677,0,1,1-.678-.678A.678.678,0,0,1,83.268,222.581Z" transform="translate(-25.806 -195.312)" fill="#692b5f"/>
          <g id="Grupo_1197267" data-name="Grupo 1197267" transform="translate(0 45.875)">
            <path id="Trazado_1008453" data-name="Trazado 1008453" d="M35.064,242.946c-.4.325.017,1.022.474,1.6-1.791-1.207-3.024-.919-3.569-.216a1.852,1.852,0,0,0,.466,2.843c.737.406,3.7,2.009,3.7,2.009,1.2.534,1.711.334,2.334-.686.443-.725.505-1.219-.24-2.283-.022-.053-2.092-3.026-2.092-3.026C35.838,242.759,35.539,242.558,35.064,242.946Z" transform="translate(-31.509 -238.83)" fill="#f9b595"/>
            <g id="Grupo_1197266" data-name="Grupo 1197266" transform="translate(4.124)">
              <g id="Grupo_1197265" data-name="Grupo 1197265">
                <path id="Trazado_1008454" data-name="Trazado 1008454" d="M60.517,262.91a2.239,2.239,0,0,1-1.592-.2L35.518,250.132c-1.092-.584,1.025-4.54,2.117-3.956L58.883,257.6l7.264-17.008a2.244,2.244,0,0,1,4.128,1.763l-8.226,19.26a2.247,2.247,0,0,1-1.319,1.237A1.693,1.693,0,0,1,60.517,262.91Z" transform="translate(-35.214 -239.227)" fill="#e6abcf"/>
              </g>
            </g>
          </g>
          <path id="Trazado_1008455" data-name="Trazado 1008455" d="M34.229,246.025c.337-1.388,13.232-5.627,14.26-5.327.78.227,8.021,5.309,7.863,6.2-.1.553-10.559,5.425-11.4,5.339C44.237,252.168,33.935,247.226,34.229,246.025Z" transform="translate(-31.202 -193.187)" fill="#0d071e"/>
          <g id="Grupo_1197270" data-name="Grupo 1197270" transform="translate(15.347 45.787)">
            <path id="Trazado_1008456" data-name="Trazado 1008456" d="M49.685,239.965c-.492.334-.086,1.183.382,1.893-1.937-1.581-3.392-1.38-4.094-.627a2.145,2.145,0,0,0,.239,3.328c.808.548,4.06,2.711,4.06,2.711,1.328.74,1.936.564,2.763-.547.589-.789.712-1.35-.036-2.657-.021-.065-2.092-3.711-2.092-3.711C50.6,239.834,50.277,239.569,49.685,239.965Z" transform="translate(-45.297 -239.077)" fill="#f9b595"/>
            <g id="Grupo_1197269" data-name="Grupo 1197269" transform="translate(5.045)">
              <g id="Grupo_1197268" data-name="Grupo 1197268">
                <path id="Trazado_1008457" data-name="Trazado 1008457" d="M77.6,265.663a2.591,2.591,0,0,1-1.814-.4L50.116,248.286c-1.2-.789,1.661-5.13,2.859-4.34l23.3,15.417,10.174-18.85a2.6,2.6,0,0,1,4.575,2.469L79.5,264.327a2.6,2.6,0,0,1-1.652,1.286A2.5,2.5,0,0,1,77.6,265.663Z" transform="translate(-49.829 -239.148)" fill="#e6abcf"/>
              </g>
            </g>
          </g>
        </g>
        <g id="Grupo_1197288" data-name="Grupo 1197288" transform="translate(342.475 89.143)">
          <g id="Grupo_1197278" data-name="Grupo 1197278" transform="translate(8.242)">
            <path id="Trazado_1008458" data-name="Trazado 1008458" d="M340.632,100.46c.209,3.24,1.516,5.608.252,8.5-1.45,3.307-8.454,7.24-10.946,7.24s-8.606-3.442-10.7-6.925c-1.688-2.812-.725-5.936-.434-9.353.8-9.314,3.524-13.2,10.892-13.2S339.958,89.982,340.632,100.46Z" transform="translate(-318.271 -86.723)" fill="#191840"/>
            <path id="Trazado_1008459" data-name="Trazado 1008459" d="M341.734,149.838c-2.639-8.818-.72-14.586-.119-20.648.7-7.068.466-11.352-.24-11.9-3.022-2.336-8.782-2.24-8.782-2.24l-5.246.009s-5.7.116-7.961,2.371c-.763.762-.517,5.459.462,11.478.9,5.56,1.961,12.178-.827,20.927Z" transform="translate(-318.196 -83.518)" fill="#e5a6cb"/>
            <path id="Trazado_1008460" data-name="Trazado 1008460" d="M319.726,144.01c-.2.832-.436,1.679-.714,2.551h22.714c-.264-.881-.479-1.729-.657-2.551Z" transform="translate(-318.188 -80.241)" fill="#df7cb0" style="mix-blend-mode: multiply;isolation: isolate"/>
            <path id="Trazado_1008461" data-name="Trazado 1008461" d="M331.671,115.62s-.774,3.508-2.611,3.508c-2.1,0-2.794-3.508-2.794-3.508v-5.66h5.405Z" transform="translate(-317.367 -84.094)" fill="#f9b595"/>
            <path id="Trazado_1008462" data-name="Trazado 1008462" d="M338.918,99.785c.178,2.775,1.3,4.8.215,7.277-1.242,2.835-7.243,6.2-9.376,6.2s-7.372-2.95-9.162-5.932c-1.446-2.409-.622-5.086-.373-8.012.684-7.978,3.02-11.3,9.332-11.3S338.34,90.809,338.918,99.785Z" transform="translate(-318.103 -86.577)" fill="#f9b595"/>
            <path id="Trazado_1008463" data-name="Trazado 1008463" d="M338.682,99.646c-.38-5.911-1.316-8.774-4.037-10.48,2.018,1.912,2.626,4.573,2.952,9.641.178,2.774,1.3,4.8.216,7.276-1.242,2.836-7.243,6.2-9.377,6.2-1.374,0-4.191-1.2-6.505-2.851,2.439,2.067,5.993,3.69,7.589,3.69,2.135,0,8.135-3.367,9.377-6.2C339.98,104.451,338.861,102.42,338.682,99.646Z" transform="translate(-317.858 -86.447)" fill="#fdeae8" style="mix-blend-mode: multiply;isolation: isolate"/>
            <path id="Trazado_1008464" data-name="Trazado 1008464" d="M333.207,94.828a8.963,8.963,0,0,1-6.019,1.75c-3.43-.35-3.71,1.75-5.178,2.8s-1.75-.945-1.75-.945-.491-8.959,7.067-10.708c0,0,7.857-1.626,10.026,3.972a24.9,24.9,0,0,1,1.593,7.331S335.306,100.637,333.207,94.828Z" transform="translate(-318.047 -86.635)" fill="#191840"/>
            <path id="Trazado_1008465" data-name="Trazado 1008465" d="M322.41,97.5s-1.542,10.523,3.8,15.184a12.83,12.83,0,0,1-7.164-6.787c-.96-2.244.1-7.439.824-9.975Z" transform="translate(-318.227 -85.682)" fill="#191840"/>
            <path id="Trazado_1008466" data-name="Trazado 1008466" d="M335.545,97.5s1.543,10.523-3.8,15.184A12.829,12.829,0,0,0,338.9,105.9c.96-2.244-.1-7.439-.824-9.975Z" transform="translate(-316.747 -85.682)" fill="#191840"/>
            <g id="Grupo_1197272" data-name="Grupo 1197272" transform="translate(18.227 12.971)">
              <path id="Trazado_1008467" data-name="Trazado 1008467" d="M334.731,100.528c.01-.771-.371-1.42.407-1.858.936-.527,1.454-.383,1.588.722.235,1.931-.562,2.936-.876,2.972C334.25,102.549,334.722,101.179,334.731,100.528Z" transform="translate(-334.646 -98.375)" fill="#f9b595"/>
              <path id="Trazado_1008468" data-name="Trazado 1008468" d="M335.594,102.049c.314-.037,1.111-1.042.875-2.971a2.015,2.015,0,0,0-.161-.629,1.237,1.237,0,0,1,.4.927c.235,1.93-.561,2.935-.875,2.972-.675.076-.98-.124-1.108-.427A1.3,1.3,0,0,0,335.594,102.049Z" transform="translate(-334.637 -98.367)" fill="#fdeae8" style="mix-blend-mode: multiply;isolation: isolate"/>
            </g>
            <g id="Grupo_1197273" data-name="Grupo 1197273" transform="translate(2.942 12.971)">
              <path id="Trazado_1008469" data-name="Trazado 1008469" d="M322.953,100.528c-.011-.771.37-1.42-.409-1.858-.936-.527-1.453-.383-1.587.724-.235,1.93.561,2.935.876,2.971C323.433,102.549,322.961,101.179,322.953,100.528Z" transform="translate(-320.915 -98.375)" fill="#f9b595"/>
              <path id="Trazado_1008470" data-name="Trazado 1008470" d="M322.078,102.049c-.313-.037-1.109-1.042-.873-2.971a2,2,0,0,1,.16-.628,1.22,1.22,0,0,0-.4.926c-.236,1.93.559,2.935.875,2.972.675.076.977-.124,1.107-.427A1.3,1.3,0,0,1,322.078,102.049Z" transform="translate(-320.914 -98.367)" fill="#fdeae8" style="mix-blend-mode: multiply;isolation: isolate"/>
            </g>
            <g id="Grupo_1197277" data-name="Grupo 1197277" transform="translate(4.086 15.956)">
              <g id="Grupo_1197276" data-name="Grupo 1197276">
                <g id="Grupo_1197274" data-name="Grupo 1197274" transform="translate(0 0.069)">
                  <path id="Trazado_1008471" data-name="Trazado 1008471" d="M323.1,101.7a.578.578,0,1,1-.578-.579A.578.578,0,0,1,323.1,101.7Z" transform="translate(-321.942 -101.119)" fill="#692b5f"/>
                </g>
                <g id="Grupo_1197275" data-name="Grupo 1197275" transform="translate(13.745)">
                  <path id="Trazado_1008472" data-name="Trazado 1008472" d="M335.447,101.635a.578.578,0,1,1-.578-.578A.579.579,0,0,1,335.447,101.635Z" transform="translate(-334.29 -101.057)" fill="#692b5f"/>
                </g>
              </g>
            </g>
          </g>
          <path id="Trazado_1008473" data-name="Trazado 1008473" d="M341.652,157.692c-.985,1.585-21.588,2.3-22.572-.765-.629-1.959,0-11.15,0-11.15h22.736S342.489,156.342,341.652,157.692Z" transform="translate(-309.969 -80.041)" fill="#602857"/>
          <g id="Grupo_1197279" data-name="Grupo 1197279" transform="translate(8.475 69.244)">
            <path id="Trazado_1008474" data-name="Trazado 1008474" d="M327.826,198.027c.223,2.926.714,8.783-1.98,9.179-2.728.4-3.678-6.224-3.9-9.151s.946-3.314,2.745-3.451S327.6,195.1,327.826,198.027Z" transform="translate(-318.092 -143.763)" fill="#20235b"/>
            <path id="Trazado_1008475" data-name="Trazado 1008475" d="M322.194,202.9c.422.975,5.781.386,5.919-.264,1.138-5.381-.579-50.146-.579-50.146a4.8,4.8,0,0,0-4.9-3.55,4.054,4.054,0,0,0-4.149,4.086S321.019,200.19,322.194,202.9Z" transform="translate(-318.481 -148.929)" fill="#692b5f"/>
          </g>
          <g id="Grupo_1197280" data-name="Grupo 1197280" transform="translate(21.231 69.43)">
            <path id="Trazado_1008476" data-name="Trazado 1008476" d="M330.194,198.1c-.275,2.923-.869,8.768,1.817,9.215,2.722.451,3.788-6.158,4.063-9.08s-.887-3.332-2.684-3.5S330.469,195.175,330.194,198.1Z" transform="translate(-329.94 -143.936)" fill="#20235b"/>
            <path id="Trazado_1008477" data-name="Trazado 1008477" d="M336.209,203.072c-.441.968-5.788.285-5.913-.368-1.042-5.4,1.324-49.941,1.324-49.941s1.192-3.961,5.116-3.649a4.052,4.052,0,0,1,4.074,4.161S337.431,200.384,336.209,203.072Z" transform="translate(-329.929 -149.096)" fill="#692b5f"/>
          </g>
          <g id="Grupo_1197283" data-name="Grupo 1197283" transform="translate(0 33.11)">
            <path id="Trazado_1008478" data-name="Trazado 1008478" d="M332.682,147.585c-.19.46-.96.268-1.624,0,1.627,1.332,1.7,2.565,1.2,3.27a1.8,1.8,0,0,1-2.783.357c-.587-.574-2.911-2.9-2.911-2.9-.832-.972-.787-1.5-.01-2.37.552-.617,1-.813,2.2-.412.056.006,3.407,1.106,3.407,1.106C332.639,146.808,332.912,147.031,332.682,147.585Z" transform="translate(-309.16 -113.202)" fill="#f9b595"/>
            <g id="Grupo_1197282" data-name="Grupo 1197282">
              <g id="Grupo_1197281" data-name="Grupo 1197281">
                <path id="Trazado_1008479" data-name="Trazado 1008479" d="M328.141,151.789c-4.459-3.524-16.289-12.484-16.408-12.574a2.183,2.183,0,0,1-.658-2.672l8.841-18.819a2.186,2.186,0,1,1,3.957,1.859L315.785,136.8c3.3,2.5,11.584,8.641,15.066,11.559C331.443,148.855,328.614,152.163,328.141,151.789Z" transform="translate(-310.867 -116.467)" fill="#e5a6cb"/>
              </g>
            </g>
          </g>
          <g id="Grupo_1197286" data-name="Grupo 1197286" transform="translate(16.588 33.222)">
            <path id="Trazado_1008480" data-name="Trazado 1008480" d="M325.839,147.241c.175.469.948.3,1.622.061-1.672,1.273-1.793,2.5-1.315,3.224a1.8,1.8,0,0,0,2.767.458c.608-.552,3.014-2.787,3.014-2.787.866-.941.842-1.473.095-2.368-.529-.636-.964-.847-2.18-.491-.057,0-3.446.982-3.446.982C325.91,146.466,325.63,146.68,325.839,147.241Z" transform="translate(-325.769 -113.333)" fill="#f9b595"/>
            <g id="Grupo_1197285" data-name="Grupo 1197285" transform="translate(3.607)">
              <g id="Grupo_1197284" data-name="Grupo 1197284">
                <path id="Trazado_1008481" data-name="Trazado 1008481" d="M331.685,151.641c4.582-3.359,16.728-11.885,16.85-11.971a2.185,2.185,0,0,0,.755-2.647L341.136,117.9a2.186,2.186,0,1,0-4.022,1.714l7.46,17.5c-3.388,2.384-11.891,8.217-15.476,11.007C328.488,148.589,331.2,152,331.685,151.641Z" transform="translate(-329.009 -116.568)" fill="#e5a6cb"/>
              </g>
            </g>
          </g>
          <g id="Grupo_1197287" data-name="Grupo 1197287" transform="translate(4.847 54.034)">
            <path id="Trazado_1008482" data-name="Trazado 1008482" d="M343.786,155.306a1.17,1.17,0,0,1-1.231,1.1l-23.28-.035a1.17,1.17,0,0,1-1.231-1.1l-2.823-18.911a1.17,1.17,0,0,1,1.231-1.1h28.581a1.17,1.17,0,0,1,1.231,1.1Z" transform="translate(-315.221 -135.265)" fill="#0d071e"/>
            <path id="Trazado_1008483" data-name="Trazado 1008483" d="M333.091,145.056a3.534,3.534,0,1,1-3.534-3.534A3.535,3.535,0,0,1,333.091,145.056Z" transform="translate(-313.999 -134.557)" fill="#fff"/>
          </g>
        </g>
        <g id="Grupo_1197299" data-name="Grupo 1197299" transform="translate(365.791 214.636)">
          <g id="Grupo_1197289" data-name="Grupo 1197289" transform="translate(32.745 160.363)">
            <path id="Trazado_1008484" data-name="Trazado 1008484" d="M365.96,351.29c3.62-1.385,9.185-2.719,11.257-3.41,0,0,1.177-.693.209-4.357H371s-3.988,2-8,4.357S362.591,352.577,365.96,351.29Z" transform="translate(-361.23 -343.524)" fill="#20235b"/>
            <path id="Trazado_1008485" data-name="Trazado 1008485" d="M377.591,344.466a3.525,3.525,0,0,1-.555,1.488c-.9,1.317-2.856,1.659-4.244,2.172-2.064.761-4.133,1.483-6.159,2.339a7.348,7.348,0,0,1-2.456.745,10.443,10.443,0,0,1-2.325-.209,4.644,4.644,0,0,0,4.038.184c3.62-1.385,9.185-2.719,11.257-3.41C377.147,347.774,378.091,347.215,377.591,344.466Z" transform="translate(-361.16 -343.417)" fill="#692b5f" style="mix-blend-mode: multiply;isolation: isolate"/>
          </g>
          <g id="Grupo_1197290" data-name="Grupo 1197290" transform="translate(47.487 160.761)">
            <path id="Trazado_1008486" data-name="Trazado 1008486" d="M379.2,351.647c3.619-1.385,9.183-2.718,11.256-3.408,0,0,1.177-.693.209-4.357h-6.431s-3.986,2-8,4.357S375.834,352.936,379.2,351.647Z" transform="translate(-374.474 -343.882)" fill="#20235b"/>
            <path id="Trazado_1008487" data-name="Trazado 1008487" d="M390.834,344.823a3.525,3.525,0,0,1-.555,1.489c-.9,1.317-2.855,1.659-4.244,2.172-2.064.76-4.133,1.483-6.159,2.338a7.294,7.294,0,0,1-2.454.746,10.459,10.459,0,0,1-2.326-.209,4.647,4.647,0,0,0,4.04.183c3.619-1.385,9.183-2.718,11.256-3.408C390.39,348.132,391.334,347.574,390.834,344.823Z" transform="translate(-374.403 -343.776)" fill="#692b5f" style="mix-blend-mode: multiply;isolation: isolate"/>
          </g>
          <path id="Trazado_1008488" data-name="Trazado 1008488" d="M394.6,274.566c.821-11.921,1.232-37.677-.432-38.963-3.615-2.8-10.514-2.68-10.514-2.68l-6.279.011s-6.827.137-9.532,2.836c-1.716,1.715-.978,26.926-.439,38.8Z" transform="translate(-327.858 -195.675)" fill="#2a3182"/>
          <path id="Trazado_1008489" data-name="Trazado 1008489" d="M367.241,268.074c.037.891.073,1.732.108,2.515h27.2c.055-.781.106-1.623.157-2.515Z" transform="translate(-327.805 -191.698)" fill="#692b5f" style="mix-blend-mode: multiply;isolation: isolate"/>
          <path id="Trazado_1008490" data-name="Trazado 1008490" d="M382.495,233.6s-.927,4.2-3.126,4.2c-2.515,0-3.347-4.2-3.347-4.2v-6.777h6.473Z" transform="translate(-326.812 -196.365)" fill="#f9b595"/>
          <path id="Trazado_1008491" data-name="Trazado 1008491" d="M367.46,270.183s-.312,78.874.691,81.779c.419,1.216,9.049,1.006,9.385.336,1.645-3.294,1.675-70.638,1.675-70.638l2.639.043s.659,69.117,1.571,70.658c.671,1.13,8.255,1.025,8.924.062.646-.927,1.384-82.241,1.384-82.241Z" transform="translate(-327.786 -191.459)" fill="#24a8a8"/>
          <path id="Trazado_1008492" data-name="Trazado 1008492" d="M386.864,348.9a4.55,4.55,0,0,1-2.638-2.616,14.723,14.723,0,0,1-.819-3.292c-.217-1.306-.407-2.616-.515-3.936a81.683,81.683,0,0,1-.045-8.627c.207-8.3-2.206-46.356-2.442-47.841.125,11.975.736,67,1.547,68.372.671,1.13,8.255,1.025,8.924.062a8.767,8.767,0,0,0,.154-1.63A11.734,11.734,0,0,1,386.864,348.9Z" transform="translate(-326.316 -190.056)" fill="#009dcc" style="mix-blend-mode: multiply;isolation: isolate"/>
          <path id="Trazado_1008493" data-name="Trazado 1008493" d="M376.406,335.254c.007,3.721-.131,8.608-1.718,12.023-1.633,3.519-5.482,3.67-6.559,3.623.866,1.1,9,.882,9.325.232,1.6-3.2,1.672-67.165,1.675-70.638C379.109,280.482,376.4,327.217,376.406,335.254Z" transform="translate(-327.705 -190.293)" fill="#009dcc" style="mix-blend-mode: multiply;isolation: isolate"/>
          <path id="Trazado_1008494" data-name="Trazado 1008494" d="M391.618,214.73c.215,3.321,1.556,5.752.257,8.713-1.487,3.393-9.07,7.416-11.626,7.416s-9.294-3.467-11.439-7.04c-1.73-2.884-.745-6.089-.445-9.591.818-9.554,3.914-14.352,11.47-14.352S390.928,203.982,391.618,214.73Z" transform="translate(-327.74 -199.414)" fill="#f9b595"/>
          <path id="Trazado_1008495" data-name="Trazado 1008495" d="M391.289,214.563c-.456-7.075-2.146-11.269-5.4-13.311,2.415,2.289,3.713,6.237,4.105,12.306.213,3.322,1.554,5.753.256,8.714-1.486,3.393-9.071,7.416-11.626,7.416-1.644,0-5.017-1.438-7.786-3.413,2.92,2.472,7.173,4.417,9.084,4.417,2.556,0,10.14-4.022,11.627-7.415C392.842,220.317,391.5,217.885,391.289,214.563Z" transform="translate(-327.399 -199.258)" fill="#fdeae8" style="mix-blend-mode: multiply;isolation: isolate"/>
          <path id="Trazado_1008496" data-name="Trazado 1008496" d="M390.353,205.749c-.39-1.426-2.6-6.288-9.992-6.288s-9.6,2.862-11.081,6.218c-1.075,2.443-1.122,9.829-1.122,9.829,1.153-.419,2.269-1.892,2.567-3.983.77-5.384,3.215-5.559,3.215-5.559s1.873,1.694,5.936.71a8.613,8.613,0,0,1,7.852,1.587c.94.712,1.219,1.856,1.368,4.315.209,3.435,1.759,3.268,2.912,3.687A51.336,51.336,0,0,0,390.353,205.749Z" transform="translate(-327.701 -199.461)" fill="#191840"/>
          <path id="Trazado_1008497" data-name="Trazado 1008497" d="M374.057,222.824s4.073-3.342,8.013.312c0,0,7.169.875,8.563-6.1l1.7.472s1.416,7.2-7.612,10.116c-1.759.568-4.637,2.215-8.5.411-4.355-2.039-8.534-3.359-8.371-11.074C367.859,216.96,368.395,221.594,374.057,222.824Z" transform="translate(-327.736 -197.481)" fill="#191840"/>
          <g id="Grupo_1197291" data-name="Grupo 1197291" transform="translate(62.463 16.129)">
            <path id="Trazado_1008498" data-name="Trazado 1008498" d="M388.028,216.528c.014-.924-.444-1.7.489-2.225,1.12-.63,1.74-.457,1.9.868.28,2.31-.671,3.512-1.049,3.557C387.453,218.948,388.018,217.309,388.028,216.528Z" transform="translate(-387.928 -213.951)" fill="#f9b595"/>
            <path id="Trazado_1008499" data-name="Trazado 1008499" d="M389.062,218.349c.376-.042,1.329-1.247,1.047-3.556a2.459,2.459,0,0,0-.194-.754,1.476,1.476,0,0,1,.484,1.11c.282,2.31-.671,3.513-1.047,3.558-.809.092-1.172-.146-1.326-.511A1.537,1.537,0,0,0,389.062,218.349Z" transform="translate(-387.917 -213.941)" fill="#fdeae8" style="mix-blend-mode: multiply;isolation: isolate"/>
          </g>
          <g id="Grupo_1197294" data-name="Grupo 1197294" transform="translate(0 34.8)">
            <path id="Trazado_1008500" data-name="Trazado 1008500" d="M336.461,230.839c-.521.249-.254,1.121.093,1.871-1.632-1.8-3.054-1.811-3.836-1.19a2.081,2.081,0,0,0-.249,3.227c.7.641,3.5,3.18,3.5,3.18,1.169.9,1.777.82,2.729-.127.677-.672.876-1.192.346-2.554-.011-.066-1.473-3.859-1.473-3.859C337.358,230.843,337.086,230.545,336.461,230.839Z" transform="translate(-331.814 -230.723)" fill="#f9b595"/>
            <g id="Grupo_1197293" data-name="Grupo 1197293" transform="translate(3.595 3.858)">
              <g id="Grupo_1197292" data-name="Grupo 1197292">
                <path id="Trazado_1008501" data-name="Trazado 1008501" d="M359.1,258.7a2.524,2.524,0,0,1-1.683-.643l-22.181-19.965c-1.035-.928,2.33-4.682,3.366-3.751l20.132,18.128L371.2,235.848a2.52,2.52,0,1,1,4.032,3.023L361.117,257.69a2.521,2.521,0,0,1-1.769,1C359.266,258.693,359.184,258.7,359.1,258.7Z" transform="translate(-335.043 -234.189)" fill="#2a3182"/>
              </g>
            </g>
          </g>
          <g id="Grupo_1197295" data-name="Grupo 1197295" transform="translate(0.429 33.014)">
            <path id="Trazado_1008502" data-name="Trazado 1008502" d="M340.991,235.534a.659.659,0,0,1-.037,1.069l-1.033,1.1a.68.68,0,0,1-1.045.077l-6.354-6.118a.65.65,0,0,1-.051-1.089l1.242-1.21a.61.61,0,0,1,.988.01Z" transform="translate(-332.199 -229.119)" fill="#191840"/>
            <path id="Trazado_1008503" data-name="Trazado 1008503" d="M340.129,234.726c.357.394.482.577-.037,1.071l-.42.436-6.33-6.025.591-.621c.491-.519.678-.294.987.011Z" transform="translate(-332.07 -229.102)" fill="#fff"/>
          </g>
          <g id="Grupo_1197298" data-name="Grupo 1197298" transform="translate(62.104 39.265)">
            <path id="Trazado_1008504" data-name="Trazado 1008504" d="M393.567,281.661c.492.355,1.163-.334,1.68-1.033-.83,2.414-.125,3.739.846,4.145a2.19,2.19,0,0,0,3.107-1.4c.24-.97,1.162-4.851,1.162-4.851.242-1.536-.142-2.057-1.5-2.457-.964-.286-1.548-.206-2.535.974-.055.043-2.82,3.318-2.82,3.318C393.115,280.831,392.975,281.235,393.567,281.661Z" transform="translate(-386.975 -230.075)" fill="#f9b595"/>
            <g id="Grupo_1197297" data-name="Grupo 1197297">
              <g id="Grupo_1197296" data-name="Grupo 1197296">
                <path id="Trazado_1008505" data-name="Trazado 1008505" d="M394.734,246.685c5.74,7.4,6.34,10.014,6.386,10.637.321,4.3-2.866,17.859-4.349,23.626l4.651,2.082c.007-.022,5.169-19.935,4.711-26.081-.134-1.789-1.046-5.12-7.426-13.345-3.347-4.316-6.591-7.894-6.727-8.044a2.514,2.514,0,1,0-3.721,3.381C388.29,238.975,391.5,242.521,394.734,246.685Z" transform="translate(-387.605 -234.735)" fill="#2a3182"/>
              </g>
            </g>
          </g>
        </g>
        <g id="Grupo_1197303" data-name="Grupo 1197303" transform="translate(240.401 222.523)">
          <g id="Grupo_1197302" data-name="Grupo 1197302">
            <g id="Grupo_1197300" data-name="Grupo 1197300" transform="translate(8.126 11.835)">
              <path id="Trazado_1008506" data-name="Trazado 1008506" d="M260.772,230.758a3.628,3.628,0,0,1-2.47-.967c-5.336-4.927-11.236-6.443-17.536-4.5a23.994,23.994,0,0,0-8.183,4.5,3.642,3.642,0,0,1-4.942-5.352,31.109,31.109,0,0,1,10.981-6.116c6.159-1.895,15.43-2.374,24.624,6.116a3.643,3.643,0,0,1-2.473,6.319Z" transform="translate(-226.469 -217.178)" fill="#2a3182"/>
            </g>
            <g id="Grupo_1197301" data-name="Grupo 1197301">
              <path id="Trazado_1008507" data-name="Trazado 1008507" d="M269.724,222.883a3.627,3.627,0,0,1-2.389-.895c-8.734-7.588-18.441-9.908-28.849-6.893a38.808,38.808,0,0,0-13.284,6.893,3.643,3.643,0,1,1-4.779-5.5,46.083,46.083,0,0,1,16.036-8.392c8.894-2.577,22.3-3.211,35.655,8.392a3.643,3.643,0,0,1-2.39,6.394Z" transform="translate(-219.168 -206.546)" fill="#2a3182"/>
            </g>
            <path id="Trazado_1008508" data-name="Trazado 1008508" d="M250.9,235.046a6.707,6.707,0,1,1-6.707-6.708A6.707,6.707,0,0,1,250.9,235.046Z" transform="translate(-217.095 -204.08)" fill="#2a3182"/>
          </g>
        </g>
        <g id="Grupo_1197306" data-name="Grupo 1197306" transform="translate(390.946 139.968)">
          <path id="Rectángulo_460965" data-name="Rectángulo 460965" d="M3.374,0H50.36a3.374,3.374,0,0,1,3.374,3.374V30.721A3.375,3.375,0,0,1,50.359,34.1H3.375A3.375,3.375,0,0,1,0,30.72V3.374A3.374,3.374,0,0,1,3.374,0Z" fill="#aa3e89"/>
          <path id="Trazado_1008509" data-name="Trazado 1008509" d="M404.389,132.382h-2.464c-.086,1.046,1.5,27.63-2.075,29.029-2.43.951-5.3.767-7.849.765-4.057-.006-37.589.547-37.589.547a3.756,3.756,0,0,0,3.756,3.756h46.221a3.757,3.757,0,0,0,3.757-3.756V136.138A3.756,3.756,0,0,0,404.389,132.382Z" transform="translate(-354.412 -132.382)" fill="#eebdda" style="mix-blend-mode: multiply;isolation: isolate"/>
          <path id="Trazado_1008510" data-name="Trazado 1008510" d="M373.119,157.628V139.6l14.837,8.992Z" transform="translate(-352.295 -131.565)" fill="#fff"/>
          <g id="Grupo_1197305" data-name="Grupo 1197305" transform="translate(1.528 1.7)">
            <path id="Trazado_1008511" data-name="Trazado 1008511" d="M357.066,148.175A1.224,1.224,0,0,1,355.844,147c0-.038-.135-3.894,0-7.965a5.447,5.447,0,0,1,1.574-3.982,4.339,4.339,0,0,1,2.963-1.139,1.223,1.223,0,0,1-.09,2.443c-.453,0-1.916.187-2,2.758-.134,3.984,0,7.759,0,7.8a1.223,1.223,0,0,1-1.178,1.266Z" transform="translate(-355.784 -133.909)" fill="#fff" style="mix-blend-mode: soft-light;isolation: isolate"/>
            <g id="Grupo_1197304" data-name="Grupo 1197304" transform="translate(0.196 15.08)" style="mix-blend-mode: soft-light;isolation: isolate">
              <path id="Trazado_1008512" data-name="Trazado 1008512" d="M357.183,154.115a1.223,1.223,0,0,1-1.223-1.222V148.68a1.223,1.223,0,1,1,2.446,0v4.212A1.223,1.223,0,0,1,357.183,154.115Z" transform="translate(-355.96 -147.457)" fill="#fff"/>
            </g>
          </g>
        </g>
        <g id="Grupo_1197309" data-name="Grupo 1197309" transform="translate(234.972 65.337)">
          <g id="Grupo_1197307" data-name="Grupo 1197307">
            <path id="Trazado_1008513" data-name="Trazado 1008513" d="M293.9,105.142a39.8,39.8,0,1,1-39.8-39.8A39.8,39.8,0,0,1,293.9,105.142Z" transform="translate(-214.291 -65.337)" fill="#dc0917"/>
            <path id="Trazado_1008514" data-name="Trazado 1008514" d="M283.47,104.18a30.337,30.337,0,1,1-30.337-30.338A30.337,30.337,0,0,1,283.47,104.18Z" transform="translate(-213.329 -64.375)" fill="#fff7ba"/>
            <path id="Trazado_1008515" data-name="Trazado 1008515" d="M273.041,103.217a20.87,20.87,0,1,1-20.869-20.87A20.869,20.869,0,0,1,273.041,103.217Z" transform="translate(-212.366 -63.412)" fill="#dc0917"/>
            <path id="Trazado_1008516" data-name="Trazado 1008516" d="M262.709,102.264a11.492,11.492,0,1,1-11.491-11.492A11.49,11.49,0,0,1,262.709,102.264Z" transform="translate(-211.413 -62.459)" fill="#fff7ba"/>
            <path id="Trazado_1008517" data-name="Trazado 1008517" d="M255.245,101.575a4.715,4.715,0,1,1-4.715-4.715A4.715,4.715,0,0,1,255.245,101.575Z" transform="translate(-210.724 -61.77)" fill="#dc0917"/>
          </g>
          <g id="Grupo_1197308" data-name="Grupo 1197308" transform="translate(39.805 31.654)">
            <path id="Trazado_1008518" data-name="Trazado 1008518" d="M288.946,101.924l5.164-8.151h12.585l-4.517,8.151Z" transform="translate(-245.649 -93.773)" fill="#2a3182"/>
            <path id="Trazado_1008519" data-name="Trazado 1008519" d="M288.946,101.1l5.164,8.15h12.585l-4.517-8.15Z" transform="translate(-245.649 -92.945)" fill="#2a3182"/>
            <line id="Línea_3639" data-name="Línea 3639" x2="61.045" transform="translate(0 8.151)" fill="none" stroke="#0d071e" stroke-linecap="round" stroke-linejoin="round" stroke-width="1.667"/>
          </g>
        </g>
        <g id="Grupo_1197314" data-name="Grupo 1197314" transform="translate(222.431 306.548)">
          <g id="Grupo_1197310" data-name="Grupo 1197310" transform="translate(23.845)">
            <path id="Trazado_1008520" data-name="Trazado 1008520" d="M262.952,292.715v-7.169a3.518,3.518,0,0,0-3.518-3.516H227.962a3.515,3.515,0,0,0-3.516,3.516v7.169Z" transform="translate(-224.446 -282.03)" fill="#aa3e89"/>
            <path id="Trazado_1008521" data-name="Trazado 1008521" d="M256.779,292.344v-4.719a2.409,2.409,0,0,0-2.492-2.315H231.97a2.411,2.411,0,0,0-2.493,2.315v4.719Z" transform="translate(-223.877 -281.659)" fill="#e9bcda"/>
          </g>
          <path id="Trazado_1008522" data-name="Trazado 1008522" d="M289.218,346.815a4.92,4.92,0,0,1-5.045,4.787h-76.1a4.92,4.92,0,0,1-5.044-4.787V296.292a4.919,4.919,0,0,1,5.044-4.784h76.1a4.919,4.919,0,0,1,5.045,4.784Z" transform="translate(-203.025 -280.958)" fill="#2a3182"/>
          <path id="Trazado_1008523" data-name="Trazado 1008523" d="M274.654,291.9v-2.781a1.309,1.309,0,0,0-1.309-1.308H263.37a1.308,1.308,0,0,0-1.308,1.308V291.9Z" transform="translate(-196.345 -281.375)" fill="#0d071e"/>
          <rect id="Rectángulo_460966" data-name="Rectángulo 460966" width="86.193" height="12.896" transform="translate(0 17.952)" fill="#e9bcda"/>
          <g id="Grupo_1197311" data-name="Grupo 1197311" transform="translate(22.645 21.973)">
            <path id="Trazado_1008524" data-name="Trazado 1008524" d="M264.926,322.551a20.779,20.779,0,1,1-20.779-20.781A20.779,20.779,0,0,1,264.926,322.551Z" transform="translate(-223.368 -301.77)" fill="#aa3e89"/>
            <circle id="Elipse_13691" data-name="Elipse 13691" cx="14.407" cy="14.407" r="14.407" transform="translate(6.372 6.374)" fill="#0d071e"/>
          </g>
          <path id="Trazado_1008525" data-name="Trazado 1008525" d="M274.085,338.634a2.78,2.78,0,1,1-2.779-2.78A2.78,2.78,0,0,1,274.085,338.634Z" transform="translate(-195.614 -275.94)" fill="#e9bcda"/>
          <path id="Trazado_1008526" data-name="Trazado 1008526" d="M215.616,338.634a2.78,2.78,0,1,1-2.78-2.78A2.781,2.781,0,0,1,215.616,338.634Z" transform="translate(-202.229 -275.94)" fill="#e9bcda"/>
          <path id="Trazado_1008527" data-name="Trazado 1008527" d="M284.173,291.51l-5.293-.022c-.106,8.263.024,38.818-.187,41.03-.293,3.082-1.448,7.592-6.263,9.136-4.131,1.32-69.319.528-69.319.528l-.087,4.635a4.92,4.92,0,0,0,5.044,4.787h76.1a4.92,4.92,0,0,0,5.045-4.787V296.295A4.919,4.919,0,0,0,284.173,291.51Z" transform="translate(-203.025 -280.96)" fill="#7c87aa" style="mix-blend-mode: multiply;isolation: isolate"/>
          <g id="Grupo_1197313" data-name="Grupo 1197313" transform="translate(3.295 13.525)">
            <path id="Trazado_1008528" data-name="Trazado 1008528" d="M207.784,314.213a1.717,1.717,0,0,1-1.714-1.656c0-.053-.19-5.467,0-11.184a7.637,7.637,0,0,1,2.208-5.591,6.082,6.082,0,0,1,4.161-1.6,1.717,1.717,0,0,1-.127,3.432c-.636,0-2.69.262-2.811,3.874-.186,5.592,0,10.892,0,10.947a1.718,1.718,0,0,1-1.655,1.778Z" transform="translate(-205.985 -294.181)" fill="#fff" style="mix-blend-mode: soft-light;isolation: isolate"/>
            <g id="Grupo_1197312" data-name="Grupo 1197312" transform="translate(0.273 21.177)" style="mix-blend-mode: soft-light;isolation: isolate">
              <path id="Trazado_1008529" data-name="Trazado 1008529" d="M207.949,322.553a1.718,1.718,0,0,1-1.719-1.716v-5.915a1.718,1.718,0,0,1,3.436,0v5.915A1.717,1.717,0,0,1,207.949,322.553Z" transform="translate(-206.23 -313.205)" fill="#fff"/>
            </g>
          </g>
        </g>
      </g>
    </g>
  </g>
</svg>
