<svg xmlns="http://www.w3.org/2000/svg" xmlns:xlink="http://www.w3.org/1999/xlink" width="118.117" height="118.117" viewBox="0 0 118.117 118.117">
  <defs>
    <linearGradient id="linear-gradient" x1="0.432" y1="1.072" x2="0.457" y2="-3.401" gradientUnits="objectBoundingBox">
      <stop offset="0" stop-color="#045e61"/>
      <stop offset="1" stop-color="#3ef989"/>
    </linearGradient>
  </defs>
  <g id="Grupo_1197967" data-name="Grupo 1197967" transform="translate(-740.883 -3638.929)">
    <g id="Grupo_1197935" data-name="Grupo 1197935">
      <g id="Grupo_1192986" data-name="Grupo 1192986" transform="translate(740.883 3638.929)">
        <g id="Trazado_995327" data-name="Trazado 995327" transform="translate(0)" fill="#fff">
          <path d="M 59.05859375 116.1171951293945 C 51.35486221313477 116.1171951293945 43.88261032104492 114.6088409423828 36.84942626953125 111.6340637207031 C 33.46891021728516 110.2042236328125 30.20824432373047 108.4343566894531 27.15799331665039 106.3736572265625 C 24.13620948791504 104.3321914672852 21.29459381103516 101.9876251220703 18.71207618713379 99.40511322021484 C 16.12957763671875 96.82259368896484 13.78501033782959 93.98097991943359 11.74354362487793 90.95919036865234 C 9.682826995849609 87.90895843505859 7.91297721862793 84.64827728271484 6.48314380645752 81.26776123046875 C 3.508343696594238 74.23457336425781 2.00001049041748 66.7623291015625 2.00001049041748 59.05859375 C 2.00001049041748 51.35486221313477 3.508343696594238 43.88261032104492 6.48314380645752 36.84942626953125 C 7.91297721862793 33.46891021728516 9.682826995849609 30.20824432373047 11.74354362487793 27.15799331665039 C 13.78501033782959 24.13620948791504 16.12957763671875 21.29459381103516 18.71207618713379 18.71207618713379 C 21.29459381103516 16.12957763671875 24.13620948791504 13.78501033782959 27.15799331665039 11.74354362487793 C 30.20824432373047 9.682826995849609 33.46891021728516 7.91297721862793 36.84942626953125 6.48314380645752 C 43.88261032104492 3.508343696594238 51.35486221313477 2.00001049041748 59.05859375 2.00001049041748 C 66.7623291015625 2.00001049041748 74.23457336425781 3.508343696594238 81.26776123046875 6.48314380645752 C 84.64827728271484 7.91297721862793 87.90895843505859 9.682826995849609 90.95919036865234 11.74354362487793 C 93.98097991943359 13.78501033782959 96.82259368896484 16.12957763671875 99.40511322021484 18.71207618713379 C 101.9876251220703 21.29459381103516 104.3321914672852 24.13620948791504 106.3736572265625 27.15799331665039 C 108.4343566894531 30.20824432373047 110.2042236328125 33.46891021728516 111.6340637207031 36.84942626953125 C 114.6088409423828 43.88261032104492 116.1171951293945 51.35486221313477 116.1171951293945 59.05859375 C 116.1171951293945 66.7623291015625 114.6088409423828 74.23457336425781 111.6340637207031 81.26776123046875 C 110.2042236328125 84.64827728271484 108.4343566894531 87.90895843505859 106.3736572265625 90.95919036865234 C 104.3321914672852 93.98097991943359 101.9876251220703 96.82259368896484 99.40511322021484 99.40511322021484 C 96.82259368896484 101.9876251220703 93.98097991943359 104.3321914672852 90.95919036865234 106.3736572265625 C 87.90895843505859 108.4343566894531 84.64827728271484 110.2042236328125 81.26776123046875 111.6340637207031 C 74.23457336425781 114.6088409423828 66.7623291015625 116.1171951293945 59.05859375 116.1171951293945 Z" stroke="none"/>
          <path d="M 59.05859375 3.999992370605469 C 51.62397766113281 3.999992370605469 44.41384887695312 5.455177307128906 37.62852478027344 8.325119018554688 C 34.36693572998047 9.704666137695312 31.22083282470703 11.41236114501953 28.27759552001953 13.40077209472656 C 25.36128234863281 15.37099456787109 22.61879730224609 17.63377380371094 20.12628173828125 20.12628173828125 C 17.63377380371094 22.61879730224609 15.37099456787109 25.36128234863281 13.40077209472656 28.27759552001953 C 11.41236114501953 31.22083282470703 9.704666137695312 34.36693572998047 8.325119018554688 37.62852478027344 C 5.455177307128906 44.41384887695312 3.999992370605469 51.62397766113281 3.999992370605469 59.05859375 C 3.999992370605469 66.49320983886719 5.455177307128906 73.70333862304688 8.325119018554688 80.48866271972656 C 9.704666137695312 83.750244140625 11.41236114501953 86.89635467529297 13.40077209472656 89.83959197998047 C 15.37099456787109 92.75590515136719 17.63377380371094 95.49839782714844 20.12628173828125 97.99090576171875 C 22.61879730224609 100.4834136962891 25.36128234863281 102.7461929321289 28.27759552001953 104.7164154052734 C 31.22083282470703 106.704833984375 34.36693572998047 108.4125213623047 37.62852478027344 109.7920684814453 C 44.41384887695312 112.6620101928711 51.62397766113281 114.1171951293945 59.05859375 114.1171951293945 C 66.49320983886719 114.1171951293945 73.70333862304688 112.6620101928711 80.48866271972656 109.7920684814453 C 83.750244140625 108.4125213623047 86.89635467529297 106.704833984375 89.83959197998047 104.7164154052734 C 92.75590515136719 102.7461929321289 95.49839782714844 100.4834136962891 97.99090576171875 97.99090576171875 C 100.4834136962891 95.49839782714844 102.7461929321289 92.75590515136719 104.7164154052734 89.83959197998047 C 106.704833984375 86.89635467529297 108.4125213623047 83.750244140625 109.7920684814453 80.48866271972656 C 112.6620101928711 73.70333862304688 114.1171951293945 66.49320983886719 114.1171951293945 59.05859375 C 114.1171951293945 51.62397766113281 112.6620101928711 44.41384887695312 109.7920684814453 37.62852478027344 C 108.4125213623047 34.36693572998047 106.704833984375 31.22083282470703 104.7164154052734 28.27759552001953 C 102.7461929321289 25.36128234863281 100.4834136962891 22.61879730224609 97.99090576171875 20.12628173828125 C 95.49839782714844 17.63377380371094 92.75590515136719 15.37099456787109 89.83959197998047 13.40077209472656 C 86.89635467529297 11.41236114501953 83.750244140625 9.704666137695312 80.48866271972656 8.325119018554688 C 73.70333862304688 5.455177307128906 66.49320983886719 3.999992370605469 59.05859375 3.999992370605469 M 59.05859375 -7.62939453125e-06 C 91.67575836181641 -7.62939453125e-06 118.1171951293945 26.44142913818359 118.1171951293945 59.05859375 C 118.1171951293945 91.67575836181641 91.67575836181641 118.1171951293945 59.05859375 118.1171951293945 C 26.44142913818359 118.1171951293945 -7.62939453125e-06 91.67575836181641 -7.62939453125e-06 59.05859375 C -7.62939453125e-06 26.44142913818359 26.44142913818359 -7.62939453125e-06 59.05859375 -7.62939453125e-06 Z" stroke="none" fill="#53159b"/>
        </g>
      </g>
      <g id="Grupo_1197804" data-name="Grupo 1197804" transform="translate(587.465 3572.432)">
        <path id="Trazado_1008987" data-name="Trazado 1008987" d="M204.582,301.585c-.353-5.691,3.713-9,7.88-9.057,3.834-.056,8.354,2.88,8.065,9.086,1.457,0,2.911.008,4.365-.011a.8.8,0,0,0,.464-.243c.587-.56,1.184-1.114,1.718-1.723a1.5,1.5,0,0,0,.255-.848,28.663,28.663,0,0,1,.26-4.262,5.349,5.349,0,0,1,5.21-4.245c2.446-.075,4.9-.089,7.343,0a5.606,5.606,0,0,1,5.419,5.664c.008.508.023,1.018,0,1.526-.053,1.143-.034,2.1,1.182,2.877a3.274,3.274,0,0,1-1.668,5.65,3.127,3.127,0,0,0-3.3,2.117,2.378,2.378,0,0,1-.2.313,24.69,24.69,0,0,1,2.852,1.464,7.55,7.55,0,0,1,3.39,6.2c.064,1.492.029,2.988.018,4.482-.008,1.056-.394,1.466-1.423,1.467q-9.967.014-19.934,0c-1.018,0-1.362-.365-1.375-1.394-.017-1.335-.014-2.671,0-4.006a7.838,7.838,0,0,1,5.6-7.86c.2-.072.407-.139.642-.22-.411-.719-.771-1.415-1.2-2.064a.9.9,0,0,0-.682-.328c-1.744.083-3.212-.329-4.1-2.01-.081-.155-.422-.24-.645-.244-1.462-.021-2.926-.04-4.387.012a1.47,1.47,0,0,0-.9.5,19.59,19.59,0,0,1-1.573,1.891,1.8,1.8,0,0,0-.656,2.085l2.083.093v2.127l-2.175.1c0,.988,0,1.931,0,2.873-.008,1.263-.373,1.621-1.657,1.635-.537.006-1.073,0-1.718,0v2.176H211.4v-2.178c-.762,0-1.422.02-2.08,0a1.207,1.207,0,0,1-1.347-1.361c-.022-1.015-.005-2.031-.005-3.159h-2.179v-2.244h2.083a1.8,1.8,0,0,0-.6-2.094,7.819,7.819,0,0,1-1.516-1.815,1.171,1.171,0,0,0-1.12-.662c-1.4.045-2.8-.008-4.2.034a1.135,1.135,0,0,0-.83.416,3.442,3.442,0,0,1-3.432,1.792,1.348,1.348,0,0,0-1.577.96,9.459,9.459,0,0,1-.892,1.435,16.215,16.215,0,0,1,1.6.6,7.678,7.678,0,0,1,4.646,6.889c.066,1.555.036,3.115.021,4.673-.01.973-.365,1.35-1.32,1.351q-10.015.018-20.03.008c-.777,0-1.348-.318-1.363-1.133a40.6,40.6,0,0,1,.064-5.43,7.606,7.606,0,0,1,5.387-6.635q.357-.127.711-.263c.022-.008.031-.05.051-.084a21.694,21.694,0,0,0-1.167-2.027c-.151-.213-.584-.256-.9-.318a9.49,9.49,0,0,1-2.306-.43,3.3,3.3,0,0,1-.312-5.773,1.4,1.4,0,0,0,.739-1.456c-.043-.888-.023-1.78,0-2.67a5.521,5.521,0,0,1,5.061-5.5,70.463,70.463,0,0,1,8.1,0,5.456,5.456,0,0,1,5.009,5.14c.078,1.044.035,2.1.047,3.146,0,.127,0,.255,0,.381a11.646,11.646,0,0,0,2.566,2.609c1.176.008,2.353.006,3.529,0C204.064,301.616,204.283,301.6,204.582,301.585Zm-20.613,9.285a5.373,5.373,0,0,0-3.554,2.476c-1.317,1.99-.814,4.2-.863,6.352h2.333v-4.377h2.248v4.412H193.2V315.3h2.267v4.48c.619,0,1.123.005,1.627,0,.183,0,.365-.037.53-.054.883-4.606-1.144-8.623-4.381-8.759-.84,2.921-2.267,4.249-4.582,4.262C186.312,315.239,184.808,313.857,183.969,310.87Zm57.122.033c-.665,2.747-2.115,4.178-4.323,4.311-2.422.146-3.821-1.06-4.957-4.273a5.1,5.1,0,0,0-3.625,2.473c-1.225,1.986-.766,4.152-.823,6.308h2.291v-4.413h2.267v4.4h9.135v-4.4H243.3v4.383h2.209C245.994,314.3,244.736,311.848,241.091,310.9ZM214.782,308.4a4.182,4.182,0,0,0,.036-.688,2.884,2.884,0,0,1,1.365-2.946,5.494,5.494,0,0,0,.619-8.044,5.677,5.677,0,0,0-8.036-.48,5.469,5.469,0,0,0-.407,7.986c1.219,1.2,2.45,2.188,1.831,4.147h1.252v-8.979H213.7v9Zm14.867-9.095a22.807,22.807,0,0,0,3.911-.039c2.287-.415,4.574-.973,5.305-3.732a1.3,1.3,0,0,1,1.078-.675c.388.064.76.544,1.025.923.161.231.087.617.153.927a2.758,2.758,0,0,0,2.146,2.243c0-.958.009-1.909,0-2.859a3.289,3.289,0,0,0-3.22-3.539c-2.376-.11-4.764-.1-7.141-.006a3.269,3.269,0,0,0-3.25,3.412C229.626,297.033,229.649,298.111,229.649,299.3Zm-47.813-.011a22.511,22.511,0,0,0,3.987-.042c2.286-.428,4.577-1.012,5.242-3.8a1.175,1.175,0,0,1,.952-.608,1.674,1.674,0,0,1,1.025.667c.191.243.16.663.22,1.006a3.394,3.394,0,0,0,2.18,2.616c0-1.128.017-2.1,0-3.069a3.312,3.312,0,0,0-3.337-3.526c-2.313-.081-4.633-.075-6.947,0a3.27,3.27,0,0,0-3.305,3.058C181.78,296.791,181.837,298,181.837,299.291Zm2.269,2.332a28.125,28.125,0,0,0,.015,2.837,4.541,4.541,0,0,0,5.833,3.755,3.992,3.992,0,0,0,3.036-3.227c.273-2.07,1.043-4.373-1.307-5.953A11.091,11.091,0,0,1,184.105,301.624Zm47.686.009a23.84,23.84,0,0,0,.377,3.63,4.435,4.435,0,0,0,5.679,2.927,4.036,4.036,0,0,0,3.035-3.452c.17-1.966.952-4.232-1.385-5.689A11.263,11.263,0,0,1,231.791,301.633Zm-17.013,9.13h-4.429v2.1h4.429Zm-28.318-.046a2.111,2.111,0,0,0,2.4,2.217,1.981,1.981,0,0,0,1.89-2.217Zm47.816.026a2.112,2.112,0,0,0,2.4,2.192,1.986,1.986,0,0,0,1.9-2.192Zm-52.495-6.878v-2.453a10.883,10.883,0,0,0-2.016.741c-.188.113-.223.81-.069,1.105C180.128,304.086,180.951,303.928,181.781,303.865Zm13.718-2.526v2.533c.772.043,1.554.224,2.011-.527.177-.291.21-1,.037-1.114A11.6,11.6,0,0,0,195.5,301.339Zm34.093-.017a11.815,11.815,0,0,0-2.06.922c-.17.118-.128.827.056,1.113.467.727,1.234.593,2,.48ZM243.3,303.88c.861.037,1.7.2,2.109-.654.143-.3.087-.991-.108-1.1a10.537,10.537,0,0,0-2-.685Z" transform="translate(0 -163.597)" fill="url(#linear-gradient)"/>
        <path id="Trazado_1008988" data-name="Trazado 1008988" d="M270.788,117.592c-2.841,0-5.38,0-7.919,0-1.535,0-1.827-.294-1.828-1.842q0-11.824,0-23.647c0-1.535.248-1.779,1.768-1.78,2.761,0,5.522,0,8.233,0,.089-.115.154-.16.159-.21.2-2.026.245-2.064,2.319-2.064h13.54c2.223,0,2.223,0,2.557,2.275h3.292q2.527,0,5.054,0c1.5,0,1.754.255,1.756,1.793q.006,5.34,0,10.679,0,6.532,0,13.063c0,1.414-.324,1.729-1.746,1.732-2.567,0-5.134,0-7.88,0,.283.333.441.548.627.734q2.457,2.463,4.925,4.914c.449.444.846.89.56,1.578s-.908.706-1.525.706c-1.526,0-3.052-.024-4.577.011a2.349,2.349,0,0,1-1.856-.766c-2.184-2.219-4.4-4.407-6.609-6.6a1.579,1.579,0,0,0-2.529.019c-2.185,2.174-4.382,4.337-6.544,6.534a2.438,2.438,0,0,1-1.931.817c-1.556-.042-3.118.044-4.67-.047a1.191,1.191,0,0,1-.873-2.175C266.88,121.438,268.744,119.63,270.788,117.592Zm26.641-24.9h-7.869c-.142,2.063-.265,2.176-2.294,2.176H273.441c-1.957,0-2.063-.1-2.231-2.059,0-.049-.071-.093-.121-.154h-7.743v22.6h34.082Zm-23.83-.133h13.529V90.384H273.6Zm2.775,25.135c-1.414-.218-2.587-.27-3.438.945a8.392,8.392,0,0,1-1.134,1.146q-1.66,1.592-3.328,3.175l.206.419c.823-.155,1.88-.04,2.427-.513C272.92,121.293,274.55,119.512,276.373,117.69Zm8.07-.008c.24.265.414.474.605.666q2.112,2.118,4.231,4.23a2.5,2.5,0,0,0,2.919.429c-1.47-1.464-3.013-2.84-4.355-4.39C286.879,117.506,285.8,117.473,284.443,117.682Z" transform="translate(-67.835)" fill="url(#linear-gradient)"/>
        <path id="Trazado_1008989" data-name="Trazado 1008989" d="M314.667,185.607H285.281v-2.2h29.386Z" transform="translate(-87.451 -77.161)" fill="url(#linear-gradient)"/>
        <path id="Trazado_1008990" data-name="Trazado 1008990" d="M314.776,209.561H285.348v-2.168h29.428Z" transform="translate(-87.505 -96.574)" fill="url(#linear-gradient)"/>
        <path id="Trazado_1008991" data-name="Trazado 1008991" d="M285.173,161.892v-2.167h18.072v2.167Z" transform="translate(-87.364 -58.001)" fill="url(#linear-gradient)"/>
        <path id="Trazado_1008992" data-name="Trazado 1008992" d="M303.385,136v2.156H285.3V136Z" transform="translate(-87.466 -38.804)" fill="url(#linear-gradient)"/>
        <path id="Trazado_1008993" data-name="Trazado 1008993" d="M404.39,126.492l1.882,1.252c-1.554,2.321-3.035,4.595-4.589,6.818a1.077,1.077,0,0,1-1.96-.289c-.433-1.084-.76-2.21-1.156-3.384l2.1-.708.469,1.122Z" transform="translate(-179.122 -31.109)" fill="url(#linear-gradient)"/>
      </g>
    </g>
  </g>
</svg>
