<svg xmlns="http://www.w3.org/2000/svg" xmlns:xlink="http://www.w3.org/1999/xlink" width="118.117" height="118.117" viewBox="0 0 118.117 118.117">
  <defs>
    <linearGradient id="linear-gradient" x1="0.944" y1="0.706" x2="0.837" y2="-0.976" gradientUnits="objectBoundingBox">
      <stop offset="0" stop-color="#045e61"/>
      <stop offset="1" stop-color="#3ef989"/>
    </linearGradient>
  </defs>
  <g id="Grupo_1197968" data-name="Grupo 1197968" transform="translate(-1156.941 -3638.929)">
    <g id="Grupo_1197936" data-name="Grupo 1197936">
      <g id="Grupo_1192986" data-name="Grupo 1192986" transform="translate(1156.941 3638.929)">
        <g id="Trazado_995327" data-name="Trazado 995327" transform="translate(0)" fill="#fff">
          <path d="M 59.05859375 116.1171951293945 C 51.35486221313477 116.1171951293945 43.88261032104492 114.6088409423828 36.84942626953125 111.6340637207031 C 33.46891021728516 110.2042236328125 30.20824432373047 108.4343566894531 27.15799331665039 106.3736572265625 C 24.13620948791504 104.3321914672852 21.29459381103516 101.9876251220703 18.71207618713379 99.40511322021484 C 16.12957763671875 96.82259368896484 13.78501033782959 93.98097991943359 11.74354362487793 90.95919036865234 C 9.682826995849609 87.90895843505859 7.91297721862793 84.64827728271484 6.48314380645752 81.26776123046875 C 3.508343696594238 74.23457336425781 2.00001049041748 66.7623291015625 2.00001049041748 59.05859375 C 2.00001049041748 51.35486221313477 3.508343696594238 43.88261032104492 6.48314380645752 36.84942626953125 C 7.91297721862793 33.46891021728516 9.682826995849609 30.20824432373047 11.74354362487793 27.15799331665039 C 13.78501033782959 24.13620948791504 16.12957763671875 21.29459381103516 18.71207618713379 18.71207618713379 C 21.29459381103516 16.12957763671875 24.13620948791504 13.78501033782959 27.15799331665039 11.74354362487793 C 30.20824432373047 9.682826995849609 33.46891021728516 7.91297721862793 36.84942626953125 6.48314380645752 C 43.88261032104492 3.508343696594238 51.35486221313477 2.00001049041748 59.05859375 2.00001049041748 C 66.7623291015625 2.00001049041748 74.23457336425781 3.508343696594238 81.26776123046875 6.48314380645752 C 84.64827728271484 7.91297721862793 87.90895843505859 9.682826995849609 90.95919036865234 11.74354362487793 C 93.98097991943359 13.78501033782959 96.82259368896484 16.12957763671875 99.40511322021484 18.71207618713379 C 101.9876251220703 21.29459381103516 104.3321914672852 24.13620948791504 106.3736572265625 27.15799331665039 C 108.4343566894531 30.20824432373047 110.2042236328125 33.46891021728516 111.6340637207031 36.84942626953125 C 114.6088409423828 43.88261032104492 116.1171951293945 51.35486221313477 116.1171951293945 59.05859375 C 116.1171951293945 66.7623291015625 114.6088409423828 74.23457336425781 111.6340637207031 81.26776123046875 C 110.2042236328125 84.64827728271484 108.4343566894531 87.90895843505859 106.3736572265625 90.95919036865234 C 104.3321914672852 93.98097991943359 101.9876251220703 96.82259368896484 99.40511322021484 99.40511322021484 C 96.82259368896484 101.9876251220703 93.98097991943359 104.3321914672852 90.95919036865234 106.3736572265625 C 87.90895843505859 108.4343566894531 84.64827728271484 110.2042236328125 81.26776123046875 111.6340637207031 C 74.23457336425781 114.6088409423828 66.7623291015625 116.1171951293945 59.05859375 116.1171951293945 Z" stroke="none"/>
          <path d="M 59.05859375 3.999992370605469 C 51.62397766113281 3.999992370605469 44.41384887695312 5.455177307128906 37.62852478027344 8.325119018554688 C 34.36693572998047 9.704666137695312 31.22083282470703 11.41236114501953 28.27759552001953 13.40077209472656 C 25.36128234863281 15.37099456787109 22.61879730224609 17.63377380371094 20.12628173828125 20.12628173828125 C 17.63377380371094 22.61879730224609 15.37099456787109 25.36128234863281 13.40077209472656 28.27759552001953 C 11.41236114501953 31.22083282470703 9.704666137695312 34.36693572998047 8.325119018554688 37.62852478027344 C 5.455177307128906 44.41384887695312 3.999992370605469 51.62397766113281 3.999992370605469 59.05859375 C 3.999992370605469 66.49320983886719 5.455177307128906 73.70333862304688 8.325119018554688 80.48866271972656 C 9.704666137695312 83.750244140625 11.41236114501953 86.89635467529297 13.40077209472656 89.83959197998047 C 15.37099456787109 92.75590515136719 17.63377380371094 95.49839782714844 20.12628173828125 97.99090576171875 C 22.61879730224609 100.4834136962891 25.36128234863281 102.7461929321289 28.27759552001953 104.7164154052734 C 31.22083282470703 106.704833984375 34.36693572998047 108.4125213623047 37.62852478027344 109.7920684814453 C 44.41384887695312 112.6620101928711 51.62397766113281 114.1171951293945 59.05859375 114.1171951293945 C 66.49320983886719 114.1171951293945 73.70333862304688 112.6620101928711 80.48866271972656 109.7920684814453 C 83.750244140625 108.4125213623047 86.89635467529297 106.704833984375 89.83959197998047 104.7164154052734 C 92.75590515136719 102.7461929321289 95.49839782714844 100.4834136962891 97.99090576171875 97.99090576171875 C 100.4834136962891 95.49839782714844 102.7461929321289 92.75590515136719 104.7164154052734 89.83959197998047 C 106.704833984375 86.89635467529297 108.4125213623047 83.750244140625 109.7920684814453 80.48866271972656 C 112.6620101928711 73.70333862304688 114.1171951293945 66.49320983886719 114.1171951293945 59.05859375 C 114.1171951293945 51.62397766113281 112.6620101928711 44.41384887695312 109.7920684814453 37.62852478027344 C 108.4125213623047 34.36693572998047 106.704833984375 31.22083282470703 104.7164154052734 28.27759552001953 C 102.7461929321289 25.36128234863281 100.4834136962891 22.61879730224609 97.99090576171875 20.12628173828125 C 95.49839782714844 17.63377380371094 92.75590515136719 15.37099456787109 89.83959197998047 13.40077209472656 C 86.89635467529297 11.41236114501953 83.750244140625 9.704666137695312 80.48866271972656 8.325119018554688 C 73.70333862304688 5.455177307128906 66.49320983886719 3.999992370605469 59.05859375 3.999992370605469 M 59.05859375 -7.62939453125e-06 C 91.67575836181641 -7.62939453125e-06 118.1171951293945 26.44142913818359 118.1171951293945 59.05859375 C 118.1171951293945 91.67575836181641 91.67575836181641 118.1171951293945 59.05859375 118.1171951293945 C 26.44142913818359 118.1171951293945 -7.62939453125e-06 91.67575836181641 -7.62939453125e-06 59.05859375 C -7.62939453125e-06 26.44142913818359 26.44142913818359 -7.62939453125e-06 59.05859375 -7.62939453125e-06 Z" stroke="none" fill="#53159b"/>
        </g>
      </g>
      <g id="Grupo_1197805" data-name="Grupo 1197805" transform="translate(1013.236 3517.943)">
        <path id="Trazado_1008994" data-name="Trazado 1008994" d="M174.841,198.54a3.227,3.227,0,0,0-.415-.366,8.807,8.807,0,0,1-4.049-5.735,8.28,8.28,0,0,1-.209-1.289A21.453,21.453,0,0,1,172.5,179.47a5.272,5.272,0,0,0,.121-5.221,14.249,14.249,0,0,1-9.807-5.058,13.181,13.181,0,0,1-3.106-8.334,13.692,13.692,0,0,1,9.076-13.288,14.036,14.036,0,0,1,17.434,7.366c1.1,0,2.138,0,3.18,0a15.8,15.8,0,0,1,11.524,4.842,16.489,16.489,0,0,1,4.954,11.774,14.749,14.749,0,0,1-.523,3.748,5.222,5.222,0,0,0,.364,3.691,22.916,22.916,0,0,1,2.454,7.576c.368,3.258.422,6.516-1.693,9.3a27.367,27.367,0,0,1-2.791,2.754,6.506,6.506,0,0,0,.206.792,8.636,8.636,0,0,1-2.873,9.874,1.544,1.544,0,0,0-.644,1.2,2.862,2.862,0,0,1-3.252,2.829q-7.815.013-15.629.006c-1.958,0-2.912-.8-3.154-2.723a1.726,1.726,0,0,0-.821-1.248,8.071,8.071,0,0,1-2.833-3.531,9.239,9.239,0,0,1-.075-6.656C174.685,198.961,174.76,198.76,174.841,198.54Zm9.189-7.069.073-.208c-.168-.128-.33-.266-.506-.381a12.649,12.649,0,0,1-4.14-4.316,18.934,18.934,0,0,1-1.771-14.827,1.772,1.772,0,0,1,1.376-1.4,12.927,12.927,0,0,0,4.7-2.528c.582-.461,1.137-.956,1.714-1.423a.881.881,0,0,1,1.378.07c.23.264.478.513.732.753a11.168,11.168,0,0,0,4.706,2.745,22.016,22.016,0,0,0,6.086.777c2.028-.007,2.148.106,2.618,2.133a18.571,18.571,0,0,1-.994,11.691,13.374,13.374,0,0,1-5.489,6.506c-.086.051-.116.2-.239.416,1.06,0,2.018-.016,2.976,0,1.775.037,2.732.742,3.018,2.476a2.859,2.859,0,0,0,1.262,1.995c1.167.863,1.468.925,2.573.037a4.877,4.877,0,0,0,.723-.756,9.585,9.585,0,0,0,1.828-6.806,19.066,19.066,0,0,0-2.269-8.147,7.8,7.8,0,0,1-.65-5.476,15.959,15.959,0,0,0,.12-6.116,14.848,14.848,0,0,0-14.882-12.118,14.163,14.163,0,0,0-10.592,4.756,14.407,14.407,0,0,0-3.685,13.223,9.182,9.182,0,0,1-.588,5.741,40.686,40.686,0,0,0-1.935,5.691,11.446,11.446,0,0,0,.254,7.1,6.348,6.348,0,0,0,2.265,3.142c1,.694,1.145.677,2.025-.113a5.988,5.988,0,0,1,.806-.668,1.671,1.671,0,0,0,.827-1.383,2.76,2.76,0,0,1,2.924-2.583C182.2,191.456,183.113,191.471,184.029,191.471Zm1.92-23.148c-.076.059-.282.21-.478.372a15.8,15.8,0,0,1-5.039,3.012,1.819,1.819,0,0,0-1.307,1.594,16.892,16.892,0,0,0-.263,6.5,14.479,14.479,0,0,0,4.974,9.125,8.285,8.285,0,0,0,5.589,1.944,8.844,8.844,0,0,0,5.982-2.647,12.905,12.905,0,0,0,3.7-6.382,37.672,37.672,0,0,0,.6-3.871,15.491,15.491,0,0,0-.356-4.668.852.852,0,0,0-.917-.749c-1.045-.067-2.089-.155-3.131-.258a14.293,14.293,0,0,1-5.41-1.465C188.557,170.112,187.323,169.205,185.95,168.323ZM180.168,206.6h18.24a2.978,2.978,0,0,0,.131-.572c.01-3.8.028-7.608.006-11.412-.006-1.107-.267-1.317-1.473-1.319q-7.673-.013-15.347,0c-1.438,0-1.553.126-1.556,1.594-.007,3.192,0,6.384,0,9.575C180.168,205.123,180.168,205.775,180.168,206.6Zm.006,2.025c0,.705-.023,1.227.005,1.747.046.846.337,1.157,1.191,1.273a7.885,7.885,0,0,0,1.049.029q6.963,0,13.925.005c1.969,0,2.3-.345,2.2-2.305a4.265,4.265,0,0,0-.175-.749Zm-10.96-44.494c1.495-.089,2.794-.214,4.1-.227a1.783,1.783,0,0,0,1.695-.96,11.2,11.2,0,0,1,1.9-2.484c1.189-1.079.975-2.277.743-3.54h-8.433Zm-6.638-8.439a11.676,11.676,0,0,0-.416,8.86c.14.411.4.705.87.614,1.477-.285,2.95-.595,4.267-.863v-7.693Zm6.81-.852a4.7,4.7,0,0,0,2.3.358c1.616,0,3.231,0,4.847-.022.5-.007,1.063-.082.927-.777-.318-1.623-.692-3.235-1.065-4.847a1.19,1.19,0,0,0-1.107-.933,10.058,10.058,0,0,0-3.629,0,1.191,1.191,0,0,0-1.109.931C170.153,151.283,169.784,153.02,169.385,154.842Zm8.867,42.433c-3.358,2.679-3.266,8.175,0,10.241Zm-8.832-31.115c.355,1.666.673,3.32,1.067,4.957.279,1.161.589,1.287,1.952.978.119-1.007.2-2.041.37-3.061.171-1.056.42-2.1.654-3.239A8.269,8.269,0,0,0,169.419,166.16Zm31.143,31.594a54.1,54.1,0,0,0,.051,9.49C203.78,204.424,202.97,199.1,200.562,197.755Zm-21.246-42.876,4.1-.778c-.838-2.014-3.419-4.18-5.06-4.231Zm-10.682-5.187c-2.186.7-4.668,2.953-5,4.421l4.015.735Zm-.937,16.681a7.37,7.37,0,0,0-4,.686,8.159,8.159,0,0,0,4.9,4.089Zm15.056-10.242-.036-.126-3.25.6.275,1.136Z" transform="translate(0)" fill="url(#linear-gradient)"/>
        <path id="Trazado_1008995" data-name="Trazado 1008995" d="M380.476,299.316c1.952,2.427,2.043,4.393-.043,6.706.691,1,1.574,1.916,1.535,3.313a4.881,4.881,0,0,1-1.507,3.405c.285.342.56.623.778.944a4.208,4.208,0,0,1-3.251,6.561q-9,.034-18,.013c-1.158,0-1.4-.233-1.426-1.372-.032-1.445-.009-2.89-.009-4.335q0-10.247.007-20.494c0-.394-.015-.79.024-1.181a1.036,1.036,0,0,1,1.019-1.009c.261-.026.525-.018.787-.018q8.539,0,17.078,0a4.247,4.247,0,0,1,3.022,1.04,4.1,4.1,0,0,1,.367,5.966C380.749,298.989,380.639,299.122,380.476,299.316Zm-19.995,5.846c.512.032.936.08,1.361.081q7.669.011,15.338.009a5.428,5.428,0,0,0,.785-.019,2.742,2.742,0,0,0,2.156-1.7,2.262,2.262,0,0,0-.442-2.438,2.343,2.343,0,0,0-2.1-.839c-5.331.009-10.663,0-15.994.014a9.621,9.621,0,0,0-1.107.125Zm0-6.792c.538.029.966.071,1.394.072q7.753.009,15.506.006a7.137,7.137,0,0,0,.788-.019,2.41,2.41,0,0,0,.46-4.7,7.547,7.547,0,0,0-1.938-.266c-4.949-.019-9.9-.009-14.849,0-.425,0-.85.051-1.36.083Zm-.01,13.39c.523.032.909.076,1.3.077q7.817.009,15.633.007a5.818,5.818,0,0,0,.657-.012,2.468,2.468,0,0,0,2.116-1.716,2.188,2.188,0,0,0-.61-2.393,2.976,2.976,0,0,0-2.383-.882q-7.816.007-15.633.013a9.924,9.924,0,0,0-1.075.123Zm-.074,6.765c.53.051.869.111,1.209.111q7.747.012,15.494.009a3.942,3.942,0,0,0,.785-.038c1.93-.4,3.183-2.182,1.894-3.993a2.414,2.414,0,0,0-2.173-.965c-5.34.012-10.68.005-16.019.013a10.676,10.676,0,0,0-1.069.111,6.359,6.359,0,0,0-.116.812C360.387,315.852,360.393,317.117,360.393,318.526Z" transform="translate(-146.579 -106.95)" fill="url(#linear-gradient)"/>
        <path id="Trazado_1008996" data-name="Trazado 1008996" d="M353.226,146.9c4.727,0,9.453-.006,14.18,0a3.635,3.635,0,0,1,2.693.787,2.579,2.579,0,0,1,.9,1.958c-.009,3.939.022,7.878-.007,11.816a2.74,2.74,0,0,1-2.915,2.736c-1.618.048-3.238.014-4.857.016-1.707,0-3.414-.012-5.12.008-1.324.015-1.684.285-2.111,1.528-.539,1.569-1.06,3.144-1.591,4.716a1.307,1.307,0,0,1-.2.482c-.285.3-.609.774-.92.776-.284,0-.7-.477-.832-.829-.514-1.348-.913-2.738-1.4-4.1-1.017-2.83-1.073-2.587-3.623-2.578-2.888.01-5.777,0-8.665.007a3.18,3.18,0,0,1-2.2-.679,2.723,2.723,0,0,1-1.053-2.161c.018-3.895-.008-7.79.022-11.685a2.771,2.771,0,0,1,2.861-2.805c1.092-.05,2.188-.013,3.282-.013h11.554Zm-.015,21.073.285-.037c.312-.9.619-1.809.936-2.711.7-1.992,1.5-2.57,3.589-2.573,3.152,0,6.305.006,9.458,0,1.711,0,2.2-.46,2.2-2.164q.028-4.925.008-9.851c-.006-1.66-.543-2.193-2.219-2.194q-14.187,0-28.373.014c-1.552,0-1.994.47-2,2.069-.008,2.364,0,4.729,0,7.093,0,1.094-.03,2.19.017,3.283.05,1.15.57,1.641,1.726,1.724.349.025.7.01,1.051.01,3.021,0,6.043.037,9.063-.007a3.061,3.061,0,0,1,3,1.917,17.342,17.342,0,0,1,.629,1.722Q352.9,167.118,353.211,167.968Z" transform="translate(-129.595 -0.079)" fill="url(#linear-gradient)"/>
        <path id="Trazado_1008997" data-name="Trazado 1008997" d="M359.177,258.721a2.832,2.832,0,0,1-2.831-2.815,3.016,3.016,0,0,1,2.9-2.957,3.216,3.216,0,0,1,2.9,2.886A2.912,2.912,0,0,1,359.177,258.721Zm-.029-3.952a1.119,1.119,0,0,0-1.14,1.159,1.25,1.25,0,0,0,1.209,1.143,1.145,1.145,0,0,0,1.123-1.191A1.116,1.116,0,0,0,359.148,254.769Z" transform="translate(-144.956 -78.275)" fill="url(#linear-gradient)"/>
        <path id="Trazado_1008998" data-name="Trazado 1008998" d="M395.25,258.721a2.836,2.836,0,0,1-2.719-2.922,2.908,2.908,0,0,1,2.965-2.842,3.143,3.143,0,0,1,2.783,2.967A2.9,2.9,0,0,1,395.25,258.721Zm.214-3.952a1.163,1.163,0,0,0-1.322,1.1,1.456,1.456,0,0,0,1.173,1.212,1.2,1.2,0,0,0,1.176-1.14C396.54,255.172,396.21,254.794,395.464,254.768Z" transform="translate(-171.631 -78.28)" fill="url(#linear-gradient)"/>
        <path id="Trazado_1008999" data-name="Trazado 1008999" d="M431.386,258.729a2.813,2.813,0,0,1-2.808-2.822,2.9,2.9,0,0,1,2.863-2.935,3.124,3.124,0,0,1,2.87,2.868A2.885,2.885,0,0,1,431.386,258.729Zm.061-3.952a1.159,1.159,0,0,0-1.267,1.03,1.4,1.4,0,0,0,1.221,1.29,1.429,1.429,0,0,0,1.272-1.26A1.125,1.125,0,0,0,431.447,254.777Z" transform="translate(-198.203 -78.293)" fill="url(#linear-gradient)"/>
        <path id="Trazado_1009000" data-name="Trazado 1009000" d="M248.006,249.837c-.123.129-.345.525-.674.661-.4.164-.746-.1-.9-.545a3.426,3.426,0,0,0-.3-.725,1.219,1.219,0,0,0-2.067.007c-.155.258-.15.649-.351.832a1.5,1.5,0,0,1-.982.424.943.943,0,0,1-.634-.674,3.117,3.117,0,0,1,2.783-2.971A3.01,3.01,0,0,1,248.006,249.837Z" transform="translate(-60.739 -73.777)" fill="url(#linear-gradient)"/>
        <path id="Trazado_1009001" data-name="Trazado 1009001" d="M279.423,249.745a2.817,2.817,0,0,1,1.682-2.588,2.776,2.776,0,0,1,3.08.361,2.524,2.524,0,0,1,1.069,2.273c-.033.384-.145.748-.58.716a1.569,1.569,0,0,1-.88-.39c-.165-.15-.089-.565-.253-.715-.366-.333-.8-.766-1.234-.791-.346-.02-.739.482-1.078.789-.114.1-.13.318-.179.485-.148.5-.515.8-.976.595C279.754,250.34,279.561,249.911,279.423,249.745Z" transform="translate(-88.251 -73.78)" fill="url(#linear-gradient)"/>
        <path id="Trazado_1009002" data-name="Trazado 1009002" d="M262.734,295.264c-.9-.284-1.778-.531-2.635-.846a.785.785,0,0,1-.49-1.072c.179-.52.621-.562,1.082-.485a3.139,3.139,0,0,1,.626.192,3.8,3.8,0,0,0,2.7.065,5.916,5.916,0,0,1,1.146-.271c.422-.052.872.085.893.549.015.325-.184.86-.427.959C264.7,294.73,263.722,294.966,262.734,295.264Z" transform="translate(-73.6 -107.675)" fill="url(#linear-gradient)"/>
        <path id="Trazado_1009003" data-name="Trazado 1009003" d="M256.595,337.784a4.021,4.021,0,0,1,4.235-4.037c2.2.018,4.277,1.976,4.1,4.058a4.039,4.039,0,0,1-4.243,4.086A4.153,4.153,0,0,1,256.595,337.784Zm6.533.02a2.346,2.346,0,1,0-4.691-.072,2.286,2.286,0,0,0,2.288,2.36A2.407,2.407,0,0,0,263.128,337.8Z" transform="translate(-71.423 -137.837)" fill="url(#linear-gradient)"/>
        <path id="Trazado_1009004" data-name="Trazado 1009004" d="M369.756,168.5c0,.748.018,1.262,0,1.775-.055,1.336-.6,1.866-1.961,1.91-.656.021-1.313.028-1.968,0-1.31-.06-1.813-.574-1.846-1.854-.013-.518,0-1.036,0-1.694-.529-.051-.944-.12-1.359-.126-3.787-.061-3.784-.053-6.99,1.9-.858.522-1.725,1.034-2.62,1.489-1.317.669-2.309.157-2.37-1.307-.083-1.964-.039-3.935-.016-5.9a1.486,1.486,0,0,1,2.447-1.291c1.576,1.089,3.313,1.944,4.967,2.922a3.9,3.9,0,0,0,2.23.628c.873-.042,1.75.016,2.623-.014.9-.031,1.032-.18,1.083-1.1.024-.436-.014-.877.023-1.311.072-.828.406-1.2,1.229-1.237,1-.049,2.013-.051,3.016,0a1.475,1.475,0,0,1,1.508,1.618c.028.6.005,1.206.005,1.933.559.047.978.111,1.4.114,1.706.013,3.411.007,5.117.008.306,0,.612,0,.918.008.406.016.848.062.894.569.053.59-.357.883-.88.935-.607.06-1.223.035-1.835.037C373.578,168.5,371.793,168.5,369.756,168.5Zm-4.193-3.581c0,1.919-.061,3.724.039,5.678a11.149,11.149,0,0,0,1.833-.029c.269-.048.683-.393.691-.616.059-1.646.032-3.3.032-5.033Zm-13.083,5.357a24.1,24.1,0,0,0,4.491-2.759c-1.643-.751-2.833-1.849-4.491-2.419Z" transform="translate(-140.712 -12)" fill="url(#linear-gradient)"/>
      </g>
    </g>
  </g>
</svg>
