<svg xmlns="http://www.w3.org/2000/svg" xmlns:xlink="http://www.w3.org/1999/xlink" width="500.544" height="295.746" viewBox="0 0 500.544 295.746">
  <defs>
    <clipPath id="clip-path">
      <rect x="-14" width="500.195" height="293.304" fill="none"/>
    </clipPath>
  </defs>
  <g id="Grupo_1197969" data-name="Grupo 1197969" transform="translate(-289.652 -4420.197)">
    <rect id="Rectángulo_460784" data-name="Rectángulo 460784" width="500" height="258" rx="38" transform="translate(289.652 4457.943)" fill="#eee"/>
    <g id="Grupo_1197966" data-name="Grupo 1197966" transform="translate(290.001 4420.197)">
      <g id="Grupo_1197968" data-name="Grupo 1197968">
        <g id="Grupo_1197967" data-name="Grupo 1197967">
          <g id="Grupo_de_desplazamiento_1" data-name="Grupo de desplazamiento 1" transform="translate(14)" clip-path="url(#clip-path)" style="isolation: isolate">
            <g id="Grupo_1193366" data-name="Grupo 1193366" transform="translate(-224.697 -4147.944)">
              <g id="Grupo_1193365" data-name="Grupo 1193365" transform="translate(224.697 4147.944)">
                <g id="Grupo_1193289" data-name="Grupo 1193289" transform="translate(0 0)">
                  <path id="Trazado_1005080" data-name="Trazado 1005080" d="M496.969,195.091a113.593,113.593,0,0,1-5.138,29.355C472.692,285.283,404.561,322.093,344.613,318c-69.06-4.714-104.448-29.247-104.448-29.247s-25.132,23.57-78.111,16.836-64.811-28.035-64.811-28.035a78.589,78.589,0,0,1-34.5-14.283C52,255.356,41.6,243.167,36.392,224.446a103.754,103.754,0,0,1-3.414-30.634C35.537,96.778,177.145,85.754,177.145,85.754s16.593-41.88,59.645-47.268S298.53,74.6,298.53,74.6s35.2-40.6,104.9-27.193c72.34,13.92,62.689,76.131,62.689,76.131s27.887,6.842,30.769,55.955A152.975,152.975,0,0,1,496.969,195.091Z" transform="translate(-32.933 -38.003)" fill="#acd5d4"/>
                  <path id="Trazado_1005081" data-name="Trazado 1005081" d="M164.156,56.069c-39.765,9.658-24.733,47.133,15.809,32.694S203.032,46.627,164.156,56.069Z" transform="translate(-68.179 -43.276)" fill="#acd5d4"/>
                  <path id="Trazado_1005082" data-name="Trazado 1005082" d="M511.425,218.85a113.591,113.591,0,0,1-5.138,29.355c-19.139,60.837-87.269,97.647-147.218,93.552-69.06-4.714-104.448-29.247-104.448-29.247s-25.132,23.57-78.111,16.836S111.7,301.311,111.7,301.311a78.589,78.589,0,0,1-34.5-14.283c4.62-7.192,8.047-12.378,8.047-12.378S59.859,177.266,128.63,146.8s98.313,48,98.313,48,.923-68.312,55.854-79.39,57.234,65.08,57.234,65.08,24.459-76.616,79.848-69.235S478.5,206.345,478.5,206.345a76.533,76.533,0,0,1,16.012-3.513,15.3,15.3,0,0,1,16.919,15.85Z" transform="translate(-47.389 -61.763)" fill="#acd5d4" opacity="0.5" style="mix-blend-mode: multiply;isolation: isolate"/>
                  <path id="Trazado_1005083" data-name="Trazado 1005083" d="M493.508,314.86a114.229,114.229,0,0,1-6.977,17.166C461.1,382.519,400.367,412.1,346.29,408.412c-37.038-2.525-64.393-10.755-81.794-17.846-15.044-6.121-22.654-11.4-22.654-11.4s-3.987,3.738-12.135,7.818c-12.3,6.148-34.1,13.071-65.976,9.017-52.978-6.734-64.811-28.035-64.811-28.035S72.145,365.1,53.148,343.332A72.054,72.054,0,0,1,38.07,314.86Z" transform="translate(-34.611 -128.418)" fill="#5a88c5"/>
                  <g id="Grupo_1193288" data-name="Grupo 1193288" transform="translate(18.537 203.608)" opacity="0.3" style="mix-blend-mode: multiply;isolation: isolate">
                    <path id="Trazado_1005084" data-name="Trazado 1005084" d="M403.874,358.33a1.819,1.819,0,0,1,.027.33c0,4.182-12.324,7.569-27.523,7.569a76.546,76.546,0,0,1-19.637-2.263c-5.832,8.209,7.058,21.22-8.856,22.034-25.011,1.28-55.16-22.452-84.023-13.475s-72.481,23.092-53.881,6.418,7.7-36.56-58.366-27.584c-35.9,4.882-69.336,6.728-91.155.3,19,21.765,45.773,24.634,45.773,24.634s11.832,21.3,64.811,28.035c31.873,4.054,53.672-2.869,65.976-9.017-1.327-.929-2.061-1.946-2.061-3.024,0-4.182,11.1-7.569,24.8-7.569s24.8,3.387,24.8,7.569c0,2.842-5.138,5.32-12.741,6.606,17.4,7.091,44.756,15.32,81.794,17.846,54.076,3.69,114.812-25.893,140.241-76.387C473.977,355.428,445.3,360.216,403.874,358.33ZM150.221,375.469c-12.916,0-23.381-2.68-23.381-5.987s10.465-5.993,23.381-5.993,23.381,2.68,23.381,5.993S163.131,375.469,150.221,375.469ZM335.191,396.9c-2.667,0-4.835-.936-4.835-2.1s2.168-2.1,4.835-2.1,4.835.943,4.835,2.1S337.858,396.9,335.191,396.9Zm113.048-20.169c-6.377,0-11.556-2.074-11.556-4.626s5.179-4.62,11.556-4.62,11.563,2.067,11.563,4.62S454.623,376.735,448.239,376.735Z" transform="translate(-60.46 -340.35)" fill="#4a6c8e"/>
                    <path id="Trazado_1005085" data-name="Trazado 1005085" d="M383.473,349.412c-52.773,1.172-24.8,19.752,13.028,17.65S440.208,348.151,383.473,349.412Z" transform="translate(-156.441 -343.287)" fill="#4a6c8e"/>
                  </g>
                </g>
                <g id="Grupo_1193294" data-name="Grupo 1193294" transform="translate(90.152 122.882)">
                  <path id="Trazado_1005086" data-name="Trazado 1005086" d="M175.509,330.58l-1.733,1.733h34.717l13.806-2.94-2.366-4.671Z" transform="translate(-169.08 -254.513)" fill="#4a6c8e" opacity="0.3" style="mix-blend-mode: multiply;isolation: isolate"/>
                  <path id="Trazado_1005087" data-name="Trazado 1005087" d="M176.349,276.635v38.247h32.984V276.635Z" transform="translate(-169.92 -238.816)" fill="#7c5515"/>
                  <g id="Grupo_1193290" data-name="Grupo 1193290" transform="translate(28.644 10.831)">
                    <path id="Trazado_1005088" data-name="Trazado 1005088" d="M209.337,284.647l3.606.628,4.123.723,7.045-47.22a4.311,4.311,0,0,0-3.286-2.137.2.2,0,0,0-.065-.006,5.543,5.543,0,0,0-3.8.685Z" transform="translate(-209.337 -236.559)" fill="#e2b55a"/>
                    <path id="Trazado_1005089" data-name="Trazado 1005089" d="M214.692,285.311l4.123.723,7.045-47.22a4.311,4.311,0,0,0-3.286-2.137.2.2,0,0,0-.065-.006Z" transform="translate(-211.086 -236.595)" fill="#4a6c8e" opacity="0.3" style="mix-blend-mode: multiply;isolation: isolate"/>
                  </g>
                  <g id="Grupo_1193291" data-name="Grupo 1193291" transform="translate(13.87 8.801)">
                    <path id="Trazado_1005090" data-name="Trazado 1005090" d="M202.173,281.632l-3.606.627-4.122.723L187.4,235.762a4.311,4.311,0,0,1,3.285-2.137.217.217,0,0,1,.065-.005,5.546,5.546,0,0,1,3.8.685Z" transform="translate(-187.399 -233.544)" fill="#c9414e"/>
                    <path id="Trazado_1005091" data-name="Trazado 1005091" d="M198.566,282.3l-4.122.723L187.4,235.8a4.311,4.311,0,0,1,3.285-2.137.217.217,0,0,1,.065-.005Z" transform="translate(-187.399 -233.58)" fill="#4a6c8e" opacity="0.3" style="mix-blend-mode: multiply;isolation: isolate"/>
                  </g>
                  <g id="Grupo_1193292" data-name="Grupo 1193292">
                    <path id="Trazado_1005092" data-name="Trazado 1005092" d="M192.351,277.421l-4.292,1.358-4.9,1.559L166.8,223.952a5.3,5.3,0,0,1,3.653-3.144.255.255,0,0,1,.079-.018,6.815,6.815,0,0,1,4.738.21Z" transform="translate(-166.803 -220.476)" fill="#5a88c5"/>
                    <path id="Trazado_1005093" data-name="Trazado 1005093" d="M188.06,278.932l-4.9,1.559L166.8,224.1a5.3,5.3,0,0,1,3.653-3.144.255.255,0,0,1,.079-.018l.805,2.68Z" transform="translate(-166.803 -220.628)" fill="#4a6c8e" opacity="0.3" style="mix-blend-mode: multiply;isolation: isolate"/>
                    <path id="Trazado_1005094" data-name="Trazado 1005094" d="M175.273,221a9.529,9.529,0,0,1-3.933,2.469,10.565,10.565,0,0,1-4.537.482,5.3,5.3,0,0,1,3.653-3.144.255.255,0,0,1,.079-.018A6.815,6.815,0,0,1,175.273,221Z" transform="translate(-166.803 -220.476)" fill="#e5f9f8"/>
                  </g>
                  <g id="Grupo_1193293" data-name="Grupo 1193293" transform="translate(32.66 5.465)">
                    <path id="Trazado_1005095" data-name="Trazado 1005095" d="M240.849,232.067,224.5,288.454l-4.9-1.56-4.292-1.357,17.079-56.422a6.819,6.819,0,0,1,4.738-.21.251.251,0,0,1,.079.018A5.3,5.3,0,0,1,240.849,232.067Z" transform="translate(-215.301 -228.591)" fill="#52908a"/>
                    <path id="Trazado_1005096" data-name="Trazado 1005096" d="M221.68,287.042l4.9,1.559,16.351-56.387a5.3,5.3,0,0,0-3.652-3.144.256.256,0,0,0-.079-.018Z" transform="translate(-217.384 -228.742)" fill="#4a6c8e" opacity="0.3" style="mix-blend-mode: multiply;isolation: isolate"/>
                    <path id="Trazado_1005097" data-name="Trazado 1005097" d="M249.132,232.067a12.48,12.48,0,0,1-8.47-2.952,6.819,6.819,0,0,1,4.738-.21.252.252,0,0,1,.079.018A5.3,5.3,0,0,1,249.132,232.067Z" transform="translate(-223.583 -228.591)" fill="#e5f9f8"/>
                  </g>
                  <path id="Trazado_1005098" data-name="Trazado 1005098" d="M176.349,276.635v38.247h32.984V276.635Zm21.6,7.243H187.77a1.456,1.456,0,0,1,0-2.838h10.177a1.456,1.456,0,0,1,0,2.838Z" transform="translate(-169.92 -238.816)" fill="#e2b55a"/>
                  <path id="Trazado_1005099" data-name="Trazado 1005099" d="M237.74,276.64v36.269l-12.4,1.971V276.64Z" transform="translate(-185.919 -238.817)" fill="#c6943c"/>
                  <path id="Trazado_1005100" data-name="Trazado 1005100" d="M237.74,294.138v24.486l-12.4,1.97v-21.07A45.887,45.887,0,0,0,237.74,294.138Z" transform="translate(-185.919 -244.532)" fill="#db9431" opacity="0.3" style="mix-blend-mode: multiply;isolation: isolate"/>
                </g>
                <g id="Grupo_1193300" data-name="Grupo 1193300" transform="translate(161.742 57.724)">
                  <rect id="Rectángulo_460914" data-name="Rectángulo 460914" width="86.262" height="45.702" rx="3.156" transform="translate(1.199 1.194)" fill="#acd5d4" style="mix-blend-mode: multiply;isolation: isolate"/>
                  <rect id="Rectángulo_460915" data-name="Rectángulo 460915" width="86.266" height="45.699" rx="2.983" fill="#e5f9f8"/>
                  <path id="Trazado_1005101" data-name="Trazado 1005101" d="M359.376,143.26v29.874a2.009,2.009,0,0,1-2.009,2.009H275.119a2.009,2.009,0,0,1-2.009-2.009V155.69a2.012,2.012,0,0,1,2.179-2c39.771,3.17,66.729-5.441,81.234-12.252A2.006,2.006,0,0,1,359.376,143.26Z" transform="translate(-273.11 -129.444)" fill="#c5d5e2" opacity="0.3" style="mix-blend-mode: multiply;isolation: isolate"/>
                  <g id="Grupo_1193295" data-name="Grupo 1193295" transform="translate(8.493 4.867)">
                    <path id="Rectángulo_460916" data-name="Rectángulo 460916" d="M1.948,0h2.6A1.947,1.947,0,0,1,6.492,1.947v0A1.948,1.948,0,0,1,4.544,3.9h-2.6A1.948,1.948,0,0,1,0,1.948v0A1.948,1.948,0,0,1,1.948,0Z" fill="#507096"/>
                    <path id="Trazado_1005102" data-name="Trazado 1005102" d="M354.355,134.642H306.174a1.558,1.558,0,0,1-1.558-1.558h0a1.558,1.558,0,0,1,1.558-1.558h48.181a1.558,1.558,0,0,1,1.558,1.558h0A1.558,1.558,0,0,1,354.355,134.642Z" transform="translate(-291.892 -131.136)" fill="#507096"/>
                  </g>
                  <g id="Grupo_1193296" data-name="Grupo 1193296" transform="translate(8.493 12.56)">
                    <path id="Rectángulo_460917" data-name="Rectángulo 460917" d="M1.948,0h2.6A1.947,1.947,0,0,1,6.492,1.947v0A1.948,1.948,0,0,1,4.544,3.9h-2.6A1.948,1.948,0,0,1,0,1.948v0A1.948,1.948,0,0,1,1.948,0Z" fill="#507096"/>
                    <path id="Trazado_1005103" data-name="Trazado 1005103" d="M346.21,146.065H306.174a1.558,1.558,0,0,1-1.558-1.558h0a1.558,1.558,0,0,1,1.558-1.558H346.21a1.558,1.558,0,0,1,1.558,1.558h0A1.558,1.558,0,0,1,346.21,146.065Z" transform="translate(-291.892 -142.559)" fill="#507096"/>
                  </g>
                  <g id="Grupo_1193297" data-name="Grupo 1193297" transform="translate(8.493 20.252)">
                    <path id="Rectángulo_460918" data-name="Rectángulo 460918" d="M1.948,0h2.6A1.947,1.947,0,0,1,6.492,1.947v0A1.948,1.948,0,0,1,4.544,3.9h-2.6A1.948,1.948,0,0,1,0,1.948v0A1.948,1.948,0,0,1,1.948,0Z" fill="#507096"/>
                    <path id="Trazado_1005104" data-name="Trazado 1005104" d="M358.887,157.488H306.174a1.558,1.558,0,0,1-1.558-1.558h0a1.558,1.558,0,0,1,1.558-1.558h52.713a1.558,1.558,0,0,1,1.558,1.558h0A1.558,1.558,0,0,1,358.887,157.488Z" transform="translate(-291.892 -153.983)" fill="#507096"/>
                  </g>
                  <g id="Grupo_1193298" data-name="Grupo 1193298" transform="translate(8.493 27.945)">
                    <path id="Rectángulo_460919" data-name="Rectángulo 460919" d="M1.948,0h2.6A1.947,1.947,0,0,1,6.492,1.947v0A1.948,1.948,0,0,1,4.544,3.9h-2.6A1.948,1.948,0,0,1,0,1.948v0A1.948,1.948,0,0,1,1.948,0Z" fill="#507096"/>
                    <path id="Trazado_1005105" data-name="Trazado 1005105" d="M330.973,168.912h-24.8a1.558,1.558,0,0,1-1.558-1.558h0a1.558,1.558,0,0,1,1.558-1.558h24.8a1.558,1.558,0,0,1,1.558,1.558h0A1.558,1.558,0,0,1,330.973,168.912Z" transform="translate(-291.892 -165.406)" fill="#507096"/>
                  </g>
                  <g id="Grupo_1193299" data-name="Grupo 1193299" transform="translate(8.493 35.638)">
                    <path id="Rectángulo_460920" data-name="Rectángulo 460920" d="M1.947,0h2.6A1.947,1.947,0,0,1,6.492,1.947v0A1.948,1.948,0,0,1,4.544,3.9h-2.6A1.948,1.948,0,0,1,0,1.947v0A1.947,1.947,0,0,1,1.947,0Z" fill="#507096"/>
                    <path id="Trazado_1005106" data-name="Trazado 1005106" d="M350.373,180.335h-44.2a1.558,1.558,0,0,1-1.558-1.558h0a1.558,1.558,0,0,1,1.558-1.558h44.2a1.558,1.558,0,0,1,1.558,1.558h0A1.558,1.558,0,0,1,350.373,180.335Z" transform="translate(-291.892 -176.829)" fill="#507096"/>
                  </g>
                </g>
                <g id="Grupo_1193307" data-name="Grupo 1193307" transform="translate(270.695 58.06)">
                  <rect id="Rectángulo_460921" data-name="Rectángulo 460921" width="55.239" height="39.381" rx="2.964" transform="translate(1.345 1.349)" fill="#acd5d4" style="mix-blend-mode: multiply;isolation: isolate"/>
                  <rect id="Rectángulo_460922" data-name="Rectángulo 460922" width="55.234" height="39.382" rx="2.983" fill="#e5f9f8"/>
                  <path id="Trazado_1005107" data-name="Trazado 1005107" d="M490.134,139.777v26.24a2.009,2.009,0,0,1-2.009,2.009H436.909a2.009,2.009,0,0,1-2.009-2.009v-8.078a2.014,2.014,0,0,1,1.709-1.985c24.881-3.892,41.086-11.789,50.417-17.858A2.008,2.008,0,0,1,490.134,139.777Z" transform="translate(-434.9 -128.644)" fill="#c5d5e2" opacity="0.3" style="mix-blend-mode: multiply;isolation: isolate"/>
                  <g id="Grupo_1193302" data-name="Grupo 1193302" transform="translate(7.381 4.293)">
                    <circle id="Elipse_13657" data-name="Elipse 13657" cx="3.81" cy="3.81" r="3.81" fill="#c9414e"/>
                    <g id="Grupo_1193301" data-name="Grupo 1193301" transform="translate(12.649 1.154)">
                      <path id="Trazado_1005108" data-name="Trazado 1005108" d="M491.049,133.724h-25.7a.708.708,0,0,1-.708-.708h0a.708.708,0,0,1,.708-.708h25.7a.708.708,0,0,1,.708.708h0A.708.708,0,0,1,491.049,133.724Z" transform="translate(-464.643 -132.308)" fill="#507096"/>
                      <path id="Trazado_1005109" data-name="Trazado 1005109" d="M487.078,139.508H465.351a.708.708,0,0,1-.708-.708h0a.708.708,0,0,1,.708-.708h21.727a.708.708,0,0,1,.708.708h0A.708.708,0,0,1,487.078,139.508Z" transform="translate(-464.643 -134.197)" fill="#507096"/>
                    </g>
                  </g>
                  <g id="Grupo_1193304" data-name="Grupo 1193304" transform="translate(7.381 15.491)">
                    <path id="Trazado_1005110" data-name="Trazado 1005110" d="M453.479,151.033a3.81,3.81,0,1,1-3.81-3.81A3.81,3.81,0,0,1,453.479,151.033Z" transform="translate(-445.86 -147.223)" fill="#52908a"/>
                    <g id="Grupo_1193303" data-name="Grupo 1193303" transform="translate(12.649 1.154)">
                      <path id="Trazado_1005111" data-name="Trazado 1005111" d="M491.049,150.353h-25.7a.708.708,0,0,1-.708-.708h0a.708.708,0,0,1,.708-.708h25.7a.708.708,0,0,1,.708.708h0A.708.708,0,0,1,491.049,150.353Z" transform="translate(-464.643 -148.937)" fill="#507096"/>
                      <path id="Trazado_1005112" data-name="Trazado 1005112" d="M487.078,156.137H465.351a.708.708,0,0,1-.708-.708h0a.708.708,0,0,1,.708-.708h21.727a.708.708,0,0,1,.708.708h0A.708.708,0,0,1,487.078,156.137Z" transform="translate(-464.643 -150.826)" fill="#507096"/>
                    </g>
                  </g>
                  <g id="Grupo_1193306" data-name="Grupo 1193306" transform="translate(7.381 26.689)">
                    <circle id="Elipse_13658" data-name="Elipse 13658" cx="3.81" cy="3.81" r="3.81" fill="#5a88c5"/>
                    <g id="Grupo_1193305" data-name="Grupo 1193305" transform="translate(12.649 1.154)">
                      <path id="Trazado_1005113" data-name="Trazado 1005113" d="M491.049,166.982h-25.7a.708.708,0,0,1-.708-.708h0a.708.708,0,0,1,.708-.708h25.7a.708.708,0,0,1,.708.708h0A.708.708,0,0,1,491.049,166.982Z" transform="translate(-464.643 -165.566)" fill="#507096"/>
                      <path id="Trazado_1005114" data-name="Trazado 1005114" d="M487.078,172.766H465.351a.708.708,0,0,1-.708-.708h0a.708.708,0,0,1,.708-.708h21.727a.708.708,0,0,1,.708.708h0A.708.708,0,0,1,487.078,172.766Z" transform="translate(-464.643 -167.455)" fill="#507096"/>
                    </g>
                  </g>
                </g>
                <g id="Grupo_1193318" data-name="Grupo 1193318" transform="translate(140.077 110.622)">
                  <path id="Trazado_1005115" data-name="Trazado 1005115" d="M374.311,335.222c0,1.979-29.226,3.583-65.279,3.583s-65.279-1.6-65.279-3.583,29.227-3.583,65.279-3.583S374.311,333.243,374.311,335.222Z" transform="translate(-241.859 -244.519)" fill="#4a6c8e" opacity="0.3" style="mix-blend-mode: multiply;isolation: isolate"/>
                  <path id="Trazado_1005116" data-name="Trazado 1005116" d="M420.851,322.577v4.379a2.19,2.19,0,0,0,2.19,2.189h3.649a2.189,2.189,0,0,0,2.189-2.189v-4.379Z" transform="translate(-299.694 -241.56)" fill="#18203c"/>
                  <g id="Grupo_1193308" data-name="Grupo 1193308" transform="translate(0 8.977)">
                    <rect id="Rectángulo_460923" data-name="Rectángulo 460923" width="105.903" height="58.681" transform="translate(0 18.395)" fill="#2d4873"/>
                    <path id="Trazado_1005117" data-name="Trazado 1005117" d="M339.992,262.751v40.288H257.507l5.411-40.288Z" transform="translate(-246.35 -230.999)" fill="#4a6c8e" opacity="0.3" style="mix-blend-mode: multiply;isolation: isolate"/>
                    <path id="Trazado_1005118" data-name="Trazado 1005118" d="M426.007,215.6v72.4l-27.81,4.668V234l15.258-18.4Z" transform="translate(-292.296 -215.602)" fill="#223e66"/>
                    <path id="Trazado_1005119" data-name="Trazado 1005119" d="M426.007,215.6v72.4l-27.81,4.668v-21.17c13.846-7.182,6.765-29.146,7.808-34.558.827-4.259,9.262-15.909,13.345-21.346Z" transform="translate(-292.296 -215.602)" fill="#4a6c8e" opacity="0.3" style="mix-blend-mode: multiply;isolation: isolate"/>
                    <path id="Trazado_1005120" data-name="Trazado 1005120" d="M240.94,234,257,215.605H362.1L346.843,234Z" transform="translate(-240.94 -215.603)" fill="#42608c"/>
                    <path id="Trazado_1005121" data-name="Trazado 1005121" d="M245.978,233.26l13.93-16.034H361.185L347.2,233.26Z" transform="translate(-242.585 -216.132)" fill="#507096"/>
                  </g>
                  <g id="Grupo_1193309" data-name="Grupo 1193309" transform="translate(5.403 37.444)">
                    <rect id="Rectángulo_460924" data-name="Rectángulo 460924" width="77.073" height="5.255" transform="translate(11.165)" fill="#18203c"/>
                    <path id="Trazado_1005122" data-name="Trazado 1005122" d="M337.2,262.751a16.669,16.669,0,0,0-1.721,3.165c-1.545,3.683-2.171,8.109-2.7,11.984a43.741,43.741,0,0,1-1.286,7.074c-1.754,5.253-4.043,7.558-4.043,7.558H248.963c1.837-2.981,2.589-6.489,3.148-9.854a49.368,49.368,0,0,1,1.737-8.393,46.762,46.762,0,0,1,4.117-8.368,36.514,36.514,0,0,1,2.163-3.165Z" transform="translate(-248.963 -259.466)" fill="#e5f9f8"/>
                    <path id="Trazado_1005123" data-name="Trazado 1005123" d="M341.568,262.751a16.669,16.669,0,0,0-1.721,3.165H262.331a36.523,36.523,0,0,1,2.163-3.165Z" transform="translate(-253.329 -259.466)" fill="#c5d5e2" opacity="0.3" style="mix-blend-mode: multiply;isolation: isolate"/>
                    <path id="Trazado_1005124" data-name="Trazado 1005124" d="M333.626,285.246a43.742,43.742,0,0,1-1.286,7.074c-.284.86-.585,1.637-.894,2.338-7.191.635-17.288,1.445-21.6,1.445h-58.3a38.845,38.845,0,0,0,1.411-6.08C268.06,290.7,311.855,291.961,333.626,285.246Z" transform="translate(-249.805 -266.813)" fill="#c5d5e2" opacity="0.3" style="mix-blend-mode: multiply;isolation: isolate"/>
                  </g>
                  <g id="Grupo_1193310" data-name="Grupo 1193310" transform="translate(25.221)">
                    <rect id="Rectángulo_460925" data-name="Rectángulo 460925" width="74.446" height="3.795" transform="translate(8.645 5.184)" fill="#223e66"/>
                    <rect id="Rectángulo_460926" data-name="Rectángulo 460926" width="10.802" height="3.795" transform="translate(83.091 5.184)" fill="#152e4c"/>
                    <path id="Trazado_1005125" data-name="Trazado 1005125" d="M369.594,202.271l-1.946,1.261-6.063,3.925H278.391a11.029,11.029,0,0,1,9.336-5.186Z" transform="translate(-278.391 -202.271)" fill="#42608c"/>
                    <path id="Trazado_1005126" data-name="Trazado 1005126" d="M371.648,202.271l-1.946,1.261H284.678a10.935,10.935,0,0,1,5.1-1.261Z" transform="translate(-280.444 -202.271)" fill="#6180a5" style="mix-blend-mode: screen;isolation: isolate"/>
                    <path id="Trazado_1005127" data-name="Trazado 1005127" d="M401.925,207.457s3.257-5.182,8.658-5.182,7.372,5.182,7.372,5.182Z" transform="translate(-318.734 -202.272)" fill="#223e66"/>
                  </g>
                  <g id="Grupo_1193315" data-name="Grupo 1193315" transform="translate(62.032 12.45)">
                    <path id="Trazado_1005128" data-name="Trazado 1005128" d="M333.054,232.9l10.97-12.145h38.787L373.278,232.9Z" transform="translate(-333.054 -220.759)" fill="#223e66"/>
                    <path id="Trazado_1005129" data-name="Trazado 1005129" d="M334.97,232.954l9.912-11.078h36.989l-8.763,11.078Z" transform="translate(-333.68 -221.124)" fill="#acd5d4"/>
                    <g id="Grupo_1193311" data-name="Grupo 1193311" transform="translate(7.131 1.894)">
                      <path id="Trazado_1005130" data-name="Trazado 1005130" d="M351.367,223.571l-2.285,2.693h4.272l2.043-2.693Z" transform="translate(-345.419 -223.571)" fill="#c9414e"/>
                      <path id="Trazado_1005131" data-name="Trazado 1005131" d="M345.928,230.742l-2.285,2.693h4.272l2.043-2.693Z" transform="translate(-343.643 -225.913)" fill="#507096"/>
                    </g>
                    <g id="Grupo_1193312" data-name="Grupo 1193312" transform="translate(15.733 1.894)">
                      <path id="Trazado_1005132" data-name="Trazado 1005132" d="M364.14,223.571l-2.285,2.693h4.272l2.043-2.693Z" transform="translate(-358.193 -223.571)" fill="#5a88c5"/>
                      <path id="Trazado_1005133" data-name="Trazado 1005133" d="M358.7,230.742l-2.285,2.693h4.272l2.043-2.693Z" transform="translate(-356.417 -225.913)" fill="#507096"/>
                    </g>
                    <g id="Grupo_1193313" data-name="Grupo 1193313" transform="translate(24.335 1.894)">
                      <path id="Trazado_1005134" data-name="Trazado 1005134" d="M376.914,223.571l-2.285,2.693H378.9l2.043-2.693Z" transform="translate(-370.967 -223.571)" fill="#e2b55a"/>
                      <path id="Trazado_1005135" data-name="Trazado 1005135" d="M371.475,230.742l-2.284,2.693h4.272l2.043-2.693Z" transform="translate(-369.191 -225.913)" fill="#507096"/>
                    </g>
                    <g id="Grupo_1193314" data-name="Grupo 1193314" transform="translate(32.937 1.894)">
                      <path id="Trazado_1005136" data-name="Trazado 1005136" d="M389.688,223.571l-2.284,2.693h4.272l2.043-2.693Z" transform="translate(-383.741 -223.571)" fill="#e5f9f8"/>
                      <path id="Trazado_1005137" data-name="Trazado 1005137" d="M384.249,230.742l-2.285,2.693h4.272l2.043-2.693Z" transform="translate(-381.964 -225.913)" fill="#507096"/>
                    </g>
                  </g>
                  <g id="Grupo_1193317" data-name="Grupo 1193317" transform="translate(15.035 13.797)">
                    <g id="Grupo_1193316" data-name="Grupo 1193316">
                      <path id="Trazado_1005138" data-name="Trazado 1005138" d="M269.616,222.758l-6.35,7.554h29.669l4.817-7.554Z" transform="translate(-263.266 -222.758)" fill="#223e66"/>
                      <path id="Trazado_1005139" data-name="Trazado 1005139" d="M271.668,224.276l-4.632,5.51h26.145l3.514-5.51Z" transform="translate(-264.498 -223.254)" fill="#acd5d4"/>
                    </g>
                    <path id="Trazado_1005140" data-name="Trazado 1005140" d="M274.786,226.254h21.677l-.493.493H274.4Z" transform="translate(-266.903 -223.9)" fill="#507096"/>
                    <path id="Trazado_1005141" data-name="Trazado 1005141" d="M272.607,229.18h15.708l-.357.493H272.33Z" transform="translate(-266.226 -224.855)" fill="#507096"/>
                  </g>
                  <path id="Trazado_1005142" data-name="Trazado 1005142" d="M255.9,330.055v4.379a2.189,2.189,0,0,0,2.19,2.189h3.649a2.189,2.189,0,0,0,2.189-2.189v-4.379Z" transform="translate(-245.824 -244.002)" fill="#18203c"/>
                  <path id="Trazado_1005143" data-name="Trazado 1005143" d="M376.674,330.055v4.379a2.189,2.189,0,0,0,2.189,2.189h3.649a2.189,2.189,0,0,0,2.19-2.189v-4.379Z" transform="translate(-285.267 -244.002)" fill="#18203c"/>
                </g>
                <g id="Grupo_1193325" data-name="Grupo 1193325" transform="translate(9.375 71.161)">
                  <g id="Grupo_1193319" data-name="Grupo 1193319" transform="translate(39.562 15.039)">
                    <path id="Trazado_1005144" data-name="Trazado 1005144" d="M119.888,217.965c7.418,3.8,14.675-.552,18.573-6.437a14.226,14.226,0,0,0,1.816-11.616,14.171,14.171,0,0,0,6.587-4.079c3.465-3.482,2.927-8.707,2.927-8.707s5.073-4.489,7.1-9.274.357-10.885-1.939-11.58-5.663-.141-10.244,3.1a17.3,17.3,0,0,0-6.09,8.215,20.892,20.892,0,0,0-9.149,3.463c-4.083,2.974-5.317,8.541-5.317,8.541a23.852,23.852,0,0,0-10.535,8.77C107.934,207.148,112.787,214.325,119.888,217.965Z" transform="translate(-107.405 -166.006)" fill="#18203d"/>
                    <path id="Trazado_1005145" data-name="Trazado 1005145" d="M105.6,248.3s6.783-22.214,33.316-56.488l.289.956c-25.474,34.533-31.057,54.762-31.057,54.762Z" transform="translate(-105.602 -174.432)" fill="#18203d"/>
                  </g>
                  <g id="Grupo_1193320" data-name="Grupo 1193320" transform="translate(16.194)">
                    <path id="Trazado_1005146" data-name="Trazado 1005146" d="M91.654,210.268c8.591-2.7,10.875-11.546,9.414-19.028a15.363,15.363,0,0,0-7.4-10.314s1.95-2.825,1.979-8.13-4.346-8.919-4.346-8.919.5-7.3-1.564-12.518-7.973-8.647-10.268-7.442S75,148.1,73.931,154.064A18.685,18.685,0,0,0,75.47,165a22.565,22.565,0,0,0-4.416,9.6c-.889,5.382,2.381,10.6,2.381,10.6a25.758,25.758,0,0,0-1.461,14.731C74.26,211,83.432,212.847,91.654,210.268Z" transform="translate(-70.901 -143.674)" fill="#18203d"/>
                    <path id="Trazado_1005147" data-name="Trazado 1005147" d="M103.777,248.314S92.163,226.08,86.609,179.6l.946.516c6.566,45.876,17.6,65.674,17.6,65.674Z" transform="translate(-76.031 -155.407)" fill="#18203d"/>
                  </g>
                  <path id="Trazado_1005148" data-name="Trazado 1005148" d="M129.305,330.572c0,.886-14.677,1.6-32.782,1.6s-32.783-.719-32.783-1.6,14.677-1.6,32.783-1.6S129.305,329.687,129.305,330.572Z" transform="translate(-52.369 -204.187)" fill="#4a6c8e" opacity="0.3" style="mix-blend-mode: multiply;isolation: isolate"/>
                  <g id="Grupo_1193321" data-name="Grupo 1193321" transform="translate(39.548 38.691)">
                    <path id="Trazado_1005149" data-name="Trazado 1005149" d="M171.635,212.948c-3.071,3.69-8.748,6.3-8.748,6.3s-.923,4.761-4.909,6.909a13.065,13.065,0,0,1-6.909,1.838,13.107,13.107,0,0,1-4.707,9.771c-5.017,4.162-12.586,6.068-18.122.727-5.3-5.111-7.664-12.748-.3-18.991a21.982,21.982,0,0,1,11.644-4.93,16.565,16.565,0,0,1,3.28-3.906,11.432,11.432,0,0,1,3.7-2.216,19.278,19.278,0,0,1,9.01-.613,15.955,15.955,0,0,1,7.569-5.63c4.909-1.636,8.034-1.226,9.872,0a1.243,1.243,0,0,1,.148.114C174.847,203.756,174.619,209.365,171.635,212.948Z" transform="translate(-111.365 -201.128)" fill="#477"/>
                    <path id="Trazado_1005150" data-name="Trazado 1005150" d="M182.657,202.321c-9.879-1.993-18.088,7.145-18.088,7.145a17.611,17.611,0,0,0-12.209,1.2,11.432,11.432,0,0,1,3.7-2.216,19.278,19.278,0,0,1,9.01-.613,15.955,15.955,0,0,1,7.569-5.63c4.909-1.636,8.034-1.226,9.872,0A1.243,1.243,0,0,1,182.657,202.321Z" transform="translate(-120.858 -201.128)" fill="#f3fffe"/>
                    <path id="Trazado_1005151" data-name="Trazado 1005151" d="M105.582,260.5S117.508,242.7,150.1,219.52v.921C118.374,244.13,108.038,260.5,108.038,260.5Z" transform="translate(-105.582 -207.134)" fill="#2d4873"/>
                  </g>
                  <g id="Grupo_1193322" data-name="Grupo 1193322" transform="translate(0 27.899)">
                    <path id="Trazado_1005152" data-name="Trazado 1005152" d="M87.022,227.345c-1.232,3.7-4.566,6.465-8.505,8.081-7.118,2.929-13.455-1.636-16.58-7.347a13.113,13.113,0,0,1-.774-10.822A13.05,13.05,0,0,1,55.418,213c-2.916-3.468-2.02-8.229-2.02-8.229s-4.317-4.519-5.818-9.078c-1.32-4.02-.774-7.785,1.145-9.569a3.992,3.992,0,0,1,.828-.6c2.074-1.118,5.919-.02,9.886,3.313a15.981,15.981,0,0,1,4.963,8.02,19.293,19.293,0,0,1,8.148,3.892c3.522,3.044,4.229,8.263,4.229,8.263a21.994,21.994,0,0,1,9.01,8.869C87.708,221.473,87.924,224.658,87.022,227.345Z" transform="translate(-46.855 -185.102)" fill="#477"/>
                    <path id="Trazado_1005153" data-name="Trazado 1005153" d="M87.928,227.345v-.074c-.229-11.576-10.883-18.223-10.883-18.223-2.64-9.744-12.728-11.118-12.728-11.118S58.27,185.916,49.63,186.124a3.992,3.992,0,0,1,.828-.6c2.074-1.118,5.919-.02,9.886,3.313a15.981,15.981,0,0,1,4.963,8.02,19.293,19.293,0,0,1,8.148,3.892c3.522,3.044,4.229,8.263,4.229,8.263a21.994,21.994,0,0,1,9.01,8.869C88.615,221.473,88.83,224.658,87.928,227.345Z" transform="translate(-47.761 -185.102)" fill="#f3fffe"/>
                    <path id="Trazado_1005154" data-name="Trazado 1005154" d="M95.493,264.735s-4.524-20.947-26.278-54.5l-.339.857C89.2,244.546,93.21,263.83,93.21,263.83Z" transform="translate(-54.046 -193.309)" fill="#2d4873"/>
                  </g>
                  <g id="Grupo_1193323" data-name="Grupo 1193323" transform="translate(36.718 5.891)">
                    <path id="Trazado_1005155" data-name="Trazado 1005155" d="M135.588,161.694c-.317,4.62-2.727,11.637-2.727,11.637a27.271,27.271,0,0,1-.323,6.62c-.822,3.522-4.027,5.69-4.263,6.33-.269.761.357,4.855-.707,10.175-3.017,15.031-13.145,21.152-19.644,19.078-4.263-1.36-5.818-8.249-4.889-15.455v-.02a32.61,32.61,0,0,1,1.562-6.606,21.334,21.334,0,0,1,7.327-9.691s-.081-6.175,1.407-9.085a13.171,13.171,0,0,1,4.687-4.748c.9-.653,2.95-5.246,4.849-8.714s6.344-9.59,9.556-8.707c1.744.478,2.62,1.785,3,3.616A21.478,21.478,0,0,1,135.588,161.694Z" transform="translate(-101.835 -152.423)" fill="#52908a"/>
                    <path id="Trazado_1005156" data-name="Trazado 1005156" d="M135.552,156.125a2.865,2.865,0,0,0-3.9-1.071c-6.532,2.633-12.371,16.156-12.371,16.156-8.142,5.387-5.96,13.408-5.96,13.408a24.931,24.931,0,0,0-10.162,15.442,32.61,32.61,0,0,1,1.562-6.606,21.334,21.334,0,0,1,7.327-9.691s-.081-6.175,1.407-9.085a13.171,13.171,0,0,1,4.687-4.748c.9-.653,2.95-5.246,4.849-8.714s6.344-9.59,9.556-8.707C134.292,152.986,135.168,154.293,135.552,156.125Z" transform="translate(-101.961 -152.423)" fill="#f3fffe"/>
                    <path id="Trazado_1005157" data-name="Trazado 1005157" d="M103.929,250.634s2.956-18.061,7.9-32.878S123.6,186.3,123.6,186.3l-.772.357s-7.277,16.447-12.633,31.121-8.814,32.646-8.814,32.646Z" transform="translate(-101.379 -163.485)" fill="#2d4873"/>
                  </g>
                  <g id="Grupo_1193324" data-name="Grupo 1193324" transform="translate(19.282 88.3)">
                    <path id="Trazado_1005158" data-name="Trazado 1005158" d="M116.02,274.794l-.494,6.455-2.405,31.632H78.375l-2.392-31.632-.494-6.455Z" transform="translate(-75.488 -274.794)" fill="#e2b55a"/>
                    <path id="Trazado_1005159" data-name="Trazado 1005159" d="M122.391,274.794l-.495,6.455L119.49,312.88h-24.5c13.51-11.546,16-29.547,16.37-38.086Z" transform="translate(-81.858 -274.794)" fill="#db9431" opacity="0.3" style="mix-blend-mode: multiply;isolation: isolate"/>
                    <path id="Trazado_1005160" data-name="Trazado 1005160" d="M116.02,274.794l-.494,6.455H75.982l-.494-6.455Z" transform="translate(-75.488 -274.794)" fill="#db9431"/>
                    <path id="Trazado_1005161" data-name="Trazado 1005161" d="M127.653,274.794l-.495,6.455h-16.05a15.811,15.811,0,0,0,4.01-6.455Z" transform="translate(-87.121 -274.794)" fill="#db9431" opacity="0.3" style="mix-blend-mode: multiply;isolation: isolate"/>
                  </g>
                </g>
                <g id="Grupo_1193340" data-name="Grupo 1193340" transform="translate(248.574 69.702)">
                  <g id="Grupo_1193337" data-name="Grupo 1193337" transform="translate(10.13)">
                    <g id="Grupo_1193326" data-name="Grupo 1193326" transform="translate(144.977 64.053)">
                      <path id="Trazado_1005162" data-name="Trazado 1005162" d="M644.262,330.9l-6.776,13.885-.622,1.28h-4.439s-.429-6.443,1.236-9.491c1.612-2.952,5.881-5.511,6.147-5.667a.023.023,0,0,1,.015-.007Z" transform="translate(-632.376 -267.412)" fill="#5a88c5"/>
                      <path id="Trazado_1005163" data-name="Trazado 1005163" d="M669.754,236.621v59.225l-19.726,4.273V237.978Z" transform="translate(-638.141 -236.621)" fill="#34567f"/>
                      <path id="Trazado_1005164" data-name="Trazado 1005164" d="M669.754,236.621v9.991l-19.726,1.165v-9.8Z" transform="translate(-638.141 -236.621)" fill="#4a6c8e" opacity="0.3" style="mix-blend-mode: multiply;isolation: isolate"/>
                      <path id="Trazado_1005165" data-name="Trazado 1005165" d="M666.145,324.57s4.238.832,6.334,3.791a13.9,13.9,0,0,1,2.094,6.661L639.021,344s-.432-6.442,1.233-9.493,6.165-5.672,6.165-5.672Z" transform="translate(-634.53 -265.343)" fill="#34567f"/>
                      <rect id="Rectángulo_460927" data-name="Rectángulo 460927" width="4.434" height="62.141" transform="translate(7.454 1.357)" fill="#5a88c5"/>
                      <path id="Trazado_1005166" data-name="Trazado 1005166" d="M647.878,238.637v9.55l-4.434.121v-9.67Z" transform="translate(-635.991 -237.279)" fill="#4a6c8e" opacity="0.3" style="mix-blend-mode: multiply;isolation: isolate"/>
                    </g>
                    <g id="Grupo_1193327" data-name="Grupo 1193327" transform="translate(2.25 64.053)">
                      <path id="Trazado_1005167" data-name="Trazado 1005167" d="M432.32,330.9l-6.776,13.885-.622,1.28h-4.439s-.429-6.443,1.235-9.491c1.613-2.952,5.881-5.511,6.148-5.667a.023.023,0,0,1,.015-.007Z" transform="translate(-420.434 -267.412)" fill="#5a88c5"/>
                      <path id="Trazado_1005168" data-name="Trazado 1005168" d="M457.814,236.622v59.226l-19.727,4.269V237.978Z" transform="translate(-426.199 -236.622)" fill="#34567f"/>
                      <path id="Trazado_1005169" data-name="Trazado 1005169" d="M454.2,324.57s4.239.832,6.334,3.791a13.892,13.892,0,0,1,2.093,6.661L427.078,344s-.431-6.442,1.233-9.493,6.165-5.672,6.165-5.672Z" transform="translate(-422.587 -265.343)" fill="#34567f"/>
                      <rect id="Rectángulo_460928" data-name="Rectángulo 460928" width="4.438" height="62.139" transform="translate(7.45 1.356)" fill="#5a88c5"/>
                    </g>
                    <rect id="Rectángulo_460929" data-name="Rectángulo 460929" width="138.343" height="62.139" transform="translate(14.084 65.409)" fill="#202b49"/>
                    <rect id="Rectángulo_460930" data-name="Rectángulo 460930" width="119.005" height="62.141" transform="translate(33.426 65.41)" fill="#2d395b"/>
                    <path id="Trazado_1005170" data-name="Trazado 1005170" d="M585.734,238.637V258.3l-119-2.851v-16.81Z" transform="translate(-433.303 -173.227)" fill="#4a6c8e" opacity="0.3" style="mix-blend-mode: multiply;isolation: isolate"/>
                    <path id="Trazado_1005171" data-name="Trazado 1005171" d="M602.807,183.071l-27.79,15.9-14.867,8.506H460.029v13.75l-42.664,1.976s-.61-12.947,0-15.726c.562-2.538,10.98-15.742,15.871-19.959a11.02,11.02,0,0,1,1.213-.939c4.064-2.587,25.581-3.51,25.581-3.51Z" transform="translate(-417.093 -155.08)" fill="#5a88c5"/>
                    <path id="Trazado_1005172" data-name="Trazado 1005172" d="M578.889,187.221l-3.872,13.108-14.867,8.506H460.029v13.75l-42.664,1.976s-.61-12.947,0-15.726c.562-2.538,10.98-15.742,15.871-19.959,6.73,3.229,23.862,8.144,66.671,9.646C565.42,200.819,578.889,187.221,578.889,187.221Z" transform="translate(-417.093 -156.436)" fill="#4a6c8e" opacity="0.3" style="mix-blend-mode: multiply;isolation: isolate"/>
                    <path id="Trazado_1005173" data-name="Trazado 1005173" d="M672.05,183.071v38.158l-42.656,1.976s-.369-7.815-.249-12.61a19.167,19.167,0,0,1,.249-3.116c.619-2.771,13-18.3,17.075-20.9S672.05,183.071,672.05,183.071Z" transform="translate(-486.336 -155.08)" fill="#34567f"/>
                    <path id="Trazado_1005174" data-name="Trazado 1005174" d="M672.05,202.058V227.43l-42.656,1.976s-.369-7.815-.249-12.61C652.348,216.732,665.713,207.929,672.05,202.058Z" transform="translate(-486.336 -161.281)" fill="#4a6c8e" opacity="0.3" style="mix-blend-mode: multiply;isolation: isolate"/>
                    <rect id="Rectángulo_460931" data-name="Rectángulo 460931" width="142.782" height="15.72" transform="translate(0.275 52.402)" fill="#406487"/>
                    <path id="Trazado_1005175" data-name="Trazado 1005175" d="M455.777,198.358H564.531l-6.9,9.771H447.873Z" transform="translate(-427.145 -160.073)" fill="#2d395b"/>
                    <g id="Grupo_1193331" data-name="Grupo 1193331" transform="translate(162.399 55.547)">
                      <g id="Grupo_1193328" data-name="Grupo 1193328" transform="translate(0.094 4.53)">
                        <path id="Rectángulo_460932" data-name="Rectángulo 460932" d="M.616,0H7.928a.616.616,0,0,1,.616.616v0a.617.617,0,0,1-.617.617H.616A.616.616,0,0,1,0,.617v0A.616.616,0,0,1,.616,0Z" transform="translate(9.356 0.177) rotate(-1.184)" fill="#18203c"/>
                        <path id="Rectángulo_460933" data-name="Rectángulo 460933" d="M.616,0H7.928a.616.616,0,0,1,.616.616v0a.616.616,0,0,1-.616.616H.616A.616.616,0,0,1,0,.616v0A.616.616,0,0,1,.616,0Z" transform="translate(0 0.37) rotate(-1.184)" fill="#18203c"/>
                      </g>
                      <g id="Grupo_1193329" data-name="Grupo 1193329" transform="translate(0.047 2.265)">
                        <path id="Rectángulo_460934" data-name="Rectángulo 460934" d="M.616,0H7.928a.616.616,0,0,1,.616.616v0a.616.616,0,0,1-.616.616H.616A.616.616,0,0,1,0,.617v0A.616.616,0,0,1,.616,0Z" transform="translate(9.356 0.177) rotate(-1.184)" fill="#18203c"/>
                        <rect id="Rectángulo_460935" data-name="Rectángulo 460935" width="8.545" height="1.233" rx="0.616" transform="translate(0 0.37) rotate(-1.184)" fill="#18203c"/>
                      </g>
                      <g id="Grupo_1193330" data-name="Grupo 1193330" transform="translate(0 0)">
                        <path id="Rectángulo_460936" data-name="Rectángulo 460936" d="M.616,0H7.928a.616.616,0,0,1,.616.616v0a.616.616,0,0,1-.616.616H.616A.616.616,0,0,1,0,.617v0A.616.616,0,0,1,.616,0Z" transform="translate(9.356 0.177) rotate(-1.184)" fill="#18203c"/>
                        <rect id="Rectángulo_460937" data-name="Rectángulo 460937" width="8.545" height="1.233" rx="0.616" transform="translate(0 0.37) rotate(-1.184)" fill="#18203c"/>
                      </g>
                    </g>
                    <g id="Grupo_1193336" data-name="Grupo 1193336" transform="translate(129.811)">
                      <g id="Grupo_1193332" data-name="Grupo 1193332" transform="translate(0 0.002)">
                        <path id="Trazado_1005176" data-name="Trazado 1005176" d="M610.8,141.51l-.946,27.988h8.2L619,141.51Z" transform="translate(-609.856 -141.51)" fill="#e2b55a"/>
                        <path id="Trazado_1005177" data-name="Trazado 1005177" d="M613.145,144.524l-.158,2.109h5.144l.158-2.109Z" transform="translate(-610.879 -142.494)" fill="#ad7b23"/>
                      </g>
                      <g id="Grupo_1193333" data-name="Grupo 1193333" transform="translate(8.199 0.002)">
                        <path id="Trazado_1005178" data-name="Trazado 1005178" d="M622.977,141.51l-.946,27.988h8.2l.946-27.988Z" transform="translate(-622.031 -141.51)" fill="#ce9d46"/>
                        <path id="Trazado_1005179" data-name="Trazado 1005179" d="M625.555,144.524l-.158,2.109h5.144l.158-2.109Z" transform="translate(-623.13 -142.494)" fill="#ad7b23"/>
                      </g>
                      <g id="Grupo_1193334" data-name="Grupo 1193334" transform="translate(16.399 0.002)">
                        <path id="Trazado_1005180" data-name="Trazado 1005180" d="M635.153,141.51l-.946,27.988h8.2l.946-27.988Z" transform="translate(-634.207 -141.51)" fill="#e2b55a"/>
                        <path id="Trazado_1005181" data-name="Trazado 1005181" d="M637.965,144.524l-.158,2.109h5.144l.158-2.109Z" transform="translate(-635.383 -142.494)" fill="#ad7b23"/>
                      </g>
                      <g id="Grupo_1193335" data-name="Grupo 1193335" transform="translate(24.598)">
                        <path id="Trazado_1005182" data-name="Trazado 1005182" d="M647.328,141.51l-.946,27.988h8.2l.946-27.988Z" transform="translate(-646.382 -141.508)" fill="#ce9d46"/>
                        <path id="Trazado_1005183" data-name="Trazado 1005183" d="M677.128,141.507l-.452,13.5-.493,14.493H658.557l.318-9.306.627-18.684Z" transform="translate(-650.358 -141.507)" fill="#af7e2e"/>
                        <path id="Trazado_1005184" data-name="Trazado 1005184" d="M676.676,161.549l-.493,14.493H658.557l.318-9.306C663.1,166.408,670.616,165.3,676.676,161.549Z" transform="translate(-650.358 -148.052)" fill="#db9431" opacity="0.3" style="mix-blend-mode: multiply;isolation: isolate"/>
                        <path id="Trazado_1005185" data-name="Trazado 1005185" d="M650.374,144.524l-.158,2.109h5.144l.158-2.109Z" transform="translate(-647.635 -142.492)" fill="#ad7b23"/>
                      </g>
                    </g>
                  </g>
                  <g id="Grupo_1193339" data-name="Grupo 1193339" transform="translate(0 42.833)">
                    <path id="Trazado_1005186" data-name="Trazado 1005186" d="M552.012,205.111s-1.172,1.679-2.843,4.41l-.008.008c-1.461,2.393-3.3,5.6-5.059,9.2a73.545,73.545,0,0,0-4.426,11c-.168.57-.321,1.156-.442,1.759-2.056,9.421.5,23.212,1.863,36.688,1.149,11.317,1.486,18.73.313,23.662a13.829,13.829,0,0,1-1.2,3.317,9.645,9.645,0,0,1-4.024,4.072h-.008l-.024.016c-6.2,3.414-16.3,3.9-27.862,2.747-33.01-3.285-77.931-19.9-77.931-19.9a20.161,20.161,0,0,0,5.871-6.843,14.359,14.359,0,0,0,1.181-3.213,13.083,13.083,0,0,0,.321-3.855c-.522-7.975-3.831-26.681-1.847-36.688.121-.618.265-1.213.426-1.759a49.861,49.861,0,0,1,5.092-11,88.211,88.211,0,0,1,6.433-9.2c2.177-2.739,3.759-4.418,3.759-4.418Z" transform="translate(-411.298 -205.111)" fill="#e5f9f8"/>
                    <g id="Grupo_1193338" data-name="Grupo 1193338" transform="translate(50.301 18.261)">
                      <circle id="Elipse_13659" data-name="Elipse 13659" cx="14.548" cy="14.548" r="14.548" transform="translate(0 0)" fill="#c9414e" style="mix-blend-mode: multiply;isolation: isolate"/>
                      <circle id="Elipse_13660" data-name="Elipse 13660" cx="12.822" cy="12.822" r="12.822" transform="translate(11.047 40.672) rotate(-80.727)" fill="#52908a" style="mix-blend-mode: multiply;isolation: isolate"/>
                      <circle id="Elipse_13661" data-name="Elipse 13661" cx="14.548" cy="14.548" r="14.548" transform="translate(22.932)" fill="#5a88c5" style="mix-blend-mode: multiply;isolation: isolate"/>
                    </g>
                    <path id="Trazado_1005187" data-name="Trazado 1005187" d="M557.644,209.521v.008H456.317c2.177-2.739,3.759-4.418,3.759-4.418h95.913Z" transform="translate(-419.773 -205.111)" fill="#daefed"/>
                    <path id="Trazado_1005188" data-name="Trazado 1005188" d="M540.214,329.165a9.645,9.645,0,0,1-4.024,4.072h-.008l-.024.016c-6.2,3.414-16.3,3.9-27.862,2.747-33.01-3.285-77.931-19.9-77.931-19.9a20.161,20.161,0,0,0,5.871-6.843h89.111s3.622,19.508,9.871,20.207A14.548,14.548,0,0,0,540.214,329.165Z" transform="translate(-411.298 -239.121)" fill="#b8d3ce"/>
                    <path id="Trazado_1005189" data-name="Trazado 1005189" d="M572.006,333.847l-.024.016c-6.2,3.414-16.3,3.9-27.862,2.747l-4.048-2.763a37.358,37.358,0,0,1,1-9.4,18.016,18.016,0,0,1,1.952-4.915c4.707-7.75,9.967-8.409,13.943-8.409,4.1,0,6.3,5,8.128,13.324.1.434.193.875.29,1.333C567.2,334.491,572.006,333.847,572.006,333.847Z" transform="translate(-447.122 -239.733)" fill="#99afab"/>
                    <path id="Trazado_1005190" data-name="Trazado 1005190" d="M546.781,225.327a73.537,73.537,0,0,0-4.426,11c-.168.57-.321,1.156-.442,1.759H438.57c.121-.618.265-1.213.426-1.759a49.859,49.859,0,0,1,5.092-11Z" transform="translate(-413.977 -211.713)" fill="#6180a5" style="mix-blend-mode: screen;isolation: isolate"/>
                    <path id="Trazado_1005191" data-name="Trazado 1005191" d="M565.59,324.45H541.568a18.01,18.01,0,0,1,1.952-4.915c4.707-7.75,9.967-8.409,13.943-8.409C561.559,311.126,563.759,316.122,565.59,324.45Z" transform="translate(-447.614 -239.733)" fill="#87a09c"/>
                    <path id="Trazado_1005192" data-name="Trazado 1005192" d="M504.993,320.138a57.025,57.025,0,0,1,.923,8.409,17.2,17.2,0,0,1-.923,6.377,20.508,20.508,0,0,1-.884,2.064,46.486,46.486,0,0,1-3.342,5.6H402.051s6.65-1.832,8.9-7.213c.1-.224.185-.457.265-.69a28.1,28.1,0,0,0,.836-4.273c.634-4.177,1.414-9.759,4.249-13.7,4.008-5.582,8.714-5.582,8.714-5.582H511.9S503.812,313.167,504.993,320.138Z" transform="translate(-402.051 -239.733)" fill="#e5f9f8"/>
                    <path id="Trazado_1005193" data-name="Trazado 1005193" d="M416.366,338.858l93.866-1.863a17.2,17.2,0,0,1-.923,6.377,20.506,20.506,0,0,1-.884,2.064l-93.159-1.615Z" transform="translate(-406.367 -248.181)" fill="#c5d5e2" opacity="0.3" style="mix-blend-mode: multiply;isolation: isolate"/>
                  </g>
                </g>
                <g id="Grupo_1193353" data-name="Grupo 1193353" transform="translate(50.514 27.568)">
                  <ellipse id="Elipse_13662" data-name="Elipse 13662" cx="51.392" cy="5.463" rx="51.392" ry="5.463" transform="translate(0 204.821)" fill="#4a6c8e" opacity="0.3" style="mix-blend-mode: multiply;isolation: isolate"/>
                  <g id="Grupo_1193341" data-name="Grupo 1193341" transform="translate(52.965 41.552)">
                    <path id="Trazado_1005194" data-name="Trazado 1005194" d="M209.037,174.227a8.965,8.965,0,0,1-5.626.286c-2.684-1.092-11.835-14.9-14.662-19.859-.188-.331-.349-.618-.474-.868-2.058-3.927-2.416-7.291,0-10.037s4.15-3.856,5.841-2.577c4.2,3.185,18.088,26.112,18.589,29.306C212.964,172.151,211.193,173.493,209.037,174.227Z" transform="translate(-186.594 -140.643)" fill="#f0ca80"/>
                    <path id="Trazado_1005195" data-name="Trazado 1005195" d="M210.081,177.837a8.965,8.965,0,0,1-5.626.286c-2.684-1.092-11.835-14.9-14.662-19.859l6.575-6.567.447.841Z" transform="translate(-187.639 -144.253)" fill="#e3a936" opacity="0.3" style="mix-blend-mode: multiply;isolation: isolate"/>
                  </g>
                  <g id="Grupo_1193347" data-name="Grupo 1193347" transform="translate(18.316 94.118)">
                    <g id="Grupo_1193343" data-name="Grupo 1193343" transform="translate(22.445 2.004)">
                      <g id="Grupo_1193342" data-name="Grupo 1193342" transform="translate(12.053 91.582)">
                        <path id="Trazado_1005196" data-name="Trazado 1005196" d="M216.746,378.554c-.125.564-29.3.752-30.048,0-.51-.51-.42-4.991.232-8.454a9.2,9.2,0,0,1,1.271-3.668c1.136-1.4,6.2-.913,6.2-.913,2.416-.17,4-.42,4.706,0,.653.385,11.96,5.243,15.091,7.13a4.631,4.631,0,0,1,.609.411C216.558,374.493,216.871,377.991,216.746,378.554Z" transform="translate(-186.37 -360.158)" fill="#c9414e"/>
                        <path id="Trazado_1005197" data-name="Trazado 1005197" d="M216.746,380.887c-.125.564-29.3.752-30.048,0-.51-.51-.42-4.991.232-8.454,4.938,4.474,13.809,4.843,27.266,2.55a4.625,4.625,0,0,1,.609.411C216.558,376.826,216.871,380.324,216.746,380.887Z" transform="translate(-186.37 -362.492)" fill="#4a6c8e" opacity="0.3" style="mix-blend-mode: multiply;isolation: isolate"/>
                        <path id="Trazado_1005198" data-name="Trazado 1005198" d="M190.368,358.909l.362,6.257a10.046,10.046,0,0,0,4.351.286,8.96,8.96,0,0,0,3.636-1V357.67Z" transform="translate(-187.676 -357.67)" fill="#562338"/>
                      </g>
                      <path id="Trazado_1005199" data-name="Trazado 1005199" d="M194.629,314.917a21.39,21.39,0,0,1-6.342,1.387l-.277.027a18.574,18.574,0,0,1-7.246-.609s-.251-5.054-1.253-12.676-2.711-25.11-2.871-32.106-8.167-49.264-8.167-49.264h22.409s1.136,6.414,2.433,14.036c1.574,9.268,3.373,20.333,3.65,23.893C197.456,266.109,194.629,314.917,194.629,314.917Z" transform="translate(-168.472 -221.676)" fill="#bc394c"/>
                      <path id="Trazado_1005200" data-name="Trazado 1005200" d="M185.5,282.122c-.519,3.891-.25,23.822,2.783,34.181l-.277.027a18.574,18.574,0,0,1-7.246-.609s-.251-5.054-1.253-12.676-2.711-25.11-2.871-32.106c-.053-2.183-.867-7.792-1.959-14.474-1.861-11.325-4.517-25.755-5.653-31.856-.349-1.851-.555-2.934-.555-2.934h22.409s.474,2.657,1.154,6.593c.376,2.174.813,4.732,1.279,7.443-2.871,1.726-5.716,3.515-7.773,5.036a16.17,16.17,0,0,0-2.684,2.326l-.108.134c-2.88,3.766,8.99,20.146,8.821,25.844S186.1,277.649,185.5,282.122Z" transform="translate(-168.472 -221.676)" fill="#4a6c8e" opacity="0.3" style="mix-blend-mode: multiply;isolation: isolate"/>
                      <path id="Trazado_1005201" data-name="Trazado 1005201" d="M185.81,240.748c.832,1.44,1.27,2.514.572,2.666a9.08,9.08,0,0,1-3.256-.34c-2.255-.474-4.733-1.073-5.439.134-.814,1.378-2.093,9.115-2.737,13.258-1.861-11.325-4.517-25.755-5.653-31.856.224-1.073.465-2.075.706-2.934H191.15s.474,2.657,1.154,6.593c-4.911,1.521-9.742,3.176-10.485,4.008C180.773,233.458,184.11,237.841,185.81,240.748Z" transform="translate(-168.741 -221.676)" fill="#4a6c8e" opacity="0.3" style="mix-blend-mode: multiply;isolation: isolate"/>
                    </g>
                    <g id="Grupo_1193346" data-name="Grupo 1193346">
                      <g id="Grupo_1193344" data-name="Grupo 1193344" transform="translate(0 95.763)">
                        <path id="Trazado_1005202" data-name="Trazado 1005202" d="M151.227,372.076c-.062,2.058-.259,4.491-.3,6.11-.081,3.005,0,5.5-.367,6.789s-5.278,2.165-9.724,2-5.645-1.691-5.69-3.068a10.27,10.27,0,0,1,.7-2.827c.618-1.789,1.5-3.936,2.049-5.35.922-2.379,1.807-5.787,2.38-7s2.317-2.12,5.421-2.084c3.077.036,4.571.707,5.233,1.708C151.236,368.82,151.272,370.3,151.227,372.076Z" transform="translate(-135.142 -362.781)" fill="#c9414e"/>
                        <path id="Trazado_1005203" data-name="Trazado 1005203" d="M151.227,374.7c-.062,2.058-.259,4.491-.3,6.11-.081,3.005,0,5.5-.367,6.789s-5.278,2.165-9.724,2-5.645-1.691-5.69-3.068a10.271,10.271,0,0,1,.7-2.827,9.063,9.063,0,0,0,7.354,2.1C147.577,385.073,149.975,379.437,151.227,374.7Z" transform="translate(-135.142 -365.41)" fill="#4a6c8e" opacity="0.3" style="mix-blend-mode: multiply;isolation: isolate"/>
                        <path id="Trazado_1005204" data-name="Trazado 1005204" d="M153.886,360.9l-.692,6.218a7.405,7.405,0,0,1-3.925,1.007c-2.406-.008-3.682-.562-3.72-.8s-.2-6.423-.2-6.423Z" transform="translate(-138.475 -360.903)" fill="#562338"/>
                      </g>
                      <g id="Grupo_1193345" data-name="Grupo 1193345" transform="translate(4.026)">
                        <path id="Trazado_1005205" data-name="Trazado 1005205" d="M167.707,221.993c0,1.253-5.5,40.729-6,46.971s-6.748,46.8-6.748,46.8a31.164,31.164,0,0,1-6.323,1.172,19.069,19.069,0,0,1-7.084-.828s-.02-.316-.034-.875c-.04-1.017-.114-2.835-.189-4.956-.02-.539-.034-1.1-.047-1.67-.114-3.529-.2-7.5-.141-9.987.162-6.916,1.077-19.664.909-25s-.66-15.32,0-29.813a99.277,99.277,0,0,1,2.727-18.842c.1-.4.2-.788.29-1.152.849-3.246,1.529-5.118,1.529-5.118S167.707,220.74,167.707,221.993Z" transform="translate(-141.121 -218.7)" fill="#c9414e"/>
                        <path id="Trazado_1005206" data-name="Trazado 1005206" d="M143.854,257.634c.182,6.62-1.643,38.352-2.572,54.016-.114-3.529-.2-7.5-.141-9.987.162-6.916,1.077-19.664.909-25s-.66-15.32,0-29.813a99.277,99.277,0,0,1,2.727-18.842S143.619,248.765,143.854,257.634Z" transform="translate(-141.121 -221.74)" fill="#e5f9f8"/>
                        <path id="Trazado_1005207" data-name="Trazado 1005207" d="M167.808,221.993c0,1.253-5.5,40.729-6,46.971s-6.748,46.8-6.748,46.8a31.164,31.164,0,0,1-6.323,1.172,19.069,19.069,0,0,1-7.084-.828s-.02-.316-.034-.875c-.04-1.017-.115-2.835-.189-4.956,5.63-6.3,10.93-13.172,11.59-17.778,1.482-10.371,5.293-35.341,4.445-36.614s-4.02-.424-6.559-.209,9.313-14.391,8.674-14.391-11.421,5.286-12.9,4.653,19.469-16.3,17.987-16.93c-1.165-.5-11.59-1.65-19.5-5.192.849-3.246,1.529-5.118,1.529-5.118S167.808,220.74,167.808,221.993Z" transform="translate(-141.222 -218.7)" fill="#4a6c8e" opacity="0.3" style="mix-blend-mode: multiply;isolation: isolate"/>
                      </g>
                    </g>
                  </g>
                  <g id="Grupo_1193348" data-name="Grupo 1193348" transform="translate(26.541 37.252)">
                    <path id="Trazado_1005208" data-name="Trazado 1005208" d="M185.192,194.416s-3.515.8-8.64,1.4c-2.4.283-5.152.512-8.061.593-2.276.061-4.707.054-7.084-.034-7.132-.263-13.745-1.253-14.027-3.246-.377-2.66,4-17.832,3.751-20.7s-1.63-8.122-2.007-13.745c-.088-1.421-.175-3.051-.222-4.721-.155-4.983,0-10.4,1.178-12.021l.007-.007c1.226-1.663,6.4-4.909,12.607-6.606a30.138,30.138,0,0,1,5.8-1.044,16.2,16.2,0,0,1,7.664,1.771,26.925,26.925,0,0,1,5.145,3.03c.559.512,3.185,12.607,3.812,17.98a10.066,10.066,0,0,1-1,6.041c-.714,1.354-1.556,2.209-1.838,2.822a.235.235,0,0,0-.02.081c-.182.781.216,5.226.781,10.377.343,3.152.747,6.559,1.1,9.563C184.714,190.7,185.192,194.416,185.192,194.416Z" transform="translate(-147.356 -134.257)" fill="#e3a936"/>
                    <path id="Trazado_1005209" data-name="Trazado 1005209" d="M184.141,189.326c-7.111,3.118-15.448,6.882-22.735,10.425-7.132-.263-13.745-1.253-14.027-3.246a14.989,14.989,0,0,1,.418-3.7c.808-4.31,2.519-10.984,3.125-14.708a10.871,10.871,0,0,0,.209-2.3c-.256-2.876-1.63-8.122-2.007-13.745-.088-1.421-.175-3.051-.222-4.721-.155-4.983,0-10.4,1.178-12.021l.007-.007c1.259-.444,2.094-.721,2.094-.721-7.1,28.735,9.866,25.314,18.277,22.035,5.307-2.067,9.926-1.017,13.657-.141a18.662,18.662,0,0,1-1.529,2.3,4.764,4.764,0,0,0-.31.525.235.235,0,0,0-.02.081,44.54,44.54,0,0,0,.4,6.795c.114,1.125.242,2.33.377,3.583C183.38,182.915,183.785,186.322,184.141,189.326Z" transform="translate(-147.356 -137.632)" fill="#e3a936" opacity="0.3" style="mix-blend-mode: multiply;isolation: isolate"/>
                    <path id="Trazado_1005210" data-name="Trazado 1005210" d="M182.873,187.911c-8.169,5.165-25.321,12.62-34.863,16.627.808-4.31,2.519-10.984,3.125-14.708,9.064-2.795,23.146-6.869,31.665-9.32a4.769,4.769,0,0,0-.31.525.236.236,0,0,0-.02.081A44.536,44.536,0,0,0,182.873,187.911Z" transform="translate(-147.569 -149.362)" fill="#e3a936" opacity="0.3" style="mix-blend-mode: multiply;isolation: isolate"/>
                  </g>
                  <path id="Trazado_1005211" data-name="Trazado 1005211" d="M178.622,140.786c-5.457-.706-7.676-3.793-8.489-5.457a30.3,30.3,0,0,1,5.8-1.046,16.331,16.331,0,0,1,7.666,1.771C183.793,138.478,183.131,141.358,178.622,140.786Z" transform="translate(-128.253 -97.004)" fill="#f0ca80"/>
                  <g id="Grupo_1193349" data-name="Grupo 1193349" transform="translate(50.371 41.554)">
                    <path id="Trazado_1005212" data-name="Trazado 1005212" d="M248.168,146.567l-.009.009a.009.009,0,0,0-.009.009c-.733.859-24.136,28.357-27.248,46.973a35.256,35.256,0,0,0-.475,5.376c-.205,16.111,10.744,27.66,11.737,32.017a20.81,20.81,0,0,1,.474,3.74,25.124,25.124,0,0,1-.474,5.921l-42,5.171a32.312,32.312,0,0,0,1.288-8.32,11.387,11.387,0,0,0-.205-2.183c-.832-4.16-4.992-8.821-7-15.654-1.932-6.6-3.086-17.659,3.471-35.506.224-.6.447-1.207.689-1.825,2.97-7.684,7.872-15.995,12.649-23.151,6.987-10.484,13.7-18.5,13.7-18.5a111.719,111.719,0,0,0,14.8,3.981A154.678,154.678,0,0,0,248.168,146.567Z" transform="translate(-182.742 -140.645)" fill="#f3fffe"/>
                    <path id="Trazado_1005213" data-name="Trazado 1005213" d="M235.764,286.219l-42,5.171a32.312,32.312,0,0,0,1.288-8.319l41.186-2.772A25.125,25.125,0,0,1,235.764,286.219Z" transform="translate(-186.342 -186.252)" fill="#c5d5e2" opacity="0.3" style="mix-blend-mode: multiply;isolation: isolate"/>
                    <path id="Trazado_1005214" data-name="Trazado 1005214" d="M250.566,149.466c-.733.859-24.136,28.357-27.248,46.973a35.251,35.251,0,0,0-.475,5.376,14.313,14.313,0,0,0-3.676-3.721c-3.731-2.084-4.822-12.908-10.189-14.733-4.08-1.387-14.206,1.959-18.84,3.641.224-.6.447-1.207.689-1.825,2.97-7.684,7.872-15.995,12.649-23.151,3.176,2.648,7.336,6.5,8.409,9.339,1.789,4.732,7.38,20.754,8.722,14.027s.447-16.084,8.051-20.02C236.109,161.516,250.029,149.913,250.566,149.466Z" transform="translate(-185.157 -143.526)" fill="#c5d5e2" opacity="0.3" style="mix-blend-mode: multiply;isolation: isolate"/>
                    <path id="Trazado_1005215" data-name="Trazado 1005215" d="M252.843,184.376a13.488,13.488,0,0,1-3.131,5.528,7.034,7.034,0,0,1-1.181.958c-2.147,1.377-4.294.661-4.857-.027s.733-4.357,2.424-6.978a14.3,14.3,0,0,1,3.462-4.106,1.184,1.184,0,0,1,.626-.224C251.519,179.527,253.809,181.03,252.843,184.376Z" transform="translate(-202.597 -153.343)" fill="#692f46"/>
                    <path id="Trazado_1005216" data-name="Trazado 1005216" d="M249.712,190.012a7.034,7.034,0,0,1-1.181.958c-2.147,1.377-4.294.661-4.857-.027s.733-4.357,2.424-6.978a14.3,14.3,0,0,1,3.462-4.106c-.6,2-1.861,7.031-.259,9.509C249.443,189.592,249.587,189.807,249.712,190.012Z" transform="translate(-202.597 -153.451)" fill="#4a6c8e" opacity="0.3" style="mix-blend-mode: multiply;isolation: isolate"/>
                  </g>
                  <g id="Grupo_1193350" data-name="Grupo 1193350" transform="translate(20.148 42.078)">
                    <path id="Trazado_1005217" data-name="Trazado 1005217" d="M208.238,177.6a8.7,8.7,0,0,1-2.612,5c-1.244.975-6.28.77-7.684.465s-3.193-.635-3.426-.635-1.512.232-1.512.232l-.5-6.495a6.721,6.721,0,0,0,1.636-.653,15.275,15.275,0,0,0,1.834-1.154c1.011-.706,2.675-3.122,3.73-3.623a17.981,17.981,0,0,1,3.748-.859l-1.387,1.977a1.318,1.318,0,0,0,1.011.706c.626.081,3.131-.242,4.249-.232a1.891,1.891,0,0,1,.447.036C208.372,172.531,208.408,175.993,208.238,177.6Z" transform="translate(-155.707 -150.717)" fill="#692f46"/>
                    <path id="Trazado_1005218" data-name="Trazado 1005218" d="M208.238,178.792a8.7,8.7,0,0,1-2.612,5c-1.244.975-6.28.77-7.684.465s-3.193-.635-3.426-.635-1.512.232-1.512.232l-.5-6.495a6.721,6.721,0,0,0,1.636-.653c.26,1.046.787,2.746,1.521,2.97,1.064.34,7.881-.725,8.945-1.172.824-.34,2.129-3.587,2.72-4.983a1.89,1.89,0,0,1,.447.036C208.372,173.72,208.408,177.182,208.238,178.792Z" transform="translate(-155.707 -151.906)" fill="#4a6c8e" opacity="0.3" style="mix-blend-mode: multiply;isolation: isolate"/>
                    <path id="Trazado_1005219" data-name="Trazado 1005219" d="M176.118,175.341s-17.24,5.825-23.907,7.408-11.745,1.913-13.825,0c-.6-.545-.64-2.929-.343-6.155.034-.35.067-.714.114-1.084.317-3,.882-6.579,1.522-10.061.067-.269.121-.586.182-.95a1.685,1.685,0,0,1,.034-.2c.155-.761.3-1.515.451-2.249a.541.541,0,0,1,.027-.121,79.079,79.079,0,0,1,2.62-10.27c1.993-5.132,5.28-11.751,10.8-9.933a4.559,4.559,0,0,1,2.411,1.818c1.185,1.744,1.468,4.384,1.205,7.226a28.2,28.2,0,0,1-.492,3.192c-1.125,5.381-5.313,15.031-5.206,15.765.02.135.768.088,1.987-.061h.007c1.2-.148,2.835-.4,4.687-.707,6.97-1.165,16.89-3.125,16.89-3.125l.343,3.818v.013l.114,1.34.02.2Z" transform="translate(-137.863 -141.423)" fill="#f0ca80"/>
                    <path id="Trazado_1005220" data-name="Trazado 1005220" d="M176.118,189.788s-17.24,5.825-23.907,7.408-11.745,1.913-13.825,0c-.6-.545-.64-2.929-.343-6.155.034-.35.067-.714.114-1.084,6.189,4.9,28.243-1.333,37.6-4.3Z" transform="translate(-137.863 -155.87)" fill="#e3a936" opacity="0.3" style="mix-blend-mode: multiply;isolation: isolate"/>
                    <path id="Trazado_1005221" data-name="Trazado 1005221" d="M157.42,143.548v.009s-4.437-2.443-7.121,0c-2.433,2.2-6.808,10.108-8.713,18.374a78.92,78.92,0,0,1,2.621-10.27c1.995-5.126,5.278-11.746,10.806-9.93A4.549,4.549,0,0,1,157.42,143.548Z" transform="translate(-139.079 -141.424)" fill="#fff" opacity="0.7"/>
                    <path id="Trazado_1005222" data-name="Trazado 1005222" d="M182.662,181.5l-1.315-2.465-21.935,2.948,1.324-.474h.009c1.2-.143,2.836-.4,4.688-.707,6.969-1.162,16.889-3.121,16.889-3.121Z" transform="translate(-144.901 -153.264)" fill="#fff" opacity="0.7"/>
                  </g>
                  <g id="Grupo_1193352" data-name="Grupo 1193352" transform="translate(37.341)">
                    <path id="Trazado_1005223" data-name="Trazado 1005223" d="M183.14,133.377c0,.107-1.27,1.109-4.2.85-3.042-.277-5.323-2.657-5.323-3.346,0-.43.465-4.706.814-7.891.215-1.95.393-3.48.393-3.48l7.9,5.439c0,.367.152,3.194.268,5.475C183.069,131.945,183.14,133.216,183.14,133.377Z" transform="translate(-166.731 -92.189)" fill="#562338"/>
                    <path id="Trazado_1005224" data-name="Trazado 1005224" d="M183.383,130.425a16.906,16.906,0,0,1-8.561-7.434c.215-1.95.393-3.48.393-3.48l7.9,5.439C183.115,125.317,183.267,128.144,183.383,130.425Z" transform="translate(-167.126 -92.189)" fill="#18203c"/>
                    <path id="Trazado_1005225" data-name="Trazado 1005225" d="M195.878,108.665l-.1-1.154-.715-8.293L194.92,97.5l.743-.626s3.122,1.915,3.667,4.581S195.878,108.665,195.878,108.665Z" transform="translate(-173.689 -84.797)" fill="#161b28"/>
                    <path id="Trazado_1005226" data-name="Trazado 1005226" d="M196.573,107a7.123,7.123,0,0,1-.725,1l-.715-8.293c.519-.76.912-1.324.912-1.324S199.7,101.914,196.573,107Z" transform="translate(-173.759 -85.292)" fill="#2c4a63" opacity="0.3" style="mix-blend-mode: multiply;isolation: isolate"/>
                    <g id="Grupo_1193351" data-name="Grupo 1193351">
                      <path id="Trazado_1005227" data-name="Trazado 1005227" d="M172.333,87.708,169.9,89.587a16.2,16.2,0,0,1-2.818-1.163,7.032,7.032,0,0,1-3.471-3.292,3.343,3.343,0,0,1-.179-.671c-.564-3.533,5.144-6.789,7.21-5.027,1.4,1.181,1.816,3.274,1.861,5.054a.312.312,0,0,1,.009.09A18.411,18.411,0,0,1,172.333,87.708Z" transform="translate(-163.393 -78.94)" fill="#161b28"/>
                      <path id="Trazado_1005228" data-name="Trazado 1005228" d="M172.439,90.4l-2.433,1.879a16.2,16.2,0,0,1-2.818-1.163,7.032,7.032,0,0,1-3.471-3.292,24.332,24.332,0,0,0,8.892-.644.312.312,0,0,1,.009.09A18.413,18.413,0,0,1,172.439,90.4Z" transform="translate(-163.499 -81.63)" fill="#2c4a63" opacity="0.3" style="mix-blend-mode: multiply;isolation: isolate"/>
                      <path id="Trazado_1005229" data-name="Trazado 1005229" d="M174.122,90.442l-2.438,1.879a16,16,0,0,1-2.818-1.159,16.146,16.146,0,0,1,5.437-3.848A18.67,18.67,0,0,1,174.122,90.442Z" transform="translate(-165.18 -81.675)" fill="#c9414e"/>
                    </g>
                    <path id="Trazado_1005230" data-name="Trazado 1005230" d="M189.137,106.414c-.66,4.337-1.852,7.327-3.347,8.99a4.178,4.178,0,0,1-3.145,1.589c-2.916,0-11.118-4.283-10.606-14.7.31-6.552,3.522-9.583,6.391-10.606a6.642,6.642,0,0,1,2.855-.391,9.036,9.036,0,0,1,3.044.862C188.922,94.427,190.046,100.482,189.137,106.414Z" transform="translate(-166.209 -82.966)" fill="#692f46"/>
                    <path id="Trazado_1005231" data-name="Trazado 1005231" d="M195.108,106.846c-.66,4.337-1.852,7.327-3.347,8.99,2.424-6.539,3.529-16.681-1.387-22.075L190.3,92.59C194.893,94.859,196.017,100.914,195.108,106.846Z" transform="translate(-172.18 -83.398)" fill="#fff" opacity="0.7"/>
                    <path id="Trazado_1005232" data-name="Trazado 1005232" d="M182.644,117.2c-2.916,0-11.12-4.285-10.609-14.707.312-6.548,3.524-9.581,6.4-10.6C177.742,99.865,177.4,113.48,182.644,117.2Z" transform="translate(-166.208 -83.17)" fill="#4b1c4a"/>
                    <path id="Trazado_1005233" data-name="Trazado 1005233" d="M187.805,94.8c-.036,2.084-2.531,4.947-6.074,6.736-3.042,1.539-9.071,1.834-9.823,2.273s1.333,6.763.7,7.282-4.634-3.847-5.135-11.155c-.027-.4-.036-.8-.036-1.172a12.68,12.68,0,0,1,.224-2.263.311.311,0,0,0,.018-.063c.984-4.777,4.884-6.888,8.677-7.81,4.607-1.127,10.082,3.015,11.209,5.081a1.851,1.851,0,0,1,.161.421v.009A2.024,2.024,0,0,1,187.805,94.8Z" transform="translate(-164.713 -82.041)" fill="#161b28"/>
                    <path id="Trazado_1005234" data-name="Trazado 1005234" d="M187.922,94.8a.837.837,0,0,1-.259-.376c-.572-1.476-3.015-2.9-4.285-3.659s-3.193-1.977-8.051-.877a10.5,10.5,0,0,0-7.532,6.548c.984-4.777,4.884-6.888,8.677-7.81,4.607-1.127,10.082,3.015,11.209,5.081a1.85,1.85,0,0,1,.161.421v.009A2.024,2.024,0,0,1,187.922,94.8Z" transform="translate(-164.831 -82.041)" fill="#507096"/>
                    <path id="Trazado_1005235" data-name="Trazado 1005235" d="M181.731,104.3c-3.042,1.539-9.071,1.834-9.823,2.273s1.333,6.763.7,7.282-4.634-3.847-5.135-11.155c-.027-.4-.036-.8-.036-1.172a17.056,17.056,0,0,0,3.686.224c1.691-.152,2.335,1.789,8.1.8a13.007,13.007,0,0,0,8.5-5.645C188.315,99,185.667,102.314,181.731,104.3Z" transform="translate(-164.713 -84.806)" fill="#2c4a63" opacity="0.3" style="mix-blend-mode: multiply;isolation: isolate"/>
                    <path id="Trazado_1005236" data-name="Trazado 1005236" d="M174.907,111.092c-.089-1.711-1.987-2.993-3.381-2.1-1.286.826-.368,4.4.109,5.446a3.343,3.343,0,0,0,2.8,1.759A50.626,50.626,0,0,0,174.907,111.092Z" transform="translate(-165.835 -88.659)" fill="#4b1c4a"/>
                  </g>
                </g>
                <g id="Grupo_1193364" data-name="Grupo 1193364" transform="translate(321.063 35.041)">
                  <ellipse id="Elipse_13663" data-name="Elipse 13663" cx="48.192" cy="5.123" rx="48.192" ry="5.123" transform="translate(1.748 203.026)" fill="#4a6c8e" opacity="0.3" style="mix-blend-mode: multiply;isolation: isolate"/>
                  <g id="Grupo_1193355" data-name="Grupo 1193355" transform="translate(63.464 91.495)">
                    <g id="Grupo_1193354" data-name="Grupo 1193354" transform="translate(1.883 96.032)">
                      <path id="Trazado_1005237" data-name="Trazado 1005237" d="M626.3,375.812c3.055-.166,4.182-.807,4.586-.449.585.517.774,3.442,1.263,5.591.39,1.713,1.228,5.665.73,6.8-.341.777-7.534,1.468-10.829,2.078s-10.091,1.394-13.188,1.648-2.422-4.584-.5-6.082c1.727-1.345,6.559-2.976,8.518-4.667s3.752-4.9,4.4-5.226S623.827,375.948,626.3,375.812Z" transform="translate(-606.731 -370.709)" fill="#18203c"/>
                      <path id="Trazado_1005238" data-name="Trazado 1005238" d="M636.02,368.5s1.115,5.088,1.075,5.336c-.02.124-1.376,1.259-4.166,1.259a8.554,8.554,0,0,1-4.034-.735l-1.364-5.86Z" transform="translate(-613.523 -368.504)" fill="#dc8765"/>
                    </g>
                    <path id="Trazado_1005239" data-name="Trazado 1005239" d="M631.336,322.219a25.83,25.83,0,0,1-5.151,1.762c-.294.067-.587.134-.9.2-.528.109-1.09.209-1.677.294a26.959,26.959,0,0,1-6.048.478s-12.516-43.411-13.287-50.7,0-46.053,0-46.053l22.07-2.3a66.7,66.7,0,0,1,1.133,10.6,63.468,63.468,0,0,1-.286,8.59c-.151,1.426-.318,2.928-.5,4.455-1.225,10.159-3.053,21.592-2.836,22.339.252.864,2.324,12.725,3.414,20.593s1.955,18.422,2.727,22.448S631.336,322.219,631.336,322.219Z" transform="translate(-603.935 -225.902)" fill="#51243a"/>
                    <path id="Trazado_1005240" data-name="Trazado 1005240" d="M640.238,333.687a25.833,25.833,0,0,1-5.151,1.762c-.646-.059-1.04-.092-1.04-.092l4.3-2.533s-2.307-13.942-2.81-21.282-3.9-25.586-4.32-28.312c-.411-2.693,4.245-21.7,4.371-22.213-1.225,10.159-3.053,21.592-2.836,22.339.252.864,2.324,12.725,3.414,20.593s1.955,18.422,2.727,22.448S640.238,333.687,640.238,333.687Z" transform="translate(-612.837 -237.37)" fill="#fff" opacity="0.7"/>
                    <path id="Trazado_1005241" data-name="Trazado 1005241" d="M616.8,290.636c1.678,10.678,3.725,26.642,8.489,33.546-.528.109-1.09.209-1.677.294a26.959,26.959,0,0,1-6.048.478s-12.516-43.411-13.287-50.7,0-46.053,0-46.053l22.07-2.3a66.7,66.7,0,0,1,1.133,10.6,18.414,18.414,0,0,0-3.414,1.006c-1.535.839-3.49,13.279-7.265,22.088S615.045,279.522,616.8,290.636Z" transform="translate(-603.935 -225.902)" fill="#4a6c8e" opacity="0.3" style="mix-blend-mode: multiply;isolation: isolate"/>
                  </g>
                  <g id="Grupo_1193357" data-name="Grupo 1193357" transform="translate(22.945 91.495)">
                    <g id="Grupo_1193356" data-name="Grupo 1193356" transform="translate(0 97.983)">
                      <path id="Trazado_1005242" data-name="Trazado 1005242" d="M565.391,380.415c3.168.087,5.208-.205,5.6.19s-.248,4.433-.234,6.716a50.933,50.933,0,0,1,0,6.409c-.249,1.1-7.9.878-11.354,1.229s-10.535.585-13.754.585-1.7-4.975,0-6.321,7.316-2.517,9.482-4.1,4.5-4.852,5.194-5.138S563.372,380.359,565.391,380.415Z" transform="translate(-543.767 -374.182)" fill="#1f2947"/>
                      <path id="Trazado_1005243" data-name="Trazado 1005243" d="M579.256,371.4s-.691,6.181-.733,6.438c-.02.128-1.688.962-4.579.951a11.054,11.054,0,0,1-4.163-.978l.681-6.411Z" transform="translate(-552.263 -371.401)" fill="#dc8765"/>
                    </g>
                    <path id="Trazado_1005244" data-name="Trazado 1005244" d="M603.582,249.885c-5.562,10.746-15.158,29.259-15.158,29.259s.478,1.82-.478,8.733-4.035,19.956-4.991,24.369-2.273,12.986-2.273,12.986a53.71,53.71,0,0,1-7.223.537,19.318,19.318,0,0,1-3.506-.335c-.763-.143-1.443-.3-1.988-.453a14.809,14.809,0,0,1-1.418-.453s1.728-41.833,3.456-49.887c1.107-5.184,6.325-23.27,9.907-35.5a.31.31,0,0,0,.017-.059c-.008-.009,0-.009,0-.009a.024.024,0,0,0,.009-.016c.545-1.88,1.057-3.624,1.51-5.159,1.166-3.96,1.929-6.526,1.929-6.526l24.041-1.468S609.143,239.139,603.582,249.885Z" transform="translate(-551.206 -225.902)" fill="#68324b"/>
                    <path id="Trazado_1005245" data-name="Trazado 1005245" d="M570,281.058c1.107-5.184,6.325-23.27,9.907-35.5-.453,1.787-7.776,30.484-8.179,36.692-.42,6.417-3.766,49.149-3.766,49.149a14.8,14.8,0,0,1-1.418-.453S568.274,289.112,570,281.058Z" transform="translate(-551.206 -232.321)" fill="#fff" opacity="0.7"/>
                    <path id="Trazado_1005246" data-name="Trazado 1005246" d="M605.233,249.885c-5.562,10.746-15.158,29.259-15.158,29.259s.478,1.82-.478,8.733-4.035,19.956-4.991,24.369-2.274,12.986-2.274,12.986a53.709,53.709,0,0,1-7.222.537,19.318,19.318,0,0,1-3.506-.335,12.309,12.309,0,0,0,4.152-3.356c2.332-3.7,5.176-35.425,5.8-38.361s4.723-5.142,3.146-5.344c-1.577-.217-1.577-.838,1.778-4.932s10.175-24.008,10.8-26.717,2.793-9.5-5.587-10.889A79.391,79.391,0,0,1,583.1,233.9c1.166-3.96,1.929-6.526,1.929-6.526l24.041-1.468S610.794,239.139,605.233,249.885Z" transform="translate(-552.857 -225.902)" fill="#4a6c8e" opacity="0.3" style="mix-blend-mode: multiply;isolation: isolate"/>
                  </g>
                  <path id="Trazado_1005247" data-name="Trazado 1005247" d="M624.1,202.025c-.838.831-7.373,1.82-18.379,1.921-7.6.067-13.086-.822-15.745-1.72-1.191-.394-1.82-.8-1.82-1.107,0-1.015,1.888-13.3,1.888-21.509,0-3.481-.143-6.778-.151-10.041a50.968,50.968,0,0,1,1.493-13.522,18.908,18.908,0,0,1,5.738-8.825,30.6,30.6,0,0,1,9.278-5.78,11.052,11.052,0,0,1,7.357-.621,6.889,6.889,0,0,1,2.533,1.493c2.257,2.072,3.54,9.765,3.817,17.49a.276.276,0,0,0,.009.084c.033,1.024.05,2.047.05,3.062,0,8.682-.3,12.926,0,18.178s2.7,12.549,3.4,15.376C623.977,198.183,624.464,201.673,624.1,202.025Z" transform="translate(-535.318 -106.496)" fill="#c9414e"/>
                  <path id="Trazado_1005248" data-name="Trazado 1005248" d="M632.526,159.993a54.43,54.43,0,0,0-3.087-14.873,9.052,9.052,0,0,0-3.263-4.111,6.889,6.889,0,0,1,2.533,1.493C630.965,144.575,632.249,152.268,632.526,159.993Z" transform="translate(-547.734 -106.683)" fill="#fff" opacity="0.7"/>
                  <path id="Trazado_1005249" data-name="Trazado 1005249" d="M618.109,140.822c-1.837,1.812-6.837,5.822-15.653,6.367-.336.025-.663.034-.982.034a30.6,30.6,0,0,1,9.278-5.78A11.052,11.052,0,0,1,618.109,140.822Z" transform="translate(-539.667 -106.496)" fill="#4a6c8e" opacity="0.3" style="mix-blend-mode: multiply;isolation: isolate"/>
                  <path id="Trazado_1005250" data-name="Trazado 1005250" d="M601.957,191.34c.529,3.859,1.158,1.133.529,3.859-.495,2.156-4.186,10.888-12.508,15.208-1.191-.394-1.82-.8-1.82-1.107,0-.562.587-4.614,1.107-9.513.411-3.909.78-8.346.78-12,0-2.088-.05-4.11-.092-6.1-.034-1.325-.059-2.634-.059-3.942,8.388-5.754,18.211-12.264,18.211-12.264S601.428,187.491,601.957,191.34Z" transform="translate(-535.318 -114.677)" fill="#4a6c8e" opacity="0.3" style="mix-blend-mode: multiply;isolation: isolate"/>
                  <path id="Trazado_1005251" data-name="Trazado 1005251" d="M606.554,173.123S600.2,194.355,589.8,202.282c.411-3.909.781-8.346.781-12,0-2.088-.05-4.11-.092-6.1Z" transform="translate(-535.855 -117.171)" fill="#4a6c8e" opacity="0.3" style="mix-blend-mode: multiply;isolation: isolate"/>
                  <g id="Grupo_1193360" data-name="Grupo 1193360" transform="translate(18.614 33.941)">
                    <g id="Grupo_1193359" data-name="Grupo 1193359">
                      <path id="Trazado_1005252" data-name="Trazado 1005252" d="M583.846,171.122l2.779,5.368-4.509,1.416-4-6.781L582.9,169.2Z" transform="translate(-550.655 -149.831)" fill="#dc8765"/>
                      <path id="Trazado_1005253" data-name="Trazado 1005253" d="M573.28,173.857l-26.349,3.087a16.4,16.4,0,0,1-2.542-4.622c-.512-1.217-1.065-2.718-1.636-4.555-2.039-6.552-2.5-14.949-3.2-18.312s-2.215-8.011-2.215-8.011,8.884-.2,15.343-.5,11.006-.5,11.006-.5a32.848,32.848,0,0,1,2.148,6.358c.009.026.009.042.017.067.646,2.743,1.275,6.3,1.812,9.6C569.036,164.873,573.28,173.857,573.28,173.857Z" transform="translate(-537.335 -140.437)" fill="#f3fffe"/>
                      <path id="Trazado_1005254" data-name="Trazado 1005254" d="M576.7,176.973l-26.348,3.087a16.4,16.4,0,0,1-2.542-4.622c7.9-3.691,15.293-15.2,15.284-19.344-.008-3.305,4.018-5.293,6.174-6.115.646,2.743,1.275,6.3,1.812,9.6C572.457,167.989,576.7,176.973,576.7,176.973Z" transform="translate(-540.756 -143.553)" fill="#c5d5e2" opacity="0.3" style="mix-blend-mode: multiply;isolation: isolate"/>
                      <g id="Grupo_1193358" data-name="Grupo 1193358" transform="translate(6.877 5.971)">
                        <path id="Trazado_1005255" data-name="Trazado 1005255" d="M547.548,150.089l17.077-.786.29.786-17,.781Z" transform="translate(-547.548 -149.303)" fill="#5a88c5"/>
                        <path id="Trazado_1005256" data-name="Trazado 1005256" d="M548.744,155.486l17.077-.786.29.786-17,.781Z" transform="translate(-547.938 -151.065)" fill="#5a88c5"/>
                        <path id="Trazado_1005257" data-name="Trazado 1005257" d="M549.94,160.882l17.077-.786.29.786-17,.781Z" transform="translate(-548.329 -152.828)" fill="#5a88c5"/>
                        <path id="Trazado_1005258" data-name="Trazado 1005258" d="M551.135,166.279l17.077-.786.29.786-17,.781Z" transform="translate(-548.719 -154.59)" fill="#5a88c5"/>
                        <path id="Trazado_1005259" data-name="Trazado 1005259" d="M552.332,171.676l17.077-.786.29.786-17,.781Z" transform="translate(-549.11 -156.353)" fill="#5a88c5"/>
                        <path id="Trazado_1005260" data-name="Trazado 1005260" d="M553.527,177.072l16.826-.786.286.786-16.747.781Z" transform="translate(-549.5 -158.115)" fill="#5a88c5"/>
                      </g>
                      <path id="Trazado_1005261" data-name="Trazado 1005261" d="M583.677,169.332a1.765,1.765,0,0,1-1.284-.168,5.054,5.054,0,0,1-2.181-2.491,4.793,4.793,0,0,1-.235-3.884l-.965-1.485a6.379,6.379,0,0,1-2.877-.251A2.391,2.391,0,0,1,574.6,159.5c-.126-.486-.034-.872.059-.906.2-.067,3.909-.469,4.446-.469s3.448.537,3.951.6.89,2.148,1.057,3.766A56.221,56.221,0,0,1,583.677,169.332Z" transform="translate(-549.485 -146.214)" fill="#dc8765"/>
                      <path id="Trazado_1005262" data-name="Trazado 1005262" d="M583.564,169.7s-.47.067-1.141.134a5.054,5.054,0,0,1-2.181-2.491,4.793,4.793,0,0,1-.235-3.884l-.965-1.485a6.379,6.379,0,0,1-2.877-.251,2.391,2.391,0,0,1-1.535-1.552,11.019,11.019,0,0,0,2.9.739c1.8.151,3.305.084,3.867.469s-1.577,2.584-.461,4.874A10.443,10.443,0,0,0,583.564,169.7Z" transform="translate(-549.515 -146.881)" fill="#d25c2c"/>
                    </g>
                  </g>
                  <g id="Grupo_1193361" data-name="Grupo 1193361" transform="translate(0 40.696)">
                    <path id="Trazado_1005263" data-name="Trazado 1005263" d="M532.108,192.245v6.123a33.059,33.059,0,0,1-7.138.6c-2.559-.269-3.3-1.477-4.069-1.544s-4.144.537-5.888.537-5.3-.369-5.319-1.485c0-.134.168-.369.453-.663h.008a30.913,30.913,0,0,1,4.043-3.238c1.686-1.141,7.139-3.7,8.557-3.565a63.983,63.983,0,0,1,7.718,2.609C531.446,191.985,532.108,192.245,532.108,192.245Z" transform="translate(-509.694 -163.055)" fill="#dc8765"/>
                    <path id="Trazado_1005264" data-name="Trazado 1005264" d="M532.108,193.513v6.123a33.059,33.059,0,0,1-7.138.6c-2.559-.269-3.3-1.477-4.069-1.544s-4.144.537-5.888.537-5.3-.369-5.319-1.485c0-.134.168-.369.453-.663h.008c2.768.915,8.137-1.158,10.746-1.8,2.76-.688,4.58,2.156,7.122,1.61,1.8-.377,2.306-2.692,2.449-4C531.446,193.252,532.108,193.513,532.108,193.513Z" transform="translate(-509.694 -164.323)" fill="#d25c2c"/>
                    <path id="Trazado_1005265" data-name="Trazado 1005265" d="M590.494,165.725c-3.33,6.157-14.831,21.2-17.155,22.515s-32.2,0-32.2,0a29.487,29.487,0,0,1-.5-4.5,13.828,13.828,0,0,1,.026-1.452,12.819,12.819,0,0,1,1.082-4.379s22.548-1.678,23.555-2.088,10.829-16.283,12.918-19.118c1.677-2.265,4.966-5.839,8.766-6.2h.008a6.366,6.366,0,0,1,2.869.377c.168.067.336.134.487.209C594.487,153.125,593.707,159.794,590.494,165.725Z" transform="translate(-519.795 -150.469)" fill="#d85567"/>
                    <path id="Trazado_1005266" data-name="Trazado 1005266" d="M586.979,150.515a27.739,27.739,0,0,0-9.177,8.967c-3.985,6.224-10.922,16.224-11.928,16.953s-23.228,2.618-23.228,2.618a6.185,6.185,0,0,0-2.014,4.7,13.828,13.828,0,0,1,.026-1.452,12.819,12.819,0,0,1,1.082-4.379s22.548-1.678,23.555-2.088,10.829-16.283,12.918-19.118C579.891,154.449,583.179,150.875,586.979,150.515Z" transform="translate(-519.795 -150.484)" fill="#fff" opacity="0.7"/>
                    <path id="Trazado_1005267" data-name="Trazado 1005267" d="M590.5,166.024c-3.33,6.157-14.831,21.2-17.155,22.515s-32.2,0-32.2,0a29.478,29.478,0,0,1-.5-4.5c6.887,1.325,23.715,2.189,27.984.394,4.975-2.1,8.909-4.773,6.074-5.511s1.611-1.779,4.966-5.31c3.616-3.8,8.825-17.222,10.687-22.222C594.491,153.424,593.711,160.093,590.5,166.024Z" transform="translate(-519.799 -150.768)" fill="#4a6c8e" opacity="0.3" style="mix-blend-mode: multiply;isolation: isolate"/>
                  </g>
                  <g id="Grupo_1193363" data-name="Grupo 1193363" transform="translate(57.368)">
                    <g id="Grupo_1193362" data-name="Grupo 1193362" transform="translate(8.537 20.446)">
                      <path id="Trazado_1005268" data-name="Trazado 1005268" d="M617.923,133.943c0,.3-4.647,2.525-7.675,3.179s-2.676.252-2.676.252.168-.973.31-2.29a21.708,21.708,0,0,0,.092-5.637l9.148-9.049s.009.587.026,1.468c.034,1.359.029,6.549.213,8.235C617.663,132.878,617.923,133.642,617.923,133.943Z" transform="translate(-607.559 -120.398)" fill="#d27a5b"/>
                      <path id="Trazado_1005269" data-name="Trazado 1005269" d="M613.468,126.01c-.781,3.448-1.859,8.593-5.428,10.91a21.825,21.825,0,0,0,.094-5.637Z" transform="translate(-607.716 -122.231)" fill="#18203c"/>
                    </g>
                    <path id="Trazado_1005270" data-name="Trazado 1005270" d="M606.772,121.768a15.067,15.067,0,0,1-4.256,1.064,6.321,6.321,0,0,1-1,.013c-.128-.013-.242-.02-.35-.04-2.727-.424-2.936-9.6-2.222-15.65.62-5.36,2.828-9.529,8.438-10.351a14.517,14.517,0,0,1,2.364-.155,9.994,9.994,0,0,1,2.95.465c-.316.209-.525.357-.606.424-.4.323.323,4.128.323,4.128C614.665,104.4,614.671,117.842,606.772,121.768Z" transform="translate(-596.093 -92.196)" fill="#dc8765"/>
                    <path id="Trazado_1005271" data-name="Trazado 1005271" d="M608.189,121.768a15.067,15.067,0,0,1-4.256,1.064,6.321,6.321,0,0,1-1,.013c7.293-7.428,6.014-24.277,5.866-26.041a14.518,14.518,0,0,1,2.364-.155,9.993,9.993,0,0,1,2.95.465c-.317.209-.525.357-.606.424-.4.323.323,4.128.323,4.128C616.082,104.4,616.089,117.842,608.189,121.768Z" transform="translate(-597.51 -92.196)" fill="#d25c2c"/>
                    <path id="Trazado_1005272" data-name="Trazado 1005272" d="M621.229,101.555v.007a31.651,31.651,0,0,1-1.05,5.589c-.121.438-.256.869-.391,1.273a16.11,16.11,0,0,1-1.226,2.9c-2.013,3.5-5.387,5.522-6.061,5.455s-.6-3.232-.667-3.7.734-4.243-.269-4.714-3.01,2.243-3.623,1.993-.269-5.509-.586-5.657-10.808-.3-12.081-6.155a5.89,5.89,0,0,1,.485-4.2l.007-.007a4.821,4.821,0,0,1,.417-.667c1.731-2.391,5.145-3.488,7.3-3.623,3.3-.2,5.32,3.172,7.542,3.778,1.273.343,7.4.465,9.421,2.492C621.269,97.123,621.444,99.184,621.229,101.555Z" transform="translate(-594.953 -90.037)" fill="#a42a2b"/>
                    <path id="Trazado_1005273" data-name="Trazado 1005273" d="M621.755,101.555v.007a31.662,31.662,0,0,1-1.051,5.589c-.121.438-.256.869-.391,1.273.687-3.36,1.744-9.845.061-11.159-2.3-1.785-10.034-2.721-10.034-2.721s-2.465-2.977-5.529-3.488c-2.33-.391-5.212.653-8.1,2.613,1.731-2.391,5.145-3.488,7.3-3.623,3.3-.2,5.32,3.172,7.542,3.778,1.273.343,7.4.465,9.421,2.492C621.8,97.123,621.97,99.184,621.755,101.555Z" transform="translate(-595.479 -90.037)" fill="#fff" opacity="0.7"/>
                    <path id="Trazado_1005274" data-name="Trazado 1005274" d="M620.179,109.237a19.4,19.4,0,0,1-1.62,4.169c-2.013,3.5-5.385,5.52-6.056,5.453s-.6-3.23-.671-3.7.738-4.245-.268-4.715-3.012,2.24-3.624,1.988-.268-5.5-.587-5.653-10.8-.3-12.079-6.157a5.9,5.9,0,0,1,.486-4.195c1.208,2.29,3.381,5.025,7,5.444,4.983.57,6.459.663,8.489,1.712C613.217,104.59,615.154,109.036,620.179,109.237Z" transform="translate(-594.953 -92.124)" fill="#4a6c8e" opacity="0.3" style="mix-blend-mode: multiply;isolation: isolate"/>
                    <path id="Trazado_1005275" data-name="Trazado 1005275" d="M599.491,116.751l12.045.167-.441.971-11.6-.088Z" transform="translate(-596.387 -98.761)" fill="#2d395b"/>
                    <path id="Trazado_1005276" data-name="Trazado 1005276" d="M615.555,117.485c.581-1.742,2.1-2.461,3.458-1.768,1.439.733.378,5.134-1.086,6.194a1.506,1.506,0,0,1-2.434-.387A9.894,9.894,0,0,1,615.555,117.485Z" transform="translate(-601.555 -98.338)" fill="#d25c2c"/>
                    <ellipse id="Elipse_13664" data-name="Elipse 13664" cx="2.002" cy="3.566" rx="2.002" ry="3.566" transform="translate(0 15.194)" fill="#e5f9f8"/>
                  </g>
                </g>
              </g>
            </g>
          </g>
        </g>
      </g>
    </g>
  </g>
</svg>
