<svg xmlns="http://www.w3.org/2000/svg" xmlns:xlink="http://www.w3.org/1999/xlink" width="118.117" height="118.117" viewBox="0 0 118.117 118.117">
  <defs>
    <linearGradient id="linear-gradient" x1="0.466" y1="0.611" x2="0.464" y2="-0.451" gradientUnits="objectBoundingBox">
      <stop offset="0" stop-color="#045e61"/>
      <stop offset="1" stop-color="#3ef989"/>
    </linearGradient>
  </defs>
  <g id="Grupo_1197966" data-name="Grupo 1197966" transform="translate(-320.883 -688.305)">
    <g id="Grupo_1197904" data-name="Grupo 1197904">
      <g id="Grupo_1192986" data-name="Grupo 1192986" transform="translate(320.883 688.305)">
        <g id="Trazado_995327" data-name="Trazado 995327" transform="translate(0)" fill="#fff">
          <path d="M 59.05859375 116.1171951293945 C 51.35486221313477 116.1171951293945 43.88261032104492 114.6088409423828 36.84942626953125 111.6340637207031 C 33.46891021728516 110.2042236328125 30.20824432373047 108.4343566894531 27.15799331665039 106.3736572265625 C 24.13620948791504 104.3321914672852 21.29459381103516 101.9876251220703 18.71207618713379 99.40511322021484 C 16.12957763671875 96.82259368896484 13.78501033782959 93.98097991943359 11.74354362487793 90.95919036865234 C 9.682826995849609 87.90895843505859 7.91297721862793 84.64827728271484 6.48314380645752 81.26776123046875 C 3.508343696594238 74.23457336425781 2.00001049041748 66.7623291015625 2.00001049041748 59.05859375 C 2.00001049041748 51.35486221313477 3.508343696594238 43.88261032104492 6.48314380645752 36.84942626953125 C 7.91297721862793 33.46891021728516 9.682826995849609 30.20824432373047 11.74354362487793 27.15799331665039 C 13.78501033782959 24.13620948791504 16.12957763671875 21.29459381103516 18.71207618713379 18.71207618713379 C 21.29459381103516 16.12957763671875 24.13620948791504 13.78501033782959 27.15799331665039 11.74354362487793 C 30.20824432373047 9.682826995849609 33.46891021728516 7.91297721862793 36.84942626953125 6.48314380645752 C 43.88261032104492 3.508343696594238 51.35486221313477 2.00001049041748 59.05859375 2.00001049041748 C 66.7623291015625 2.00001049041748 74.23457336425781 3.508343696594238 81.26776123046875 6.48314380645752 C 84.64827728271484 7.91297721862793 87.90895843505859 9.682826995849609 90.95919036865234 11.74354362487793 C 93.98097991943359 13.78501033782959 96.82259368896484 16.12957763671875 99.40511322021484 18.71207618713379 C 101.9876251220703 21.29459381103516 104.3321914672852 24.13620948791504 106.3736572265625 27.15799331665039 C 108.4343566894531 30.20824432373047 110.2042236328125 33.46891021728516 111.6340637207031 36.84942626953125 C 114.6088409423828 43.88261032104492 116.1171951293945 51.35486221313477 116.1171951293945 59.05859375 C 116.1171951293945 66.7623291015625 114.6088409423828 74.23457336425781 111.6340637207031 81.26776123046875 C 110.2042236328125 84.64827728271484 108.4343566894531 87.90895843505859 106.3736572265625 90.95919036865234 C 104.3321914672852 93.98097991943359 101.9876251220703 96.82259368896484 99.40511322021484 99.40511322021484 C 96.82259368896484 101.9876251220703 93.98097991943359 104.3321914672852 90.95919036865234 106.3736572265625 C 87.90895843505859 108.4343566894531 84.64827728271484 110.2042236328125 81.26776123046875 111.6340637207031 C 74.23457336425781 114.6088409423828 66.7623291015625 116.1171951293945 59.05859375 116.1171951293945 Z" stroke="none"/>
          <path d="M 59.05859375 3.999992370605469 C 51.62397766113281 3.999992370605469 44.41384887695312 5.455177307128906 37.62852478027344 8.325119018554688 C 34.36693572998047 9.704666137695312 31.22083282470703 11.41236114501953 28.27759552001953 13.40077209472656 C 25.36128234863281 15.37099456787109 22.61879730224609 17.63377380371094 20.12628173828125 20.12628173828125 C 17.63377380371094 22.61879730224609 15.37099456787109 25.36128234863281 13.40077209472656 28.27759552001953 C 11.41236114501953 31.22083282470703 9.704666137695312 34.36693572998047 8.325119018554688 37.62852478027344 C 5.455177307128906 44.41384887695312 3.999992370605469 51.62397766113281 3.999992370605469 59.05859375 C 3.999992370605469 66.49320983886719 5.455177307128906 73.70333862304688 8.325119018554688 80.48866271972656 C 9.704666137695312 83.750244140625 11.41236114501953 86.89635467529297 13.40077209472656 89.83959197998047 C 15.37099456787109 92.75590515136719 17.63377380371094 95.49839782714844 20.12628173828125 97.99090576171875 C 22.61879730224609 100.4834136962891 25.36128234863281 102.7461929321289 28.27759552001953 104.7164154052734 C 31.22083282470703 106.704833984375 34.36693572998047 108.4125213623047 37.62852478027344 109.7920684814453 C 44.41384887695312 112.6620101928711 51.62397766113281 114.1171951293945 59.05859375 114.1171951293945 C 66.49320983886719 114.1171951293945 73.70333862304688 112.6620101928711 80.48866271972656 109.7920684814453 C 83.750244140625 108.4125213623047 86.89635467529297 106.704833984375 89.83959197998047 104.7164154052734 C 92.75590515136719 102.7461929321289 95.49839782714844 100.4834136962891 97.99090576171875 97.99090576171875 C 100.4834136962891 95.49839782714844 102.7461929321289 92.75590515136719 104.7164154052734 89.83959197998047 C 106.704833984375 86.89635467529297 108.4125213623047 83.750244140625 109.7920684814453 80.48866271972656 C 112.6620101928711 73.70333862304688 114.1171951293945 66.49320983886719 114.1171951293945 59.05859375 C 114.1171951293945 51.62397766113281 112.6620101928711 44.41384887695312 109.7920684814453 37.62852478027344 C 108.4125213623047 34.36693572998047 106.704833984375 31.22083282470703 104.7164154052734 28.27759552001953 C 102.7461929321289 25.36128234863281 100.4834136962891 22.61879730224609 97.99090576171875 20.12628173828125 C 95.49839782714844 17.63377380371094 92.75590515136719 15.37099456787109 89.83959197998047 13.40077209472656 C 86.89635467529297 11.41236114501953 83.750244140625 9.704666137695312 80.48866271972656 8.325119018554688 C 73.70333862304688 5.455177307128906 66.49320983886719 3.999992370605469 59.05859375 3.999992370605469 M 59.05859375 -7.62939453125e-06 C 91.67575836181641 -7.62939453125e-06 118.1171951293945 26.44142913818359 118.1171951293945 59.05859375 C 118.1171951293945 91.67575836181641 91.67575836181641 118.1171951293945 59.05859375 118.1171951293945 C 26.44142913818359 118.1171951293945 -7.62939453125e-06 91.67575836181641 -7.62939453125e-06 59.05859375 C -7.62939453125e-06 26.44142913818359 26.44142913818359 -7.62939453125e-06 59.05859375 -7.62939453125e-06 Z" stroke="none" fill="#53159b"/>
        </g>
      </g>
      <g id="Grupo_1197809" data-name="Grupo 1197809" transform="translate(114.533 633.273)">
        <path id="Trazado_1009033" data-name="Trazado 1009033" d="M255.843,141.444V139.1H254.7c-3.062,0-6.124.013-9.186,0a5.951,5.951,0,0,1-6.322-6.339q-.016-12.746,0-25.493a5.942,5.942,0,0,1,6.266-6.286c1.029-.009,2.058,0,3.16,0V103.4c-1.066,0-2.154-.007-3.242,0a3.564,3.564,0,0,0-3.849,3.766q-.03,12.9,0,25.8a3.489,3.489,0,0,0,3.5,3.7c8.324.034,16.648.014,25.053.014v-2.36h-1.21q-10.889,0-21.777,0c-2.387,0-3.148-.764-3.148-3.147q0-11.1,0-22.19c0-2.487.774-3.262,3.256-3.263h1.413v2.434h-2.221v23.726h2.3V130.8c0-3.268.111-6.542-.043-9.8a4.681,4.681,0,0,1,1.85-4.458,1.7,1.7,0,0,0,.593-1.2q.052-11.714.021-23.429c0-1.232-.445-1.641-1.7-1.656-.617-.007-1.233,0-1.8,0a31.279,31.279,0,0,1-1.169,3.123,9.494,9.494,0,1,1,.814-6.345c.165.723.426.977,1.151.91,3.8-.352,5.177,1.359,5.087,5.106-.154,6.4-.042,12.8-.042,19.2v1.1l.277.188c.759-.816,1.475-1.679,2.3-2.427a2.387,2.387,0,0,1,1.414-.592c2.2-.062,4.4-.027,6.686-.027.025-.339.065-.634.065-.928,0-4.163-.015-8.326.02-12.488.006-.726-.187-.967-.928-1.114a9.475,9.475,0,1,1,4.021.086c-.258.058-.633.437-.635.669-.038,4.538-.028,9.077-.028,13.7h10.742v-1.09q0-8.67,0-17.339c0-2.72,1.324-4.035,4.045-4.046.616,0,1.233,0,1.917,0a9.7,9.7,0,0,1,5.108-7.264,9.093,9.093,0,0,1,6.3-.914,9.507,9.507,0,0,1,7.613,9.984,9.638,9.638,0,0,1-8.07,8.788c-4.206.608-9.691-1.727-10.982-8.267-.768,0-1.558-.053-2.338.013-.989.084-1.272.762-1.269,1.67.013,4.163.006,8.326.005,12.488v6.027h2.38v16.676h2.369V108.228l-2.271-.115v-2.37c.849,0,1.671-.061,2.479.013a2.424,2.424,0,0,1,2.213,2.729q.011,8.721,0,17.443v1.2H289.3v-1.077c0-6.158-.051-12.317.027-18.474.028-2.211-1.345-4.406-4.206-4.183-.951.074-1.912.012-2.93.012v-2.409c2.154.073,4.34-.392,6.35.746a5.546,5.546,0,0,1,3.07,5.024q.041,13.262,0,26.525a5.86,5.86,0,0,1-6.11,5.807c-3.1.036-6.192.008-9.289.009h-1.209v2.337c.982,0,2,0,3.015,0,2.663.013,4.109,1.43,4.1,4.069a13.275,13.275,0,0,1-.2,2.862,3.224,3.224,0,0,1-3.208,2.561q-13.314.032-26.628,0a3.283,3.283,0,0,1-3.287-2.865,12.8,12.8,0,0,1,0-3.693,3.47,3.47,0,0,1,3.594-2.926C253.522,141.423,254.65,141.444,255.843,141.444Zm-4.665-9.573h18.98c0-.724-.011-1.374,0-2.024a2.427,2.427,0,0,1,2.622-2.645c1.169-.017,2.339,0,3.508,0h3.326v-14.2H258.208v7.022h-7.031Zm38.039-2.247H272.68v7.059c4.47,0,8.861.035,13.25-.018a3.289,3.289,0,0,0,3.254-2.9A36.083,36.083,0,0,0,289.217,129.624Zm-33.474,14.248h-1.815c-2.821,0-2.821,0-2.814,2.836,0,1.637.287,1.927,1.911,1.928q12.385,0,24.769,0c.206,0,.414.013.619-.007.79-.074,1.285-.45,1.286-1.3,0-.757.011-1.514-.006-2.27a1.068,1.068,0,0,0-1.155-1.17c-1.165-.019-2.33-.005-3.468-.005-.655,1.871-1.275,2.312-3.213,2.313q-6.45,0-12.9,0C257.021,146.191,256.4,145.75,255.743,143.872Zm2.515-.2c.12.1.146.14.172.14,4.528.02,9.055.043,13.583.037.2,0,.559-.255.563-.4.043-1.424.026-2.85.026-4.26H258.258Zm36.779-56.937c-1.367,0-2.529-.031-3.687.026a.915.915,0,0,0-.67.54,7.058,7.058,0,0,0,.176,4.136h4.181Zm-59.076,4.747h1.782c2.56,0,2.787-.243,2.6-2.832a5.939,5.939,0,0,0-.22-1.413.855.855,0,0,0-.615-.48c-1.024-.051-2.054-.05-3.078,0a.829.829,0,0,0-.619.465A7.432,7.432,0,0,0,235.962,91.483Zm29.453-7.178c-2.323,0-2.381.057-2.4,2.358-.021,2.327.059,2.409,2.339,2.409h.1c2.288,0,2.362-.077,2.349-2.4C267.79,84.365,267.73,84.305,265.415,84.305ZM288.2,91.4V86.8H286a17.94,17.94,0,0,0-.305,2.529c.034,2.044.357,2.291,2.4,2.128C288.133,91.451,288.161,91.421,288.2,91.4ZM260.75,89.191V84.22a5.37,5.37,0,0,0-2.088.388c-.627.432-.656,3.617-.023,4.123C259.128,89.122,259.989,89.047,260.75,89.191Zm-18.134,2.291a11.676,11.676,0,0,0,1.53-.02.91.91,0,0,0,.649-.436,5.579,5.579,0,0,0-.134-4.231h-2.045Zm54.9-4.844v4.982c.748-.165,1.862-.1,2.087-.518a4.209,4.209,0,0,0-.01-4.038C299.372,86.661,298.229,86.765,297.519,86.638ZM233.3,86.616c-.735.148-1.863.066-2.088.478a4.208,4.208,0,0,0,.011,4.038c.224.41,1.358.322,2.077.462Zm36.768,2.559c.728-.138,1.622-.058,2.115-.465.643-.53.584-3.73-.037-4.123a5.475,5.475,0,0,0-2.078-.343Zm-14.253,28.461v-2.658l-2.759,2.658ZM236.844,93.9,238,95.583l.973-1.679Zm57.058.04h-2.129l1.106,1.618ZM265.389,80.192,264.38,81.9H266.5Zm1.081,11.359h-2.135l1.073,1.649ZM241.231,95.5,243.215,94C241.641,93.736,241.641,93.736,241.231,95.5Zm48.37,0c-.449-1.8-.568-1.883-1.926-1.4Zm6.334.116,2.15-1.549C296.584,93.667,296.456,93.757,295.935,95.609Zm-1.991-11.346-1.09-1.652-1.029,1.652ZM232.638,94l2.3,1.628C234.291,93.745,234.291,93.745,232.638,94Zm5.322-11.416-1.027,1.649H239Zm32.579,9.16c-1.51-.317-1.51-.317-2.149,1.549Zm-8.1,1.6c-.7-2.011-.732-2.032-2.239-1.673ZM260.027,81.89c1.751.162,1.984-.027,2.249-1.681Zm8.406-1.741c.619,1.963.643,1.98,2.257,1.661ZM232.749,84.13c1.567.322,1.672.243,2.142-1.579Zm54.8.06c1.678.2,1.96-.031,2.156-1.581Zm-46.538-1.636c.5,1.832.614,1.912,2.154,1.561Zm55.053.106c.531,1.855.575,1.885,1.936,1.4Z" transform="translate(0 0)" fill="url(#linear-gradient)"/>
        <path id="Trazado_1009034" data-name="Trazado 1009034" d="M367.538,217.925h-5.817v-2.319h5.817Z" transform="translate(-105.764 -109.815)" fill="url(#linear-gradient)"/>
        <path id="Trazado_1009035" data-name="Trazado 1009035" d="M425.017,215.582h5.831v2.3h-5.831Z" transform="translate(-155.996 -109.796)" fill="url(#linear-gradient)"/>
        <path id="Trazado_1009036" data-name="Trazado 1009036" d="M367.542,192.534v2.293h-5.868v-2.293Z" transform="translate(-105.727 -91.505)" fill="url(#linear-gradient)"/>
        <path id="Trazado_1009037" data-name="Trazado 1009037" d="M425.011,194.981v-2.257h5.834v2.257Z" transform="translate(-155.991 -91.656)" fill="url(#linear-gradient)"/>
        <path id="Trazado_1009038" data-name="Trazado 1009038" d="M373.632,298.806H349.84v-2.217h23.792Z" transform="translate(-96.335 -174.083)" fill="url(#linear-gradient)"/>
        <path id="Trazado_1009039" data-name="Trazado 1009039" d="M384.833,273.523h16.593V275.7H384.833Z" transform="translate(-124.106 -155.778)" fill="url(#linear-gradient)"/>
        <path id="Trazado_1009040" data-name="Trazado 1009040" d="M349.832,319.46h2.313v2.225h-2.313Z" transform="translate(-96.329 -192.234)" fill="url(#linear-gradient)"/>
        <path id="Trazado_1009041" data-name="Trazado 1009041" d="M372.947,319.572h2.328v2.217h-2.328Z" transform="translate(-114.673 -192.323)" fill="url(#linear-gradient)"/>
        <path id="Trazado_1009042" data-name="Trazado 1009042" d="M396.185,321.841v-2.213h2.285v2.213Z" transform="translate(-133.115 -192.367)" fill="url(#linear-gradient)"/>
        <path id="Trazado_1009043" data-name="Trazado 1009043" d="M477.02,344.85v-2.235h2.318v2.235Z" transform="translate(-197.265 -210.61)" fill="url(#linear-gradient)"/>
        <path id="Trazado_1009044" data-name="Trazado 1009044" d="M502.647,342.582v2.247h-2.254v-2.247Z" transform="translate(-215.814 -210.583)" fill="url(#linear-gradient)"/>
        <path id="Trazado_1009045" data-name="Trazado 1009045" d="M453.834,344.88v-2.25h2.326v2.25Z" transform="translate(-178.865 -210.621)" fill="url(#linear-gradient)"/>
      </g>
    </g>
  </g>
</svg>
