<svg xmlns="http://www.w3.org/2000/svg" xmlns:xlink="http://www.w3.org/1999/xlink" width="118.117" height="118.117" viewBox="0 0 118.117 118.117">
  <defs>
    <linearGradient id="linear-gradient" x1="0.655" y1="0.737" x2="0.5" y2="-0.427" gradientUnits="objectBoundingBox">
      <stop offset="0" stop-color="#045e61"/>
      <stop offset="1" stop-color="#3ef989"/>
    </linearGradient>
  </defs>
  <g id="Grupo_1197967" data-name="Grupo 1197967" transform="translate(-740.883 -688.305)">
    <g id="Grupo_1197903" data-name="Grupo 1197903">
      <g id="Grupo_1192986" data-name="Grupo 1192986" transform="translate(740.883 688.305)">
        <g id="Trazado_995327" data-name="Trazado 995327" transform="translate(0)" fill="#fff">
          <path d="M 59.05859375 116.1171951293945 C 51.35486221313477 116.1171951293945 43.88261032104492 114.6088409423828 36.84942626953125 111.6340637207031 C 33.46891021728516 110.2042236328125 30.20824432373047 108.4343566894531 27.15799331665039 106.3736572265625 C 24.13620948791504 104.3321914672852 21.29459381103516 101.9876251220703 18.71207618713379 99.40511322021484 C 16.12957763671875 96.82259368896484 13.78501033782959 93.98097991943359 11.74354362487793 90.95919036865234 C 9.682826995849609 87.90895843505859 7.91297721862793 84.64827728271484 6.48314380645752 81.26776123046875 C 3.508343696594238 74.23457336425781 2.00001049041748 66.7623291015625 2.00001049041748 59.05859375 C 2.00001049041748 51.35486221313477 3.508343696594238 43.88261032104492 6.48314380645752 36.84942626953125 C 7.91297721862793 33.46891021728516 9.682826995849609 30.20824432373047 11.74354362487793 27.15799331665039 C 13.78501033782959 24.13620948791504 16.12957763671875 21.29459381103516 18.71207618713379 18.71207618713379 C 21.29459381103516 16.12957763671875 24.13620948791504 13.78501033782959 27.15799331665039 11.74354362487793 C 30.20824432373047 9.682826995849609 33.46891021728516 7.91297721862793 36.84942626953125 6.48314380645752 C 43.88261032104492 3.508343696594238 51.35486221313477 2.00001049041748 59.05859375 2.00001049041748 C 66.7623291015625 2.00001049041748 74.23457336425781 3.508343696594238 81.26776123046875 6.48314380645752 C 84.64827728271484 7.91297721862793 87.90895843505859 9.682826995849609 90.95919036865234 11.74354362487793 C 93.98097991943359 13.78501033782959 96.82259368896484 16.12957763671875 99.40511322021484 18.71207618713379 C 101.9876251220703 21.29459381103516 104.3321914672852 24.13620948791504 106.3736572265625 27.15799331665039 C 108.4343566894531 30.20824432373047 110.2042236328125 33.46891021728516 111.6340637207031 36.84942626953125 C 114.6088409423828 43.88261032104492 116.1171951293945 51.35486221313477 116.1171951293945 59.05859375 C 116.1171951293945 66.7623291015625 114.6088409423828 74.23457336425781 111.6340637207031 81.26776123046875 C 110.2042236328125 84.64827728271484 108.4343566894531 87.90895843505859 106.3736572265625 90.95919036865234 C 104.3321914672852 93.98097991943359 101.9876251220703 96.82259368896484 99.40511322021484 99.40511322021484 C 96.82259368896484 101.9876251220703 93.98097991943359 104.3321914672852 90.95919036865234 106.3736572265625 C 87.90895843505859 108.4343566894531 84.64827728271484 110.2042236328125 81.26776123046875 111.6340637207031 C 74.23457336425781 114.6088409423828 66.7623291015625 116.1171951293945 59.05859375 116.1171951293945 Z" stroke="none"/>
          <path d="M 59.05859375 3.999992370605469 C 51.62397766113281 3.999992370605469 44.41384887695312 5.455177307128906 37.62852478027344 8.325119018554688 C 34.36693572998047 9.704666137695312 31.22083282470703 11.41236114501953 28.27759552001953 13.40077209472656 C 25.36128234863281 15.37099456787109 22.61879730224609 17.63377380371094 20.12628173828125 20.12628173828125 C 17.63377380371094 22.61879730224609 15.37099456787109 25.36128234863281 13.40077209472656 28.27759552001953 C 11.41236114501953 31.22083282470703 9.704666137695312 34.36693572998047 8.325119018554688 37.62852478027344 C 5.455177307128906 44.41384887695312 3.999992370605469 51.62397766113281 3.999992370605469 59.05859375 C 3.999992370605469 66.49320983886719 5.455177307128906 73.70333862304688 8.325119018554688 80.48866271972656 C 9.704666137695312 83.750244140625 11.41236114501953 86.89635467529297 13.40077209472656 89.83959197998047 C 15.37099456787109 92.75590515136719 17.63377380371094 95.49839782714844 20.12628173828125 97.99090576171875 C 22.61879730224609 100.4834136962891 25.36128234863281 102.7461929321289 28.27759552001953 104.7164154052734 C 31.22083282470703 106.704833984375 34.36693572998047 108.4125213623047 37.62852478027344 109.7920684814453 C 44.41384887695312 112.6620101928711 51.62397766113281 114.1171951293945 59.05859375 114.1171951293945 C 66.49320983886719 114.1171951293945 73.70333862304688 112.6620101928711 80.48866271972656 109.7920684814453 C 83.750244140625 108.4125213623047 86.89635467529297 106.704833984375 89.83959197998047 104.7164154052734 C 92.75590515136719 102.7461929321289 95.49839782714844 100.4834136962891 97.99090576171875 97.99090576171875 C 100.4834136962891 95.49839782714844 102.7461929321289 92.75590515136719 104.7164154052734 89.83959197998047 C 106.704833984375 86.89635467529297 108.4125213623047 83.750244140625 109.7920684814453 80.48866271972656 C 112.6620101928711 73.70333862304688 114.1171951293945 66.49320983886719 114.1171951293945 59.05859375 C 114.1171951293945 51.62397766113281 112.6620101928711 44.41384887695312 109.7920684814453 37.62852478027344 C 108.4125213623047 34.36693572998047 106.704833984375 31.22083282470703 104.7164154052734 28.27759552001953 C 102.7461929321289 25.36128234863281 100.4834136962891 22.61879730224609 97.99090576171875 20.12628173828125 C 95.49839782714844 17.63377380371094 92.75590515136719 15.37099456787109 89.83959197998047 13.40077209472656 C 86.89635467529297 11.41236114501953 83.750244140625 9.704666137695312 80.48866271972656 8.325119018554688 C 73.70333862304688 5.455177307128906 66.49320983886719 3.999992370605469 59.05859375 3.999992370605469 M 59.05859375 -7.62939453125e-06 C 91.67575836181641 -7.62939453125e-06 118.1171951293945 26.44142913818359 118.1171951293945 59.05859375 C 118.1171951293945 91.67575836181641 91.67575836181641 118.1171951293945 59.05859375 118.1171951293945 C 26.44142913818359 118.1171951293945 -7.62939453125e-06 91.67575836181641 -7.62939453125e-06 59.05859375 C -7.62939453125e-06 26.44142913818359 26.44142913818359 -7.62939453125e-06 59.05859375 -7.62939453125e-06 Z" stroke="none" fill="#53159b"/>
        </g>
      </g>
      <g id="Grupo_1197810" data-name="Grupo 1197810" transform="translate(521.506 645.808)">
        <path id="Trazado_1009046" data-name="Trazado 1009046" d="M247.236,84.855c-3.882-2.99-5.491-6.817-4.214-11.494A9.722,9.722,0,0,1,250.987,66c4.945-.937,8.688,1.062,11.328,5.325a11.014,11.014,0,0,1,6.022-5.056c6.909-2.451,14.5,3.632,13.6,10.9a10.739,10.739,0,0,1-4.04,7.26,1.744,1.744,0,0,0-.529,1.2c-.033,6.114-.105,12.229.014,18.341.055,2.818-1.006,5.209-4.649,5.774.192,4.013-1.492,6.955-5.525,8.783a6.082,6.082,0,0,0,1.334.382q7.23.013,14.459-.038a1.233,1.233,0,0,0,.883-.4,9.668,9.668,0,0,1,4.663-3.641,1.464,1.464,0,0,0,.314-.226,17.476,17.476,0,0,1-2.449-29.138,12.6,12.6,0,0,1-1.5-10.831,12.264,12.264,0,0,1,4.862-6.587,12.727,12.727,0,0,1,17.918,17.434c4.829,4.072,7.28,9.222,6.6,15.606-.674,6.36-4.176,10.83-9.728,13.827a8.69,8.69,0,0,1,.427.8,7.854,7.854,0,0,1,.24.871c.385,0,.795-.013,1.2,0a3.406,3.406,0,0,1,2.886,5.109,1.075,1.075,0,0,0,0,1.283,3.323,3.323,0,0,1-.014,3.42,1.17,1.17,0,0,0-.161.844c1.141,2.67.716,3.981-1.81,5.407.6,2.414-.74,4.739-3.995,4.732q-28.677-.055-57.354.006h-1c-.195-5.239-.563-10.443,3-14.785a55.853,55.853,0,0,1,4.317-4.262,8.185,8.185,0,0,1-5.054-8.6c-3.375-.629-4.652-2.177-4.653-5.546,0-2.879.055-5.759-.013-8.636A12.955,12.955,0,0,1,247.236,84.855Zm2.317,20.746c0,1.713-.016,3.425,0,5.138a5.78,5.78,0,0,0,5.83,5.855q4.6.039,9.209,0a5.7,5.7,0,0,0,5.774-5.691c.047-3.489.038-6.98.005-10.469a4.486,4.486,0,0,0-4.6-4.607q-5.816-.046-11.633,0a4.543,4.543,0,0,0-4.587,4.636C249.536,102.175,249.554,103.888,249.554,105.6ZM293.5,82.042c-3.449-.563-4.643-1.572-4.54-3.787a3.3,3.3,0,0,1,3.17-3.182,4.863,4.863,0,0,1,2.423.725c1.3.834,1.409,2.287,1.385,3.731h2.172a18.791,18.791,0,0,1,.227-1.874A3.46,3.46,0,1,1,301.67,81.9c-.937-.015-1.19.259-1.177,1.192.053,3.847.022,7.7.022,11.543v1.1h2.321c0-2.658-.025-5.242.025-7.825a1.8,1.8,0,0,1,.558-1.2c3.468-2.931,4.775-6.567,3.674-11A10.41,10.41,0,1,0,290.7,86.719a1.789,1.789,0,0,1,.561,1.2c.054,2.262.024,4.526.028,6.79,0,.343.029.686.047,1.065H293.5Zm-34.75-3.556a10.235,10.235,0,0,1-1.5-.019,3.329,3.329,0,0,1-.836-.428c-.451-.223-.975-.68-1.344-.579a1.563,1.563,0,0,0-.827,1.181c-.1,1.546-.041,3.1-.042,4.654,0,1.055,0,2.11,0,3.192h2.32a17.938,17.938,0,0,0-.013-1.88,1.593,1.593,0,0,1,.921-1.7,8.035,8.035,0,0,0,3.557-8.4A8.127,8.127,0,0,0,245.549,73a7.631,7.631,0,0,0,2.091,9.065,4.15,4.15,0,0,1,1.95,4.23c-.006.049.056.107.092.171h2.213c0-2.7.031-5.314-.035-7.927a1.5,1.5,0,0,0-.768-1.074,1.256,1.256,0,0,0-1.186.266c-.659,1.288-1.686.592-2.583.735a3.364,3.364,0,0,1,5.066-2.99,1.113,1.113,0,0,0,1.278.006A3.373,3.373,0,0,1,258.751,78.485Zm16.293,8.03a9.85,9.85,0,0,0-.01-1.346,2.31,2.31,0,0,1,1.236-2.5,7.857,7.857,0,0,0,2.647-9.889,8.1,8.1,0,0,0-15.322,1.9,7.892,7.892,0,0,0,3.8,8.374,1.285,1.285,0,0,1,.705,1.327c-.046.7-.011,1.4-.011,2.1h2.3c0-1.294,0-2.518,0-3.742,0-1.391.05-2.785-.036-4.17a1.126,1.126,0,0,0-1.984-.772,2.084,2.084,0,0,1-2.563.485c.4-3.021,2.906-4.094,5.794-2.449a3.462,3.462,0,0,1,4.138-.274,3.232,3.232,0,0,1,1.589,2.927c-.612,0-1.156.029-1.693-.014a.833.833,0,0,1-.605-.308,1.181,1.181,0,0,0-1.489-.753c-.729.207-.832.8-.829,1.464.01,2.3,0,4.593.008,6.89a6.6,6.6,0,0,0,.088.753Zm12.891.918c-4.782,3.124-7.132,10.3-5.315,16.106a15.048,15.048,0,0,0,14.95,10.709,15.2,15.2,0,0,0,14.058-11.137c1.753-6.716-1.541-13.089-5.468-15.655-1.4.99-1.451,1.531-.234,2.709a12.672,12.672,0,0,1-11.009,21.588,12.114,12.114,0,0,1-9.957-8.6c-1.594-4.916-.4-9.316,3.253-13C289.326,89.025,289.3,88.468,287.934,87.434Zm14.815,29.222a2.926,2.926,0,0,0-.455-.07c-3.651,0-7.3-.048-10.954.023a6.534,6.534,0,0,0-5.33,2.9,2.931,2.931,0,0,0-.521,1.587c-.041,4.33-.024,8.66-.021,12.99,0,.308.036.617.056.934h7.949V123.5l-1.692,1.014-.866-1.731c.995-1.166,1.932-2.166,2.74-3.261a1.25,1.25,0,0,1,1.15-.647c1.842.026,3.684.035,5.525,0A2.174,2.174,0,0,0,302.749,116.656Zm-31.926,4.6c3.85,4.02,4.544,8.753,4.18,13.756h8.112V121.252ZM288.95,92.9a10.256,10.256,0,0,0,1.441,14.36,10.465,10.465,0,0,0,14.989-1.737c3.334-4.347,2.221-10.313-.256-12.493,0,1.517.039,2.966-.008,4.411a8.089,8.089,0,0,1-16.163-.561C288.933,95.628,288.95,94.379,288.95,92.9Zm-23.869,31.379-.363.31-1.8-2.585-.4.273a3.417,3.417,0,0,0,.008.793q1.4,5.69,2.835,11.369c.062.244.372.6.572.608,2.22.043,4.442.027,6.648.027.708-5.939-.839-11.18-6.071-14.275Zm-9.889.17-.323-.211-1.434-3.443c-4.58,2.442-7.312,8.967-6.029,14.249h7.047c1.01-4.269,2.243-8.468,3.107-12.751l-.458-.253ZM266.95,93.494c-1.447-1.934-1.2-4.1-1.207-6.216,0-.55,0-1.1,0-1.65-.005-1.092-.284-1.4-1.352-1.409-1.391-.015-2.782-.012-4.174,0-1.056.009-1.333.336-1.382,1.393-.122,2.64.541,5.379-1.139,7.883Zm-3.959,41.545a1.594,1.594,0,0,0,.022-.376q-1.314-5.305-2.647-10.605c-.046-.181-.25-.321-.381-.48a2.433,2.433,0,0,0-.428.647q-1,3.839-1.948,7.69c-.252,1.015-.474,2.037-.725,3.125Zm39.574-36.847H291.484a5.58,5.58,0,0,0,5.886,4.491C300.012,102.567,302.439,100.483,302.565,98.192ZM247.2,100.344c.378-2.695.538-3.024,2.69-5.5-2.371-1.523-2.844-3.875-2.581-6.752-3.336,4.059-2.144,8.538-2.406,12.823ZM296,81.991V95.759h2.106V81.991Zm2.11,53.02V121.218h-2.132v13.793ZM249.62,88.92a3.711,3.711,0,0,0,1.546,4.012,3.351,3.351,0,0,0,3.828-.06,3.619,3.619,0,0,0,1.385-3.953Zm18.526,0c-.217,1.736.153,3.138,1.625,4.051a3.23,3.23,0,0,0,3.74-.092,3.729,3.729,0,0,0,1.471-3.959Zm32.481,41.5c1.854,0,3.662,0,5.47,0,.786,0,1.363-.324,1.353-1.169s-.6-1.147-1.381-1.145c-1.229,0-2.458,0-3.688.012C300.288,128.131,300.288,128.133,300.626,130.42ZM274.995,94.93l-3.555,1.011c.4,1.3.825,2.727,1.285,4.14a.747.747,0,0,0,.458.379c.58.172,1.175.292,1.812.443Zm25.572,30.832c2.006,0,3.9.017,5.8-.009.676-.009,1.18-.447,1.056-1.093-.081-.42-.6-1.055-.951-1.074-1.946-.1-3.9-.05-5.9-.05Zm.012,9.288a28.946,28.946,0,0,0,3.511-.05,1.467,1.467,0,0,0,.966-1.051,1.442,1.442,0,0,0-.848-1.138,30.566,30.566,0,0,0-3.629-.055Zm1.456-13.9c1.386,0,2.865.047,4.336-.034a1.488,1.488,0,0,0,1-.731,1.258,1.258,0,0,0-.188-1.052c-.424-.625-2.368-.615-2.922-.1C303.545,119.9,302.778,120.512,302.036,121.145Zm-29.272-13.873a2.221,2.221,0,0,0,2.273-2.309,2.182,2.182,0,0,0-2.273-2.137Zm-25.536.027v-4.484a2.194,2.194,0,0,0-2.3,2.121C244.874,106.225,245.7,107.116,247.228,107.3Zm53.365-27.713c.767-.081,1.646.321,2.058-.6a1.365,1.365,0,0,0-.191-1.267,1.523,1.523,0,0,0-1.363-.174C300.293,77.947,300.5,78.763,300.593,79.586Zm-7.106-.042c.088-.769.311-1.585-.492-2.011a1.1,1.1,0,0,0-1.566,1.412C291.815,79.888,292.7,79.55,293.488,79.544ZM261.21,120.585l-1.268-1.212-1.176,1.185c.5.273.848.612,1.2.616S260.687,120.85,261.21,120.585Zm-4.347-1.611h-1.594l.464,1.3Zm7.831.025h-1.83l1.343,1.261Z" transform="translate(0 0)" fill="url(#linear-gradient)"/>
        <path id="Trazado_1009047" data-name="Trazado 1009047" d="M345.055,236.122a3.453,3.453,0,0,1-3.483,3.407,3.451,3.451,0,1,1,.088-6.9A3.449,3.449,0,0,1,345.055,236.122Zm-2.343-.033a1.116,1.116,0,0,0-2.231-.011.993.993,0,0,0,1.065,1.1A1.025,1.025,0,0,0,342.711,236.089Z" transform="translate(-76.978 -134.505)" fill="url(#linear-gradient)"/>
        <path id="Trazado_1009048" data-name="Trazado 1009048" d="M290.591,236.069a3.407,3.407,0,0,1,3.421-3.447,3.452,3.452,0,1,1-.007,6.9A3.412,3.412,0,0,1,290.591,236.069Zm4.645.28c-.153-1.037-.556-1.422-1.289-1.378a1,1,0,0,0-1.032,1.145c.031.735.5,1.191,1.2,1.026C294.575,237.035,294.947,236.566,295.236,236.349Z" transform="translate(-38.687 -134.5)" fill="url(#linear-gradient)"/>
        <path id="Trazado_1009049" data-name="Trazado 1009049" d="M315.5,282.845l-1.564,1.494c-3.278-2.478-4.553-2.479-7.63.008l-1.514-1.553C307.592,279.3,312.429,279.281,315.5,282.845Z" transform="translate(-50.135 -172.821)" fill="url(#linear-gradient)"/>
      </g>
    </g>
  </g>
</svg>
