<svg xmlns="http://www.w3.org/2000/svg" xmlns:xlink="http://www.w3.org/1999/xlink" width="118.117" height="118.117" viewBox="0 0 118.117 118.117">
  <defs>
    <linearGradient id="linear-gradient" x1="0.548" y1="0.897" x2="0.5" y2="-0.354" gradientUnits="objectBoundingBox">
      <stop offset="0" stop-color="#045e61"/>
      <stop offset="1" stop-color="#3ef989"/>
    </linearGradient>
  </defs>
  <g id="Grupo_1197968" data-name="Grupo 1197968" transform="translate(-740.883 -1288.941)">
    <g id="Grupo_1197919" data-name="Grupo 1197919">
      <g id="Grupo_1192986" data-name="Grupo 1192986" transform="translate(740.883 1288.941)">
        <g id="Trazado_995327" data-name="Trazado 995327" transform="translate(0)" fill="#fff">
          <path d="M 59.05859375 116.1171951293945 C 51.35486221313477 116.1171951293945 43.88261032104492 114.6088409423828 36.84942626953125 111.6340637207031 C 33.46891021728516 110.2042236328125 30.20824432373047 108.4343566894531 27.15799331665039 106.3736572265625 C 24.13620948791504 104.3321914672852 21.29459381103516 101.9876251220703 18.71207618713379 99.40511322021484 C 16.12957763671875 96.82259368896484 13.78501033782959 93.98097991943359 11.74354362487793 90.95919036865234 C 9.682826995849609 87.90895843505859 7.91297721862793 84.64827728271484 6.48314380645752 81.26776123046875 C 3.508343696594238 74.23457336425781 2.00001049041748 66.7623291015625 2.00001049041748 59.05859375 C 2.00001049041748 51.35486221313477 3.508343696594238 43.88261032104492 6.48314380645752 36.84942626953125 C 7.91297721862793 33.46891021728516 9.682826995849609 30.20824432373047 11.74354362487793 27.15799331665039 C 13.78501033782959 24.13620948791504 16.12957763671875 21.29459381103516 18.71207618713379 18.71207618713379 C 21.29459381103516 16.12957763671875 24.13620948791504 13.78501033782959 27.15799331665039 11.74354362487793 C 30.20824432373047 9.682826995849609 33.46891021728516 7.91297721862793 36.84942626953125 6.48314380645752 C 43.88261032104492 3.508343696594238 51.35486221313477 2.00001049041748 59.05859375 2.00001049041748 C 66.7623291015625 2.00001049041748 74.23457336425781 3.508343696594238 81.26776123046875 6.48314380645752 C 84.64827728271484 7.91297721862793 87.90895843505859 9.682826995849609 90.95919036865234 11.74354362487793 C 93.98097991943359 13.78501033782959 96.82259368896484 16.12957763671875 99.40511322021484 18.71207618713379 C 101.9876251220703 21.29459381103516 104.3321914672852 24.13620948791504 106.3736572265625 27.15799331665039 C 108.4343566894531 30.20824432373047 110.2042236328125 33.46891021728516 111.6340637207031 36.84942626953125 C 114.6088409423828 43.88261032104492 116.1171951293945 51.35486221313477 116.1171951293945 59.05859375 C 116.1171951293945 66.7623291015625 114.6088409423828 74.23457336425781 111.6340637207031 81.26776123046875 C 110.2042236328125 84.64827728271484 108.4343566894531 87.90895843505859 106.3736572265625 90.95919036865234 C 104.3321914672852 93.98097991943359 101.9876251220703 96.82259368896484 99.40511322021484 99.40511322021484 C 96.82259368896484 101.9876251220703 93.98097991943359 104.3321914672852 90.95919036865234 106.3736572265625 C 87.90895843505859 108.4343566894531 84.64827728271484 110.2042236328125 81.26776123046875 111.6340637207031 C 74.23457336425781 114.6088409423828 66.7623291015625 116.1171951293945 59.05859375 116.1171951293945 Z" stroke="none"/>
          <path d="M 59.05859375 3.999992370605469 C 51.62397766113281 3.999992370605469 44.41384887695312 5.455177307128906 37.62852478027344 8.325119018554688 C 34.36693572998047 9.704666137695312 31.22083282470703 11.41236114501953 28.27759552001953 13.40077209472656 C 25.36128234863281 15.37099456787109 22.61879730224609 17.63377380371094 20.12628173828125 20.12628173828125 C 17.63377380371094 22.61879730224609 15.37099456787109 25.36128234863281 13.40077209472656 28.27759552001953 C 11.41236114501953 31.22083282470703 9.704666137695312 34.36693572998047 8.325119018554688 37.62852478027344 C 5.455177307128906 44.41384887695312 3.999992370605469 51.62397766113281 3.999992370605469 59.05859375 C 3.999992370605469 66.49320983886719 5.455177307128906 73.70333862304688 8.325119018554688 80.48866271972656 C 9.704666137695312 83.750244140625 11.41236114501953 86.89635467529297 13.40077209472656 89.83959197998047 C 15.37099456787109 92.75590515136719 17.63377380371094 95.49839782714844 20.12628173828125 97.99090576171875 C 22.61879730224609 100.4834136962891 25.36128234863281 102.7461929321289 28.27759552001953 104.7164154052734 C 31.22083282470703 106.704833984375 34.36693572998047 108.4125213623047 37.62852478027344 109.7920684814453 C 44.41384887695312 112.6620101928711 51.62397766113281 114.1171951293945 59.05859375 114.1171951293945 C 66.49320983886719 114.1171951293945 73.70333862304688 112.6620101928711 80.48866271972656 109.7920684814453 C 83.750244140625 108.4125213623047 86.89635467529297 106.704833984375 89.83959197998047 104.7164154052734 C 92.75590515136719 102.7461929321289 95.49839782714844 100.4834136962891 97.99090576171875 97.99090576171875 C 100.4834136962891 95.49839782714844 102.7461929321289 92.75590515136719 104.7164154052734 89.83959197998047 C 106.704833984375 86.89635467529297 108.4125213623047 83.750244140625 109.7920684814453 80.48866271972656 C 112.6620101928711 73.70333862304688 114.1171951293945 66.49320983886719 114.1171951293945 59.05859375 C 114.1171951293945 51.62397766113281 112.6620101928711 44.41384887695312 109.7920684814453 37.62852478027344 C 108.4125213623047 34.36693572998047 106.704833984375 31.22083282470703 104.7164154052734 28.27759552001953 C 102.7461929321289 25.36128234863281 100.4834136962891 22.61879730224609 97.99090576171875 20.12628173828125 C 95.49839782714844 17.63377380371094 92.75590515136719 15.37099456787109 89.83959197998047 13.40077209472656 C 86.89635467529297 11.41236114501953 83.750244140625 9.704666137695312 80.48866271972656 8.325119018554688 C 73.70333862304688 5.455177307128906 66.49320983886719 3.999992370605469 59.05859375 3.999992370605469 M 59.05859375 -7.62939453125e-06 C 91.67575836181641 -7.62939453125e-06 118.1171951293945 26.44142913818359 118.1171951293945 59.05859375 C 118.1171951293945 91.67575836181641 91.67575836181641 118.1171951293945 59.05859375 118.1171951293945 C 26.44142913818359 118.1171951293945 -7.62939453125e-06 91.67575836181641 -7.62939453125e-06 59.05859375 C -7.62939453125e-06 26.44142913818359 26.44142913818359 -7.62939453125e-06 59.05859375 -7.62939453125e-06 Z" stroke="none" fill="#53159b"/>
        </g>
      </g>
      <g id="Grupo_1197807" data-name="Grupo 1197807" transform="translate(529.121 1261.774)">
        <path id="Trazado_1009008" data-name="Trazado 1009008" d="M235.1,109.107c-.121-1.127-.312-2.089-.314-3.051q-.031-17.012-.012-34.024c0-3.3,1.531-4.837,4.814-4.838q8.48,0,16.959,0h1.209c2-7.148,2.923-8.806,6.514-11.745-.333-1.624-.292-1.669,1.787-1.9a29.714,29.714,0,0,1-1.144-2.894,12.883,12.883,0,0,1-.542-3.085c-.049-1.553.787-2.321,2.339-2.33q4.161-.024,8.322,0a2.1,2.1,0,0,1,2.37,2.324,11.591,11.591,0,0,1-1.419,5.229c-.1.214-.2.43-.324.7.6.12,1.262.07,1.614.376.3.264.254.933.25,1.459a17.481,17.481,0,0,1,6.4,11.862H285.2q8.532,0,17.065,0,4.714,0,4.718,4.725.007,17.17-.013,34.34a24.988,24.988,0,0,1-.341,2.85c.424,0,.958,0,1.493,0a.979.979,0,0,1,1.1,1.108c-.006,1.545.055,3.093-.032,4.634a5.136,5.136,0,0,1-4.814,4.737c-.35.025-.7.02-1.053.02q-32.444,0-64.888.014c-2.386,0-4.276-.765-5.365-2.963a5.622,5.622,0,0,1-.51-2.12c-.08-1.365,0-2.738-.038-4.107-.024-.938.373-1.374,1.315-1.33C234.287,109.125,234.74,109.107,235.1,109.107Zm65.332-4.7V73.791a2.8,2.8,0,0,0-.459-.086c-5.547-.005-11.094-.015-16.641.016a1.254,1.254,0,0,0-.885.539,11,11,0,0,1-7.763,5.088c-.915.173-1.842.29-2.768.433v4.895h4.56c4.283,0,8.567-.008,12.85,0,1.812.006,2.64.846,2.659,2.632,0,.4,0,.809,0,1.289,1.4,0,2.626-.009,3.85,0,1.356.013,1.96.566,1.969,1.9q.033,4.9,0,9.8c-.008,1.3-.565,1.886-1.859,1.9q-4.844.043-9.69,0c-1.373-.011-1.884-.572-1.888-1.958q-.014-4.74,0-9.48c0-1.642.5-2.147,2.118-2.155,1.211-.006,2.422,0,3.605,0,.251-2.057.243-2.066-1.618-2.066H271.92V88.6c1.95,0,3.838-.005,5.725,0,1.856.007,2.713.853,2.717,2.687q.009,4.108,0,8.216c0,1.809-.815,2.682-2.6,2.691q-7.11.034-14.219,0c-1.835-.007-2.627-.821-2.639-2.647-.015-2.387.058-4.777-.02-7.162-.093-2.834.366-3.979,3.842-3.8,1.738.088,3.485.015,5.236.015V86.536H253.573c-2.009,0-2.009,0-1.786,2.046,4.509,1.7,6.371,4.32,5.71,8.033a6.822,6.822,0,0,1-13.342.322c-.8-3.911.857-6.386,5.65-8.386.013-.188.038-.4.042-.6.053-2.642.692-3.271,3.331-3.271h16.789v-4.94c-.544-.054-1.03-.089-1.513-.151-3.782-.485-7.016-1.9-9.134-5.288a1.6,1.6,0,0,0-1.175-.575c-5.3-.038-10.6-.027-15.9-.022-.3,0-.6.05-.922.079v30.631ZM283.533,71.9h1.33q7.9,0,15.8,0c1.5,0,1.662.162,1.663,1.6q0,15.591,0,31.182c0,1.452-.176,1.623-1.653,1.623q-29.812,0-59.624,0c-1.451,0-1.622-.175-1.622-1.653q0-15.538,0-31.076c0-1.528.148-1.675,1.692-1.676q7.9,0,15.8,0h1.3c-.155-1.009-.291-1.9-.44-2.868h-1.063q-8.638,0-17.276,0c-2.049,0-2.881.82-2.881,2.856q0,17.171,0,34.342c0,2.108.759,2.88,2.832,2.88q31.5,0,63,0c2.015,0,2.8-.785,2.8-2.805q0-17.224,0-34.447c0-1.973-.849-2.823-2.807-2.824q-8.691,0-17.382,0h-1.038Zm-49.161,39.115c0,1.3-.032,2.5.009,3.686a2.775,2.775,0,0,0,1.517,2.491,5.567,5.567,0,0,0,2.4.563q32.587.044,65.174.022c.316,0,.633,0,.947-.025a3.188,3.188,0,0,0,2.87-2.54,38.576,38.576,0,0,0,.034-4.195H281.611a2.741,2.741,0,0,0-.078.356c-.206,3.12-1.039,3.9-4.187,3.9q-6.58,0-13.161,0c-2.881,0-3.8-.884-3.958-3.8a4.435,4.435,0,0,0-.076-.454Zm36.115-55.592a6.292,6.292,0,0,0-4.35.992c-4.664,3.291-6.9,7.778-6.374,13.458a7.78,7.78,0,0,0,4.745,6.735,15.489,15.489,0,0,0,12.664.04,7.829,7.829,0,0,0,4.585-5.563,12.722,12.722,0,0,0-.8-8.224C278.973,58.037,275.414,55.419,270.487,55.419Zm15.781,44.894h9.622V90.506h-9.622Zm-8.118-4.643.342-.182c0-1.355-.042-2.711.016-4.063.035-.824-.314-1.015-1.057-1-1.683.038-3.367.011-5.051.011-2.876,0-5.753-.019-8.629.026-.349.005-.986.351-.993.556-.073,2.151-.045,4.3-.045,6.458l.324.181c.677-.747,1.361-1.488,2.029-2.243a1.121,1.121,0,0,1,1.941.027c.535.638,1.035,1.306,1.669,2.111,1.809-1.868,3.3-3.4,4.778-4.942a1.073,1.073,0,0,1,1.793,0C276.224,93.634,277.189,94.65,278.151,95.669Zm-7.218-48.6c-1.226,0-2.456.06-3.677-.019-1.011-.065-1.322.418-1.042,1.238.56,1.642,1.205,3.258,1.89,4.852a1.224,1.224,0,0,0,.93.468c1.224.055,2.452.047,3.677,0a1.226,1.226,0,0,0,.883-.381,11.907,11.907,0,0,0,1.995-5.244c.074-.67-.164-.954-.873-.931C273.456,47.1,272.194,47.069,270.933,47.068ZM250.8,90.451a4.92,4.92,0,0,0-4.989,4.9,4.981,4.981,0,1,0,9.962.011A4.912,4.912,0,0,0,250.8,90.451Zm11.329,20.572c-.193,2.045.148,2.441,2.032,2.442q6.731,0,13.463,0c1.86,0,2.233-.45,1.982-2.442ZM274.6,94.415l-4.289,4.23c1.535,1.754,1.535,1.754,3.84,1.754,1.016,0,2.034.03,3.049-.014.418-.018,1.176-.174,1.184-.3a3.119,3.119,0,0,0-.245-1.956C277.032,96.776,275.736,95.585,274.6,94.415Zm-5.632,5.909-2.878-2.936-3.123,2.936Z" fill="url(#linear-gradient)"/>
        <path id="Trazado_1009009" data-name="Trazado 1009009" d="M381.446,124.687c-1.229.165-2.148-.136-2.515-1.481-.05-.182-.748-.4-.975-.284a1.861,1.861,0,0,1-2.51-.567c-.771-.842-1.842-1.533-.95-2.936.323-.508.112-.933-.522-1.082-1.109-.26-1.351-1.075-1.341-2.078.011-1.128-.15-2.331,1.311-2.741.775-.218.824-.656.463-1.257a1.543,1.543,0,0,1,.369-2.075c.323-.322.641-.648.968-.965a1.521,1.521,0,0,1,1.993-.347c.644.373,1.118.32,1.337-.5a1.553,1.553,0,0,1,1.742-1.2c.456.012.912.01,1.367,0a1.506,1.506,0,0,1,1.663,1.153c.21.779.63.963,1.313.564a1.555,1.555,0,0,1,2.076.371c.32.324.647.642.967.966a1.507,1.507,0,0,1,.348,1.993c-.391.66-.326,1.089.5,1.315a1.632,1.632,0,0,1,1.243,1.734c0,.421.005.842,0,1.262A1.636,1.636,0,0,1,389,118.325c-.692.164-.9.587-.538,1.154.824,1.3-.135,1.982-.87,2.775s-1.466,1.272-2.581.685c-.24-.127-.951.066-.994.23C383.653,124.575,382.69,124.859,381.446,124.687Zm4.471-3.425c.7-.458,1.091-.927.507-1.733a1.149,1.149,0,0,1,.013-.885c.348-.986.63-2.061,1.95-2.04v-1.279c-1.742-.684-2.18-1.659-1.719-3.556a1.034,1.034,0,0,0-.391-.833,1.047,1.047,0,0,0-.879-.073,2.61,2.61,0,0,1-3.117-1.26,1.059,1.059,0,0,0-.776-.572,1.228,1.228,0,0,0-.858.608A2.7,2.7,0,0,1,377.6,110.9a1.147,1.147,0,0,0-1.023.142c-.2.209-.161.688-.161,1.048s.21.766.105,1.076c-.331.982-.624,2.059-1.949,2.075v1.309c1.314.463,2.438,2.039,1.96,2.917s-.28,1.344.49,1.765c1.674-.743,2.756-.343,3.7,1.3a.987.987,0,0,0,.766.334.976.976,0,0,0,.738-.374A2.493,2.493,0,0,1,385.917,121.262Z" transform="translate(-110.592 -48.894)" fill="url(#linear-gradient)"/>
        <path id="Trazado_1009010" data-name="Trazado 1009010" d="M501.415,266.059a4.065,4.065,0,0,1-1.354-.032c-.386-.144-.669-.561-1-.858.308-.315.587-.858.93-.9a11.574,11.574,0,0,1,2.931,0c.347.045.63.583.942.9-.327.3-.608.731-.993.863A4.728,4.728,0,0,1,501.415,266.059Z" transform="translate(-210.383 -172.814)" fill="url(#linear-gradient)"/>
        <path id="Trazado_1009011" data-name="Trazado 1009011" d="M501.666,295.439a4.987,4.987,0,0,1-1.457-.033c-.35-.111-.828-.517-.839-.807a1.167,1.167,0,0,1,.749-.881,15.054,15.054,0,0,1,3.134,0,1.177,1.177,0,0,1,.791.851c0,.293-.471.732-.817.836A5.658,5.658,0,0,1,501.666,295.439Z" transform="translate(-210.625 -196.069)" fill="url(#linear-gradient)"/>
        <path id="Trazado_1009012" data-name="Trazado 1009012" d="M501.607,280.816a6.01,6.01,0,0,1-1.557-.109c-.314-.1-.751-.578-.713-.82a1.236,1.236,0,0,1,.784-.868,14.99,14.99,0,0,1,3.136.005c.3.033.716.554.762.894.032.238-.431.712-.746.793a6.9,6.9,0,0,1-1.665.036Z" transform="translate(-210.597 -184.47)" fill="url(#linear-gradient)"/>
        <path id="Trazado_1009013" data-name="Trazado 1009013" d="M404.7,272.266c-.357.226-.721.637-1.07.625-.319-.011-.622-.479-.932-.746.3-.318.561-.836.9-.9.32-.056.725.375,1.093.591Z" transform="translate(-134.324 -178.396)" fill="url(#linear-gradient)"/>
        <path id="Trazado_1009014" data-name="Trazado 1009014" d="M307.088,266.732a4.883,4.883,0,0,1,.751.291c1.1.611,2.2,1.22,3.275,1.878a1.436,1.436,0,0,1,.016,2.659c-1.07.662-2.158,1.3-3.266,1.891-1.261.677-2.276.095-2.307-1.31-.028-1.294-.025-2.589,0-3.884A1.443,1.443,0,0,1,307.088,266.732Zm.368,2.177v2.678l2.316-1.355Z" transform="translate(-57.633 -174.835)" fill="url(#linear-gradient)"/>
        <path id="Trazado_1009015" data-name="Trazado 1009015" d="M399.231,137.473a4.088,4.088,0,1,1,4.1-4.053A4.089,4.089,0,0,1,399.231,137.473Zm.005-1.823a2.338,2.338,0,0,0,2.294-2.279,2.3,2.3,0,0,0-4.594,0A2.341,2.341,0,0,0,399.237,135.65Z" transform="translate(-128.357 -66.357)" fill="url(#linear-gradient)"/>
      </g>
    </g>
  </g>
</svg>
