<svg xmlns="http://www.w3.org/2000/svg" xmlns:xlink="http://www.w3.org/1999/xlink" width="118.117" height="118.117" viewBox="0 0 118.117 118.117">
  <defs>
    <linearGradient id="linear-gradient" x1="0.69" y1="0.979" x2="0.369" y2="-0.609" gradientUnits="objectBoundingBox">
      <stop offset="0" stop-color="#045e61"/>
      <stop offset="1" stop-color="#3ef989"/>
    </linearGradient>
  </defs>
  <g id="Grupo_1197968" data-name="Grupo 1197968" transform="translate(-1156.941 -688.305)">
    <g id="Grupo_1197902" data-name="Grupo 1197902">
      <g id="Grupo_1192986" data-name="Grupo 1192986" transform="translate(1156.941 688.305)">
        <g id="Trazado_995327" data-name="Trazado 995327" transform="translate(0)" fill="#fff">
          <path d="M 59.05859375 116.1171951293945 C 51.35486221313477 116.1171951293945 43.88261032104492 114.6088409423828 36.84942626953125 111.6340637207031 C 33.46891021728516 110.2042236328125 30.20824432373047 108.4343566894531 27.15799331665039 106.3736572265625 C 24.13620948791504 104.3321914672852 21.29459381103516 101.9876251220703 18.71207618713379 99.40511322021484 C 16.12957763671875 96.82259368896484 13.78501033782959 93.98097991943359 11.74354362487793 90.95919036865234 C 9.682826995849609 87.90895843505859 7.91297721862793 84.64827728271484 6.48314380645752 81.26776123046875 C 3.508343696594238 74.23457336425781 2.00001049041748 66.7623291015625 2.00001049041748 59.05859375 C 2.00001049041748 51.35486221313477 3.508343696594238 43.88261032104492 6.48314380645752 36.84942626953125 C 7.91297721862793 33.46891021728516 9.682826995849609 30.20824432373047 11.74354362487793 27.15799331665039 C 13.78501033782959 24.13620948791504 16.12957763671875 21.29459381103516 18.71207618713379 18.71207618713379 C 21.29459381103516 16.12957763671875 24.13620948791504 13.78501033782959 27.15799331665039 11.74354362487793 C 30.20824432373047 9.682826995849609 33.46891021728516 7.91297721862793 36.84942626953125 6.48314380645752 C 43.88261032104492 3.508343696594238 51.35486221313477 2.00001049041748 59.05859375 2.00001049041748 C 66.7623291015625 2.00001049041748 74.23457336425781 3.508343696594238 81.26776123046875 6.48314380645752 C 84.64827728271484 7.91297721862793 87.90895843505859 9.682826995849609 90.95919036865234 11.74354362487793 C 93.98097991943359 13.78501033782959 96.82259368896484 16.12957763671875 99.40511322021484 18.71207618713379 C 101.9876251220703 21.29459381103516 104.3321914672852 24.13620948791504 106.3736572265625 27.15799331665039 C 108.4343566894531 30.20824432373047 110.2042236328125 33.46891021728516 111.6340637207031 36.84942626953125 C 114.6088409423828 43.88261032104492 116.1171951293945 51.35486221313477 116.1171951293945 59.05859375 C 116.1171951293945 66.7623291015625 114.6088409423828 74.23457336425781 111.6340637207031 81.26776123046875 C 110.2042236328125 84.64827728271484 108.4343566894531 87.90895843505859 106.3736572265625 90.95919036865234 C 104.3321914672852 93.98097991943359 101.9876251220703 96.82259368896484 99.40511322021484 99.40511322021484 C 96.82259368896484 101.9876251220703 93.98097991943359 104.3321914672852 90.95919036865234 106.3736572265625 C 87.90895843505859 108.4343566894531 84.64827728271484 110.2042236328125 81.26776123046875 111.6340637207031 C 74.23457336425781 114.6088409423828 66.7623291015625 116.1171951293945 59.05859375 116.1171951293945 Z" stroke="none"/>
          <path d="M 59.05859375 3.999992370605469 C 51.62397766113281 3.999992370605469 44.41384887695312 5.455177307128906 37.62852478027344 8.325119018554688 C 34.36693572998047 9.704666137695312 31.22083282470703 11.41236114501953 28.27759552001953 13.40077209472656 C 25.36128234863281 15.37099456787109 22.61879730224609 17.63377380371094 20.12628173828125 20.12628173828125 C 17.63377380371094 22.61879730224609 15.37099456787109 25.36128234863281 13.40077209472656 28.27759552001953 C 11.41236114501953 31.22083282470703 9.704666137695312 34.36693572998047 8.325119018554688 37.62852478027344 C 5.455177307128906 44.41384887695312 3.999992370605469 51.62397766113281 3.999992370605469 59.05859375 C 3.999992370605469 66.49320983886719 5.455177307128906 73.70333862304688 8.325119018554688 80.48866271972656 C 9.704666137695312 83.750244140625 11.41236114501953 86.89635467529297 13.40077209472656 89.83959197998047 C 15.37099456787109 92.75590515136719 17.63377380371094 95.49839782714844 20.12628173828125 97.99090576171875 C 22.61879730224609 100.4834136962891 25.36128234863281 102.7461929321289 28.27759552001953 104.7164154052734 C 31.22083282470703 106.704833984375 34.36693572998047 108.4125213623047 37.62852478027344 109.7920684814453 C 44.41384887695312 112.6620101928711 51.62397766113281 114.1171951293945 59.05859375 114.1171951293945 C 66.49320983886719 114.1171951293945 73.70333862304688 112.6620101928711 80.48866271972656 109.7920684814453 C 83.750244140625 108.4125213623047 86.89635467529297 106.704833984375 89.83959197998047 104.7164154052734 C 92.75590515136719 102.7461929321289 95.49839782714844 100.4834136962891 97.99090576171875 97.99090576171875 C 100.4834136962891 95.49839782714844 102.7461929321289 92.75590515136719 104.7164154052734 89.83959197998047 C 106.704833984375 86.89635467529297 108.4125213623047 83.750244140625 109.7920684814453 80.48866271972656 C 112.6620101928711 73.70333862304688 114.1171951293945 66.49320983886719 114.1171951293945 59.05859375 C 114.1171951293945 51.62397766113281 112.6620101928711 44.41384887695312 109.7920684814453 37.62852478027344 C 108.4125213623047 34.36693572998047 106.704833984375 31.22083282470703 104.7164154052734 28.27759552001953 C 102.7461929321289 25.36128234863281 100.4834136962891 22.61879730224609 97.99090576171875 20.12628173828125 C 95.49839782714844 17.63377380371094 92.75590515136719 15.37099456787109 89.83959197998047 13.40077209472656 C 86.89635467529297 11.41236114501953 83.750244140625 9.704666137695312 80.48866271972656 8.325119018554688 C 73.70333862304688 5.455177307128906 66.49320983886719 3.999992370605469 59.05859375 3.999992370605469 M 59.05859375 -7.62939453125e-06 C 91.67575836181641 -7.62939453125e-06 118.1171951293945 26.44142913818359 118.1171951293945 59.05859375 C 118.1171951293945 91.67575836181641 91.67575836181641 118.1171951293945 59.05859375 118.1171951293945 C 26.44142913818359 118.1171951293945 -7.62939453125e-06 91.67575836181641 -7.62939453125e-06 59.05859375 C -7.62939453125e-06 26.44142913818359 26.44142913818359 -7.62939453125e-06 59.05859375 -7.62939453125e-06 Z" stroke="none" fill="#53159b"/>
        </g>
      </g>
      <g id="Grupo_1197811" data-name="Grupo 1197811" transform="translate(938.171 638.155)">
        <path id="Trazado_1009050" data-name="Trazado 1009050" d="M250.144,119.951v-14.4c-.971.958-1.754,1.824-2.643,2.564a1.973,1.973,0,0,1-1.431.438c-.94-.183-1.134-1.323-.385-2.1,1.27-1.319,2.615-2.566,3.856-3.91a2.429,2.429,0,0,0,.619-1.483c.043-5.562.025-11.125.028-16.688,0-4.387,2.579-6.974,6.942-6.982q4.528-.009,9.055-.022a1.543,1.543,0,0,0,.324-.12c0-.507,0-1.071,0-1.635,0-1.832-.023-3.664.009-5.495a2.522,2.522,0,0,1,2.742-2.725q8.548-.022,17.1,0a2.539,2.539,0,0,1,2.787,2.785c.027,2,.007,4,.008,6V77.39h8.929c5,0,7.394,2.414,7.394,7.448q0,9.057,0,18.113v1.4l1.914-1.871c.291-.284.575-.576.874-.852A1.246,1.246,0,1,1,310,103.4c-1.33,1.355-2.7,2.676-4.011,4.044a1.708,1.708,0,0,0-.5,1.031c-.034,3.663-.02,7.326-.015,10.99a3.628,3.628,0,0,0,.079.485h6.51c2.628,0,3.415.78,3.415,3.381q0,8.039,0,16.078c0,2.2-.889,3.081-3.091,3.083q-8.192,0-16.383,0c-2.255,0-3.108-.87-3.11-3.158,0-2.232,0-4.465,0-6.771h-30.14c0,2.233,0,4.428,0,6.623,0,2.494-.8,3.306-3.267,3.307q-8.09,0-16.18,0c-2.269,0-3.137-.869-3.138-3.138q0-8.141,0-16.281c0-2.251.88-3.117,3.162-3.122C245.57,119.948,247.8,119.951,250.144,119.951Zm52.784,0c0-3.981.013-7.809-.024-11.637a1.627,1.627,0,0,0-.544-.91c-1.254-1.288-2.542-2.543-3.805-3.823-.727-.737-.816-1.515-.208-2.032.72-.612,1.38-.363,1.961.254.78.828,1.552,1.663,2.327,2.494a2.133,2.133,0,0,0,.3-1.129q0-9.516,0-19.031c0-2.744-1.464-4.229-4.2-4.248-2.883-.02-5.767-.007-8.651,0a8.069,8.069,0,0,0-.82.079,1.448,1.448,0,0,0-.093.3q-.014,3.205-.021,6.411c-.007,2.362-.895,3.254-3.258,3.255q-7.989,0-15.978,0c-2.581,0-3.4-.825-3.4-3.412,0-2.165,0-4.331,0-6.566-.4-.026-.693-.063-.989-.063-2.85,0-5.7-.015-8.549,0-2.793.015-4.241,1.49-4.244,4.3-.005,5.564.011,11.127-.017,16.691a2.191,2.191,0,0,0,.732,1.779c1.286,1.206,2.51,2.479,3.758,3.725a1.264,1.264,0,0,1,.192,1.891c-.5.592-1.244.546-1.957-.124-.691-.65-1.345-1.341-2.024-2a7.651,7.651,0,0,0-.606-.482v14.284c2.346,0,4.613-.005,6.881,0,2.186.007,3.07.9,3.073,3.1,0,2.267,0,4.534,0,6.868H292.9c0-2.305,0-4.54,0-6.774,0-2.337.852-3.194,3.181-3.2C298.314,119.948,300.547,119.951,302.928,119.951Zm-60.215,2.576v17.411h2.511a6.636,6.636,0,0,1,2.658-6.362c-1.936-2.741-1.869-5.309.129-7.227a5.011,5.011,0,0,1,6.516-.345,4.79,4.79,0,0,1,1.848,2.947,5.082,5.082,0,0,1-1.176,4.415,17.491,17.491,0,0,1,2.026,3.011,18.223,18.223,0,0,1,.708,3.58h2.254V122.527Zm57.9,11.056c-1.929-2.717-1.859-5.355.124-7.238a5,5,0,0,1,6.514-.336,4.905,4.905,0,0,1,1.871,3.05,5.277,5.277,0,0,1-1.377,4.513,6.659,6.659,0,0,1,2.7,6.36h2.5V122.555H295.483v17.42h2.431A6.764,6.764,0,0,1,300.615,133.584ZM286.552,69.935H269.141V87.322h2.42a6.681,6.681,0,0,1,2.665-6.3c-1.946-2.991-1.815-5.592.332-7.43a5.072,5.072,0,0,1,6.541,0c2.145,1.838,2.277,4.434.329,7.439,2.146,1.532,2.827,3.752,2.692,6.312h2.433Zm-38.776,70.009h7.4a4.05,4.05,0,0,0-1.652-4.339,3.513,3.513,0,0,0-4.014-.063C247.9,136.54,247.537,138.092,247.775,139.944Zm52.707-.006h7.4c.231-1.852-.127-3.4-1.745-4.4a3.512,3.512,0,0,0-4.014.071A4.035,4.035,0,0,0,300.482,139.938ZM274.158,87.361h7.3A3.929,3.929,0,0,0,280,83.1a3.649,3.649,0,0,0-4.111-.149C274.473,83.762,273.867,85.284,274.158,87.361Zm-25.207,42.648a2.521,2.521,0,1,0,2.506-2.535A2.548,2.548,0,0,0,248.951,130.009Zm55.262-2.535a2.5,2.5,0,1,0,2.492,2.549A2.548,2.548,0,0,0,304.213,127.475ZM277.795,74.917a2.424,2.424,0,0,0-2.438,2.538,2.472,2.472,0,0,0,4.944-.067A2.423,2.423,0,0,0,277.795,74.917Z" transform="translate(0)" fill="url(#linear-gradient)"/>
        <path id="Trazado_1009051" data-name="Trazado 1009051" d="M377.8,206.628a16.285,16.285,0,1,1-16.227-16.249A16.228,16.228,0,0,1,377.8,206.628Zm-17.61,3.7v-7.418c-1.634,0-3.212-.015-4.789.023a.7.7,0,0,0-.451.508c-.031,2.279-.02,4.56-.02,6.887Zm7.911,0c0-2.3.016-4.488-.022-6.678,0-.249-.3-.7-.472-.706-1.577-.055-3.156-.032-4.787-.032v7.416ZM352.3,202.908c-1.2,0-2.381-.032-3.556.027a.933.933,0,0,0-.65.575,12.948,12.948,0,0,0,.006,6.332.837.837,0,0,0,.591.513c1.207.049,2.416.024,3.609.024Zm18.417,0v7.469c1.2,0,2.376.031,3.551-.026a.92.92,0,0,0,.656-.554,12.993,12.993,0,0,0-.009-6.331.85.85,0,0,0-.585-.533C373.123,202.884,371.915,202.91,370.714,202.91Zm-7.869-9.768v7.178h4.666C366.6,197.485,365.691,194.8,362.844,193.142Zm-7.334,7.154h4.655v-7.158C357.354,194.8,356.409,197.452,355.511,200.3Zm.093,12.675c.614,3.377,2.824,6.683,4.574,6.98v-6.98Zm7.21,7.256c2.829-1.759,3.846-4.38,4.662-7.229h-4.662Zm10.933-7.3c-1.161,0-2.166-.023-3.169.02a.78.78,0,0,0-.551.424c-.689,1.776-1.341,3.567-2.027,5.418A13.71,13.71,0,0,0,373.746,212.928Zm-.007-12.588a13.831,13.831,0,0,0-5.808-5.843l2.335,5.843Zm-18.729,18.436c-.677-1.826-1.319-3.587-1.992-5.336-.078-.2-.323-.479-.5-.487-1.031-.047-2.065-.023-3.265-.023A13.745,13.745,0,0,0,355.011,218.776Zm-2.269-18.435,2.347-5.866a13.759,13.759,0,0,0-5.793,5.866Z" transform="translate(-83.677 -97.962)" fill="url(#linear-gradient)"/>
      </g>
    </g>
  </g>
</svg>
