<svg xmlns="http://www.w3.org/2000/svg" xmlns:xlink="http://www.w3.org/1999/xlink" width="118.117" height="118.117" viewBox="0 0 118.117 118.117">
  <defs>
    <linearGradient id="linear-gradient" x1="0.545" y1="0.968" x2="0.46" y2="-0.603" gradientUnits="objectBoundingBox">
      <stop offset="0" stop-color="#045e61"/>
      <stop offset="1" stop-color="#3ef989"/>
    </linearGradient>
  </defs>
  <g id="Grupo_1197969" data-name="Grupo 1197969" transform="translate(-1156.941 -1288.941)">
    <g id="Grupo_1197920" data-name="Grupo 1197920">
      <g id="Grupo_1192986" data-name="Grupo 1192986" transform="translate(1156.941 1288.941)">
        <g id="Trazado_995327" data-name="Trazado 995327" transform="translate(0)" fill="#fff">
          <path d="M 59.05859375 116.1171951293945 C 51.35486221313477 116.1171951293945 43.88261032104492 114.6088409423828 36.84942626953125 111.6340637207031 C 33.46891021728516 110.2042236328125 30.20824432373047 108.4343566894531 27.15799331665039 106.3736572265625 C 24.13620948791504 104.3321914672852 21.29459381103516 101.9876251220703 18.71207618713379 99.40511322021484 C 16.12957763671875 96.82259368896484 13.78501033782959 93.98097991943359 11.74354362487793 90.95919036865234 C 9.682826995849609 87.90895843505859 7.91297721862793 84.64827728271484 6.48314380645752 81.26776123046875 C 3.508343696594238 74.23457336425781 2.00001049041748 66.7623291015625 2.00001049041748 59.05859375 C 2.00001049041748 51.35486221313477 3.508343696594238 43.88261032104492 6.48314380645752 36.84942626953125 C 7.91297721862793 33.46891021728516 9.682826995849609 30.20824432373047 11.74354362487793 27.15799331665039 C 13.78501033782959 24.13620948791504 16.12957763671875 21.29459381103516 18.71207618713379 18.71207618713379 C 21.29459381103516 16.12957763671875 24.13620948791504 13.78501033782959 27.15799331665039 11.74354362487793 C 30.20824432373047 9.682826995849609 33.46891021728516 7.91297721862793 36.84942626953125 6.48314380645752 C 43.88261032104492 3.508343696594238 51.35486221313477 2.00001049041748 59.05859375 2.00001049041748 C 66.7623291015625 2.00001049041748 74.23457336425781 3.508343696594238 81.26776123046875 6.48314380645752 C 84.64827728271484 7.91297721862793 87.90895843505859 9.682826995849609 90.95919036865234 11.74354362487793 C 93.98097991943359 13.78501033782959 96.82259368896484 16.12957763671875 99.40511322021484 18.71207618713379 C 101.9876251220703 21.29459381103516 104.3321914672852 24.13620948791504 106.3736572265625 27.15799331665039 C 108.4343566894531 30.20824432373047 110.2042236328125 33.46891021728516 111.6340637207031 36.84942626953125 C 114.6088409423828 43.88261032104492 116.1171951293945 51.35486221313477 116.1171951293945 59.05859375 C 116.1171951293945 66.7623291015625 114.6088409423828 74.23457336425781 111.6340637207031 81.26776123046875 C 110.2042236328125 84.64827728271484 108.4343566894531 87.90895843505859 106.3736572265625 90.95919036865234 C 104.3321914672852 93.98097991943359 101.9876251220703 96.82259368896484 99.40511322021484 99.40511322021484 C 96.82259368896484 101.9876251220703 93.98097991943359 104.3321914672852 90.95919036865234 106.3736572265625 C 87.90895843505859 108.4343566894531 84.64827728271484 110.2042236328125 81.26776123046875 111.6340637207031 C 74.23457336425781 114.6088409423828 66.7623291015625 116.1171951293945 59.05859375 116.1171951293945 Z" stroke="none"/>
          <path d="M 59.05859375 3.999992370605469 C 51.62397766113281 3.999992370605469 44.41384887695312 5.455177307128906 37.62852478027344 8.325119018554688 C 34.36693572998047 9.704666137695312 31.22083282470703 11.41236114501953 28.27759552001953 13.40077209472656 C 25.36128234863281 15.37099456787109 22.61879730224609 17.63377380371094 20.12628173828125 20.12628173828125 C 17.63377380371094 22.61879730224609 15.37099456787109 25.36128234863281 13.40077209472656 28.27759552001953 C 11.41236114501953 31.22083282470703 9.704666137695312 34.36693572998047 8.325119018554688 37.62852478027344 C 5.455177307128906 44.41384887695312 3.999992370605469 51.62397766113281 3.999992370605469 59.05859375 C 3.999992370605469 66.49320983886719 5.455177307128906 73.70333862304688 8.325119018554688 80.48866271972656 C 9.704666137695312 83.750244140625 11.41236114501953 86.89635467529297 13.40077209472656 89.83959197998047 C 15.37099456787109 92.75590515136719 17.63377380371094 95.49839782714844 20.12628173828125 97.99090576171875 C 22.61879730224609 100.4834136962891 25.36128234863281 102.7461929321289 28.27759552001953 104.7164154052734 C 31.22083282470703 106.704833984375 34.36693572998047 108.4125213623047 37.62852478027344 109.7920684814453 C 44.41384887695312 112.6620101928711 51.62397766113281 114.1171951293945 59.05859375 114.1171951293945 C 66.49320983886719 114.1171951293945 73.70333862304688 112.6620101928711 80.48866271972656 109.7920684814453 C 83.750244140625 108.4125213623047 86.89635467529297 106.704833984375 89.83959197998047 104.7164154052734 C 92.75590515136719 102.7461929321289 95.49839782714844 100.4834136962891 97.99090576171875 97.99090576171875 C 100.4834136962891 95.49839782714844 102.7461929321289 92.75590515136719 104.7164154052734 89.83959197998047 C 106.704833984375 86.89635467529297 108.4125213623047 83.750244140625 109.7920684814453 80.48866271972656 C 112.6620101928711 73.70333862304688 114.1171951293945 66.49320983886719 114.1171951293945 59.05859375 C 114.1171951293945 51.62397766113281 112.6620101928711 44.41384887695312 109.7920684814453 37.62852478027344 C 108.4125213623047 34.36693572998047 106.704833984375 31.22083282470703 104.7164154052734 28.27759552001953 C 102.7461929321289 25.36128234863281 100.4834136962891 22.61879730224609 97.99090576171875 20.12628173828125 C 95.49839782714844 17.63377380371094 92.75590515136719 15.37099456787109 89.83959197998047 13.40077209472656 C 86.89635467529297 11.41236114501953 83.750244140625 9.704666137695312 80.48866271972656 8.325119018554688 C 73.70333862304688 5.455177307128906 66.49320983886719 3.999992370605469 59.05859375 3.999992370605469 M 59.05859375 -7.62939453125e-06 C 91.67575836181641 -7.62939453125e-06 118.1171951293945 26.44142913818359 118.1171951293945 59.05859375 C 118.1171951293945 91.67575836181641 91.67575836181641 118.1171951293945 59.05859375 118.1171951293945 C 26.44142913818359 118.1171951293945 -7.62939453125e-06 91.67575836181641 -7.62939453125e-06 59.05859375 C -7.62939453125e-06 26.44142913818359 26.44142913818359 -7.62939453125e-06 59.05859375 -7.62939453125e-06 Z" stroke="none" fill="#53159b"/>
        </g>
      </g>
      <g id="Grupo_1197808" data-name="Grupo 1197808" transform="translate(951.512 1192.584)">
        <path id="Trazado_1009025" data-name="Trazado 1009025" d="M305.832,130.85a16.1,16.1,0,0,0-25.317-6.714,2.94,2.94,0,0,1-2.017.72q-13.078-.036-26.156,0a2.993,2.993,0,0,1-2.023-.706,15.518,15.518,0,0,0-15.552-2.717,15.132,15.132,0,0,0-10.444,11.957c-1.215,6.293.818,11.614,5.765,15.736a2.033,2.033,0,0,1,.853,1.774c-.038,3.428-.017,6.857-.017,10.286,0,2.683.006,5.367,0,8.05,0,.724.135,1.366.923,1.59a4.5,4.5,0,0,0,1.213.129q5.757.014,11.513.006,5.868,0,11.737,0c1.216,0,1.243.044,1.7,1.178a9.288,9.288,0,0,1-.366,7.374,1.269,1.269,0,0,1-1.111.9c-1.618.233-3.237.5-4.829.866a20.27,20.27,0,0,0-4.247,1.285c-2.116,1.023-2.7,3.359-1.616,5.551,1.06,2.144,2.718,2.768,4.994,1.867a39.108,39.108,0,0,1,11.914-2.743,34.053,34.053,0,0,1,10.855.942c2.047.532,4.039,1.278,6.047,1.955a3.432,3.432,0,0,0,4.02-1.014,4.276,4.276,0,0,0-1.514-6.815,5.682,5.682,0,0,0-1.256-.443c-2.439-.5-4.88-1-7.328-1.457a1.166,1.166,0,0,1-1.013-.713,9.411,9.411,0,0,1-.445-7.476c.494-1.253.489-1.259,1.852-1.259h22.691c2.13,0,2.409-.273,2.409-2.35,0-5.628.017-11.255-.016-16.883a2.349,2.349,0,0,1,1.085-2.211A15.893,15.893,0,0,0,305.832,130.85Zm-28.507-3.419a5.486,5.486,0,0,1-.307.7,16.411,16.411,0,0,0,3.841,21.235c.8.614.812.646.295,1.543-.762,1.323-1.577,2.616-2.317,3.951a3.944,3.944,0,0,0-.466,1.471,1.433,1.433,0,0,0,1.586,1.7,4.658,4.658,0,0,0,1.908-.533c2.321-1.262,4.614-2.579,6.895-3.914A7.712,7.712,0,0,1,292,152.52c1.467-.142,2.912-.514,4.434-.8v8.453H233.556V151.4c1.135.306,2.234.624,3.345.894a6.692,6.692,0,0,0,1.866.3,6.114,6.114,0,0,1,3.359,1.03c2.337,1.312,4.672,2.63,7.029,3.907a4.672,4.672,0,0,0,1.581.505,1.447,1.447,0,0,0,1.734-1.645,3.553,3.553,0,0,0-.4-1.377c-.682-1.281-1.427-2.528-2.143-3.792-.216-.381-.413-.772-.584-1.095,7.477-6.5,8.817-14.018,4.235-22.7ZM226.543,137.3a13.558,13.558,0,1,1,24.138,7.89,20.2,20.2,0,0,1-3.04,2.767c-1.066.845-1.368,1.41-.823,2.673.558,1.292,1.269,2.518,2.037,4.015-1.851-1.057-3.5-1.98-5.135-2.94a11.88,11.88,0,0,0-5.011-1.638A13.536,13.536,0,0,1,226.543,137.3Zm53.831,46.94c1.642.426,2.173,1.4,1.558,2.788-.364.819-.7.944-1.572.659-2.118-.7-4.215-1.483-6.371-2.036a36.583,36.583,0,0,0-11.752-.936,41.815,41.815,0,0,0-12.344,2.874c-1.048.411-1.419.264-1.888-.656a1.513,1.513,0,0,1,.545-2.216,7.97,7.97,0,0,1,1.879-.685,65.976,65.976,0,0,1,14.426-1.837A67.035,67.035,0,0,1,280.374,184.237ZM260.241,171.03h9.549a11.765,11.765,0,0,0,.122,8.908h-9.733A11.592,11.592,0,0,0,260.241,171.03Zm36.269-2.96c-.861.312-61.616.384-62.958.089v-5.189c.423-.029.816-.08,1.21-.08q30.234-.006,60.468,0c1.273,0,1.276.008,1.28,1.306S296.51,166.8,296.51,168.07ZM292.5,149.919a14.584,14.584,0,0,0-5.9,2.118q-1.693.978-3.4,1.934a3.035,3.035,0,0,1-1.164.412c.339-.561.7-1.112,1.012-1.686A19.581,19.581,0,0,0,284.1,150.6a2,2,0,0,0-.879-2.765,24.926,24.926,0,0,1-2.7-2.327,29,29,0,0,0,5.3.115c.766-.006,1.53.31,2.3.337,1.97.069,3.943.077,5.914.073,1.528,0,3.056-.031,4.582-.1,2.037-.1,3.007-1.245,2.871-3.289a1.528,1.528,0,0,1,.151-.939,2.831,2.831,0,0,0,.438-2.447.923.923,0,0,1,.3-1.056,2.089,2.089,0,0,0,.424-2.655,2.328,2.328,0,0,1-.241-1.476c.332-2.261-.818-3.557-3.12-3.586-1.6-.02-3.2-.021-4.806-.036a1.76,1.76,0,0,1-.371-.148c0-.807.009-1.686,0-2.565A3.76,3.76,0,0,0,291.474,124c-1.8-.555-3.034.356-3.27,2.222a30.368,30.368,0,0,1-1,5.123c-.71,2.3-.862,2.3-3.221,2.305-.708,0-1.42-.037-2.123.028a2.326,2.326,0,0,0-2.391,2.634c-.01,2.5,0,4.993,0,7.489a12.581,12.581,0,0,1-2.052-9.26,13.525,13.525,0,0,1,14.6-11.585A13.854,13.854,0,0,1,304.3,134.324,13.518,13.518,0,0,1,292.5,149.919Zm-7.171-6.838h-3.287v-6.808h3.231C285.394,138.49,285.3,140.726,285.334,143.081Zm6.418-11.537c.016,1.236.3,1.507,1.529,1.505l5.362-.008a1.314,1.314,0,0,1,1.4.474c-.212.1-.423.282-.637.287-1.266.029-2.534-.024-3.8.04a1.941,1.941,0,0,0-1.287.485,1.484,1.484,0,0,0-.191,1.312,1.572,1.572,0,0,0,1.12.717c1.033.1,2.082.04,3.124.043a8.516,8.516,0,0,1,1.337.02,2.508,2.508,0,0,1,.748.424,2.288,2.288,0,0,1-.746.3c-1.414.023-2.829,0-4.244-.005a5.608,5.608,0,0,0-.781.021,1.248,1.248,0,0,0-.173,2.462,6.22,6.22,0,0,0,1.33.083c1.08.012,2.16-.006,3.239.025.168,0,.329.206.494.317-.182.119-.361.338-.545.34-1.377.019-2.754-.006-4.132-.013a6.944,6.944,0,0,0-.892.022,1.357,1.357,0,0,0-1.294,1.3,1.253,1.253,0,0,0,1.318,1.237c1.264.057,2.531.026,3.8.044.379.005.757.048,1.136.073q-.011.183-.022.366c-.769.052-1.539.145-2.308.148-2.566.011-5.133.041-7.7-.042-1.07-.035-1.073-.156-1.077-1.217-.007-2.086-.023-4.172.011-6.257a2.449,2.449,0,0,1,.359-1.233,15.052,15.052,0,0,0,2.281-6.7c.055-.513.147-1.022.228-1.579a1.172,1.172,0,0,1,1.006,1.318C291.738,129.085,291.736,130.315,291.752,131.544Z" fill="url(#linear-gradient)"/>
        <path id="Trazado_1009026" data-name="Trazado 1009026" d="M366.941,316.847a22.587,22.587,0,0,0-3,0,1.149,1.149,0,0,0-1.227,1.179,1.262,1.262,0,0,0,1.222,1.336,10.82,10.82,0,0,0,1.445.012v.011a13.816,13.816,0,0,0,1.558-.011,1.328,1.328,0,0,0,1.3-1.282A1.221,1.221,0,0,0,366.941,316.847Z" transform="translate(-107.716 -152.459)" fill="url(#linear-gradient)"/>
        <path id="Trazado_1009027" data-name="Trazado 1009027" d="M432.2,316.739c-.552-.065-1.11-.081-1.73-.123-.531.041-1.126.06-1.712.139a1.055,1.055,0,0,0-.947,1.075c-.046.621.215,1.22.833,1.27a23.008,23.008,0,0,0,3.754,0,1.062,1.062,0,0,0,.873-1.252A1.145,1.145,0,0,0,432.2,316.739Z" transform="translate(-158.26 -152.318)" fill="url(#linear-gradient)"/>
        <path id="Trazado_1009028" data-name="Trazado 1009028" d="M399.687,316.743c-.584-.084-1.178-.1-1.756-.143-.607.045-1.2.06-1.785.141a1.1,1.1,0,0,0-.993,1.04c-.074.633.217,1.23.8,1.284a23.033,23.033,0,0,0,3.85.023c.617-.047.859-.646.818-1.272A1.044,1.044,0,0,0,399.687,316.743Z" transform="translate(-132.898 -152.305)" fill="url(#linear-gradient)"/>
        <path id="Trazado_1009029" data-name="Trazado 1009029" d="M265.987,149.919a12.206,12.206,0,0,0-24.411-.114c-.047,7.181,6.414,12.314,12.176,12.3A12.16,12.16,0,0,0,265.987,149.919Zm-21.942-.131a9.706,9.706,0,0,1,19.411.163,9.746,9.746,0,0,1-9.623,9.685C249.413,159.651,243.994,155.344,244.044,149.787Z" transform="translate(-13.663 -13.429)" fill="url(#linear-gradient)"/>
        <path id="Trazado_1009030" data-name="Trazado 1009030" d="M282.694,202.873a1.258,1.258,0,1,0-1.723-1.835c-.209.154-.381.356-.576.529a3.62,3.62,0,0,1-5.228.026,7.721,7.721,0,0,0-.673-.585,1.256,1.256,0,0,0-1.721.118,1.185,1.185,0,0,0,.046,1.71,6.352,6.352,0,0,0,4.147,2.354A7.041,7.041,0,0,0,282.694,202.873Z" transform="translate(-37.62 -62.335)" fill="url(#linear-gradient)"/>
        <path id="Trazado_1009031" data-name="Trazado 1009031" d="M304.3,168.186a3.018,3.018,0,0,0,3.026-2.937,2.921,2.921,0,0,0-2.976-2.944,2.99,2.99,0,0,0-3.056,2.893A3.106,3.106,0,0,0,304.3,168.186Zm.118-4a1.06,1.06,0,1,1-1.06,1.06A1.06,1.06,0,0,1,304.418,164.185Z" transform="translate(-60.03 -32.504)" fill="url(#linear-gradient)"/>
        <path id="Trazado_1009032" data-name="Trazado 1009032" d="M270.166,165.209a2.94,2.94,0,0,0-3.032-2.9,2.9,2.9,0,0,0-2.982,2.935,3,3,0,0,0,3.013,2.945A3.05,3.05,0,0,0,270.166,165.209Zm-4.067.037a1.06,1.06,0,1,1,1.06,1.06A1.06,1.06,0,0,1,266.1,165.246Z" transform="translate(-31.191 -32.504)" fill="url(#linear-gradient)"/>
      </g>
    </g>
  </g>
</svg>
