<svg xmlns="http://www.w3.org/2000/svg" xmlns:xlink="http://www.w3.org/1999/xlink" width="332" height="309.079" viewBox="0 0 332 309.079">
  <defs>
    <clipPath id="clip-path">
      <path id="SVGID" d="M291.913,140.957a52.89,52.89,0,1,1-52.891-52.892A52.89,52.89,0,0,1,291.913,140.957Z" transform="translate(-186.132 -88.065)" fill="#4da6df"/>
    </clipPath>
  </defs>
  <g id="Grupo_1197966" data-name="Grupo 1197966" transform="translate(-270 -2000)">
    <g id="Grupo_1197884" data-name="Grupo 1197884" transform="translate(270 2000)">
      <ellipse id="Elipse_13716" data-name="Elipse 13716" cx="166" cy="18.448" rx="166" ry="18.448" transform="translate(0 272.183)" fill="#bbd4ec" style="mix-blend-mode: multiply;isolation: isolate"/>
      <g id="Grupo_1197883" data-name="Grupo 1197883" transform="translate(10.367 14.554)">
        <g id="Grupo_1197829" data-name="Grupo 1197829" transform="translate(82.68 158.158)">
          <g id="Grupo_1197817" data-name="Grupo 1197817">
            <g id="Grupo_1197815" data-name="Grupo 1197815" transform="translate(71.784)">
              <rect id="Rectángulo_461193" data-name="Rectángulo 461193" width="130.831" height="32.796" transform="translate(0 0)" fill="#7f66a8"/>
              <path id="Trazado_1009053" data-name="Trazado 1009053" d="M320.97,240.945a72.275,72.275,0,0,1,2.245,12.828c.241,3.566.39,7.989-1.608,11.152-2.47,3.906-7.248,3.513-11.381,3.724-6.581.336-66.316-.067-104.585-.541v5.634H336.471v-32.8Z" transform="translate(-205.64 -240.945)" fill="#e9e3f2" style="mix-blend-mode: multiply;isolation: isolate"/>
            </g>
            <g id="Grupo_1197816" data-name="Grupo 1197816" transform="translate(83.168 11.163)">
              <rect id="Rectángulo_461194" data-name="Rectángulo 461194" width="98.838" height="10.434" transform="translate(0 0)" fill="#ffc71f"/>
              <path id="Trazado_1009054" data-name="Trazado 1009054" d="M309.1,252.841a12.086,12.086,0,0,1-.245,3.783c-.675,2.73-3.413,3.921-5.568,4.142-4.088.419-8.311-.2-12.418-.208q-7.423-.014-14.847-.058c-19.418-.116-38.833-.34-58.25-.359v3.135H316.61V252.841Z" transform="translate(-217.772 -252.841)" fill="bisque" style="mix-blend-mode: multiply;isolation: isolate"/>
            </g>
            <rect id="Rectángulo_461195" data-name="Rectángulo 461195" width="72.383" height="32.796" transform="translate(0 0)" fill="#7f66a8"/>
            <rect id="Rectángulo_461196" data-name="Rectángulo 461196" width="68.043" height="25.877" transform="translate(0 3.46)" fill="#fde7de"/>
            <path id="Trazado_1009055" data-name="Trazado 1009055" d="M193.713,240.945a109.837,109.837,0,0,1-.338,18.254c-.269,2.11-.5,5.813-2.733,6.933-2.535,1.272-43.83.176-61.5.156v7.454h72.382v-32.8Z" transform="translate(-129.142 -240.945)" fill="#e9e3f2" style="mix-blend-mode: multiply;isolation: isolate"/>
          </g>
          <g id="Grupo_1197823" data-name="Grupo 1197823" transform="translate(22.908 32.797)">
            <g id="Grupo_1197818" data-name="Grupo 1197818" transform="translate(83.217)">
              <rect id="Rectángulo_461197" data-name="Rectángulo 461197" width="115.644" height="32.796" transform="translate(0)" fill="#4da6df"/>
              <path id="Trazado_1009056" data-name="Trazado 1009056" d="M342.379,275.9a72.426,72.426,0,0,1,2.245,12.828c.242,3.566.391,7.988-1.608,11.152-2.471,3.906-7.248,3.512-11.381,3.723-5.759.294-52.234.023-89.4-.368v5.461H357.881V275.9Z" transform="translate(-242.236 -275.896)" fill="#c4d5ef" style="mix-blend-mode: multiply;isolation: isolate"/>
            </g>
            <g id="Grupo_1197822" data-name="Grupo 1197822" transform="translate(98.646 5.586)">
              <g id="Grupo_1197819" data-name="Grupo 1197819">
                <rect id="Rectángulo_461198" data-name="Rectángulo 461198" width="6.518" height="21.624" transform="translate(0 0)" fill="#ffc71f"/>
                <path id="Trazado_1009057" data-name="Trazado 1009057" d="M264.217,281.848c-.02,3.226.16,14.275-.3,16.347-.611,2.738-2.882,2.924-5.237,2.679v2.6H265.2V281.848Z" transform="translate(-258.679 -281.848)" fill="bisque" style="mix-blend-mode: multiply;isolation: isolate"/>
              </g>
              <g id="Grupo_1197820" data-name="Grupo 1197820" transform="translate(9.913)">
                <rect id="Rectángulo_461199" data-name="Rectángulo 461199" width="6.517" height="21.625" transform="translate(0 0)" fill="#ffc71f"/>
                <path id="Trazado_1009058" data-name="Trazado 1009058" d="M274.78,281.848c-.019,3.227.162,14.275-.3,16.347-.611,2.739-2.881,2.924-5.237,2.679v2.6h6.518V281.848Z" transform="translate(-269.243 -281.848)" fill="bisque" style="mix-blend-mode: multiply;isolation: isolate"/>
              </g>
              <g id="Grupo_1197821" data-name="Grupo 1197821" transform="translate(19.826 0.001)">
                <rect id="Rectángulo_461200" data-name="Rectángulo 461200" width="6.519" height="21.624" transform="translate(0 0)" fill="#ffc71f"/>
                <path id="Trazado_1009059" data-name="Trazado 1009059" d="M285.345,281.849c-.019,3.226.162,14.275-.3,16.346-.612,2.739-2.882,2.925-5.238,2.679v2.6h6.519V281.849Z" transform="translate(-279.807 -281.849)" fill="bisque" style="mix-blend-mode: multiply;isolation: isolate"/>
              </g>
            </g>
            <rect id="Rectángulo_461201" data-name="Rectángulo 461201" width="85.054" height="32.796" fill="#4da6df"/>
            <rect id="Rectángulo_461202" data-name="Rectángulo 461202" width="80.714" height="25.877" transform="translate(0 3.46)" fill="#fde7de"/>
            <path id="Trazado_1009060" data-name="Trazado 1009060" d="M230.8,275.9a109.725,109.725,0,0,1-.338,18.253c-.269,2.11-.742,5.365-5,7.25-2.594,1.149-54.238-.141-71.908-.161v7.454h85.053V275.9Z" transform="translate(-153.554 -275.896)" fill="#c4d5ef" style="mix-blend-mode: multiply;isolation: isolate"/>
          </g>
          <g id="Grupo_1197828" data-name="Grupo 1197828" transform="translate(6.71 65.062)">
            <g id="Grupo_1197824" data-name="Grupo 1197824" transform="translate(71.783)">
              <rect id="Rectángulo_461203" data-name="Rectángulo 461203" width="130.831" height="32.796" fill="#de347c"/>
              <path id="Trazado_1009061" data-name="Trazado 1009061" d="M328.12,310.28a72.27,72.27,0,0,1,2.245,12.828c.242,3.566.391,7.988-1.608,11.152-2.47,3.906-7.248,3.513-11.381,3.723-6.581.336-66.316-.066-104.585-.541v5.634H343.621v-32.8Z" transform="translate(-212.79 -310.28)" fill="#f2bcd8" style="mix-blend-mode: multiply;isolation: isolate"/>
            </g>
            <rect id="Rectángulo_461204" data-name="Rectángulo 461204" width="72.383" height="32.796" fill="#de347c"/>
            <rect id="Rectángulo_461205" data-name="Rectángulo 461205" width="68.043" height="25.877" transform="translate(0 3.46)" fill="#fde7de"/>
            <path id="Trazado_1009062" data-name="Trazado 1009062" d="M200.864,310.28a109.932,109.932,0,0,1-.339,18.253c-.269,2.11-.5,5.814-2.733,6.934-2.535,1.272-43.83.176-61.5.156v7.453h72.383v-32.8Z" transform="translate(-136.292 -310.28)" fill="#f2bcd8" style="mix-blend-mode: multiply;isolation: isolate"/>
            <g id="Grupo_1197825" data-name="Grupo 1197825" transform="translate(96.204 11.553)">
              <rect id="Rectángulo_461206" data-name="Rectángulo 461206" width="81.253" height="8.792" transform="translate(0 0)" fill="#ffc71f"/>
              <path id="Trazado_1009063" data-name="Trazado 1009063" d="M313.894,322.592a10.39,10.39,0,0,1-.2,3.188c-.556,2.3-2.806,3.3-4.579,3.49-3.36.354-6.832-.171-10.208-.175q-6.1-.011-12.206-.049c-15.963-.1-31.924-.286-47.887-.3v2.642h81.254v-8.793Z" transform="translate(-238.814 -322.592)" fill="bisque" style="mix-blend-mode: multiply;isolation: isolate"/>
            </g>
            <g id="Grupo_1197826" data-name="Grupo 1197826" transform="translate(80.507 6.637)">
              <rect id="Rectángulo_461207" data-name="Rectángulo 461207" width="5.883" height="19.523" fill="#ffc71f"/>
              <path id="Trazado_1009064" data-name="Trazado 1009064" d="M227.086,317.353c-.018,2.912.145,12.887-.272,14.758-.552,2.473-2.6,2.641-4.728,2.419v2.346h5.884V317.353Z" transform="translate(-222.086 -317.353)" fill="bisque" style="mix-blend-mode: multiply;isolation: isolate"/>
            </g>
            <g id="Grupo_1197827" data-name="Grupo 1197827" transform="translate(185.279 6.637)">
              <rect id="Rectángulo_461208" data-name="Rectángulo 461208" width="5.885" height="19.523" transform="translate(0)" fill="#ffc71f"/>
              <path id="Trazado_1009065" data-name="Trazado 1009065" d="M338.739,317.353c-.017,2.912.146,12.887-.271,14.758-.553,2.473-2.6,2.641-4.728,2.419v2.346h5.885V317.353Z" transform="translate(-333.739 -317.353)" fill="bisque" style="mix-blend-mode: multiply;isolation: isolate"/>
            </g>
          </g>
        </g>
        <g id="Grupo_1197833" data-name="Grupo 1197833" transform="translate(28.313 188.212)">
          <g id="Grupo_1197830" data-name="Grupo 1197830">
            <rect id="Rectángulo_461209" data-name="Rectángulo 461209" width="127.321" height="25.989" transform="translate(0)" fill="#4da6df"/>
            <rect id="Rectángulo_461210" data-name="Rectángulo 461210" width="119.719" height="16.602" transform="translate(0 4.694)" fill="#fde7de"/>
            <path id="Trazado_1009066" data-name="Trazado 1009066" d="M183.05,272.973a57.818,57.818,0,0,1,1.289,6.421c.335,2.8.6,6.048-.652,8.675-1.314,2.756-3.944,3.717-6.875,3.787-2.51.059-5-.278-7.5-.309-2.752-.033-5.5,0-8.257-.006-6.135,0-12.272-.121-18.408-.157-23.81-.139-47.627-.025-71.44-.015v7.59H198.524V272.973Z" transform="translate(-71.203 -272.973)" fill="#c4d5ef" style="mix-blend-mode: multiply;isolation: isolate"/>
          </g>
          <g id="Grupo_1197831" data-name="Grupo 1197831" transform="translate(7.602 24.672)">
            <rect id="Rectángulo_461211" data-name="Rectángulo 461211" width="127.32" height="25.989" fill="#de347c"/>
            <rect id="Rectángulo_461212" data-name="Rectángulo 461212" width="119.718" height="16.602" transform="translate(0 4.694)" fill="#fde7de"/>
            <path id="Trazado_1009067" data-name="Trazado 1009067" d="M191.152,299.265a58.32,58.32,0,0,1,1.289,6.42c.336,2.8.6,6.048-.652,8.677-1.314,2.754-3.945,3.717-6.875,3.785-2.511.06-5-.278-7.506-.308-2.75-.034-5.5,0-8.255-.006-6.137,0-12.272-.121-18.407-.157-23.813-.139-47.628-.024-71.441-.015v7.59H206.624V299.265Z" transform="translate(-79.305 -299.265)" fill="#f2bcd8" style="mix-blend-mode: multiply;isolation: isolate"/>
          </g>
          <g id="Grupo_1197832" data-name="Grupo 1197832" transform="translate(18.782 50.66)">
            <rect id="Rectángulo_461213" data-name="Rectángulo 461213" width="127.32" height="25.989" transform="translate(0 0)" fill="#003f8e"/>
            <rect id="Rectángulo_461214" data-name="Rectángulo 461214" width="119.718" height="16.603" transform="translate(0 4.694)" fill="#fde7de"/>
            <path id="Trazado_1009068" data-name="Trazado 1009068" d="M203.066,326.96a58.4,58.4,0,0,1,1.291,6.422c.334,2.8.6,6.047-.653,8.676-1.315,2.754-3.946,3.716-6.875,3.785-2.512.06-5-.278-7.506-.308-2.751-.034-5.505,0-8.257-.007-6.136,0-12.27-.12-18.407-.156-23.812-.139-47.627-.025-71.44-.016v7.591H218.538V326.96Z" transform="translate(-91.219 -326.96)" fill="#9cc9e1" style="mix-blend-mode: multiply;isolation: isolate"/>
          </g>
        </g>
        <g id="Grupo_1197842" data-name="Grupo 1197842" transform="translate(0 120.289)">
          <g id="Grupo_1197837" data-name="Grupo 1197837" transform="translate(29.783 158.041)">
            <g id="Grupo_1197836" data-name="Grupo 1197836">
              <g id="Grupo_1197835" data-name="Grupo 1197835">
                <g id="Grupo_1197834" data-name="Grupo 1197834">
                  <path id="Trazado_1009069" data-name="Trazado 1009069" d="M79.766,369.009h-7v4.915s16.539,1.541,16.885,0C90.258,371.229,79.766,369.009,79.766,369.009Z" transform="translate(-72.77 -369.009)" fill="#062b66"/>
                </g>
              </g>
            </g>
          </g>
          <g id="Grupo_1197841" data-name="Grupo 1197841" transform="translate(15.272 157.806)">
            <g id="Grupo_1197840" data-name="Grupo 1197840">
              <g id="Grupo_1197839" data-name="Grupo 1197839">
                <g id="Grupo_1197838" data-name="Grupo 1197838">
                  <path id="Trazado_1009070" data-name="Trazado 1009070" d="M64.3,368.759H57.306v4.915s15.157,1.2,15.7-.621C73.8,370.408,64.3,368.759,64.3,368.759Z" transform="translate(-57.306 -368.759)" fill="#062b66"/>
                </g>
              </g>
            </g>
          </g>
          <path id="Trazado_1009071" data-name="Trazado 1009071" d="M80.105,280.313H64.794S73.939,310.9,74.84,321.45c.908,10.613-2.933,42.505-2.933,42.505H82.416s3.852-36.788,4.023-42.713C86.738,310.893,80.105,280.313,80.105,280.313Z" transform="translate(-42.495 -205.502)" fill="#003f8e"/>
          <path id="Trazado_1009072" data-name="Trazado 1009072" d="M77.36,280.313H54.554l1.865,83.445,10.061-.04c.932-15.173,2.988-71.911,2.988-71.911Z" transform="translate(-41.864 -205.502)" fill="#003f8e"/>
          <path id="Trazado_1009073" data-name="Trazado 1009073" d="M94.128,277.335c.935,1.339,3.469,2.006,4.464,1.017,1.019-1.013-1.247-2.718.173-3.25,1.589-.591-1.175-3.528-2.763-4.55l-3.087,1.65S91.856,274.074,94.128,277.335Z" transform="translate(-44.213 -204.901)" fill="#f19485"/>
          <path id="Trazado_1009074" data-name="Trazado 1009074" d="M82.3,254.654l5.047-1.29L77,232.695l-2.339-5.019-5.487,4.607Z" transform="translate(-42.766 -202.258)" fill="#f19485"/>
          <path id="Trazado_1009075" data-name="Trazado 1009075" d="M83.152,243.474,77,232.694l-2.339-5.018-5.487,4.606,8.929,16.28C79.632,247.058,81.817,244.924,83.152,243.474Z" transform="translate(-42.766 -202.258)" fill="#e59d20"/>
          <path id="Trazado_1009076" data-name="Trazado 1009076" d="M83.123,256.136l3.95-3.5,8.472,16.979-3.291,1.654Z" transform="translate(-43.625 -203.796)" fill="#f19485"/>
          <path id="Trazado_1009077" data-name="Trazado 1009077" d="M72.061,225.473c-2.686-.647-9.013-.352-11.845-.114-2.584.217-5.228,2.266-6.519,3.614-.19.194-.678.855-.678.855l1.271,47.44H79.5c-.218-5.494-4.66-45.886-4.66-45.886S73.722,225.873,72.061,225.473Z" transform="translate(-41.77 -202.098)" fill="#ffc71f"/>
          <path id="Trazado_1009078" data-name="Trazado 1009078" d="M64.946,219.933l-1.34,5.111s2.434,4.314,5.917,4.314c2.129,0,1.518-4.339,1.518-4.339l-.469-5.086Z" transform="translate(-42.422 -201.781)" fill="#f19485"/>
          <path id="Trazado_1009079" data-name="Trazado 1009079" d="M67.9,200.944c4.656,0,7.175,2.145,7.474,9.779.267,6.873.677,8.935-5.711,8.935,0,.008-4.151-.115-4.157-.174-2.231-.814-4.92-2.593-4.92-9.185C60.586,202.874,62.956,200.944,67.9,200.944Z" transform="translate(-42.236 -200.611)" fill="#f19485"/>
          <path id="Trazado_1009080" data-name="Trazado 1009080" d="M53.242,242.919l-.728-12.942-9.5,15.684,1.952,7.516Z" transform="translate(-41.153 -202.4)" fill="#f19485"/>
          <path id="Trazado_1009081" data-name="Trazado 1009081" d="M51.28,246.474l2.482-4.149s7.047-10.263,5.257-12.721c-2.84-3.9-6.384.247-6.384.247L44.97,240.529Z" transform="translate(-41.274 -202.274)" fill="#e59d20"/>
          <path id="Trazado_1009082" data-name="Trazado 1009082" d="M58.252,275.765c.979,1.235,3.545,1.542,4.389.489.866-1.087-1.495-2.474-.187-3.139,1.454-.741-1.517-3.253-3.148-4.062l-2.654,2.1S56.026,272.96,58.252,275.765Z" transform="translate(-41.989 -204.808)" fill="#f19485"/>
          <path id="Trazado_1009083" data-name="Trazado 1009083" d="M60.837,203.03c-3.767,4.391-.906,12.384-.592,13.116a2.7,2.7,0,0,0,2.6,1.768c-.314-.7-1.268-6.448-.813-6.585s2.036,1.923,1.681-1.8,8.659-3.656,10.908-3.656c1.356,0,2.031-3.283.775-3.053a2.373,2.373,0,0,1-1.934-.678C70.393,200.215,63.751,199.637,60.837,203.03Z" transform="translate(-42.133 -200.589)" fill="#003f8e"/>
          <path id="Trazado_1009084" data-name="Trazado 1009084" d="M41.031,251.7c0-1.844,1.922-5.108,1.922-5.108l15.395,21.077-2.654,2.1S41.036,256.732,41.031,251.7Z" transform="translate(-41.031 -203.424)" fill="#f19485"/>
          <path id="Trazado_1009085" data-name="Trazado 1009085" d="M63.706,212.513a1.149,1.149,0,0,1-.605,1.464c-.5.12-1.038-.34-1.2-1.028a1.149,1.149,0,0,1,.6-1.463C63,211.366,63.54,211.825,63.706,212.513Z" transform="translate(-42.314 -201.259)" fill="#f19485"/>
        </g>
        <g id="Grupo_1197855" data-name="Grupo 1197855" transform="translate(252.512 118.483)">
          <g id="Grupo_1197846" data-name="Grupo 1197846" transform="translate(15.124 158.879)">
            <g id="Grupo_1197845" data-name="Grupo 1197845">
              <g id="Grupo_1197844" data-name="Grupo 1197844">
                <g id="Grupo_1197843" data-name="Grupo 1197843">
                  <path id="Trazado_1009086" data-name="Trazado 1009086" d="M336.184,367.979h6.995v4.915s-16.564,1.888-16.909.346C325.666,370.547,336.184,367.979,336.184,367.979Z" transform="translate(-326.244 -367.979)" fill="#062b66"/>
                </g>
              </g>
            </g>
          </g>
          <g id="Grupo_1197850" data-name="Grupo 1197850" transform="translate(39.215 155.576)">
            <g id="Grupo_1197849" data-name="Grupo 1197849">
              <g id="Grupo_1197848" data-name="Grupo 1197848">
                <g id="Grupo_1197847" data-name="Grupo 1197847">
                  <path id="Trazado_1009087" data-name="Trazado 1009087" d="M356.5,367.879l7.688-3.42,2.148,4.9s-3.983,2.158-8.131,4.04c-3.412,1.547-6.2.946-6.283-.265-.1-1.477,1.658-2.056,3.5-3.515A2.542,2.542,0,0,0,356.5,367.879Z" transform="translate(-351.917 -364.459)" fill="#062b66"/>
                </g>
              </g>
            </g>
          </g>
          <g id="Grupo_1197851" data-name="Grupo 1197851" transform="translate(0 28.721)">
            <path id="Trazado_1009088" data-name="Trazado 1009088" d="M314.788,288.94c-1.255,1.014-3.845.95-4.516-.263-.686-1.241,1.306-2.425,1.039-2.994-.293-.609,1.621-3.2,3.565-3.7l2.477,2.416S317.839,286.471,314.788,288.94Z" transform="translate(-310.127 -232.521)" fill="#f19485"/>
            <path id="Trazado_1009089" data-name="Trazado 1009089" d="M317.531,281.627l-2.844-1.99,14.872-17.448,7.819-26.813,7.158,3.511-9.761,25.467Z" transform="translate(-310.408 -229.649)" fill="#f19485"/>
            <path id="Trazado_1009090" data-name="Trazado 1009090" d="M344.064,244.93l3.314-9.325a4.739,4.739,0,1,0-8.931-3.176l-3.316,9.329Z" transform="translate(-311.668 -229.273)" fill="#7f68a9"/>
          </g>
          <path id="Trazado_1009091" data-name="Trazado 1009091" d="M355.722,204.45s.259-6.026,6.029-5.778,6.8,6.639,5.443,12.01.361,6.984,1.864,9.773-2.526,6.45-3.275,10.818c-.206,1.189-1.524,4.241,1.335,9.091,0,0-8.031-2.57-7.8-7.814.145-3.366.365-5.332-.682-7.116s-1.975-3.206-.735-5.763-.715-5.749,1.938-9.358c1.813-2.466-.025-5.413-.772-5.446a2.564,2.564,0,0,0-1.764.814Z" transform="translate(-312.937 -198.665)" fill="#003f8e"/>
          <path id="Trazado_1009092" data-name="Trazado 1009092" d="M355.916,202.411s1-.4,2.058,1.07c1.17,1.623.413,2.154.413,2.154A4.47,4.47,0,0,1,355.916,202.411Z" transform="translate(-312.949 -198.893)" fill="#4da6df"/>
          <g id="Grupo_1197853" data-name="Grupo 1197853" transform="translate(19.964 78.467)">
            <g id="Grupo_1197852" data-name="Grupo 1197852">
              <path id="Trazado_1009093" data-name="Trazado 1009093" d="M331.4,282.285l3.7,80.808,8.825-.042s5.414-78.454,5.652-80.766Z" transform="translate(-331.402 -282.285)" fill="#003f8e"/>
            </g>
          </g>
          <path id="Trazado_1009094" data-name="Trazado 1009094" d="M353.159,278.822c-.484-2.431-.726-30.72-.726-43.387,0-3.374-1.81-8.638-4.27-9.039l-6.326-.3c-2.282,0-4.68,3.554-5.335,10.068-.69,6.983-4.727,39.2-5.1,42.662Z" transform="translate(-311.438 -200.355)" fill="#917db8"/>
          <path id="Trazado_1009095" data-name="Trazado 1009095" d="M348.267,219.787,348,226.715a4.24,4.24,0,0,1-2.933,1.266,3.785,3.785,0,0,1-3.5-1.759l.255-6.678Z" transform="translate(-312.065 -199.952)" fill="#f19485"/>
          <path id="Trazado_1009096" data-name="Trazado 1009096" d="M356.379,205.458c-2.815-4.146-7.772-5.044-11.739-4.053a8.22,8.22,0,0,0-5.078,4.134c-.118.017-.193.028-.193.025a4.1,4.1,0,0,0-.164.718h0c-.175,1.114-.164,2.638-.291,3.029-.177.549-2.25,7.076-.2,10.285,1.035,1.621,5.124.948,7.753.606C354.483,219.149,359.193,209.6,356.379,205.458Z" transform="translate(-311.833 -198.811)" fill="#f19485"/>
          <path id="Trazado_1009097" data-name="Trazado 1009097" d="M350.852,200.755a11.514,11.514,0,0,0-10.462,2.364c-.963.742-1.484,2.013-1.231,2.519v0s-.007.587,1.354,1.013c4.06,1.271,5.954,6.9,6.64,6.971,1.043.11,1.367-1.4,2.2-.795.576.42-.129,1.465-.959,2.1-1.227.93-1.774,5.137-1.053,5.1,3.86.113,4.989-1.119,7.343-3.76C360.876,209.319,358.007,202.268,350.852,200.755Z" transform="translate(-311.912 -198.772)" fill="#003f8e"/>
          <g id="Grupo_1197854" data-name="Grupo 1197854" transform="translate(9.179 29.371)">
            <path id="Trazado_1009098" data-name="Trazado 1009098" d="M324.654,293.474c-1.075,1.2-3.641,1.556-4.5.466-.876-1.113.9-2.6.546-3.122-.386-.553,1.083-3.418,2.923-4.223l2.834,1.987S327.27,290.547,324.654,293.474Z" transform="translate(-319.908 -233.455)" fill="#f19485"/>
            <path id="Trazado_1009099" data-name="Trazado 1009099" d="M326.59,285.627l-3.129-1.506,11.875-19.614,3.407-27.721,7.629,2.315-5.539,26.705Z" transform="translate(-320.127 -230.385)" fill="#f19485"/>
            <path id="Trazado_1009100" data-name="Trazado 1009100" d="M346.547,245.294l1.771-9.737a4.74,4.74,0,1,0-9.327-1.7l-1.77,9.738Z" transform="translate(-320.975 -229.965)" fill="#7f68a9"/>
          </g>
          <path id="Trazado_1009101" data-name="Trazado 1009101" d="M351.649,323.763l-.124-.049.124,0s1.735-40.67,1.51-41.427H331.4l5.049,13.4,4.036,28.444,13.989,39.328,9.076-3.848Z" transform="translate(-311.438 -203.818)" fill="#003f8e"/>
          <path id="Trazado_1009102" data-name="Trazado 1009102" d="M349.944,215.27a1.123,1.123,0,1,1-.134-1.812A1.32,1.32,0,0,1,349.944,215.27Z" transform="translate(-312.451 -199.569)" fill="#f19485"/>
        </g>
        <g id="Grupo_1197862" data-name="Grupo 1197862" transform="translate(123.412 4.896)">
          <g id="Grupo_1197857" data-name="Grupo 1197857" transform="translate(36.978 4.518)">
            <g id="Grupo_1197856" data-name="Grupo 1197856" transform="translate(0 0)">
              <rect id="Rectángulo_461215" data-name="Rectángulo 461215" width="6.218" height="125.034" transform="matrix(0.923, -0.386, 0.386, 0.923, 0, 2.4)" fill="#5759a1"/>
            </g>
          </g>
          <path id="Trazado_1009103" data-name="Trazado 1009103" d="M250.1,235.8H233.773l2.954-24.737h10.726Z" transform="translate(-176.321 -85.842)" fill="#5759a1"/>
          <path id="Trazado_1009104" data-name="Trazado 1009104" d="M247.453,211.065h-3.047c0,4.636.224,9.281-1.439,13.712-1.534,4.089-4.835,4.688-8.442,4.72l-.753,6.3H250.1Z" transform="translate(-176.321 -85.842)" fill="#c8b3d8" style="mix-blend-mode: multiply;isolation: isolate"/>
          <g id="Grupo_1197858" data-name="Grupo 1197858" transform="translate(0)">
            <path id="Trazado_1009105" data-name="Trazado 1009105" d="M238.185,205.95A65.649,65.649,0,0,1,218.7,77.618l1.845,5.939a59.431,59.431,0,1,0,45.273,109.376l2.894,5.5A65.781,65.781,0,0,1,238.185,205.95Z" transform="translate(-172.548 -77.618)" fill="#003f8e"/>
          </g>
          <g id="Grupo_1197861" data-name="Grupo 1197861" transform="translate(12.747 9.803)">
            <path id="SVGID-2" data-name="SVGID" d="M291.913,140.957a52.89,52.89,0,1,1-52.891-52.892A52.89,52.89,0,0,1,291.913,140.957Z" transform="translate(-186.132 -88.065)" fill="#4da6df"/>
            <g id="Grupo_1197860" data-name="Grupo 1197860" clip-path="url(#clip-path)">
              <g id="Grupo_1197859" data-name="Grupo 1197859" transform="translate(-14.805 14.059)">
                <path id="Trazado_1009106" data-name="Trazado 1009106" d="M173.578,122.652l.908.332.991-.249.5.331.827-1.074,2.147-.33.991.165a11.342,11.342,0,0,1,1.322.165c.247.084,2.064.66,2.476,1.652a10.9,10.9,0,0,0,1.159,1.982,15.937,15.937,0,0,0,3.3,3.47c1.486.908,0,2.891.744,5.451s1.321,2.809,1.321,2.809l.907.413.745.991.495,1.321.579.662-.826.248.745.577.658.663.663.906.659.578-.826-2.313-1.239-2.229.329-.166s.743.083,1.486,1.4a8.634,8.634,0,0,1,.91,2.064l.908,1.239s.413.993,0,1.487,3.467,2.231,3.965,2.231,1.24-.331,1.652.411,1.157.745,2.065.992a1.139,1.139,0,0,1,.743,1.652c-.248.579,1.569.5,1.984,1.157s.495-.991,1.073-.414a1.738,1.738,0,0,1,.165,2.313,4.8,4.8,0,0,0-.991,2.642,4.665,4.665,0,0,1-.165,2.313c-.331,1.157,1.569,1.157,1.9,3.965s3.057.165,2.725,4.873-.66,2.561-.577,5.206L210,175.186l.084,1.322-.329.991-.248,1.156v.908l-.332,1.652v2.478s1.488,3.138,4.379,2.23a10.057,10.057,0,0,1-1.157-1.652s-.827-1.487,0-1.4.083-1.321.909-1.57-1.239-.743.083-1.981-.413-1.321.5-2.065,1.156-1.4,2.313-1.32,1.4-.829,1.4-1.735,1.486-.331,1.983-2.809,2.643-4.46,3.8-4.13,1.571-3.8,1.571-4.956,2.974-2.807.578-4.46-1.487-.661-2.809-1.073-1.4-.33-2.065-1.487-.661-2.4-1.735-2.561a7.539,7.539,0,0,1-3.964-2.726l-1.321.083-.909-.329-.907.329-.167-.826-.328.082v.744l-.084.744-.5-.413.084-.826.165-.579-.993.329-.411.744-.744.579H208.1l-.908-.248s-1.322.164-1.322-1.4,0-1.818-2.065-1.733c0,0,.166-2.231.744-2.809s-1.321-.5-1.57.249a1.662,1.662,0,0,1-1.9,1.321,3.738,3.738,0,0,1-.908-4.13c.991-2.478,1.239-1.983,2.56-1.736s.415-.825,1.57-.66,1.073.165,1.4.742.909,1.736.579,2.231,1.818.661.827-2.477,1.652-2.891,2.23-2.809-1.239-3.055.827-3.47,1.569-.5,1.569-.5-.412-1.569,1.735-1.569l.413.413.992-.578.907-.826.248-.743,1.157-.084.577.5,1.156-.165-.412-1.4s-1.073-.164-1.238-.825,1.155-.414.412-1.57a4.891,4.891,0,0,0-2.147-2.147c-1.075-.579-.992-2.148-1.9-2.975s-.661,2.148-1.569,1.24-1.4-2.561-3.882-2.313c0,0,.66,1.652-.249,2.313,0,0,2.147,1.9-.33,2.643,0,0,1.239,1.735-.165,1.983s-.908-1.652-.992-2.314c0,0-2.147-.165-2.643-.743s-1.652-.413-1.652-.413l-.329-1.074-.58-.33s.166-1.569.5-1.569a5.827,5.827,0,0,0,1.487-.908l.577-1.074.662-.826v-.827l.742.662.661.412.662-1.486.165-1.074-1.487-.082-2.725.743-1.322-.827-.908.5-1.9.083h-1.568l-1.157-.331-.249.579-.908.5-1.155-.33h-.91l.083-.5-.661-.5-.662-.247-.742-.166-.827-.33-.66.249a1.59,1.59,0,0,1-1.817-.991,23.586,23.586,0,0,1-4.131,1.156c-.66-.084-7.681-.827-8.178-1.652s-1.155.164-1.982.826-.991,1.321-1.982,1.4,1.9,1.157,2.4,1.652-2.809-.661-2.891.414,1.817.908,2.974,1.074-.5.741-1.322.661-.744,1.568-.744,1.568l.744.826Z" transform="translate(-170.354 -103.666)" fill="#fde7de"/>
                <path id="Trazado_1009107" data-name="Trazado 1009107" d="M198.408,113.678l.536.289h.54l.2.331.165.164.041.5-.7-.207-.29.454-1.238.083-.329-.205-.58.205-.619.165-1.032.124-.619-.372-.289-.082-.908-.289-.454-.414a7.417,7.417,0,0,1,1.94-.165c.5.125-.081-.537-2.022-.412l.537-.414-.62-.33-.04-.414.371-.5.908-.124.414-.247.165.371h.661l.579.373.206-.165.5-.083.288.329.331.33v-1.114h.453l.124-.33.909.083.041.453-.082.373-.33.123.164.371Z" transform="translate(-171.727 -103.57)" fill="#fde7de"/>
                <path id="Trazado_1009108" data-name="Trazado 1009108" d="M190.943,110.929a2.789,2.789,0,0,0,1.488.192c.523-.192,1.486.577,1.128.689s-1.377.164-1.651.688-.468.248-.468.248l-.028.413-.44.166-.468.3-.525-.44-.963-.192.579-.77.275-.3.193-.467-.468-.413Z" transform="translate(-171.504 -103.533)" fill="#fde7de"/>
                <path id="Trazado_1009109" data-name="Trazado 1009109" d="M200.464,111.961v.385h-.442l-.3-.221s-.386.386.331.662.606.3.8.524.276.523.551.3.328-.387.715-.358.331-.5.138-.717-.525-.524-.385-.743-.055-.827-.358-.606-.633.385-.908.221-.551.137-.524.358S200.464,111.961,200.464,111.961Z" transform="translate(-172.158 -103.546)" fill="#fde7de"/>
                <path id="Trazado_1009110" data-name="Trazado 1009110" d="M202.048,106.972v.386h-.441l-.3-.221s-.387.386.329.662.607.3.8.522.276.524.551.3.33-.385.715-.357.332-.5.138-.717-.523-.524-.384-.742-.056-.827-.358-.607-.634.386-.909.221-.551.138-.523.357S202.048,106.972,202.048,106.972Z" transform="translate(-172.255 -103.239)" fill="#fde7de"/>
                <path id="Trazado_1009111" data-name="Trazado 1009111" d="M204.087,114.606s.495-.166.385-.33-.3-.468-.3-.468l-.3-.249-.221-.44h-.331l.248-.523s.166-.386.249-.331a1.639,1.639,0,0,0,.524,0l.247-.576.468-.332a4.944,4.944,0,0,0-1.927-.11c-.469.221-.577.412-.44.77a6.128,6.128,0,0,0,.3.662l-.165.523-.33.193-.385.221.221.44-.193.3.442.248.631.109.111.249.386-.277Z" transform="translate(-172.311 -103.548)" fill="#fde7de"/>
                <path id="Trazado_1009112" data-name="Trazado 1009112" d="M199.406,108.808l.536.288h.538l.206.331.166.164.04.5-.7-.207-.288.454-1.24.083-.329-.205-.578.205-.62.164-1.031.125-.619-.372-.29-.083-.909-.29-.454-.412a7.411,7.411,0,0,1,1.941-.165c.5.124-.082-.537-2.024-.413l.538-.413-.619-.331-.04-.414.371-.494.908-.125.414-.249.166.373h.66l.579.371.206-.165.5-.083.289.33.331.331V106.99h.453l.124-.331.909.084.041.454-.084.372-.33.124.165.372Z" transform="translate(-171.788 -103.27)" fill="#fde7de"/>
                <path id="Trazado_1009113" data-name="Trazado 1009113" d="M188.433,106.209v.386h-.44l-.3-.22s-.385.386.33.661.606.3.8.524.275.523.551.3.33-.386.716-.358.33-.5.137-.717-.523-.522-.386-.742-.054-.826-.357-.606-.633.387-.909.221-.551.137-.523.358S188.433,106.209,188.433,106.209Z" transform="translate(-171.416 -103.192)" fill="#fde7de"/>
                <path id="Trazado_1009114" data-name="Trazado 1009114" d="M192.057,108.855s.5-.165.385-.331-.3-.469-.3-.469l-.3-.246-.22-.441h-.331l.249-.523s.165-.386.248-.33a1.632,1.632,0,0,0,.523,0l.249-.578.467-.33a4.9,4.9,0,0,0-1.926-.11c-.469.219-.579.411-.442.77a6.206,6.206,0,0,0,.3.66l-.165.524-.332.192-.385.221.221.442-.192.3.44.248.633.11.109.248.386-.275Z" transform="translate(-171.569 -103.194)" fill="#fde7de"/>
                <path id="Trazado_1009115" data-name="Trazado 1009115" d="M212.282,117.77l-.66.109h-.936l-.33.359.111.191.329.138.387-.054s.661-.139.8,0a1.771,1.771,0,0,0,.5.3,1.632,1.632,0,0,1,.662.633,1.074,1.074,0,0,0,.88.522,1.236,1.236,0,0,1,.853.194.924.924,0,0,0,.605.191c.194,0-.99-.715-1.238-1.156s1.294.139,1.789.578.084-.744.084-.744l-.689-.907-.5-.386.22-.579.5.221a2.248,2.248,0,0,1,.469.66c.191.414.632.166.77-.082s-.249-.468.276-.771.661-.605.19-.826-1.43-.082-1.622-.33-1.267-.441-1.074-.579.633-.026.467-.385a2.33,2.33,0,0,0-.88-.909,4.426,4.426,0,0,0-.826-.248l-.605-.661h-.771l-.386-.247-.33-.525h-.578l-.248.165-.414.138-.661-.358a1.155,1.155,0,0,1-.274-.44c-.139-.331-.744-.55-.909-.3s-.827.358-.827.523a1.063,1.063,0,0,0,.139.992c.357.5.523.468.661.827a.828.828,0,0,0,.88.579,2.1,2.1,0,0,1,.965.027c.137.054.164-.358.632-.055a5.523,5.523,0,0,1,.881.742l-.523.138.384.11.5.056.605.413s.414.054.139.523a1.269,1.269,0,0,1-.662.579Z" transform="translate(-172.634 -103.573)" fill="#fde7de"/>
                <path id="Trazado_1009116" data-name="Trazado 1009116" d="M322.658,114.763l-2.216-.444h-.976s.09.709-.355.887-1.153-.443-1.241-.71-.533-.443-1.419-.176-2.75.532-2.75,0,0-1.153-.887-1.065-2.482.888-2.749.621-.8-1.6-1.242-1.684a8.293,8.293,0,0,0-2.659-.089,7.7,7.7,0,0,0-1.952.976.891.891,0,0,1-1.064-.267.954.954,0,0,0-1.509.355c-.265.621-1.772.443-1.684-.088s.356-1.154.09-1.6a1.887,1.887,0,0,0-1.686-.534c-.532.09-.355.8-1.331.8a15.983,15.983,0,0,1-3.193-.533c-.708-.177-1.417.8-1.6.177s0-.977.445-1.6-1.686-2.039-2.128-2.216a1.584,1.584,0,0,0-1.419.089,3.14,3.14,0,0,1-1.952.62c-.976,0-2.218.178-2.306.619s-.355,0-1.774.445-2.838.266-2.838,1.063-.267,1.243-1.152,1.243.176,1.152.176,1.152-1.506-.266-2.128-.444-.886-.532-1.6.355a2.3,2.3,0,0,1-2.484.621c-.709-.177-1.419.266-.443,1.774s-2.216-1.065-3.723-1.242.8,1.065.265,1.42-2.749-.8-3.193-.444a15.55,15.55,0,0,1-3.192,1.773c-.709.179-.443-.8,0-.8s-.356-1.064-1.241-.443,0,1.24.179,1.507-.8-.267-1.066.442,0,1.6-.355,1.686-1.419-.443-1.419-.443l-.621.355-1.6-2.307s4.967,1.508,3.814-.71-3.282-1.505-4.167-1.594-1.42-.888-1.951-.976a2.479,2.479,0,0,0-1.332.444l-2.306,1.331-1.065-.089-.443.621-.443.8-1.065.708a1.246,1.246,0,0,0-.5.829c-.06.531-.178.769-.533.946a3.056,3.056,0,0,0-.768.709s-.65-.355-.887.059-.591.59-.591.768-.179.65-.179,1.006a2.209,2.209,0,0,0,.238,1.18,1.364,1.364,0,0,0,1.3.534c.3-.118.829-1.241.887-.829s.3,1.243.3,1.243a1.945,1.945,0,0,1,.649.65c.236.412,0,.708-.058,1s.829,0,.946-.236a2.622,2.622,0,0,0,1.064-1.833c.118-1.3.827-.591,1.005-.591s-.178-1.006-.415-1.36-.295-1.42.415-1.656,1.655-2.778,2.365-1.892-.176,1.183-1.064,1.952-.474,1.123-.3,1.477.117.592.356.829.295.3,1,.117,1.421-.827,1.773-.53.415.708-.059.708a2.218,2.218,0,0,0-1.42.355c-.295.3-.648-.059-.353.709s-.118.769-.591.354-.828.416-.65.889.057.768-.474.886-.354.592-.708.414a1.24,1.24,0,0,0-1.183.118c-.473.236-.769.532-1.006.236a.678.678,0,0,0-.769-.175,1.484,1.484,0,0,1-.946.118c-.413-.118-.236-.947-.057-1.064s.175-.711.175-.888-.355-.887-.945-.177-.177,1.182-.177,1.833-.177.414-.71.474-.887.176-.887.65.177.769-.177.828a1.157,1.157,0,0,0-.768.473c-.178.236,0,.236-.533.591a2.654,2.654,0,0,1-1.064.413l-.887.3-.709.473.829.709s1.418,1.774.59,2.187-.769.237-1.952-.118-.709.178-1.063.651a5.814,5.814,0,0,0-.473,2.009l.769,1.655,1.064.3.649-.177,1.125-.235.412-.593.356-1.18a5.438,5.438,0,0,1,1.241-.829c.414-.119-.3-1.479,1.3-1s.651-1.3,1.42-.829.59.888.59.888l1.361,1,.592.413.353.358a2.68,2.68,0,0,1,0,1.241c-.176.472.651-.414.651-.414l.236-.532-.177-.591.65.472.177-.413-.65-.651-.65-.236-1-.827-.532-.886.059-.594.888.474,1.772,1.183.534,1,.827,1.892.237.829.827-.237L252.6,135.9v-.71l1.477-.3-.176.948.531.946.829.354.413-.649.533.354.828.473.947.237.355.176-.236,1.006-.356,1.005-.651.769-1.181-.236-.769.532-1.3-.532-.415.117-.414-.415-.708-.177a1.072,1.072,0,0,0-1.242.237,1.145,1.145,0,0,0-.3,1.063,4.2,4.2,0,0,0-1.182-.59.952.952,0,0,1-.769-.71c-.059-.295-1.064-.354-1.894-.531s-.354-.886-.058-1.064.356-1.123-.117-1.242a8.757,8.757,0,0,0-1.951.177,10.435,10.435,0,0,0-3.488.888c-.533.414-2.13.3-1.833-.176s-.947,1.831-1.715,1.477-.3,1.3-.236,1.952-1.183.708-1.6,1a6.254,6.254,0,0,0-1.655,4.256c.118,1.953.649,2.307-.119,3.608s.3,1-.06,1.6,1.952.828,1.952,2.246,1.3.651,2.247,1.657,1.834-.474,2.541,0,2.485-2.129,3.429,0,2.6-.532,1.894,3.014a8.051,8.051,0,0,1,1.537,3.844c.176,2.128,1.123,1.6.59,2.425s-1.536,1.063-.295,4.552.828,1.124.769,2.956,1.892,3.251,1.537,4.256,1.065,1.538,2.9.651,3.607-2.128,3.607-5.144l1.3-.649-.179-2.6,1.361-1.181s2.069-.947.71-4.2a7.037,7.037,0,0,1,1.892-6.031s3.606-3.251,3.31-6.031l-2.482.769-.473.118-.355-.828-.415-.533-1.477-1.241-.769-2.068-.591-.829-.178-1.124-.591-.649-.3-2.01.591-.65.888,2.069a3.054,3.054,0,0,1,.532,1.479c-.059.59.946,1.181,1.122,2.067s.534,3.253,2.307,2.72l2.365-1.122s.769-1.124,1.419-.947.887-1.124,1.241-1.124.415-1.358.415-1.358l.591-1.006-1.125-.591-.53-1.124-1.005.888-.888.236-1.006-1.006-.768-1.537.946-1.006,1.064,1.657.888.355.946-.118.531.59a4.522,4.522,0,0,0,2.247.473c1.123-.117,2.483.415,2.6,1.241s1.832,1.834,1.832,1.834l.593,3.43s.649,3.843,1.833,3.015.708.176,1,.946,1.3.178.65-1.479a5.074,5.074,0,0,1-.353-3.724c.353-.708,1.537-.65,3.309-2.839s2.839,1.361,2.839,2.307,2.011,1.242,2.011,4.021,1.774,3.548.945,3.723-2.6-2.009-2.778-1.122,2.247,1.833,2.365,2.72,2.72,2.838,2.72,2.838l.472-1.478-.533-.889-.827-.768.236-1.95-1-1.42-.414-.65-.65-1.3.236-1.361a7.3,7.3,0,0,0,1.123.3c.237,0,.888,1.3.888,1.3l-.178.651.708-.3.534-1.122.768-.769s.356-1.241-1.359-3.134,1.419-1.477,1.654-1.537,1.952-.65,1.952-.65,3.016-.473,3.606-5.2c0,0-.177-2.423-.65-2.364s.356-1.362.887-1.362,0-1.181.532-1.181,1.892.531,1.892,1.123,0,.3-.413,1.242,1.6.118,1.538-.356-.83-2.661.117-3.666,1.419-1.064,1.892-.888,1.773-3.843,2.957-5.2-.06,2.423-.06,3.132,1.124.176,1.478-.768a5.762,5.762,0,0,0-.3-2.839l-.472-1.479-.65.533-1.125-.769-.886.414a2.611,2.611,0,0,1,1.241-2.186c1.36-1.006,4.257-2.248,5.617-1.775l.413.415,1.775-.533-.415-.885.355-.83,1.537-.177,1.124-.058.472.354-2.365,2.247s-1.478,1.478-.769,4.493l.236.829,1.066-1.421.412-.412v-.474l.77-.119.177-.826.3-.474.175-1.123.236-.652.592-.708s0-.473.945-.236a10.146,10.146,0,0,1,1.361.413l.947-.945,1.3-.592.649-.177h.829a1.418,1.418,0,0,0,.06-1.3l.472-.887Z" transform="translate(-174.268 -103.319)" fill="#fde7de"/>
                <path id="Trazado_1009117" data-name="Trazado 1009117" d="M297.517,162.846l.177.651.59-.356.416-1.6.651-.65.3-.592-.237-.944v-.888l.355-.591-.412-.768-.06-.947-.474,1.124-.827.887-1.124.3-.413,1.063-.888.534-.531.235.178,1.3.591,1.066.769.176.709-.059Z" transform="translate(-178.038 -106.321)" fill="#fde7de"/>
                <path id="Trazado_1009118" data-name="Trazado 1009118" d="M307.636,163.627s2.779,1.36,1.653,1.833-.473,1.065.06,1.065,1.361-.71,1.6-.177,1.121.177,1.477,0,.117-.651.889.117a5.76,5.76,0,0,0,2.541,1.063s-2.956-2.01-2.956-2.306.236-.649,0-1.005-.83-.354-1.361-.769a7.25,7.25,0,0,1-1.3-1.063.856.856,0,0,0-.947-.236,7.389,7.389,0,0,0-1.359.414C307.694,162.74,307.636,163.627,307.636,163.627Z" transform="translate(-178.815 -106.687)" fill="#fde7de"/>
                <path id="Trazado_1009119" data-name="Trazado 1009119" d="M309.6,171.528s-.076-.038-.19-.1a3.19,3.19,0,0,1-1.051-.787c-.178-.354-1.3-.649-1.3-.649l.887-1.36s-1.951-1.3-2.719-.77-.3,1.539-.65,1.894-.652-.06-1.359-.119-1.716,1.065-1.894,1.537a2.78,2.78,0,0,1-2.01,1.538A2.4,2.4,0,0,0,297.3,174.9c0,1.065.888,2.719.77,3.784s.946,1.537.178,2.011-.119,1.3,1.653.117,2.129-1,3.016-.947,2.247-.708,2.72,0,.768.651,1.655,1,1.359.119,1.359.889,1.362.709,1.657,1.359,1.241,1.124,1.241,1.538,1.478-.414,1.773-1.064a12.4,12.4,0,0,0,1.122-2.13,16.216,16.216,0,0,1,1.124-3.251,2.534,2.534,0,0,0-.118-2.246c-.415-.651-2.247-1.539-2.128-2.129s-.649-1.537-.946-1.893-1.123-1.418-.948-1.891-.946-.889-.946-1.419a2.626,2.626,0,0,0-.353-1.123S309.125,167.448,309.6,171.528Z" transform="translate(-178.178 -107.02)" fill="#fde7de"/>
                <path id="Trazado_1009120" data-name="Trazado 1009120" d="M294.534,164.924l.887.294,1.242-.176.769.414.177.414,1.715.178.77-.178.768.354,1.6.06-.414.592-1.477.236-1.892-.3H297.55l-.77-.356-.945-.532-1.124.237-1.065-.414Z" transform="translate(-177.953 -106.861)" fill="#fde7de"/>
                <path id="Trazado_1009121" data-name="Trazado 1009121" d="M310.092,135.116l-.059-.709.71.532s1.065.591.946,1-.828.355-.828.886-1.36-.649-1.183,0a3.528,3.528,0,0,1,.177,1.893c-.177.592-.59,3.016-1.123,3.016s-2.306-.059-2.543.474-.944,1.121-.944,1.417-.769-1.654-.239-2.069.947-.768,1.243-.768a9.016,9.016,0,0,0,1.537-.532l.3-1.773s.058.175.709,0a1.1,1.1,0,0,0,.709-1.241,7.5,7.5,0,0,0-.118-1.125c-.118-.354.118-.828.295-.828A.911.911,0,0,0,310.092,135.116Z" transform="translate(-178.641 -104.98)" fill="#fde7de"/>
                <path id="Trazado_1009122" data-name="Trazado 1009122" d="M214.722,109.022l2.727,1.155,1.57,2.231,1.652,1.652-.5,1.321.083,1.406-1.156.824,2.148,2.809s.99.827,1.321.827a3.723,3.723,0,0,0,1.57-1.406,22.79,22.79,0,0,1,.908-2.312l3.056-1.735,2.064-.331,1.321-.742.662-1.321-.743-1.239,1.239-1.817,1.156-.578.166-2.893.66-1.073.5-1.073s-2.23.163-2.727.247-2.146.826-2.476.083-.414-1.569-1.075-1.569H226.2c-.414,0-1.074.082-1.652.082s-.166-.661-1.157-.495-1.074.083-1.818.66a3.017,3.017,0,0,1-1.652.661,3.667,3.667,0,0,1-1.652-.082c-.579-.084.083-1.156-1.652.248s-2.314,1.073-2.809,1.735-2.644.907-2.644.907-.66-.165-.33.662.745,2.063,1.488,2.148A6.075,6.075,0,0,0,214.722,109.022Z" transform="translate(-172.844 -103.047)" fill="#fde7de"/>
              </g>
            </g>
          </g>
          <rect id="Rectángulo_461216" data-name="Rectángulo 461216" width="31.505" height="9.293" transform="translate(49.679 144.708)" fill="#003f8e"/>
          <path id="Trazado_1009123" data-name="Trazado 1009123" d="M252.63,231.83a8.11,8.11,0,0,1-.328,2.139,7.07,7.07,0,0,1-5.3,4.976c-3.553.548-7.378-.02-10.968-.041-3.514-.022-7.029,0-10.544.01v2.208h31.5V231.83Z" transform="translate(-175.811 -87.122)" fill="#65a8c9" style="mix-blend-mode: multiply;isolation: isolate"/>
          <path id="Trazado_1009124" data-name="Trazado 1009124" d="M239.021,88.065a53.234,53.234,0,0,0-8.3.651,62.437,62.437,0,0,1,31.618,21.405c11.01,14.4,17.058,37.46,5.119,53.128-11.594,15.213-34.251,19.355-51.682,12.688-9.842-3.764-17.374-11.743-22.808-20.6a39.5,39.5,0,0,1-5.528-13.515c-.357-1.908-.588-4.141-1.028-6.307a52.892,52.892,0,1,0,52.612-47.446Z" transform="translate(-173.385 -78.262)" fill="#a8c2e7" style="mix-blend-mode: multiply;isolation: isolate"/>
        </g>
        <g id="Grupo_1197864" data-name="Grupo 1197864" transform="translate(174.968)">
          <rect id="Rectángulo_461217" data-name="Rectángulo 461217" width="10.331" height="4.616" rx="2.108" transform="translate(12.345 49.762)" fill="#003170"/>
          <path id="Trazado_1009125" data-name="Trazado 1009125" d="M244.813,72.4a17.527,17.527,0,0,0-17.322,17.61,17.048,17.048,0,0,0,3.474,10.622c5.075,7.533,4.85,13.33,4.682,14.838a1.371,1.371,0,0,0-.055.388c0,1.869,3.479,3.383,9.222,3.383s8.93-1.514,8.93-3.383c.289-7.33,2.111-11.616,3.579-13.666,1.934-2.707,4.813-8.092,4.813-12.182A17.468,17.468,0,0,0,244.813,72.4Z" transform="translate(-227.49 -72.4)" fill="#ffc71f"/>
          <path id="Trazado_1009126" data-name="Trazado 1009126" d="M245.317,72.4a16.984,16.984,0,0,0-4.632.64,17.138,17.138,0,0,1,6.582,1.92,16.6,16.6,0,0,1,7.892,9.931c1.279,4.2.754,8.932-.323,13.129-1.04,4.05-2.993,8.9-6.971,10.89a14.7,14.7,0,0,1-6.644,1.156c-1.858.008-3.713-.088-5.562-.259a16.879,16.879,0,0,1,.491,5.665,1.372,1.372,0,0,0-.055.388c0,1.869,3.479,3.383,9.222,3.383s8.93-1.514,8.93-3.383c.289-7.33,2.111-11.616,3.579-13.666,1.934-2.707,4.813-8.092,4.813-12.182A17.468,17.468,0,0,0,245.317,72.4Z" transform="translate(-227.994 -72.4)" fill="bisque" style="mix-blend-mode: multiply;isolation: isolate"/>
          <g id="Grupo_1197863" data-name="Grupo 1197863" transform="translate(12.426 22.351)">
            <line id="Línea_3640" data-name="Línea 3640" x1="3.435" y1="19.656" fill="none" stroke="#fde7de" stroke-linecap="round" stroke-linejoin="round" stroke-width="0.874"/>
            <line id="Línea_3641" data-name="Línea 3641" y1="19.656" x2="3.436" transform="translate(6.466)" fill="none" stroke="#fde7de" stroke-linecap="round" stroke-linejoin="round" stroke-width="0.874"/>
          </g>
          <path id="Trazado_1009127" data-name="Trazado 1009127" d="M254.168,115.354H236.337a1.7,1.7,0,0,0-1.7,1.7v.722a1.7,1.7,0,0,0,.823,1.454,1.766,1.766,0,0,0-.256.917v.721a1.668,1.668,0,0,0,1.481,1.7,1.91,1.91,0,0,0-.3,1.037v.722a1.58,1.58,0,0,0,1.421,1.7h.745v.206c0,.938.468,1.7,1.047,1.7h10.993c.58,0,1.05-.762,1.05-1.7v-.206H252.7a1.579,1.579,0,0,0,1.42-1.7V123.6a1.919,1.919,0,0,0-.3-1.037,1.666,1.666,0,0,0,1.482-1.7v-.721a1.764,1.764,0,0,0-.254-.917,1.7,1.7,0,0,0,.821-1.454v-.722A1.7,1.7,0,0,0,254.168,115.354Z" transform="translate(-227.931 -75.047)" fill="#003f8e"/>
          <path id="Trazado_1009128" data-name="Trazado 1009128" d="M254.3,115.354h-2.736a7.278,7.278,0,0,1,.594,3.754c-.159,1.8-.736,4.074-2.283,5.2-1.621,1.183-3.844.908-5.734.908h-7.4a1.386,1.386,0,0,0,1.2.8h.745v.206c0,.938.468,1.7,1.047,1.7h10.993c.58,0,1.05-.762,1.05-1.7v-.206h1.053a1.579,1.579,0,0,0,1.42-1.7V123.6a1.919,1.919,0,0,0-.3-1.037,1.666,1.666,0,0,0,1.482-1.7v-.721a1.764,1.764,0,0,0-.254-.917,1.7,1.7,0,0,0,.821-1.454v-.722A1.7,1.7,0,0,0,254.3,115.354Z" transform="translate(-228.06 -75.047)" fill="#65a8c9" style="mix-blend-mode: multiply;isolation: isolate"/>
        </g>
        <g id="Grupo_1197870" data-name="Grupo 1197870" transform="translate(96.903 217.822)">
          <path id="Trazado_1009129" data-name="Trazado 1009129" d="M222.811,340.723c0,18.221-17.432,29.792-39.164,29.792S144.3,355.742,144.3,337.522s17.617-32.994,39.349-32.994c10.866,0-3.095,21.388,12.821,24.207C212.357,331.548,222.811,331.612,222.811,340.723Z" transform="translate(-144.298 -304.528)" fill="#ffc71f"/>
          <g id="Grupo_1197865" data-name="Grupo 1197865" transform="translate(55.339 34.431)">
            <path id="Trazado_1009130" data-name="Trazado 1009130" d="M218.569,345.027c1.388,3.389-.82,7.5-4.931,9.184s-8.565.3-9.951-3.092.818-7.5,4.928-9.183S217.184,341.637,218.569,345.027Z" transform="translate(-203.271 -341.22)" fill="#fde7de"/>
            <path id="Trazado_1009131" data-name="Trazado 1009131" d="M218.593,345.232a5.449,5.449,0,0,0-.343-.692,9.433,9.433,0,0,1-5.413,7.108,9.783,9.783,0,0,1-7.967.265,6.255,6.255,0,0,1-1.21-.717c.017.042.031.085.049.128,1.386,3.389,5.842,4.774,9.951,3.092S219.981,348.621,218.593,345.232Z" transform="translate(-203.295 -341.424)" fill="#eedbc6"/>
          </g>
          <g id="Grupo_1197866" data-name="Grupo 1197866" transform="translate(15.452 9.05)">
            <path id="Trazado_1009132" data-name="Trazado 1009132" d="M173.855,317.135c1.4,2.869-.284,6.571-3.763,8.27s-7.434.75-8.834-2.12.283-6.571,3.761-8.271S172.455,314.266,173.855,317.135Z" transform="translate(-160.765 -314.172)" fill="#4da6df"/>
            <path id="Trazado_1009133" data-name="Trazado 1009133" d="M171.694,323.4c-1.8,1.15-4.551,1.986-6.646,1.165-2.688-1.054-2.989-4.227-1.53-6.5a11.144,11.144,0,0,1,3.045-3.006c.381-.272.8-.572,1.241-.836a8.257,8.257,0,0,0-2.785.8c-3.478,1.7-5.162,5.4-3.761,8.271s5.355,3.818,8.834,2.12a7.509,7.509,0,0,0,4.091-4.788A7.5,7.5,0,0,1,171.694,323.4Z" transform="translate(-160.765 -314.175)" fill="#b8e3fb" style="mix-blend-mode: multiply;isolation: isolate"/>
          </g>
          <g id="Grupo_1197867" data-name="Grupo 1197867" transform="translate(7.038 24.669)">
            <path id="Trazado_1009134" data-name="Trazado 1009134" d="M156.916,330.839c3.178-.306,6.055,2.566,6.431,6.418s-1.9,7.227-5.08,7.535-6.054-2.566-6.428-6.418S153.738,331.148,156.916,330.839Z" transform="translate(-151.798 -330.817)" fill="#de347c"/>
            <path id="Trazado_1009135" data-name="Trazado 1009135" d="M158.2,343.01c-4.522-2.079-4.086-8.591-1.5-12.139-3.062.437-5.225,3.74-4.86,7.506.373,3.852,3.251,6.725,6.428,6.418a5.026,5.026,0,0,0,2.88-1.293A5.925,5.925,0,0,1,158.2,343.01Z" transform="translate(-151.798 -330.821)" fill="#f3c0db" style="mix-blend-mode: multiply;isolation: isolate"/>
          </g>
          <g id="Grupo_1197868" data-name="Grupo 1197868" transform="translate(15.569 41.81)">
            <path id="Trazado_1009136" data-name="Trazado 1009136" d="M161.667,351.461c1.726-2.687,5.764-3.167,9.021-1.075s4.5,5.964,2.772,8.651-5.764,3.169-9.022,1.074S159.942,354.146,161.667,351.461Z" transform="translate(-160.889 -349.084)" fill="#7f66a8"/>
            <path id="Trazado_1009137" data-name="Trazado 1009137" d="M169.57,360.686a7.56,7.56,0,0,1-6.177-4.531,8.355,8.355,0,0,1-.3-6.065,4.875,4.875,0,0,0-1.43,1.433c-1.725,2.686-.485,6.558,2.771,8.65a7.2,7.2,0,0,0,7.21.589A11.122,11.122,0,0,1,169.57,360.686Z" transform="translate(-160.889 -349.146)" fill="#cda6cf" style="mix-blend-mode: multiply;isolation: isolate"/>
          </g>
          <g id="Grupo_1197869" data-name="Grupo 1197869" transform="translate(34.484 46.649)">
            <path id="Trazado_1009138" data-name="Trazado 1009138" d="M181.085,360.929c-.4-3.168,2.383-6.13,6.224-6.619s7.278,1.681,7.682,4.849-2.384,6.13-6.222,6.619S181.489,364.1,181.085,360.929Z" transform="translate(-181.047 -354.241)" fill="#003f8e"/>
            <path id="Trazado_1009139" data-name="Trazado 1009139" d="M194.724,358.315q-.183.387-.373.762c-.957,1.883-2.137,3.674-4.255,4.352a10.161,10.161,0,0,1-6.759-.243,4.887,4.887,0,0,1-2.208-1.772c.539,3.038,3.9,5.091,7.646,4.614,3.838-.489,6.624-3.453,6.222-6.619A4.842,4.842,0,0,0,194.724,358.315Z" transform="translate(-181.052 -354.492)" fill="#008fd2" style="mix-blend-mode: multiply;isolation: isolate"/>
          </g>
          <path id="Trazado_1009140" data-name="Trazado 1009140" d="M219.079,333.819a51.915,51.915,0,0,1-6.343,9.436,38.876,38.876,0,0,1-13.81,10.633c-6.412,2.8-14.052,4.738-21.044,3.44A25.558,25.558,0,0,1,161.6,346.65a26.558,26.558,0,0,1-.475-26.352,27.328,27.328,0,0,1,6.571-7.121c2.944-2.308,5.956-4.594,8.99-6.783.864-.625,1.747-1.209,2.649-1.76-19.7,1.8-35.038,15.8-35.038,32.8,0,18.221,17.617,32.994,39.349,32.994s39.164-11.572,39.164-29.792A7.343,7.343,0,0,0,219.079,333.819Z" transform="translate(-144.298 -304.535)" fill="#dfdfdf" style="mix-blend-mode: multiply;isolation: isolate"/>
        </g>
        <g id="Grupo_1197880" data-name="Grupo 1197880" transform="translate(187.015 201.788)">
          <g id="Grupo_1197879" data-name="Grupo 1197879" transform="translate(7.02 9.953)">
            <g id="Grupo_1197871" data-name="Grupo 1197871">
              <rect id="Rectángulo_461218" data-name="Rectángulo 461218" width="6.42" height="50.436" transform="translate(0 5.337)" fill="#de347c"/>
              <path id="Trazado_1009141" data-name="Trazado 1009141" d="M252.854,354.172c.113-4.163.043-8.256.043-12.419,0-4.929-.4-9.964-.675-14.886-.144-2.527-.368-5.048-.523-7.575a47.625,47.625,0,0,0-.709-6.641c-.315-1.559-.388-3.4-1.247-4.792a4.49,4.49,0,0,0-1.932-1.667v-2.455h6.419v50.436Z" transform="translate(-247.811 -298.399)" fill="#f2bcd8" style="mix-blend-mode: multiply;isolation: isolate"/>
              <path id="Trazado_1009142" data-name="Trazado 1009142" d="M247.81,303.385l3.21-5.337,3.2,5.337Z" transform="translate(-247.81 -298.048)" fill="#fde0d3"/>
              <path id="Trazado_1009143" data-name="Trazado 1009143" d="M252.883,303.385c-.155-1.8-.9-3.647-2.377-4.206l.68-1.132,3.2,5.337Z" transform="translate(-247.977 -298.048)" fill="#f9cbc4" style="mix-blend-mode: multiply;isolation: isolate"/>
              <path id="Trazado_1009144" data-name="Trazado 1009144" d="M250.19,299.673l.977-1.624.975,1.624Z" transform="translate(-247.957 -298.048)" fill="#de347c"/>
              <path id="Trazado_1009145" data-name="Trazado 1009145" d="M251.7,299.672a2.332,2.332,0,0,0-.133-.62,1.192,1.192,0,0,0-.558-.656l.208-.348.975,1.624Z" transform="translate(-248.008 -298.048)" fill="#f2bcd8" style="mix-blend-mode: multiply;isolation: isolate"/>
              <rect id="Rectángulo_461219" data-name="Rectángulo 461219" width="6.42" height="1.721" transform="translate(0 55.773)" fill="#003f8e"/>
              <path id="Trazado_1009146" data-name="Trazado 1009146" d="M252.683,359.2a1.464,1.464,0,0,0-.022-.253c-.129-.728-.827-.888-1.484-.89-1.123,0-2.245.059-3.366.074v-.652h6.419V359.2Z" transform="translate(-247.811 -301.711)" fill="#6496bc" style="mix-blend-mode: multiply;isolation: isolate"/>
            </g>
            <g id="Grupo_1197872" data-name="Grupo 1197872" transform="translate(6.412)">
              <rect id="Rectángulo_461220" data-name="Rectángulo 461220" width="6.42" height="50.436" transform="translate(0 5.337)" fill="#4da6df"/>
              <path id="Trazado_1009147" data-name="Trazado 1009147" d="M259.687,354.172c.114-4.163.043-8.256.043-12.419,0-4.929-.4-9.964-.674-14.886-.144-2.527-.369-5.048-.523-7.575a47.615,47.615,0,0,0-.709-6.641c-.316-1.559-.388-3.4-1.246-4.792a4.49,4.49,0,0,0-1.934-1.667v-2.455h6.42v50.436Z" transform="translate(-254.644 -298.399)" fill="#d4e3ec" style="mix-blend-mode: multiply;isolation: isolate"/>
              <path id="Trazado_1009148" data-name="Trazado 1009148" d="M254.644,303.385l3.21-5.337,3.2,5.337Z" transform="translate(-254.644 -298.048)" fill="#fde0d3"/>
              <path id="Trazado_1009149" data-name="Trazado 1009149" d="M259.718,303.385c-.156-1.8-.9-3.647-2.378-4.206l.68-1.132,3.2,5.337Z" transform="translate(-254.81 -298.048)" fill="#f9cbc4" style="mix-blend-mode: multiply;isolation: isolate"/>
              <path id="Trazado_1009150" data-name="Trazado 1009150" d="M257.024,299.673l.977-1.624.974,1.624Z" transform="translate(-254.791 -298.048)" fill="#4da6df"/>
              <path id="Trazado_1009151" data-name="Trazado 1009151" d="M258.535,299.672a2.3,2.3,0,0,0-.133-.62,1.192,1.192,0,0,0-.558-.656l.208-.348.975,1.624Z" transform="translate(-254.841 -298.048)" fill="#b6d7ea" style="mix-blend-mode: multiply;isolation: isolate"/>
              <rect id="Rectángulo_461221" data-name="Rectángulo 461221" width="6.42" height="1.721" transform="translate(0 55.773)" fill="#003f8e"/>
              <path id="Trazado_1009152" data-name="Trazado 1009152" d="M259.517,359.2a1.473,1.473,0,0,0-.022-.253c-.13-.728-.827-.888-1.485-.89-1.123,0-2.244.059-3.367.074v-.652h6.42V359.2Z" transform="translate(-254.644 -301.711)" fill="#6496bc" style="mix-blend-mode: multiply;isolation: isolate"/>
            </g>
            <g id="Grupo_1197873" data-name="Grupo 1197873" transform="translate(12.756)">
              <rect id="Rectángulo_461222" data-name="Rectángulo 461222" width="6.42" height="50.436" transform="translate(0 5.337)" fill="#7f66a8"/>
              <path id="Trazado_1009153" data-name="Trazado 1009153" d="M266.446,354.172c.114-4.163.044-8.256.044-12.419,0-4.929-.4-9.964-.674-14.886-.144-2.527-.369-5.048-.524-7.575a47.759,47.759,0,0,0-.709-6.641c-.315-1.559-.388-3.4-1.246-4.792a4.487,4.487,0,0,0-1.933-1.667v-2.455h6.42v50.436Z" transform="translate(-261.404 -298.399)" fill="#d0bed5" style="mix-blend-mode: multiply;isolation: isolate"/>
              <path id="Trazado_1009154" data-name="Trazado 1009154" d="M261.4,303.385l3.21-5.337,3.2,5.337Z" transform="translate(-261.404 -298.048)" fill="#fde0d3"/>
              <path id="Trazado_1009155" data-name="Trazado 1009155" d="M266.477,303.385c-.156-1.8-.9-3.647-2.377-4.206l.68-1.132,3.2,5.337Z" transform="translate(-261.57 -298.048)" fill="#f9cbc4" style="mix-blend-mode: multiply;isolation: isolate"/>
              <path id="Trazado_1009156" data-name="Trazado 1009156" d="M263.783,299.673l.978-1.624.974,1.624Z" transform="translate(-261.551 -298.048)" fill="#7f66a8"/>
              <path id="Trazado_1009157" data-name="Trazado 1009157" d="M265.294,299.672a2.372,2.372,0,0,0-.135-.62,1.181,1.181,0,0,0-.558-.656l.21-.348.974,1.624Z" transform="translate(-261.601 -298.048)" fill="#d0bed5" style="mix-blend-mode: multiply;isolation: isolate"/>
              <rect id="Rectángulo_461223" data-name="Rectángulo 461223" width="6.42" height="1.721" transform="translate(0 55.773)" fill="#003f8e"/>
              <path id="Trazado_1009158" data-name="Trazado 1009158" d="M266.276,359.2a1.381,1.381,0,0,0-.023-.253c-.128-.728-.826-.888-1.484-.89-1.122,0-2.243.059-3.366.074v-.652h6.42V359.2Z" transform="translate(-261.404 -301.711)" fill="#6496bc" style="mix-blend-mode: multiply;isolation: isolate"/>
            </g>
            <g id="Grupo_1197874" data-name="Grupo 1197874" transform="translate(19.169)">
              <rect id="Rectángulo_461224" data-name="Rectángulo 461224" width="6.42" height="50.436" transform="translate(0 5.337)" fill="#003f8e"/>
              <path id="Trazado_1009159" data-name="Trazado 1009159" d="M273.28,354.172c.114-4.163.044-8.256.043-12.419,0-4.929-.4-9.964-.674-14.886-.143-2.527-.368-5.048-.523-7.575a47.473,47.473,0,0,0-.709-6.641c-.315-1.559-.388-3.4-1.246-4.792a4.493,4.493,0,0,0-1.933-1.667v-2.455h6.42v50.436Z" transform="translate(-268.238 -298.399)" fill="#65a8c9" style="mix-blend-mode: multiply;isolation: isolate"/>
              <path id="Trazado_1009160" data-name="Trazado 1009160" d="M268.238,303.385l3.21-5.337,3.2,5.337Z" transform="translate(-268.238 -298.048)" fill="#fde0d3"/>
              <path id="Trazado_1009161" data-name="Trazado 1009161" d="M273.311,303.385c-.155-1.8-.9-3.647-2.377-4.206l.68-1.132,3.2,5.337Z" transform="translate(-268.404 -298.048)" fill="#f9cbc4" style="mix-blend-mode: multiply;isolation: isolate"/>
              <path id="Trazado_1009162" data-name="Trazado 1009162" d="M270.617,299.673l.978-1.624.974,1.624Z" transform="translate(-268.385 -298.048)" fill="#003f8e"/>
              <path id="Trazado_1009163" data-name="Trazado 1009163" d="M272.128,299.672a2.336,2.336,0,0,0-.134-.62,1.183,1.183,0,0,0-.557-.656l.209-.348.974,1.624Z" transform="translate(-268.435 -298.048)" fill="#65a8c9" style="mix-blend-mode: multiply;isolation: isolate"/>
              <rect id="Rectángulo_461225" data-name="Rectángulo 461225" width="6.42" height="1.721" transform="translate(0 55.773)" fill="#003f8e"/>
              <path id="Trazado_1009164" data-name="Trazado 1009164" d="M273.11,359.2a1.467,1.467,0,0,0-.022-.253c-.129-.728-.828-.888-1.484-.89-1.122,0-2.244.059-3.366.074v-.652h6.42V359.2Z" transform="translate(-268.238 -301.711)" fill="#6496bc" style="mix-blend-mode: multiply;isolation: isolate"/>
            </g>
            <g id="Grupo_1197875" data-name="Grupo 1197875" transform="translate(25.58)">
              <rect id="Rectángulo_461226" data-name="Rectángulo 461226" width="6.421" height="50.436" transform="translate(0 5.337)" fill="#ffc71f"/>
              <path id="Trazado_1009165" data-name="Trazado 1009165" d="M280.114,354.172c.113-4.163.044-8.256.044-12.419,0-4.929-.4-9.964-.675-14.886-.143-2.527-.368-5.048-.523-7.575a47.6,47.6,0,0,0-.709-6.641c-.315-1.559-.389-3.4-1.246-4.792a4.49,4.49,0,0,0-1.934-1.667v-2.455h6.421v50.436Z" transform="translate(-275.071 -298.399)" fill="#fdd8c4" style="mix-blend-mode: multiply;isolation: isolate"/>
              <path id="Trazado_1009166" data-name="Trazado 1009166" d="M275.071,303.385l3.21-5.337,3.2,5.337Z" transform="translate(-275.071 -298.048)" fill="#fde0d3"/>
              <path id="Trazado_1009167" data-name="Trazado 1009167" d="M280.145,303.385c-.156-1.8-.9-3.647-2.377-4.206l.679-1.132,3.2,5.337Z" transform="translate(-275.237 -298.048)" fill="#f9cbc4" style="mix-blend-mode: multiply;isolation: isolate"/>
              <path id="Trazado_1009168" data-name="Trazado 1009168" d="M277.451,299.673l.977-1.624.975,1.624Z" transform="translate(-275.218 -298.048)" fill="#ffc71f"/>
              <path id="Trazado_1009169" data-name="Trazado 1009169" d="M278.961,299.672a2.371,2.371,0,0,0-.133-.62,1.189,1.189,0,0,0-.559-.656l.209-.348.975,1.624Z" transform="translate(-275.268 -298.048)" fill="#fdd8c4" style="mix-blend-mode: multiply;isolation: isolate"/>
              <rect id="Rectángulo_461227" data-name="Rectángulo 461227" width="6.421" height="1.721" transform="translate(0 55.773)" fill="#003f8e"/>
              <path id="Trazado_1009170" data-name="Trazado 1009170" d="M279.944,359.2a1.384,1.384,0,0,0-.023-.253c-.128-.728-.826-.888-1.483-.89-1.123,0-2.245.059-3.368.074v-.652h6.421V359.2Z" transform="translate(-275.071 -301.711)" fill="#6496bc" style="mix-blend-mode: multiply;isolation: isolate"/>
            </g>
            <g id="Grupo_1197876" data-name="Grupo 1197876" transform="translate(31.994)">
              <rect id="Rectángulo_461228" data-name="Rectángulo 461228" width="6.42" height="50.436" transform="translate(0 5.337)" fill="#4da6df"/>
              <path id="Trazado_1009171" data-name="Trazado 1009171" d="M286.948,354.172c.114-4.163.044-8.256.044-12.419,0-4.929-.4-9.964-.676-14.886-.142-2.527-.367-5.048-.522-7.575a47.754,47.754,0,0,0-.709-6.641c-.316-1.559-.388-3.4-1.246-4.792a4.5,4.5,0,0,0-1.933-1.667v-2.455h6.42v50.436Z" transform="translate(-281.906 -298.399)" fill="#d4e3ec" style="mix-blend-mode: multiply;isolation: isolate"/>
              <path id="Trazado_1009172" data-name="Trazado 1009172" d="M281.906,303.385l3.21-5.337,3.2,5.337Z" transform="translate(-281.906 -298.048)" fill="#fde0d3"/>
              <path id="Trazado_1009173" data-name="Trazado 1009173" d="M286.979,303.385c-.156-1.8-.9-3.647-2.378-4.206l.681-1.132,3.2,5.337Z" transform="translate(-282.072 -298.048)" fill="#f9cbc4" style="mix-blend-mode: multiply;isolation: isolate"/>
              <path id="Trazado_1009174" data-name="Trazado 1009174" d="M284.285,299.673l.978-1.624.974,1.624Z" transform="translate(-282.053 -298.048)" fill="#4da6df"/>
              <path id="Trazado_1009175" data-name="Trazado 1009175" d="M285.8,299.672a2.334,2.334,0,0,0-.134-.62,1.187,1.187,0,0,0-.557-.656l.209-.348.974,1.624Z" transform="translate(-282.103 -298.048)" fill="#b6d7ea" style="mix-blend-mode: multiply;isolation: isolate"/>
              <rect id="Rectángulo_461229" data-name="Rectángulo 461229" width="6.42" height="1.721" transform="translate(0 55.773)" fill="#003f8e"/>
              <path id="Trazado_1009176" data-name="Trazado 1009176" d="M286.778,359.2a1.384,1.384,0,0,0-.023-.253c-.128-.728-.826-.888-1.484-.89-1.122,0-2.244.059-3.366.074v-.652h6.42V359.2Z" transform="translate(-281.906 -301.711)" fill="#6496bc" style="mix-blend-mode: multiply;isolation: isolate"/>
            </g>
            <g id="Grupo_1197877" data-name="Grupo 1197877" transform="translate(38.337)">
              <rect id="Rectángulo_461230" data-name="Rectángulo 461230" width="6.42" height="50.436" transform="translate(0 5.337)" fill="#7f66a8"/>
              <path id="Trazado_1009177" data-name="Trazado 1009177" d="M293.708,354.172c.113-4.163.044-8.256.043-12.419,0-4.929-.4-9.964-.675-14.886-.142-2.527-.367-5.048-.522-7.575a47.9,47.9,0,0,0-.709-6.641c-.316-1.559-.388-3.4-1.246-4.792a4.5,4.5,0,0,0-1.934-1.667v-2.455h6.42v50.436Z" transform="translate(-288.665 -298.399)" fill="#d0bed5" style="mix-blend-mode: multiply;isolation: isolate"/>
              <path id="Trazado_1009178" data-name="Trazado 1009178" d="M288.665,303.385l3.21-5.337,3.2,5.337Z" transform="translate(-288.665 -298.048)" fill="#fde0d3"/>
              <path id="Trazado_1009179" data-name="Trazado 1009179" d="M293.738,303.385c-.155-1.8-.9-3.647-2.378-4.206l.681-1.132,3.2,5.337Z" transform="translate(-288.831 -298.048)" fill="#f9cbc4" style="mix-blend-mode: multiply;isolation: isolate"/>
              <path id="Trazado_1009180" data-name="Trazado 1009180" d="M291.045,299.673l.977-1.624.975,1.624Z" transform="translate(-288.812 -298.048)" fill="#7f66a8"/>
              <path id="Trazado_1009181" data-name="Trazado 1009181" d="M292.556,299.672a2.413,2.413,0,0,0-.134-.62,1.188,1.188,0,0,0-.558-.656l.209-.348.975,1.624Z" transform="translate(-288.862 -298.048)" fill="#d0bed5" style="mix-blend-mode: multiply;isolation: isolate"/>
              <rect id="Rectángulo_461231" data-name="Rectángulo 461231" width="6.42" height="1.721" transform="translate(0 55.773)" fill="#003f8e"/>
              <path id="Trazado_1009182" data-name="Trazado 1009182" d="M293.537,359.2a1.47,1.47,0,0,0-.022-.253c-.129-.728-.827-.888-1.484-.89-1.123,0-2.245.059-3.367.074v-.652h6.42V359.2Z" transform="translate(-288.665 -301.711)" fill="#6496bc" style="mix-blend-mode: multiply;isolation: isolate"/>
            </g>
            <g id="Grupo_1197878" data-name="Grupo 1197878" transform="translate(44.749)">
              <rect id="Rectángulo_461232" data-name="Rectángulo 461232" width="6.42" height="50.436" transform="translate(0 5.337)" fill="#003f8e"/>
              <path id="Trazado_1009183" data-name="Trazado 1009183" d="M300.542,354.172c.113-4.163.043-8.256.042-12.419,0-4.929-.4-9.964-.675-14.886-.142-2.527-.366-5.048-.522-7.575a47.615,47.615,0,0,0-.709-6.641c-.315-1.559-.388-3.4-1.246-4.792a4.487,4.487,0,0,0-1.933-1.667v-2.455h6.42v50.436Z" transform="translate(-295.499 -298.399)" fill="#65a8c9" style="mix-blend-mode: multiply;isolation: isolate"/>
              <path id="Trazado_1009184" data-name="Trazado 1009184" d="M295.5,303.385l3.21-5.337,3.2,5.337Z" transform="translate(-295.499 -298.048)" fill="#fde0d3"/>
              <path id="Trazado_1009185" data-name="Trazado 1009185" d="M300.573,303.385c-.156-1.8-.9-3.647-2.379-4.206l.681-1.132,3.2,5.337Z" transform="translate(-295.665 -298.048)" fill="#f9cbc4" style="mix-blend-mode: multiply;isolation: isolate"/>
              <path id="Trazado_1009186" data-name="Trazado 1009186" d="M297.879,299.673l.977-1.624.975,1.624Z" transform="translate(-295.646 -298.048)" fill="#003f8e"/>
              <path id="Trazado_1009187" data-name="Trazado 1009187" d="M299.389,299.672a2.3,2.3,0,0,0-.134-.62,1.18,1.18,0,0,0-.557-.656l.209-.348.975,1.624Z" transform="translate(-295.696 -298.048)" fill="#65a8c9" style="mix-blend-mode: multiply;isolation: isolate"/>
              <rect id="Rectángulo_461233" data-name="Rectángulo 461233" width="6.42" height="1.721" transform="translate(0 55.773)" fill="#003f8e"/>
              <path id="Trazado_1009188" data-name="Trazado 1009188" d="M300.371,359.2a1.376,1.376,0,0,0-.022-.253c-.129-.728-.827-.888-1.484-.89-1.122,0-2.244.059-3.366.074v-.652h6.42V359.2Z" transform="translate(-295.499 -301.711)" fill="#6496bc" style="mix-blend-mode: multiply;isolation: isolate"/>
            </g>
          </g>
          <path id="Trazado_1009189" data-name="Trazado 1009189" d="M240.329,287.441V363.1h65.11v-75.66Zm57.4,31.822H248.041V294.969h49.685Z" transform="translate(-240.329 -287.441)" fill="#5759a1"/>
          <rect id="Rectángulo_461234" data-name="Rectángulo 461234" width="44.537" height="24.724" transform="translate(10.286 40.372)" fill="#fde0d3"/>
          <path id="Trazado_1009190" data-name="Trazado 1009190" d="M286.636,330.465a30.93,30.93,0,0,1-1.008,8.983,9.331,9.331,0,0,1-6.645,6.322c-3.771,1.108-7.741.986-11.63.986H251.291v8.433h44.537V330.465Z" transform="translate(-241.005 -290.093)" fill="#feeee6" style="mix-blend-mode: multiply;isolation: isolate"/>
          <path id="Trazado_1009191" data-name="Trazado 1009191" d="M291.642,287.441q-.045,1.969-.1,3.937-.048,1.795-.1,3.59h6.285v24.294h-6.933q-.027,1.764-.045,3.529c-.039,4.15.205,8.263.263,12.407.045,3.251,0,7.037-2,9.783-1.786,2.459-5.115,3.26-7.951,3.651a90.26,90.26,0,0,1-11.418.552c-9.777.09-19.542-.643-29.317-.516V363.1h65.11v-75.66Z" transform="translate(-240.329 -287.441)" fill="#d4cfe1" style="mix-blend-mode: multiply;isolation: isolate"/>
        </g>
        <g id="Grupo_1197882" data-name="Grupo 1197882" transform="translate(46.692 178.45)">
          <g id="Grupo_1197881" data-name="Grupo 1197881">
            <rect id="Rectángulo_461235" data-name="Rectángulo 461235" width="7.939" height="16.931" transform="translate(20.993 47.778)" fill="#4da6df"/>
            <path id="Trazado_1009192" data-name="Trazado 1009192" d="M141.237,287.792a25.223,25.223,0,1,1-25.223-25.222A25.223,25.223,0,0,1,141.237,287.792Z" transform="translate(-90.79 -262.57)" fill="#003f8e"/>
            <path id="Trazado_1009193" data-name="Trazado 1009193" d="M136.035,288.158A19.656,19.656,0,1,1,116.379,268.5,19.655,19.655,0,0,1,136.035,288.158Z" transform="translate(-91.156 -262.936)" fill="#4da6df"/>
          </g>
          <rect id="Rectángulo_461236" data-name="Rectángulo 461236" width="9.178" height="44.623" transform="translate(20.411 53.678)" fill="#de347c"/>
        </g>
      </g>
      <path id="Trazado_1009194" data-name="Trazado 1009194" d="M158.929,86a13.5,13.5,0,0,0,.2-2.322c0-6.585-4.728-11.977-10.726-12.458a9.031,9.031,0,0,0-8.473-6.541,8.358,8.358,0,0,0-2.716.453,11.685,11.685,0,0,0-10.907-8.24,11.523,11.523,0,0,0-10.276,6.7,8.385,8.385,0,0,0-3.946-.987,8.812,8.812,0,0,0-7.57,4.5,10.8,10.8,0,0,0-5.771-1.678c-5.828,0-10.639,4.682-11.38,10.745-4.728.416-8.452,4.64-8.527,9.822Z" transform="translate(-32.994 -56.89)" fill="#abddf9"/>
      <path id="Trazado_1009195" data-name="Trazado 1009195" d="M351.994,101.507a13.586,13.586,0,0,0,.2-2.322c0-6.585-4.728-11.977-10.727-12.458A9.03,9.03,0,0,0,333,80.187a8.353,8.353,0,0,0-2.716.453,11.685,11.685,0,0,0-10.908-8.24A11.52,11.52,0,0,0,309.1,79.1a8.385,8.385,0,0,0-3.946-.987,8.811,8.811,0,0,0-7.57,4.5,10.809,10.809,0,0,0-5.771-1.677c-5.828,0-10.64,4.682-11.381,10.745-4.728.416-8.452,4.64-8.527,9.822Z" transform="translate(-44.893 -57.846)" fill="#abddf9"/>
    </g>
  </g>
</svg>
