<svg xmlns="http://www.w3.org/2000/svg" xmlns:xlink="http://www.w3.org/1999/xlink" width="118.117" height="118.117" viewBox="0 0 118.117 118.117">
  <defs>
    <linearGradient id="linear-gradient" x1="0.646" y1="0.596" x2="0.413" y2="-0.579" gradientUnits="objectBoundingBox">
      <stop offset="0" stop-color="#045e61"/>
      <stop offset="1" stop-color="#3ef989"/>
    </linearGradient>
  </defs>
  <g id="Grupo_1197966" data-name="Grupo 1197966" transform="translate(-320.883 -3638.929)">
    <g id="Grupo_1197934" data-name="Grupo 1197934">
      <g id="Grupo_1192986" data-name="Grupo 1192986" transform="translate(320.883 3638.929)">
        <g id="Trazado_995327" data-name="Trazado 995327" transform="translate(0)" fill="#fff">
          <path d="M 59.05859375 116.1171951293945 C 51.35486221313477 116.1171951293945 43.88261032104492 114.6088409423828 36.84942626953125 111.6340637207031 C 33.46891021728516 110.2042236328125 30.20824432373047 108.4343566894531 27.15799331665039 106.3736572265625 C 24.13620948791504 104.3321914672852 21.29459381103516 101.9876251220703 18.71207618713379 99.40511322021484 C 16.12957763671875 96.82259368896484 13.78501033782959 93.98097991943359 11.74354362487793 90.95919036865234 C 9.682826995849609 87.90895843505859 7.91297721862793 84.64827728271484 6.48314380645752 81.26776123046875 C 3.508343696594238 74.23457336425781 2.00001049041748 66.7623291015625 2.00001049041748 59.05859375 C 2.00001049041748 51.35486221313477 3.508343696594238 43.88261032104492 6.48314380645752 36.84942626953125 C 7.91297721862793 33.46891021728516 9.682826995849609 30.20824432373047 11.74354362487793 27.15799331665039 C 13.78501033782959 24.13620948791504 16.12957763671875 21.29459381103516 18.71207618713379 18.71207618713379 C 21.29459381103516 16.12957763671875 24.13620948791504 13.78501033782959 27.15799331665039 11.74354362487793 C 30.20824432373047 9.682826995849609 33.46891021728516 7.91297721862793 36.84942626953125 6.48314380645752 C 43.88261032104492 3.508343696594238 51.35486221313477 2.00001049041748 59.05859375 2.00001049041748 C 66.7623291015625 2.00001049041748 74.23457336425781 3.508343696594238 81.26776123046875 6.48314380645752 C 84.64827728271484 7.91297721862793 87.90895843505859 9.682826995849609 90.95919036865234 11.74354362487793 C 93.98097991943359 13.78501033782959 96.82259368896484 16.12957763671875 99.40511322021484 18.71207618713379 C 101.9876251220703 21.29459381103516 104.3321914672852 24.13620948791504 106.3736572265625 27.15799331665039 C 108.4343566894531 30.20824432373047 110.2042236328125 33.46891021728516 111.6340637207031 36.84942626953125 C 114.6088409423828 43.88261032104492 116.1171951293945 51.35486221313477 116.1171951293945 59.05859375 C 116.1171951293945 66.7623291015625 114.6088409423828 74.23457336425781 111.6340637207031 81.26776123046875 C 110.2042236328125 84.64827728271484 108.4343566894531 87.90895843505859 106.3736572265625 90.95919036865234 C 104.3321914672852 93.98097991943359 101.9876251220703 96.82259368896484 99.40511322021484 99.40511322021484 C 96.82259368896484 101.9876251220703 93.98097991943359 104.3321914672852 90.95919036865234 106.3736572265625 C 87.90895843505859 108.4343566894531 84.64827728271484 110.2042236328125 81.26776123046875 111.6340637207031 C 74.23457336425781 114.6088409423828 66.7623291015625 116.1171951293945 59.05859375 116.1171951293945 Z" stroke="none"/>
          <path d="M 59.05859375 3.999992370605469 C 51.62397766113281 3.999992370605469 44.41384887695312 5.455177307128906 37.62852478027344 8.325119018554688 C 34.36693572998047 9.704666137695312 31.22083282470703 11.41236114501953 28.27759552001953 13.40077209472656 C 25.36128234863281 15.37099456787109 22.61879730224609 17.63377380371094 20.12628173828125 20.12628173828125 C 17.63377380371094 22.61879730224609 15.37099456787109 25.36128234863281 13.40077209472656 28.27759552001953 C 11.41236114501953 31.22083282470703 9.704666137695312 34.36693572998047 8.325119018554688 37.62852478027344 C 5.455177307128906 44.41384887695312 3.999992370605469 51.62397766113281 3.999992370605469 59.05859375 C 3.999992370605469 66.49320983886719 5.455177307128906 73.70333862304688 8.325119018554688 80.48866271972656 C 9.704666137695312 83.750244140625 11.41236114501953 86.89635467529297 13.40077209472656 89.83959197998047 C 15.37099456787109 92.75590515136719 17.63377380371094 95.49839782714844 20.12628173828125 97.99090576171875 C 22.61879730224609 100.4834136962891 25.36128234863281 102.7461929321289 28.27759552001953 104.7164154052734 C 31.22083282470703 106.704833984375 34.36693572998047 108.4125213623047 37.62852478027344 109.7920684814453 C 44.41384887695312 112.6620101928711 51.62397766113281 114.1171951293945 59.05859375 114.1171951293945 C 66.49320983886719 114.1171951293945 73.70333862304688 112.6620101928711 80.48866271972656 109.7920684814453 C 83.750244140625 108.4125213623047 86.89635467529297 106.704833984375 89.83959197998047 104.7164154052734 C 92.75590515136719 102.7461929321289 95.49839782714844 100.4834136962891 97.99090576171875 97.99090576171875 C 100.4834136962891 95.49839782714844 102.7461929321289 92.75590515136719 104.7164154052734 89.83959197998047 C 106.704833984375 86.89635467529297 108.4125213623047 83.750244140625 109.7920684814453 80.48866271972656 C 112.6620101928711 73.70333862304688 114.1171951293945 66.49320983886719 114.1171951293945 59.05859375 C 114.1171951293945 51.62397766113281 112.6620101928711 44.41384887695312 109.7920684814453 37.62852478027344 C 108.4125213623047 34.36693572998047 106.704833984375 31.22083282470703 104.7164154052734 28.27759552001953 C 102.7461929321289 25.36128234863281 100.4834136962891 22.61879730224609 97.99090576171875 20.12628173828125 C 95.49839782714844 17.63377380371094 92.75590515136719 15.37099456787109 89.83959197998047 13.40077209472656 C 86.89635467529297 11.41236114501953 83.750244140625 9.704666137695312 80.48866271972656 8.325119018554688 C 73.70333862304688 5.455177307128906 66.49320983886719 3.999992370605469 59.05859375 3.999992370605469 M 59.05859375 -7.62939453125e-06 C 91.67575836181641 -7.62939453125e-06 118.1171951293945 26.44142913818359 118.1171951293945 59.05859375 C 118.1171951293945 91.67575836181641 91.67575836181641 118.1171951293945 59.05859375 118.1171951293945 C 26.44142913818359 118.1171951293945 -7.62939453125e-06 91.67575836181641 -7.62939453125e-06 59.05859375 C -7.62939453125e-06 26.44142913818359 26.44142913818359 -7.62939453125e-06 59.05859375 -7.62939453125e-06 Z" stroke="none" fill="#53159b"/>
        </g>
      </g>
      <g id="Grupo_1197803" data-name="Grupo 1197803" transform="translate(258.261 3607.674)">
        <path id="Trazado_1008983" data-name="Trazado 1008983" d="M114.329,112.073h-1.247q-11.524,0-23.048,0c-2.674,0-3.937-1.275-3.938-3.968q0-22.353,0-44.705c0-2.764,1.229-3.991,3.993-3.993q6.557,0,13.113,0h1.215c0-1.013,0-1.959,0-2.905.008-1.324.337-1.674,1.618-1.675q19.074-.005,38.149,0c1.349,0,1.589.26,1.6,1.655.007.861.01,1.721.019,2.582a1.622,1.622,0,0,0,.087.3c.309.014.657.042,1,.042,2.285,0,4.57-.013,6.855.008a3.3,3.3,0,0,1,3.507,3.473q.017,22.849,0,45.7c0,2.15-1.445,3.485-3.712,3.487q-11.623.013-23.247,0h-1.26c.483,1.475.916,2.87,1.416,4.242.063.174.464.293.719.316a22.25,22.25,0,0,1,2.854.2,3.157,3.157,0,0,1,2.549,3.228c.028,1.39.016,2.782.009,4.172-.007,1.292-.28,1.567-1.583,1.568q-10.58.007-21.16,0c-1.854,0-3.709.007-5.563,0-1.189-.007-1.49-.3-1.5-1.448-.013-1.391-.019-2.782,0-4.172a3.431,3.431,0,0,1,3.5-3.532c.066,0,.132,0,.2,0,2.386-.033,2.385-.033,3.1-2.277C113.815,113.646,114.051,112.928,114.329,112.073ZM107.9,74.856c3.87-2.174,6.613-2.342,9.343-.343,3.531,2.585,3.884,6.118,2.665,10.046,2.3.7,3.26,2.229,2.817,4.555h20.731v-32H106.77v1.141c0,4.769.033,9.539-.026,14.307A2.305,2.305,0,0,0,107.9,74.856Zm42.448-8.625c-1.182,0-2.3.057-3.415-.018-.907-.061-1.171.222-1.166,1.148.038,7.386.022,14.771.021,22.157,0,1.758-.154,1.908-1.947,1.908q-12.469,0-24.939-.012a1.255,1.255,0,0,0-1.333.813,12.25,12.25,0,0,1-2.133,2.936,1.834,1.834,0,0,0-.573,2.012c1.131,0,2.282-.025,3.431,0a6.733,6.733,0,0,1,6.4,4.635,20.994,20.994,0,0,1,.574,3.3h25.078ZM95.2,105.137a4.243,4.243,0,0,0,.044-.528,7.031,7.031,0,0,1,7.659-7.446c.88.04,1.763.006,2.613.006a1.973,1.973,0,0,0-.688-2.111,6.23,6.23,0,0,1-1.768-2.341c-.417-1.138-1.053-1.331-2.122-1.32A3.251,3.251,0,0,1,97.6,87.8c.116-1.857,1.311-2.782,3.03-3.254a15.7,15.7,0,0,1-.48-2.431,32.349,32.349,0,0,1,.019-5.211c.287-2.368,1.877-3.6,4.206-3.84V66.3H93.032v38.841Zm27.648,4.593c0-2.021.074-3.942-.018-5.854a4.52,4.52,0,0,0-4.623-4.367c-.959-.016-1.922-.047-2.877.021a1.208,1.208,0,0,0-.876.529,4.617,4.617,0,0,1-8.542-.049.975.975,0,0,0-.706-.481,36.3,36.3,0,0,0-3.671.02,4.315,4.315,0,0,0-3.872,3.684c-.141,2.136-.033,4.288-.033,6.5Zm2.327-2.228v2.293h1.052q13.461,0,26.922,0c1.609,0,1.876-.279,1.877-1.94q0-13.809,0-27.617,0-8.394,0-16.789c0-1.46-.351-1.8-1.829-1.806-1.325,0-2.649,0-3.974,0h-3.369V63.98c1.719,0,3.371,0,5.022,0,1.555,0,1.8.243,1.8,1.763q0,19.968,0,39.936c0,1.559-.27,1.822-1.866,1.823h-25.64ZM104.383,61.641h-14c-1.792,0-2.048.261-2.048,2.085q0,21.561,0,43.121c0,2.948,0,2.948,2.957,2.948h3.9V107.5c-.979,0-1.9,0-2.822,0-1.377-.008-1.689-.315-1.689-1.7q0-20.07,0-40.141c0-1.407.275-1.678,1.687-1.68q5.464-.006,10.929,0h1.087Zm29.957,61.9c0-.991,0-1.877,0-2.763-.006-1.518-.276-1.79-1.793-1.79q-8.286,0-16.571,0c-1.852,0-3.7.01-5.557,0-.673,0-1.272.2-1.324.906-.089,1.2-.025,2.416-.025,3.653ZM104.435,85.6c0,1.378-.078,2.64.015,3.889a5.737,5.737,0,0,0,11.465-.409c.014-1.092.021-2.186-.009-3.278a1.327,1.327,0,0,0-.269-.888c-1.129-.959-2.309-1.86-3.585-2.871C110.522,85.384,107.319,85.054,104.435,85.6Zm-1.616-2.085c1.807-.28,3.54-.5,5.251-.831a2.528,2.528,0,0,0,2.066-2.261c.285-1.689,1.035-1.995,2.391-.938.573.447,1.135.908,1.7,1.359q1.69,1.339,3.384,2.675l.334-.059a17.845,17.845,0,0,0,.271-2.964,5.354,5.354,0,0,0-8.787-3.806c-1.655,1.359-1.638,1.38-3.194-.167-.094-.093-.2-.179-.282-.278a2,2,0,0,0-2.215-.721,2.069,2.069,0,0,0-1.37,1.793A12.6,12.6,0,0,0,102.818,83.515Zm13.951,28.558-1.5,4.5H128.1c-.471-1.4-.889-2.72-1.375-4.013a.927.927,0,0,0-.7-.467C122.979,112.063,119.934,112.073,116.77,112.073Zm-8.8-15.014c-.109,1.216-.239,2.458,1.045,3.219a2.146,2.146,0,0,0,2.5-.1c1.122-.822,1.087-1.985.943-3.117ZM102.127,86.9c-.8-.071-1.609-.26-2.059.552a1.371,1.371,0,0,0,.015,1.16c.47.788,1.266.6,2.045.523Zm16.182,2.61a10.671,10.671,0,0,0,2.019-.967,1.179,1.179,0,0,0-.049-1.129,9.667,9.667,0,0,0-1.97-.789Z" transform="translate(0)" fill="url(#linear-gradient)"/>
        <path id="Trazado_1008984" data-name="Trazado 1008984" d="M290.445,160.614c-2.184,0-4.368.007-6.553,0-1.172-.005-1.539-.367-1.542-1.548q-.015-5.312,0-10.623c0-1.144.413-1.542,1.571-1.545q6.5-.012,13.006,0c1.148,0,1.493.344,1.5,1.474q.014,5.411,0,10.822c0,1.106-.314,1.411-1.426,1.418C294.814,160.623,292.63,160.614,290.445,160.614Zm-5.7-11.36v9.039H296.13v-9.039Z" transform="translate(-157.248 -73.77)" fill="url(#linear-gradient)"/>
        <path id="Trazado_1008985" data-name="Trazado 1008985" d="M274.246,97.2a7.26,7.26,0,0,0-4.181.767,4.037,4.037,0,0,1-3.9-.268,5.6,5.6,0,0,0-1.744-.48c-.584-.081-1.19.01-1.783-.029a3.455,3.455,0,0,1,.09-6.909c.429-.02.86-.02,1.29-.005a3.937,3.937,0,0,0,2.336-.552,4.28,4.28,0,0,1,4.441.047,4.4,4.4,0,0,0,1.741.48c1.286.072,2.579,0,3.868.029a3.459,3.459,0,1,1,.022,6.917C275.7,97.218,274.974,97.2,274.246,97.2Zm-5.767-5.732a2.214,2.214,0,0,0-2.274,2.243,2.28,2.28,0,0,0,2.227,2.316,2.3,2.3,0,0,0,2.335-2.316A2.244,2.244,0,0,0,268.479,91.466Zm4.562,3.372a30.539,30.539,0,0,0,3.612-.052,1.519,1.519,0,0,0,.956-1.1c.034-.315-.562-.967-.929-1.007a33.926,33.926,0,0,0-3.639-.049Zm-9.122-2.2c-.787.052-1.674-.348-2.14.561-.159.311-.117,1.058.066,1.151a11.356,11.356,0,0,0,2.074.645Z" transform="translate(-138.757 -27.483)" fill="url(#linear-gradient)"/>
        <path id="Trazado_1008986" data-name="Trazado 1008986" d="M210.611,90.353h-2.322V85.9H203.71V90.35h-2.354c.2-2.719-.51-5.44.883-8.006a29.656,29.656,0,0,0,1.449-3.579,1.286,1.286,0,0,1,1.365-.908c3.321.046,2.678-.38,3.868,2.488.506,1.22,1.03,2.435,1.46,3.682a5.78,5.78,0,0,1,.22,1.748C210.63,87.259,210.611,88.745,210.611,90.353Zm-6.339-6.836h3.434c-.438-1.107-.807-2.126-1.269-3.1-.063-.132-.828-.146-.88-.034C205.086,81.385,204.7,82.428,204.272,83.517Z" transform="translate(-92.348 -18.456)" fill="url(#linear-gradient)"/>
      </g>
    </g>
  </g>
</svg>
